<?xml version="1.0" encoding="UTF-8" standalone="no"?>
<!DOCTYPE svg PUBLIC "-//W3C//DTD SVG 1.1//EN"
 "http://www.w3.org/Graphics/SVG/1.1/DTD/svg11.dtd">
<!-- Generated by graphviz version 12.2.1 (20241206.2353)
 -->
<!-- Title: Source/Slash/Public/Components/AttributeComponent.h Pages: 1 -->
<svg width="437pt" height="96pt"
 viewBox="0.00 0.00 437.00 96.00" xmlns="http://www.w3.org/2000/svg" xmlns:xlink="http://www.w3.org/1999/xlink">
<g id="graph0" class="graph" transform="scale(1 1) rotate(0) translate(4 92)">
<title>Source/Slash/Public/Components/AttributeComponent.h</title>
<!-- Node1 -->
<g id="Node000001" class="node">
<title>Node1</title>
<g id="a_Node000001"><a xlink:title=" ">
<polygon fill="#999999" stroke="#666666" points="261.88,-88 89.12,-88 89.12,-56 261.88,-56 261.88,-88"/>
<text text-anchor="start" x="97.12" y="-74.5" font-family="Helvetica,sans-Serif" font-size="10.00">Source/Slash/Public</text>
<text text-anchor="middle" x="175.5" y="-62.5" font-family="Helvetica,sans-Serif" font-size="10.00">/Components/AttributeComponent.h</text>
</a>
</g>
</g>
<!-- Node2 -->
<g id="Node000002" class="node">
<title>Node2</title>
<g id="a_Node000002"><a xlink:title=" ">
<polygon fill="#e0e0e0" stroke="#999999" points="79,-20 0,-20 0,0 79,0 79,-20"/>
<text text-anchor="middle" x="39.5" y="-6.5" font-family="Helvetica,sans-Serif" font-size="10.00">CoreMinimal.h</text>
</a>
</g>
</g>
<!-- Node1&#45;&gt;Node2 -->
<g id="edge1_Node000001_Node000002" class="edge">
<title>Node1&#45;&gt;Node2</title>
<g id="a_edge1_Node000001_Node000002"><a xlink:title=" ">
<path fill="none" stroke="#63b8ff" d="M140.48,-55.55C119.13,-46.13 92.06,-34.19 71.32,-25.04"/>
<polygon fill="#63b8ff" stroke="#63b8ff" points="72.77,-21.85 62.21,-21.02 69.95,-28.26 72.77,-21.85"/>
</a>
</g>
</g>
<!-- Node3 -->
<g id="Node000003" class="node">
<title>Node3</title>
<g id="a_Node000003"><a xlink:title=" ">
<polygon fill="#e0e0e0" stroke="#999999" points="253.62,-20 97.38,-20 97.38,0 253.62,0 253.62,-20"/>
<text text-anchor="middle" x="175.5" y="-6.5" font-family="Helvetica,sans-Serif" font-size="10.00">Components/ActorComponent.h</text>
</a>
</g>
</g>
<!-- Node1&#45;&gt;Node3 -->
<g id="edge2_Node000001_Node000003" class="edge">
<title>Node1&#45;&gt;Node3</title>
<g id="a_edge2_Node000001_Node000003"><a xlink:title=" ">
<path fill="none" stroke="#63b8ff" d="M175.5,-55.55C175.5,-48.34 175.5,-39.66 175.5,-31.88"/>
<polygon fill="#63b8ff" stroke="#63b8ff" points="179,-31.92 175.5,-21.92 172,-31.92 179,-31.92"/>
</a>
</g>
</g>
<!-- Node4 -->
<g id="Node000004" class="node">
<title>Node4</title>
<g id="a_Node000004"><a xlink:title=" ">
<polygon fill="#e0e0e0" stroke="#999999" points="429,-20 272,-20 272,0 429,0 429,-20"/>
<text text-anchor="middle" x="350.5" y="-6.5" font-family="Helvetica,sans-Serif" font-size="10.00">AttributeComponent.generated.h</text>
</a>
</g>
</g>
<!-- Node1&#45;&gt;Node4 -->
<g id="edge3_Node000001_Node000004" class="edge">
<title>Node1&#45;&gt;Node4</title>
<g id="a_edge3_Node000001_Node000004"><a xlink:title=" ">
<path fill="none" stroke="#63b8ff" d="M220.57,-55.55C248.96,-45.81 285.22,-33.38 312.22,-24.13"/>
<polygon fill="#63b8ff" stroke="#63b8ff" points="313.05,-27.54 321.37,-20.99 310.78,-20.92 313.05,-27.54"/>
</a>
</g>
</g>
</g>
</svg>
