<?xml version="1.0" encoding="UTF-8" standalone="no"?>
<!DOCTYPE svg PUBLIC "-//W3C//DTD SVG 1.1//EN"
 "http://www.w3.org/Graphics/SVG/1.1/DTD/svg11.dtd">
<!-- Generated by graphviz version 12.2.1 (20241206.2353)
 -->
<!-- Title: Source/Slash/Public/Components/AttributeComponent.h Pages: 1 -->
<svg width="664pt" height="108pt"
 viewBox="0.00 0.00 664.12 108.00" xmlns="http://www.w3.org/2000/svg" xmlns:xlink="http://www.w3.org/1999/xlink">
<g id="graph0" class="graph" transform="scale(1 1) rotate(0) translate(4 104)">
<title>Source/Slash/Public/Components/AttributeComponent.h</title>
<!-- Node1 -->
<g id="Node000001" class="node">
<title>Node1</title>
<g id="a_Node000001"><a xlink:title=" ">
<polygon fill="#999999" stroke="#666666" points="430.38,-100 257.62,-100 257.62,-68 430.38,-68 430.38,-100"/>
<text text-anchor="start" x="265.62" y="-86.5" font-family="Helvetica,sans-Serif" font-size="10.00">Source/Slash/Public</text>
<text text-anchor="middle" x="344" y="-74.5" font-family="Helvetica,sans-Serif" font-size="10.00">/Components/AttributeComponent.h</text>
</a>
</g>
</g>
<!-- Node2 -->
<g id="Node000002" class="node">
<title>Node2</title>
<g id="a_Node000002"><a xlink:href="_base_character_8cpp.html" target="_top" xlink:title=" ">
<polygon fill="white" stroke="#666666" points="154,-32 0,-32 0,0 154,0 154,-32"/>
<text text-anchor="start" x="8" y="-18.5" font-family="Helvetica,sans-Serif" font-size="10.00">Source/Slash/Private</text>
<text text-anchor="middle" x="77" y="-6.5" font-family="Helvetica,sans-Serif" font-size="10.00">/Characters/BaseCharacter.cpp</text>
</a>
</g>
</g>
<!-- Node1&#45;&gt;Node2 -->
<g id="edge1_Node000001_Node000002" class="edge">
<title>Node1&#45;&gt;Node2</title>
<g id="a_edge1_Node000001_Node000002"><a xlink:title=" ">
<path fill="none" stroke="#63b8ff" d="M270.37,-64.8C229.34,-54.66 178.79,-42.16 139.67,-32.49"/>
<polygon fill="#63b8ff" stroke="#63b8ff" points="269.38,-68.16 279.93,-67.16 271.06,-61.37 269.38,-68.16"/>
</a>
</g>
</g>
<!-- Node3 -->
<g id="Node000003" class="node">
<title>Node3</title>
<g id="a_Node000003"><a xlink:href="_slash_character_8cpp.html" target="_top" xlink:title=" ">
<polygon fill="white" stroke="#666666" points="328.12,-32 171.88,-32 171.88,0 328.12,0 328.12,-32"/>
<text text-anchor="start" x="179.88" y="-18.5" font-family="Helvetica,sans-Serif" font-size="10.00">Source/Slash/Private</text>
<text text-anchor="middle" x="250" y="-6.5" font-family="Helvetica,sans-Serif" font-size="10.00">/Characters/SlashCharacter.cpp</text>
</a>
</g>
</g>
<!-- Node1&#45;&gt;Node3 -->
<g id="edge2_Node000001_Node000003" class="edge">
<title>Node1&#45;&gt;Node3</title>
<g id="a_edge2_Node000001_Node000003"><a xlink:title=" ">
<path fill="none" stroke="#63b8ff" d="M312.87,-61.15C299.5,-51.75 284.18,-41 272.01,-32.45"/>
<polygon fill="#63b8ff" stroke="#63b8ff" points="310.76,-63.94 320.96,-66.82 314.79,-58.21 310.76,-63.94"/>
</a>
</g>
</g>
<!-- Node4 -->
<g id="Node000004" class="node">
<title>Node4</title>
<g id="a_Node000004"><a xlink:href="_attribute_component_8cpp.html" target="_top" xlink:title=" ">
<polygon fill="white" stroke="#666666" points="529.62,-32 346.38,-32 346.38,0 529.62,0 529.62,-32"/>
<text text-anchor="start" x="354.38" y="-18.5" font-family="Helvetica,sans-Serif" font-size="10.00">Source/Slash/Private</text>
<text text-anchor="middle" x="438" y="-6.5" font-family="Helvetica,sans-Serif" font-size="10.00">/Components/AttributeComponent.cpp</text>
</a>
</g>
</g>
<!-- Node1&#45;&gt;Node4 -->
<g id="edge3_Node000001_Node000004" class="edge">
<title>Node1&#45;&gt;Node4</title>
<g id="a_edge3_Node000001_Node000004"><a xlink:title=" ">
<path fill="none" stroke="#63b8ff" d="M375.13,-61.15C388.5,-51.75 403.82,-41 415.99,-32.45"/>
<polygon fill="#63b8ff" stroke="#63b8ff" points="373.21,-58.21 367.04,-66.82 377.24,-63.94 373.21,-58.21"/>
</a>
</g>
</g>
<!-- Node5 -->
<g id="Node000005" class="node">
<title>Node5</title>
<g id="a_Node000005"><a xlink:href="_enemy_8cpp.html" target="_top" xlink:title=" ">
<polygon fill="white" stroke="#666666" points="656.12,-32 547.88,-32 547.88,0 656.12,0 656.12,-32"/>
<text text-anchor="start" x="555.88" y="-18.5" font-family="Helvetica,sans-Serif" font-size="10.00">Source/Slash/Private</text>
<text text-anchor="middle" x="602" y="-6.5" font-family="Helvetica,sans-Serif" font-size="10.00">/Enemy/Enemy.cpp</text>
</a>
</g>
</g>
<!-- Node1&#45;&gt;Node5 -->
<g id="edge4_Node000001_Node000005" class="edge">
<title>Node1&#45;&gt;Node5</title>
<g id="a_edge4_Node000001_Node000005"><a xlink:title=" ">
<path fill="none" stroke="#63b8ff" d="M415.43,-64.73C457.22,-54.04 509.14,-40.75 547.6,-30.92"/>
<polygon fill="#63b8ff" stroke="#63b8ff" points="414.78,-61.28 405.96,-67.15 416.51,-68.06 414.78,-61.28"/>
</a>
</g>
</g>
</g>
</svg>
