<?xml version="1.0" encoding="UTF-8" standalone="no"?>
<!DOCTYPE svg PUBLIC "-//W3C//DTD SVG 1.1//EN"
 "http://www.w3.org/Graphics/SVG/1.1/DTD/svg11.dtd">
<!-- Generated by graphviz version 12.2.1 (20241206.2353)
 -->
<!-- Title: Source/Slash/Public/Characters/BaseCharacter.h Pages: 1 -->
<svg width="459pt" height="152pt"
 viewBox="0.00 0.00 458.91 152.00" xmlns="http://www.w3.org/2000/svg" xmlns:xlink="http://www.w3.org/1999/xlink">
<g id="graph0" class="graph" transform="scale(1 1) rotate(0) translate(4 148)">
<title>Source/Slash/Public/Characters/BaseCharacter.h</title>
<!-- Node1 -->
<g id="Node000001" class="node">
<title>Node1</title>
<g id="a_Node000001"><a xlink:title=" ">
<polygon fill="#999999" stroke="#666666" points="232.04,-144 88.54,-144 88.54,-112 232.04,-112 232.04,-144"/>
<text text-anchor="start" x="96.54" y="-130.5" font-family="Helvetica,sans-Serif" font-size="10.00">Source/Slash/Public</text>
<text text-anchor="middle" x="160.29" y="-118.5" font-family="Helvetica,sans-Serif" font-size="10.00">/Characters/BaseCharacter.h</text>
</a>
</g>
</g>
<!-- Node2 -->
<g id="Node000002" class="node">
<title>Node2</title>
<g id="a_Node000002"><a xlink:title=" ">
<polygon fill="#e0e0e0" stroke="#999999" points="95.79,-20 16.79,-20 16.79,0 95.79,0 95.79,-20"/>
<text text-anchor="middle" x="56.29" y="-6.5" font-family="Helvetica,sans-Serif" font-size="10.00">CoreMinimal.h</text>
</a>
</g>
</g>
<!-- Node1&#45;&gt;Node2 -->
<g id="edge1_Node000001_Node000002" class="edge">
<title>Node1&#45;&gt;Node2</title>
<g id="a_edge1_Node000001_Node000002"><a xlink:title=" ">
<path fill="none" stroke="#63b8ff" d="M88.36,-121.85C57.25,-115.63 23.61,-102.64 4.29,-76 -8.28,-58.67 11.12,-39.62 29.69,-26.65"/>
<polygon fill="#63b8ff" stroke="#63b8ff" points="31.43,-29.7 37.89,-21.3 27.6,-23.84 31.43,-29.7"/>
</a>
</g>
</g>
<!-- Node3 -->
<g id="Node000003" class="node">
<title>Node3</title>
<g id="a_Node000003"><a xlink:title=" ">
<polygon fill="#e0e0e0" stroke="#999999" points="157.79,-76 12.79,-76 12.79,-56 157.79,-56 157.79,-76"/>
<text text-anchor="middle" x="85.29" y="-62.5" font-family="Helvetica,sans-Serif" font-size="10.00">GameFramework/Character.h</text>
</a>
</g>
</g>
<!-- Node1&#45;&gt;Node3 -->
<g id="edge2_Node000001_Node000003" class="edge">
<title>Node1&#45;&gt;Node3</title>
<g id="a_edge2_Node000001_Node000003"><a xlink:title=" ">
<path fill="none" stroke="#63b8ff" d="M140.97,-111.55C130.23,-102.95 116.86,-92.26 105.92,-83.5"/>
<polygon fill="#63b8ff" stroke="#63b8ff" points="108.22,-80.87 98.23,-77.35 103.85,-86.33 108.22,-80.87"/>
</a>
</g>
</g>
<!-- Node4 -->
<g id="Node000004" class="node">
<title>Node4</title>
<g id="a_Node000004"><a xlink:href="_hit_interface_8h.html" target="_top" xlink:title=" ">
<polygon fill="white" stroke="#666666" points="297.16,-76 175.41,-76 175.41,-56 297.16,-56 297.16,-76"/>
<text text-anchor="middle" x="236.29" y="-62.5" font-family="Helvetica,sans-Serif" font-size="10.00">Interfaces/HitInterface.h</text>
</a>
</g>
</g>
<!-- Node1&#45;&gt;Node4 -->
<g id="edge3_Node000001_Node000004" class="edge">
<title>Node1&#45;&gt;Node4</title>
<g id="a_edge3_Node000001_Node000004"><a xlink:title=" ">
<path fill="none" stroke="#63b8ff" d="M179.86,-111.55C190.74,-102.95 204.29,-92.26 215.38,-83.5"/>
<polygon fill="#63b8ff" stroke="#63b8ff" points="217.5,-86.29 223.18,-77.35 213.16,-80.8 217.5,-86.29"/>
</a>
</g>
</g>
<!-- Node7 -->
<g id="Node000007" class="node">
<title>Node7</title>
<g id="a_Node000007"><a xlink:title=" ">
<polygon fill="#e0e0e0" stroke="#999999" points="450.91,-76 315.66,-76 315.66,-56 450.91,-56 450.91,-76"/>
<text text-anchor="middle" x="383.29" y="-62.5" font-family="Helvetica,sans-Serif" font-size="10.00">BaseCharacter.generated.h</text>
</a>
</g>
</g>
<!-- Node1&#45;&gt;Node7 -->
<g id="edge7_Node000001_Node000007" class="edge">
<title>Node1&#45;&gt;Node7</title>
<g id="a_edge7_Node000001_Node000007"><a xlink:title=" ">
<path fill="none" stroke="#63b8ff" d="M217.72,-111.55C254.86,-101.55 302.57,-88.72 337.23,-79.39"/>
<polygon fill="#63b8ff" stroke="#63b8ff" points="337.78,-82.87 346.53,-76.89 335.96,-76.11 337.78,-82.87"/>
</a>
</g>
</g>
<!-- Node4&#45;&gt;Node2 -->
<g id="edge4_Node000004_Node000002" class="edge">
<title>Node4&#45;&gt;Node2</title>
<g id="a_edge4_Node000004_Node000002"><a xlink:title=" ">
<path fill="none" stroke="#63b8ff" d="M204.93,-55.59C175.56,-46.78 131.43,-33.54 98.87,-23.78"/>
<polygon fill="#63b8ff" stroke="#63b8ff" points="99.92,-20.44 89.34,-20.91 97.91,-27.14 99.92,-20.44"/>
</a>
</g>
</g>
<!-- Node5 -->
<g id="Node000005" class="node">
<title>Node5</title>
<g id="a_Node000005"><a xlink:title=" ">
<polygon fill="#e0e0e0" stroke="#999999" points="222.04,-20 120.54,-20 120.54,0 222.04,0 222.04,-20"/>
<text text-anchor="middle" x="171.29" y="-6.5" font-family="Helvetica,sans-Serif" font-size="10.00">UObject/Interface.h</text>
</a>
</g>
</g>
<!-- Node4&#45;&gt;Node5 -->
<g id="edge5_Node000004_Node000005" class="edge">
<title>Node4&#45;&gt;Node5</title>
<g id="a_edge5_Node000004_Node000005"><a xlink:title=" ">
<path fill="none" stroke="#63b8ff" d="M224.96,-55.59C215.64,-47.85 202.21,-36.69 191.11,-27.47"/>
<polygon fill="#63b8ff" stroke="#63b8ff" points="193.57,-24.96 183.64,-21.27 189.1,-30.35 193.57,-24.96"/>
</a>
</g>
</g>
<!-- Node6 -->
<g id="Node000006" class="node">
<title>Node6</title>
<g id="a_Node000006"><a xlink:title=" ">
<polygon fill="#e0e0e0" stroke="#999999" points="360.79,-20 239.79,-20 239.79,0 360.79,0 360.79,-20"/>
<text text-anchor="middle" x="300.29" y="-6.5" font-family="Helvetica,sans-Serif" font-size="10.00">HitInterface.generated.h</text>
</a>
</g>
</g>
<!-- Node4&#45;&gt;Node6 -->
<g id="edge6_Node000004_Node000006" class="edge">
<title>Node4&#45;&gt;Node6</title>
<g id="a_edge6_Node000004_Node000006"><a xlink:title=" ">
<path fill="none" stroke="#63b8ff" d="M247.43,-55.59C256.61,-47.85 269.84,-36.69 280.77,-27.47"/>
<polygon fill="#63b8ff" stroke="#63b8ff" points="282.72,-30.4 288.11,-21.27 278.21,-25.05 282.72,-30.4"/>
</a>
</g>
</g>
</g>
</svg>
