<?xml version="1.0" encoding="UTF-8" standalone="no"?>
<!DOCTYPE svg PUBLIC "-//W3C//DTD SVG 1.1//EN"
 "http://www.w3.org/Graphics/SVG/1.1/DTD/svg11.dtd">
<!-- Generated by graphviz version 12.2.1 (20241206.2353)
 -->
<!-- Title: Source/Slash/Public/Characters/BaseCharacter.h Pages: 1 -->
<svg width="770pt" height="176pt"
 viewBox="0.00 0.00 769.88 176.00" xmlns="http://www.w3.org/2000/svg" xmlns:xlink="http://www.w3.org/1999/xlink">
<g id="graph0" class="graph" transform="scale(1 1) rotate(0) translate(4 172)">
<title>Source/Slash/Public/Characters/BaseCharacter.h</title>
<!-- Node1 -->
<g id="Node000001" class="node">
<title>Node1</title>
<g id="a_Node000001"><a xlink:title=" ">
<polygon fill="#999999" stroke="#666666" points="491.5,-168 348,-168 348,-136 491.5,-136 491.5,-168"/>
<text text-anchor="start" x="356" y="-154.5" font-family="Helvetica,sans-Serif" font-size="10.00">Source/Slash/Public</text>
<text text-anchor="middle" x="419.75" y="-142.5" font-family="Helvetica,sans-Serif" font-size="10.00">/Characters/BaseCharacter.h</text>
</a>
</g>
</g>
<!-- Node2 -->
<g id="Node000002" class="node">
<title>Node2</title>
<g id="a_Node000002"><a xlink:href="_base_character_8cpp.html" target="_top" xlink:title=" ">
<polygon fill="white" stroke="#666666" points="328.75,-100 174.75,-100 174.75,-68 328.75,-68 328.75,-100"/>
<text text-anchor="start" x="182.75" y="-86.5" font-family="Helvetica,sans-Serif" font-size="10.00">Source/Slash/Private</text>
<text text-anchor="middle" x="251.75" y="-74.5" font-family="Helvetica,sans-Serif" font-size="10.00">/Characters/BaseCharacter.cpp</text>
</a>
</g>
</g>
<!-- Node1&#45;&gt;Node2 -->
<g id="edge1_Node000001_Node000002" class="edge">
<title>Node1&#45;&gt;Node2</title>
<g id="a_edge1_Node000001_Node000002"><a xlink:title=" ">
<path fill="none" stroke="#63b8ff" d="M369.92,-131.42C344.77,-121.54 314.7,-109.73 291.18,-100.49"/>
<polygon fill="#63b8ff" stroke="#63b8ff" points="368.37,-134.57 378.95,-134.97 370.93,-128.06 368.37,-134.57"/>
</a>
</g>
</g>
<!-- Node3 -->
<g id="Node000003" class="node">
<title>Node3</title>
<g id="a_Node000003"><a xlink:href="_slash_character_8h.html" target="_top" xlink:title=" ">
<polygon fill="white" stroke="#666666" points="492.62,-100 346.88,-100 346.88,-68 492.62,-68 492.62,-100"/>
<text text-anchor="start" x="354.88" y="-86.5" font-family="Helvetica,sans-Serif" font-size="10.00">Source/Slash/Public</text>
<text text-anchor="middle" x="419.75" y="-74.5" font-family="Helvetica,sans-Serif" font-size="10.00">/Characters/SlashCharacter.h</text>
</a>
</g>
</g>
<!-- Node1&#45;&gt;Node3 -->
<g id="edge2_Node000001_Node000003" class="edge">
<title>Node1&#45;&gt;Node3</title>
<g id="a_edge2_Node000001_Node000003"><a xlink:title=" ">
<path fill="none" stroke="#63b8ff" d="M419.75,-124.31C419.75,-116.12 419.75,-107.38 419.75,-100.22"/>
<polygon fill="#63b8ff" stroke="#63b8ff" points="416.25,-124.18 419.75,-134.18 423.25,-124.18 416.25,-124.18"/>
</a>
</g>
</g>
<!-- Node8 -->
<g id="Node000008" class="node">
<title>Node8</title>
<g id="a_Node000008"><a xlink:href="_enemy_8h.html" target="_top" xlink:title=" ">
<polygon fill="white" stroke="#666666" points="687,-100 582.5,-100 582.5,-68 687,-68 687,-100"/>
<text text-anchor="start" x="590.5" y="-86.5" font-family="Helvetica,sans-Serif" font-size="10.00">Source/Slash/Public</text>
<text text-anchor="middle" x="634.75" y="-74.5" font-family="Helvetica,sans-Serif" font-size="10.00">/Enemy/Enemy.h</text>
</a>
</g>
</g>
<!-- Node1&#45;&gt;Node8 -->
<g id="edge7_Node000001_Node000008" class="edge">
<title>Node1&#45;&gt;Node8</title>
<g id="a_edge7_Node000001_Node000008"><a xlink:title=" ">
<path fill="none" stroke="#63b8ff" d="M480.95,-132.21C513.64,-122.18 553.39,-109.98 584.29,-100.49"/>
<polygon fill="#63b8ff" stroke="#63b8ff" points="480.14,-128.8 471.6,-135.08 482.19,-135.49 480.14,-128.8"/>
</a>
</g>
</g>
<!-- Node4 -->
<g id="Node000004" class="node">
<title>Node4</title>
<g id="a_Node000004"><a xlink:href="_slash_anim_instance_8cpp.html" target="_top" xlink:title=" ">
<polygon fill="white" stroke="#666666" points="173.5,-32 0,-32 0,0 173.5,0 173.5,-32"/>
<text text-anchor="start" x="8" y="-18.5" font-family="Helvetica,sans-Serif" font-size="10.00">Source/Slash/Private</text>
<text text-anchor="middle" x="86.75" y="-6.5" font-family="Helvetica,sans-Serif" font-size="10.00">/Characters/SlashAnimInstance.cpp</text>
</a>
</g>
</g>
<!-- Node3&#45;&gt;Node4 -->
<g id="edge3_Node000003_Node000004" class="edge">
<title>Node3&#45;&gt;Node4</title>
<g id="a_edge3_Node000003_Node000004"><a xlink:title=" ">
<path fill="none" stroke="#63b8ff" d="M335.38,-66.28C282.97,-55.89 216.08,-42.63 164.88,-32.49"/>
<polygon fill="#63b8ff" stroke="#63b8ff" points="334.7,-69.71 345.19,-68.22 336.06,-62.84 334.7,-69.71"/>
</a>
</g>
</g>
<!-- Node5 -->
<g id="Node000005" class="node">
<title>Node5</title>
<g id="a_Node000005"><a xlink:href="_slash_character_8cpp.html" target="_top" xlink:title=" ">
<polygon fill="white" stroke="#666666" points="347.88,-32 191.62,-32 191.62,0 347.88,0 347.88,-32"/>
<text text-anchor="start" x="199.62" y="-18.5" font-family="Helvetica,sans-Serif" font-size="10.00">Source/Slash/Private</text>
<text text-anchor="middle" x="269.75" y="-6.5" font-family="Helvetica,sans-Serif" font-size="10.00">/Characters/SlashCharacter.cpp</text>
</a>
</g>
</g>
<!-- Node3&#45;&gt;Node5 -->
<g id="edge4_Node000003_Node000005" class="edge">
<title>Node3&#45;&gt;Node5</title>
<g id="a_edge4_Node000003_Node000005"><a xlink:title=" ">
<path fill="none" stroke="#63b8ff" d="M374.05,-62.89C351.85,-53.12 325.58,-41.56 304.96,-32.49"/>
<polygon fill="#63b8ff" stroke="#63b8ff" points="372.63,-66.09 383.2,-66.92 375.45,-59.69 372.63,-66.09"/>
</a>
</g>
</g>
<!-- Node6 -->
<g id="Node000006" class="node">
<title>Node6</title>
<g id="a_Node000006"><a xlink:href="_treasure_8cpp.html" target="_top" xlink:title=" ">
<polygon fill="white" stroke="#666666" points="473.88,-32 365.62,-32 365.62,0 473.88,0 473.88,-32"/>
<text text-anchor="start" x="373.62" y="-18.5" font-family="Helvetica,sans-Serif" font-size="10.00">Source/Slash/Private</text>
<text text-anchor="middle" x="419.75" y="-6.5" font-family="Helvetica,sans-Serif" font-size="10.00">/Items/Treasure.cpp</text>
</a>
</g>
</g>
<!-- Node3&#45;&gt;Node6 -->
<g id="edge5_Node000003_Node000006" class="edge">
<title>Node3&#45;&gt;Node6</title>
<g id="a_edge5_Node000003_Node000006"><a xlink:title=" ">
<path fill="none" stroke="#63b8ff" d="M419.75,-56.31C419.75,-48.12 419.75,-39.38 419.75,-32.22"/>
<polygon fill="#63b8ff" stroke="#63b8ff" points="416.25,-56.18 419.75,-66.18 423.25,-56.18 416.25,-56.18"/>
</a>
</g>
</g>
<!-- Node7 -->
<g id="Node000007" class="node">
<title>Node7</title>
<g id="a_Node000007"><a xlink:href="_weapon_8cpp.html" target="_top" xlink:title=" ">
<polygon fill="white" stroke="#666666" points="635.88,-32 491.62,-32 491.62,0 635.88,0 635.88,-32"/>
<text text-anchor="start" x="499.62" y="-18.5" font-family="Helvetica,sans-Serif" font-size="10.00">Source/Slash/Private</text>
<text text-anchor="middle" x="563.75" y="-6.5" font-family="Helvetica,sans-Serif" font-size="10.00">/Items/Weapons/Weapon.cpp</text>
</a>
</g>
</g>
<!-- Node3&#45;&gt;Node7 -->
<g id="edge6_Node000003_Node000007" class="edge">
<title>Node3&#45;&gt;Node7</title>
<g id="a_edge6_Node000003_Node000007"><a xlink:title=" ">
<path fill="none" stroke="#63b8ff" d="M463.95,-62.74C485.29,-52.96 510.47,-41.42 530.2,-32.38"/>
<polygon fill="#63b8ff" stroke="#63b8ff" points="462.52,-59.55 454.89,-66.9 465.44,-65.91 462.52,-59.55"/>
</a>
</g>
</g>
<!-- Node9 -->
<g id="Node000009" class="node">
<title>Node9</title>
<g id="a_Node000009"><a xlink:href="_enemy_8cpp.html" target="_top" xlink:title=" ">
<polygon fill="white" stroke="#666666" points="761.88,-32 653.62,-32 653.62,0 761.88,0 761.88,-32"/>
<text text-anchor="start" x="661.62" y="-18.5" font-family="Helvetica,sans-Serif" font-size="10.00">Source/Slash/Private</text>
<text text-anchor="middle" x="707.75" y="-6.5" font-family="Helvetica,sans-Serif" font-size="10.00">/Enemy/Enemy.cpp</text>
</a>
</g>
</g>
<!-- Node8&#45;&gt;Node9 -->
<g id="edge8_Node000008_Node000009" class="edge">
<title>Node8&#45;&gt;Node9</title>
<g id="a_edge8_Node000008_Node000009"><a xlink:title=" ">
<path fill="none" stroke="#63b8ff" d="M660.14,-60.05C670.23,-50.92 681.57,-40.67 690.66,-32.45"/>
<polygon fill="#63b8ff" stroke="#63b8ff" points="657.87,-57.37 652.8,-66.68 662.57,-62.57 657.87,-57.37"/>
</a>
</g>
</g>
</g>
</svg>
