<?xml version="1.0" encoding="UTF-8" standalone="no"?>
<!DOCTYPE svg PUBLIC "-//W3C//DTD SVG 1.1//EN"
 "http://www.w3.org/Graphics/SVG/1.1/DTD/svg11.dtd">
<!-- Generated by graphviz version 12.2.1 (20241206.2353)
 -->
<!-- Title: Source/Slash/Private/Characters/BaseCharacter.cpp Pages: 1 -->
<svg width="1523pt" height="208pt"
 viewBox="0.00 0.00 1523.12 208.00" xmlns="http://www.w3.org/2000/svg" xmlns:xlink="http://www.w3.org/1999/xlink">
<g id="graph0" class="graph" transform="scale(1 1) rotate(0) translate(4 204)">
<title>Source/Slash/Private/Characters/BaseCharacter.cpp</title>
<!-- Node1 -->
<g id="Node000001" class="node">
<title>Node1</title>
<g id="a_Node000001"><a xlink:title=" ">
<polygon fill="#999999" stroke="#666666" points="1047.75,-200 893.75,-200 893.75,-168 1047.75,-168 1047.75,-200"/>
<text text-anchor="start" x="901.75" y="-186.5" font-family="Helvetica,sans-Serif" font-size="10.00">Source/Slash/Private</text>
<text text-anchor="middle" x="970.75" y="-174.5" font-family="Helvetica,sans-Serif" font-size="10.00">/Characters/BaseCharacter.cpp</text>
</a>
</g>
</g>
<!-- Node2 -->
<g id="Node000002" class="node">
<title>Node2</title>
<g id="a_Node000002"><a xlink:href="_base_character_8h.html" target="_top" xlink:title=" ">
<polygon fill="white" stroke="#666666" points="690,-132 549.5,-132 549.5,-112 690,-112 690,-132"/>
<text text-anchor="middle" x="619.75" y="-118.5" font-family="Helvetica,sans-Serif" font-size="10.00">Characters/BaseCharacter.h</text>
</a>
</g>
</g>
<!-- Node1&#45;&gt;Node2 -->
<g id="edge1_Node000001_Node000002" class="edge">
<title>Node1&#45;&gt;Node2</title>
<g id="a_edge1_Node000001_Node000002"><a xlink:title=" ">
<path fill="none" stroke="#63b8ff" d="M893.29,-169.76C831.27,-159.16 745.2,-144.44 686.27,-134.37"/>
<polygon fill="#63b8ff" stroke="#63b8ff" points="687.16,-130.97 676.71,-132.74 685.98,-137.87 687.16,-130.97"/>
</a>
</g>
</g>
<!-- Node9 -->
<g id="Node000009" class="node">
<title>Node9</title>
<g id="a_Node000009"><a xlink:title=" ">
<polygon fill="#e0e0e0" stroke="#999999" points="1045.88,-132 895.62,-132 895.62,-112 1045.88,-112 1045.88,-132"/>
<text text-anchor="middle" x="970.75" y="-118.5" font-family="Helvetica,sans-Serif" font-size="10.00">Components/BoxComponent.h</text>
</a>
</g>
</g>
<!-- Node1&#45;&gt;Node9 -->
<g id="edge9_Node000001_Node000009" class="edge">
<title>Node1&#45;&gt;Node9</title>
<g id="a_edge9_Node000001_Node000009"><a xlink:title=" ">
<path fill="none" stroke="#63b8ff" d="M970.75,-167.55C970.75,-160.34 970.75,-151.66 970.75,-143.88"/>
<polygon fill="#63b8ff" stroke="#63b8ff" points="974.25,-143.92 970.75,-133.92 967.25,-143.92 974.25,-143.92"/>
</a>
</g>
</g>
<!-- Node10 -->
<g id="Node000010" class="node">
<title>Node10</title>
<g id="a_Node000010"><a xlink:href="_weapon_8h.html" target="_top" xlink:title=" ">
<polygon fill="white" stroke="#666666" points="338.12,-132 207.38,-132 207.38,-112 338.12,-112 338.12,-132"/>
<text text-anchor="middle" x="272.75" y="-118.5" font-family="Helvetica,sans-Serif" font-size="10.00">Items/Weapons/Weapon.h</text>
</a>
</g>
</g>
<!-- Node1&#45;&gt;Node10 -->
<g id="edge10_Node000001_Node000010" class="edge">
<title>Node1&#45;&gt;Node10</title>
<g id="a_edge10_Node000001_Node000010"><a xlink:title=" ">
<path fill="none" stroke="#63b8ff" d="M893.38,-176.35C759.05,-164.8 484.19,-141.18 349.96,-129.64"/>
<polygon fill="#63b8ff" stroke="#63b8ff" points="350.36,-126.16 340.1,-128.79 349.76,-133.13 350.36,-126.16"/>
</a>
</g>
</g>
<!-- Node15 -->
<g id="Node000015" class="node">
<title>Node15</title>
<g id="a_Node000015"><a xlink:href="_attribute_component_8h.html" target="_top" xlink:title=" ">
<polygon fill="white" stroke="#666666" points="877.62,-132 707.88,-132 707.88,-112 877.62,-112 877.62,-132"/>
<text text-anchor="middle" x="792.75" y="-118.5" font-family="Helvetica,sans-Serif" font-size="10.00">Components/AttributeComponent.h</text>
</a>
</g>
</g>
<!-- Node1&#45;&gt;Node15 -->
<g id="edge17_Node000001_Node000015" class="edge">
<title>Node1&#45;&gt;Node15</title>
<g id="a_edge17_Node000001_Node000015"><a xlink:title=" ">
<path fill="none" stroke="#63b8ff" d="M924.91,-167.55C896.03,-157.81 859.15,-145.38 831.69,-136.13"/>
<polygon fill="#63b8ff" stroke="#63b8ff" points="832.95,-132.86 822.36,-132.98 830.71,-139.49 832.95,-132.86"/>
</a>
</g>
</g>
<!-- Node18 -->
<g id="Node000018" class="node">
<title>Node18</title>
<g id="a_Node000018"><a xlink:title=" ">
<polygon fill="#e0e0e0" stroke="#999999" points="1233.25,-132 1064.25,-132 1064.25,-112 1233.25,-112 1233.25,-132"/>
<text text-anchor="middle" x="1148.75" y="-118.5" font-family="Helvetica,sans-Serif" font-size="10.00">Components/CapsuleComponent.h</text>
</a>
</g>
</g>
<!-- Node1&#45;&gt;Node18 -->
<g id="edge21_Node000001_Node000018" class="edge">
<title>Node1&#45;&gt;Node18</title>
<g id="a_edge21_Node000001_Node000018"><a xlink:title=" ">
<path fill="none" stroke="#63b8ff" d="M1016.59,-167.55C1045.47,-157.81 1082.35,-145.38 1109.81,-136.13"/>
<polygon fill="#63b8ff" stroke="#63b8ff" points="1110.79,-139.49 1119.14,-132.98 1108.55,-132.86 1110.79,-139.49"/>
</a>
</g>
</g>
<!-- Node19 -->
<g id="Node000019" class="node">
<title>Node19</title>
<g id="a_Node000019"><a xlink:title=" ">
<polygon fill="#e0e0e0" stroke="#999999" points="1384.25,-132 1251.25,-132 1251.25,-112 1384.25,-112 1384.25,-132"/>
<text text-anchor="middle" x="1317.75" y="-118.5" font-family="Helvetica,sans-Serif" font-size="10.00">Kismet/GameplayStatics.h</text>
</a>
</g>
</g>
<!-- Node1&#45;&gt;Node19 -->
<g id="edge22_Node000001_Node000019" class="edge">
<title>Node1&#45;&gt;Node19</title>
<g id="a_edge22_Node000001_Node000019"><a xlink:title=" ">
<path fill="none" stroke="#63b8ff" d="M1048.19,-169.61C1109.33,-159.04 1193.71,-144.45 1251.69,-134.42"/>
<polygon fill="#63b8ff" stroke="#63b8ff" points="1252.17,-137.89 1261.43,-132.74 1250.98,-130.99 1252.17,-137.89"/>
</a>
</g>
</g>
<!-- Node20 -->
<g id="Node000020" class="node">
<title>Node20</title>
<g id="a_Node000020"><a xlink:href="_debug_macros_8h.html" target="_top" xlink:title=" ">
<polygon fill="white" stroke="#666666" points="1515.12,-132 1402.38,-132 1402.38,-112 1515.12,-112 1515.12,-132"/>
<text text-anchor="middle" x="1458.75" y="-118.5" font-family="Helvetica,sans-Serif" font-size="10.00">Slash/DebugMacros.h</text>
</a>
</g>
</g>
<!-- Node1&#45;&gt;Node20 -->
<g id="edge23_Node000001_Node000020" class="edge">
<title>Node1&#45;&gt;Node20</title>
<g id="a_edge23_Node000001_Node000020"><a xlink:title=" ">
<path fill="none" stroke="#63b8ff" d="M1047.99,-174.1C1130.34,-164.52 1264.91,-148.59 1390.68,-132.38"/>
<polygon fill="#63b8ff" stroke="#63b8ff" points="1391.07,-135.86 1400.54,-131.11 1390.17,-128.92 1391.07,-135.86"/>
</a>
</g>
</g>
<!-- Node3 -->
<g id="Node000003" class="node">
<title>Node3</title>
<g id="a_Node000003"><a xlink:title=" ">
<polygon fill="#e0e0e0" stroke="#999999" points="707.25,-20 628.25,-20 628.25,0 707.25,0 707.25,-20"/>
<text text-anchor="middle" x="667.75" y="-6.5" font-family="Helvetica,sans-Serif" font-size="10.00">CoreMinimal.h</text>
</a>
</g>
</g>
<!-- Node2&#45;&gt;Node3 -->
<g id="edge2_Node000002_Node000003" class="edge">
<title>Node2&#45;&gt;Node3</title>
<g id="a_edge2_Node000002_Node000003"><a xlink:title=" ">
<path fill="none" stroke="#63b8ff" d="M626.81,-111.8C633.28,-103.01 642.73,-89.19 648.75,-76 655.34,-61.57 660.26,-44.3 663.44,-31.19"/>
<polygon fill="#63b8ff" stroke="#63b8ff" points="666.82,-32.13 665.62,-21.6 659.99,-30.58 666.82,-32.13"/>
</a>
</g>
</g>
<!-- Node4 -->
<g id="Node000004" class="node">
<title>Node4</title>
<g id="a_Node000004"><a xlink:title=" ">
<polygon fill="#e0e0e0" stroke="#999999" points="486.25,-76 341.25,-76 341.25,-56 486.25,-56 486.25,-76"/>
<text text-anchor="middle" x="413.75" y="-62.5" font-family="Helvetica,sans-Serif" font-size="10.00">GameFramework/Character.h</text>
</a>
</g>
</g>
<!-- Node2&#45;&gt;Node4 -->
<g id="edge3_Node000002_Node000004" class="edge">
<title>Node2&#45;&gt;Node4</title>
<g id="a_edge3_Node000002_Node000004"><a xlink:title=" ">
<path fill="none" stroke="#63b8ff" d="M583.87,-111.59C549.81,-102.67 498.42,-89.19 461.03,-79.39"/>
<polygon fill="#63b8ff" stroke="#63b8ff" points="461.94,-76.01 451.38,-76.86 460.16,-82.78 461.94,-76.01"/>
</a>
</g>
</g>
<!-- Node5 -->
<g id="Node000005" class="node">
<title>Node5</title>
<g id="a_Node000005"><a xlink:href="_hit_interface_8h.html" target="_top" xlink:title=" ">
<polygon fill="white" stroke="#666666" points="855.62,-76 733.88,-76 733.88,-56 855.62,-56 855.62,-76"/>
<text text-anchor="middle" x="794.75" y="-62.5" font-family="Helvetica,sans-Serif" font-size="10.00">Interfaces/HitInterface.h</text>
</a>
</g>
</g>
<!-- Node2&#45;&gt;Node5 -->
<g id="edge4_Node000002_Node000005" class="edge">
<title>Node2&#45;&gt;Node5</title>
<g id="a_edge4_Node000002_Node000005"><a xlink:title=" ">
<path fill="none" stroke="#63b8ff" d="M650.23,-111.59C678.79,-102.78 721.7,-89.54 753.35,-79.78"/>
<polygon fill="#63b8ff" stroke="#63b8ff" points="754.06,-83.22 762.58,-76.93 752,-76.53 754.06,-83.22"/>
</a>
</g>
</g>
<!-- Node8 -->
<g id="Node000008" class="node">
<title>Node8</title>
<g id="a_Node000008"><a xlink:title=" ">
<polygon fill="#e0e0e0" stroke="#999999" points="639.38,-76 504.12,-76 504.12,-56 639.38,-56 639.38,-76"/>
<text text-anchor="middle" x="571.75" y="-62.5" font-family="Helvetica,sans-Serif" font-size="10.00">BaseCharacter.generated.h</text>
</a>
</g>
</g>
<!-- Node2&#45;&gt;Node8 -->
<g id="edge8_Node000002_Node000008" class="edge">
<title>Node2&#45;&gt;Node8</title>
<g id="a_edge8_Node000002_Node000008"><a xlink:title=" ">
<path fill="none" stroke="#63b8ff" d="M611.39,-111.59C604.85,-104.24 595.57,-93.8 587.63,-84.87"/>
<polygon fill="#63b8ff" stroke="#63b8ff" points="590.28,-82.58 581.02,-77.43 585.05,-87.23 590.28,-82.58"/>
</a>
</g>
</g>
<!-- Node5&#45;&gt;Node3 -->
<g id="edge5_Node000005_Node000003" class="edge">
<title>Node5&#45;&gt;Node3</title>
<g id="a_edge5_Node000005_Node000003"><a xlink:title=" ">
<path fill="none" stroke="#63b8ff" d="M772.63,-55.59C752.72,-47.13 723.2,-34.58 700.54,-24.94"/>
<polygon fill="#63b8ff" stroke="#63b8ff" points="702.01,-21.76 691.44,-21.07 699.27,-28.21 702.01,-21.76"/>
</a>
</g>
</g>
<!-- Node6 -->
<g id="Node000006" class="node">
<title>Node6</title>
<g id="a_Node000006"><a xlink:title=" ">
<polygon fill="#e0e0e0" stroke="#999999" points="969.5,-20 868,-20 868,0 969.5,0 969.5,-20"/>
<text text-anchor="middle" x="918.75" y="-6.5" font-family="Helvetica,sans-Serif" font-size="10.00">UObject/Interface.h</text>
</a>
</g>
</g>
<!-- Node5&#45;&gt;Node6 -->
<g id="edge6_Node000005_Node000006" class="edge">
<title>Node5&#45;&gt;Node6</title>
<g id="a_edge6_Node000005_Node000006"><a xlink:title=" ">
<path fill="none" stroke="#63b8ff" d="M816.35,-55.59C835.7,-47.17 864.35,-34.69 886.43,-25.07"/>
<polygon fill="#63b8ff" stroke="#63b8ff" points="887.82,-28.29 895.59,-21.08 885.03,-21.87 887.82,-28.29"/>
</a>
</g>
</g>
<!-- Node7 -->
<g id="Node000007" class="node">
<title>Node7</title>
<g id="a_Node000007"><a xlink:title=" ">
<polygon fill="#e0e0e0" stroke="#999999" points="850.25,-20 729.25,-20 729.25,0 850.25,0 850.25,-20"/>
<text text-anchor="middle" x="789.75" y="-6.5" font-family="Helvetica,sans-Serif" font-size="10.00">HitInterface.generated.h</text>
</a>
</g>
</g>
<!-- Node5&#45;&gt;Node7 -->
<g id="edge7_Node000005_Node000007" class="edge">
<title>Node5&#45;&gt;Node7</title>
<g id="a_edge7_Node000005_Node000007"><a xlink:title=" ">
<path fill="none" stroke="#63b8ff" d="M793.88,-55.59C793.27,-49.01 792.43,-39.96 791.67,-31.73"/>
<polygon fill="#63b8ff" stroke="#63b8ff" points="795.16,-31.44 790.75,-21.81 788.19,-32.09 795.16,-31.44"/>
</a>
</g>
</g>
<!-- Node10&#45;&gt;Node3 -->
<g id="edge11_Node000010_Node000003" class="edge">
<title>Node10&#45;&gt;Node3</title>
<g id="a_edge11_Node000010_Node000003"><a xlink:title=" ">
<path fill="none" stroke="#63b8ff" d="M278.23,-111.56C287.3,-96.91 306.92,-69.03 331.75,-56 380.11,-30.61 534.99,-18.38 616.49,-13.58"/>
<polygon fill="#63b8ff" stroke="#63b8ff" points="616.67,-17.07 626.45,-13.01 616.27,-10.08 616.67,-17.07"/>
</a>
</g>
</g>
<!-- Node11 -->
<g id="Node000011" class="node">
<title>Node11</title>
<g id="a_Node000011"><a xlink:href="_item_8h.html" target="_top" xlink:title=" ">
<polygon fill="white" stroke="#666666" points="161.5,-76 90,-76 90,-56 161.5,-56 161.5,-76"/>
<text text-anchor="middle" x="125.75" y="-62.5" font-family="Helvetica,sans-Serif" font-size="10.00">Items/Item.h</text>
</a>
</g>
</g>
<!-- Node10&#45;&gt;Node11 -->
<g id="edge12_Node000010_Node000011" class="edge">
<title>Node10&#45;&gt;Node11</title>
<g id="a_edge12_Node000010_Node000011"><a xlink:title=" ">
<path fill="none" stroke="#63b8ff" d="M247.14,-111.59C223.68,-102.97 188.68,-90.12 162.28,-80.42"/>
<polygon fill="#63b8ff" stroke="#63b8ff" points="163.57,-77.16 152.98,-77 161.16,-83.73 163.57,-77.16"/>
</a>
</g>
</g>
<!-- Node14 -->
<g id="Node000014" class="node">
<title>Node14</title>
<g id="a_Node000014"><a xlink:title=" ">
<polygon fill="#e0e0e0" stroke="#999999" points="284.38,-76 179.12,-76 179.12,-56 284.38,-56 284.38,-76"/>
<text text-anchor="middle" x="231.75" y="-62.5" font-family="Helvetica,sans-Serif" font-size="10.00">Weapon.generated.h</text>
</a>
</g>
</g>
<!-- Node10&#45;&gt;Node14 -->
<g id="edge16_Node000010_Node000014" class="edge">
<title>Node10&#45;&gt;Node14</title>
<g id="a_edge16_Node000010_Node000014"><a xlink:title=" ">
<path fill="none" stroke="#63b8ff" d="M265.61,-111.59C260.14,-104.39 252.43,-94.23 245.74,-85.43"/>
<polygon fill="#63b8ff" stroke="#63b8ff" points="248.56,-83.35 239.73,-77.5 242.98,-87.58 248.56,-83.35"/>
</a>
</g>
</g>
<!-- Node11&#45;&gt;Node3 -->
<g id="edge13_Node000011_Node000003" class="edge">
<title>Node11&#45;&gt;Node3</title>
<g id="a_edge13_Node000011_Node000003"><a xlink:title=" ">
<path fill="none" stroke="#63b8ff" d="M161.71,-57.3C164.42,-56.83 167.13,-56.39 169.75,-56 332.05,-32.14 526.09,-18.99 616.58,-13.73"/>
<polygon fill="#63b8ff" stroke="#63b8ff" points="616.58,-17.24 626.36,-13.17 616.18,-10.25 616.58,-17.24"/>
</a>
</g>
</g>
<!-- Node12 -->
<g id="Node000012" class="node">
<title>Node12</title>
<g id="a_Node000012"><a xlink:title=" ">
<polygon fill="#e0e0e0" stroke="#999999" points="125.5,-20 0,-20 0,0 125.5,0 125.5,-20"/>
<text text-anchor="middle" x="62.75" y="-6.5" font-family="Helvetica,sans-Serif" font-size="10.00">GameFramework/Actor.h</text>
</a>
</g>
</g>
<!-- Node11&#45;&gt;Node12 -->
<g id="edge14_Node000011_Node000012" class="edge">
<title>Node11&#45;&gt;Node12</title>
<g id="a_edge14_Node000011_Node000012"><a xlink:title=" ">
<path fill="none" stroke="#63b8ff" d="M114.78,-55.59C105.83,-47.93 92.98,-36.91 82.29,-27.75"/>
<polygon fill="#63b8ff" stroke="#63b8ff" points="84.62,-25.13 74.75,-21.28 80.06,-30.45 84.62,-25.13"/>
</a>
</g>
</g>
<!-- Node13 -->
<g id="Node000013" class="node">
<title>Node13</title>
<g id="a_Node000013"><a xlink:title=" ">
<polygon fill="#e0e0e0" stroke="#999999" points="233.5,-20 144,-20 144,0 233.5,0 233.5,-20"/>
<text text-anchor="middle" x="188.75" y="-6.5" font-family="Helvetica,sans-Serif" font-size="10.00">Item.generated.h</text>
</a>
</g>
</g>
<!-- Node11&#45;&gt;Node13 -->
<g id="edge15_Node000011_Node000013" class="edge">
<title>Node11&#45;&gt;Node13</title>
<g id="a_edge15_Node000011_Node000013"><a xlink:title=" ">
<path fill="none" stroke="#63b8ff" d="M136.72,-55.59C145.67,-47.93 158.52,-36.91 169.21,-27.75"/>
<polygon fill="#63b8ff" stroke="#63b8ff" points="171.44,-30.45 176.75,-21.28 166.88,-25.13 171.44,-30.45"/>
</a>
</g>
</g>
<!-- Node15&#45;&gt;Node3 -->
<g id="edge18_Node000015_Node000003" class="edge">
<title>Node15&#45;&gt;Node3</title>
<g id="a_edge18_Node000015_Node000003"><a xlink:title=" ">
<path fill="none" stroke="#63b8ff" d="M775.94,-111.59C761.62,-103.19 740.85,-90.06 724.75,-76 708.37,-61.7 692.28,-42.78 681.39,-29.04"/>
<polygon fill="#63b8ff" stroke="#63b8ff" points="684.28,-27.04 675.38,-21.28 678.75,-31.33 684.28,-27.04"/>
</a>
</g>
</g>
<!-- Node16 -->
<g id="Node000016" class="node">
<title>Node16</title>
<g id="a_Node000016"><a xlink:title=" ">
<polygon fill="#e0e0e0" stroke="#999999" points="1204.88,-76 1048.62,-76 1048.62,-56 1204.88,-56 1204.88,-76"/>
<text text-anchor="middle" x="1126.75" y="-62.5" font-family="Helvetica,sans-Serif" font-size="10.00">Components/ActorComponent.h</text>
</a>
</g>
</g>
<!-- Node15&#45;&gt;Node16 -->
<g id="edge19_Node000015_Node000016" class="edge">
<title>Node15&#45;&gt;Node16</title>
<g id="a_edge19_Node000015_Node000016"><a xlink:title=" ">
<path fill="none" stroke="#63b8ff" d="M851.31,-111.53C908.73,-102.25 996.28,-88.09 1057.2,-78.24"/>
<polygon fill="#63b8ff" stroke="#63b8ff" points="1057.45,-81.75 1066.76,-76.7 1056.33,-74.84 1057.45,-81.75"/>
</a>
</g>
</g>
<!-- Node17 -->
<g id="Node000017" class="node">
<title>Node17</title>
<g id="a_Node000017"><a xlink:title=" ">
<polygon fill="#e0e0e0" stroke="#999999" points="1030.25,-76 873.25,-76 873.25,-56 1030.25,-56 1030.25,-76"/>
<text text-anchor="middle" x="951.75" y="-62.5" font-family="Helvetica,sans-Serif" font-size="10.00">AttributeComponent.generated.h</text>
</a>
</g>
</g>
<!-- Node15&#45;&gt;Node17 -->
<g id="edge20_Node000015_Node000017" class="edge">
<title>Node15&#45;&gt;Node17</title>
<g id="a_edge20_Node000015_Node000017"><a xlink:title=" ">
<path fill="none" stroke="#63b8ff" d="M820.45,-111.59C846.05,-102.9 884.36,-89.89 913,-80.16"/>
<polygon fill="#63b8ff" stroke="#63b8ff" points="914.06,-83.5 922.41,-76.97 911.81,-76.87 914.06,-83.5"/>
</a>
</g>
</g>
<!-- Node21 -->
<g id="Node000021" class="node">
<title>Node21</title>
<g id="a_Node000021"><a xlink:title=" ">
<polygon fill="#e0e0e0" stroke="#999999" points="1513.62,-76 1403.88,-76 1403.88,-56 1513.62,-56 1513.62,-76"/>
<text text-anchor="middle" x="1458.75" y="-62.5" font-family="Helvetica,sans-Serif" font-size="10.00">DrawDebugHelpers.h</text>
</a>
</g>
</g>
<!-- Node20&#45;&gt;Node21 -->
<g id="edge24_Node000020_Node000021" class="edge">
<title>Node20&#45;&gt;Node21</title>
<g id="a_edge24_Node000020_Node000021"><a xlink:title=" ">
<path fill="none" stroke="#63b8ff" d="M1458.75,-111.59C1458.75,-105.01 1458.75,-95.96 1458.75,-87.73"/>
<polygon fill="#63b8ff" stroke="#63b8ff" points="1462.25,-87.81 1458.75,-77.81 1455.25,-87.81 1462.25,-87.81"/>
</a>
</g>
</g>
</g>
</svg>
