<?xml version="1.0" encoding="UTF-8" standalone="no"?>
<!DOCTYPE svg PUBLIC "-//W3C//DTD SVG 1.1//EN"
 "http://www.w3.org/Graphics/SVG/1.1/DTD/svg11.dtd">
<!-- Generated by graphviz version 12.2.1 (20241206.2353)
 -->
<!-- Title: Source/Slash/Private/Pawns/Bird.cpp Pages: 1 -->
<svg width="1094pt" height="152pt"
 viewBox="0.00 0.00 1093.62 152.00" xmlns="http://www.w3.org/2000/svg" xmlns:xlink="http://www.w3.org/1999/xlink">
<g id="graph0" class="graph" transform="scale(1 1) rotate(0) translate(4 148)">
<title>Source/Slash/Private/Pawns/Bird.cpp</title>
<!-- Node1 -->
<g id="Node000001" class="node">
<title>Node1</title>
<g id="a_Node000001"><a xlink:title=" ">
<polygon fill="#999999" stroke="#666666" points="580.62,-144 472.38,-144 472.38,-112 580.62,-112 580.62,-144"/>
<text text-anchor="start" x="480.38" y="-130.5" font-family="Helvetica,sans-Serif" font-size="10.00">Source/Slash/Private</text>
<text text-anchor="middle" x="526.5" y="-118.5" font-family="Helvetica,sans-Serif" font-size="10.00">/Pawns/Bird.cpp</text>
</a>
</g>
</g>
<!-- Node2 -->
<g id="Node000002" class="node">
<title>Node2</title>
<g id="a_Node000002"><a xlink:href="_bird_8h.html" target="_top" xlink:title=" ">
<polygon fill="white" stroke="#666666" points="197.75,-76 123.25,-76 123.25,-56 197.75,-56 197.75,-76"/>
<text text-anchor="middle" x="160.5" y="-62.5" font-family="Helvetica,sans-Serif" font-size="10.00">Pawns/Bird.h</text>
</a>
</g>
</g>
<!-- Node1&#45;&gt;Node2 -->
<g id="edge1_Node000001_Node000002" class="edge">
<title>Node1&#45;&gt;Node2</title>
<g id="a_edge1_Node000001_Node000002"><a xlink:title=" ">
<path fill="none" stroke="#63b8ff" d="M472.05,-118.92C410.66,-109.67 307.57,-93.75 209.45,-76.48"/>
<polygon fill="#63b8ff" stroke="#63b8ff" points="210.08,-73.03 199.63,-74.74 208.86,-79.93 210.08,-73.03"/>
</a>
</g>
</g>
<!-- Node6 -->
<g id="Node000006" class="node">
<title>Node6</title>
<g id="a_Node000006"><a xlink:title=" ">
<polygon fill="#e0e0e0" stroke="#999999" points="355.38,-76 215.62,-76 215.62,-56 355.38,-56 355.38,-76"/>
<text text-anchor="middle" x="285.5" y="-62.5" font-family="Helvetica,sans-Serif" font-size="10.00">EnhancedInputComponent.h</text>
</a>
</g>
</g>
<!-- Node1&#45;&gt;Node6 -->
<g id="edge5_Node000001_Node000006" class="edge">
<title>Node1&#45;&gt;Node6</title>
<g id="a_edge5_Node000001_Node000006"><a xlink:title=" ">
<path fill="none" stroke="#63b8ff" d="M472.11,-113.46C430.83,-103.18 374.56,-89.17 334.63,-79.23"/>
<polygon fill="#63b8ff" stroke="#63b8ff" points="335.59,-75.86 325.04,-76.84 333.9,-82.66 335.59,-75.86"/>
</a>
</g>
</g>
<!-- Node7 -->
<g id="Node000007" class="node">
<title>Node7</title>
<g id="a_Node000007"><a xlink:title=" ">
<polygon fill="#e0e0e0" stroke="#999999" points="517.62,-76 373.38,-76 373.38,-56 517.62,-56 517.62,-76"/>
<text text-anchor="middle" x="445.5" y="-62.5" font-family="Helvetica,sans-Serif" font-size="10.00">EnhancedInputSubsystems.h</text>
</a>
</g>
</g>
<!-- Node1&#45;&gt;Node7 -->
<g id="edge6_Node000001_Node000007" class="edge">
<title>Node1&#45;&gt;Node7</title>
<g id="a_edge6_Node000001_Node000007"><a xlink:title=" ">
<path fill="none" stroke="#63b8ff" d="M505.64,-111.55C493.92,-102.87 479.31,-92.04 467.42,-83.24"/>
<polygon fill="#63b8ff" stroke="#63b8ff" points="469.54,-80.45 459.42,-77.31 465.37,-86.07 469.54,-80.45"/>
</a>
</g>
</g>
<!-- Node8 -->
<g id="Node000008" class="node">
<title>Node8</title>
<g id="a_Node000008"><a xlink:title=" ">
<polygon fill="#e0e0e0" stroke="#999999" points="681.75,-76 535.25,-76 535.25,-56 681.75,-56 681.75,-76"/>
<text text-anchor="middle" x="608.5" y="-62.5" font-family="Helvetica,sans-Serif" font-size="10.00">Camera/CameraComponent.h</text>
</a>
</g>
</g>
<!-- Node1&#45;&gt;Node8 -->
<g id="edge7_Node000001_Node000008" class="edge">
<title>Node1&#45;&gt;Node8</title>
<g id="a_edge7_Node000001_Node000008"><a xlink:title=" ">
<path fill="none" stroke="#63b8ff" d="M547.62,-111.55C559.6,-102.78 574.57,-91.83 586.67,-82.97"/>
<polygon fill="#63b8ff" stroke="#63b8ff" points="588.42,-86.03 594.42,-77.3 584.28,-80.38 588.42,-86.03"/>
</a>
</g>
</g>
<!-- Node9 -->
<g id="Node000009" class="node">
<title>Node9</title>
<g id="a_Node000009"><a xlink:title=" ">
<polygon fill="#e0e0e0" stroke="#999999" points="869,-76 700,-76 700,-56 869,-56 869,-76"/>
<text text-anchor="middle" x="784.5" y="-62.5" font-family="Helvetica,sans-Serif" font-size="10.00">Components/CapsuleComponent.h</text>
</a>
</g>
</g>
<!-- Node1&#45;&gt;Node9 -->
<g id="edge8_Node000001_Node000009" class="edge">
<title>Node1&#45;&gt;Node9</title>
<g id="a_edge8_Node000001_Node000009"><a xlink:title=" ">
<path fill="none" stroke="#63b8ff" d="M580.9,-114.35C625.64,-103.94 688.63,-89.29 732.66,-79.06"/>
<polygon fill="#63b8ff" stroke="#63b8ff" points="733.28,-82.5 742.23,-76.83 731.7,-75.69 733.28,-82.5"/>
</a>
</g>
</g>
<!-- Node10 -->
<g id="Node000010" class="node">
<title>Node10</title>
<g id="a_Node000010"><a xlink:title=" ">
<polygon fill="#e0e0e0" stroke="#999999" points="1085.62,-76 887.38,-76 887.38,-56 1085.62,-56 1085.62,-76"/>
<text text-anchor="middle" x="986.5" y="-62.5" font-family="Helvetica,sans-Serif" font-size="10.00">GameFramework/SpringArmComponent.h</text>
</a>
</g>
</g>
<!-- Node1&#45;&gt;Node10 -->
<g id="edge9_Node000001_Node000010" class="edge">
<title>Node1&#45;&gt;Node10</title>
<g id="a_edge9_Node000001_Node000010"><a xlink:title=" ">
<path fill="none" stroke="#63b8ff" d="M581.07,-119.88C660.58,-109.51 808.93,-90.16 902.44,-77.96"/>
<polygon fill="#63b8ff" stroke="#63b8ff" points="902.89,-81.44 912.35,-76.67 901.98,-74.49 902.89,-81.44"/>
</a>
</g>
</g>
<!-- Node3 -->
<g id="Node000003" class="node">
<title>Node3</title>
<g id="a_Node000003"><a xlink:title=" ">
<polygon fill="#e0e0e0" stroke="#999999" points="79,-20 0,-20 0,0 79,0 79,-20"/>
<text text-anchor="middle" x="39.5" y="-6.5" font-family="Helvetica,sans-Serif" font-size="10.00">CoreMinimal.h</text>
</a>
</g>
</g>
<!-- Node2&#45;&gt;Node3 -->
<g id="edge2_Node000002_Node000003" class="edge">
<title>Node2&#45;&gt;Node3</title>
<g id="a_edge2_Node000002_Node000003"><a xlink:title=" ">
<path fill="none" stroke="#63b8ff" d="M139.42,-55.59C120.54,-47.17 92.58,-34.69 71.04,-25.07"/>
<polygon fill="#63b8ff" stroke="#63b8ff" points="72.68,-21.98 62.12,-21.1 69.83,-28.37 72.68,-21.98"/>
</a>
</g>
</g>
<!-- Node4 -->
<g id="Node000004" class="node">
<title>Node4</title>
<g id="a_Node000004"><a xlink:title=" ">
<polygon fill="#e0e0e0" stroke="#999999" points="224,-20 97,-20 97,0 224,0 224,-20"/>
<text text-anchor="middle" x="160.5" y="-6.5" font-family="Helvetica,sans-Serif" font-size="10.00">GameFramework/Pawn.h</text>
</a>
</g>
</g>
<!-- Node2&#45;&gt;Node4 -->
<g id="edge3_Node000002_Node000004" class="edge">
<title>Node2&#45;&gt;Node4</title>
<g id="a_edge3_Node000002_Node000004"><a xlink:title=" ">
<path fill="none" stroke="#63b8ff" d="M160.5,-55.59C160.5,-49.01 160.5,-39.96 160.5,-31.73"/>
<polygon fill="#63b8ff" stroke="#63b8ff" points="164,-31.81 160.5,-21.81 157,-31.81 164,-31.81"/>
</a>
</g>
</g>
<!-- Node5 -->
<g id="Node000005" class="node">
<title>Node5</title>
<g id="a_Node000005"><a xlink:title=" ">
<polygon fill="#e0e0e0" stroke="#999999" points="329.12,-20 241.88,-20 241.88,0 329.12,0 329.12,-20"/>
<text text-anchor="middle" x="285.5" y="-6.5" font-family="Helvetica,sans-Serif" font-size="10.00">Bird.generated.h</text>
</a>
</g>
</g>
<!-- Node2&#45;&gt;Node5 -->
<g id="edge4_Node000002_Node000005" class="edge">
<title>Node2&#45;&gt;Node5</title>
<g id="a_edge4_Node000002_Node000005"><a xlink:title=" ">
<path fill="none" stroke="#63b8ff" d="M182.27,-55.59C201.87,-47.13 230.93,-34.58 253.22,-24.94"/>
<polygon fill="#63b8ff" stroke="#63b8ff" points="254.38,-28.26 262.17,-21.08 251.6,-21.83 254.38,-28.26"/>
</a>
</g>
</g>
</g>
</svg>
