<?xml version="1.0" encoding="UTF-8" standalone="no"?>
<!DOCTYPE svg PUBLIC "-//W3C//DTD SVG 1.1//EN"
 "http://www.w3.org/Graphics/SVG/1.1/DTD/svg11.dtd">
<!-- Generated by graphviz version 12.2.1 (20241206.2353)
 -->
<!-- Title: Source/Slash/Public/Breakable/BreakableActor.h Pages: 1 -->
<svg width="322pt" height="108pt"
 viewBox="0.00 0.00 321.62 108.00" xmlns="http://www.w3.org/2000/svg" xmlns:xlink="http://www.w3.org/1999/xlink">
<g id="graph0" class="graph" transform="scale(1 1) rotate(0) translate(4 104)">
<title>Source/Slash/Public/Breakable/BreakableActor.h</title>
<!-- Node1 -->
<g id="Node000001" class="node">
<title>Node1</title>
<g id="a_Node000001"><a xlink:title=" ">
<polygon fill="#999999" stroke="#666666" points="228.75,-100 88.25,-100 88.25,-68 228.75,-68 228.75,-100"/>
<text text-anchor="start" x="96.25" y="-86.5" font-family="Helvetica,sans-Serif" font-size="10.00">Source/Slash/Public</text>
<text text-anchor="middle" x="158.5" y="-74.5" font-family="Helvetica,sans-Serif" font-size="10.00">/Breakable/BreakableActor.h</text>
</a>
</g>
</g>
<!-- Node2 -->
<g id="Node000002" class="node">
<title>Node2</title>
<g id="a_Node000002"><a xlink:href="_breakable_actor_8cpp.html" target="_top" xlink:title=" ">
<polygon fill="white" stroke="#666666" points="151,-32 0,-32 0,0 151,0 151,-32"/>
<text text-anchor="start" x="8" y="-18.5" font-family="Helvetica,sans-Serif" font-size="10.00">Source/Slash/Private</text>
<text text-anchor="middle" x="75.5" y="-6.5" font-family="Helvetica,sans-Serif" font-size="10.00">/Breakable/BreakableActor.cpp</text>
</a>
</g>
</g>
<!-- Node1&#45;&gt;Node2 -->
<g id="edge1_Node000001_Node000002" class="edge">
<title>Node1&#45;&gt;Node2</title>
<g id="a_edge1_Node000001_Node000002"><a xlink:title=" ">
<path fill="none" stroke="#63b8ff" d="M130.33,-60.6C118.68,-51.34 105.47,-40.83 94.93,-32.45"/>
<polygon fill="#63b8ff" stroke="#63b8ff" points="128.06,-63.27 138.06,-66.75 132.42,-57.79 128.06,-63.27"/>
</a>
</g>
</g>
<!-- Node3 -->
<g id="Node000003" class="node">
<title>Node3</title>
<g id="a_Node000003"><a xlink:href="_weapon_8cpp.html" target="_top" xlink:title=" ">
<polygon fill="white" stroke="#666666" points="313.62,-32 169.38,-32 169.38,0 313.62,0 313.62,-32"/>
<text text-anchor="start" x="177.38" y="-18.5" font-family="Helvetica,sans-Serif" font-size="10.00">Source/Slash/Private</text>
<text text-anchor="middle" x="241.5" y="-6.5" font-family="Helvetica,sans-Serif" font-size="10.00">/Items/Weapons/Weapon.cpp</text>
</a>
</g>
</g>
<!-- Node1&#45;&gt;Node3 -->
<g id="edge2_Node000001_Node000003" class="edge">
<title>Node1&#45;&gt;Node3</title>
<g id="a_edge2_Node000001_Node000003"><a xlink:title=" ">
<path fill="none" stroke="#63b8ff" d="M186.67,-60.6C198.32,-51.34 211.53,-40.83 222.07,-32.45"/>
<polygon fill="#63b8ff" stroke="#63b8ff" points="184.58,-57.79 178.94,-66.75 188.94,-63.27 184.58,-57.79"/>
</a>
</g>
</g>
</g>
</svg>
