<?xml version="1.0" encoding="UTF-8" standalone="no"?>
<!DOCTYPE svg PUBLIC "-//W3C//DTD SVG 1.1//EN"
 "http://www.w3.org/Graphics/SVG/1.1/DTD/svg11.dtd">
<!-- Generated by graphviz version 12.2.1 (20241206.2353)
 -->
<!-- Title: Source/Slash/Private/Breakable/BreakableActor.cpp Pages: 1 -->
<svg width="704pt" height="220pt"
 viewBox="0.00 0.00 703.50 220.00" xmlns="http://www.w3.org/2000/svg" xmlns:xlink="http://www.w3.org/1999/xlink">
<g id="graph0" class="graph" transform="scale(1 1) rotate(0) translate(4 216)">
<title>Source/Slash/Private/Breakable/BreakableActor.cpp</title>
<!-- Node1 -->
<g id="Node000001" class="node">
<title>Node1</title>
<g id="a_Node000001"><a xlink:title=" ">
<polygon fill="#999999" stroke="#666666" points="479.88,-212 328.88,-212 328.88,-180 479.88,-180 479.88,-212"/>
<text text-anchor="start" x="336.88" y="-198.5" font-family="Helvetica,sans-Serif" font-size="10.00">Source/Slash/Private</text>
<text text-anchor="middle" x="404.38" y="-186.5" font-family="Helvetica,sans-Serif" font-size="10.00">/Breakable/BreakableActor.cpp</text>
</a>
</g>
</g>
<!-- Node2 -->
<g id="Node000002" class="node">
<title>Node2</title>
<g id="a_Node000002"><a xlink:href="_breakable_actor_8h.html" target="_top" xlink:title=" ">
<polygon fill="white" stroke="#666666" points="210.12,-138 72.62,-138 72.62,-118 210.12,-118 210.12,-138"/>
<text text-anchor="middle" x="141.38" y="-124.5" font-family="Helvetica,sans-Serif" font-size="10.00">Breakable/BreakableActor.h</text>
</a>
</g>
</g>
<!-- Node1&#45;&gt;Node2 -->
<g id="edge1_Node000001_Node000002" class="edge">
<title>Node1&#45;&gt;Node2</title>
<g id="a_edge1_Node000001_Node000002"><a xlink:title=" ">
<path fill="none" stroke="#63b8ff" d="M342.71,-179.53C296.16,-167.84 233.16,-152.03 190.11,-141.23"/>
<polygon fill="#63b8ff" stroke="#63b8ff" points="191.09,-137.87 180.54,-138.83 189.39,-144.66 191.09,-137.87"/>
</a>
</g>
</g>
<!-- Node9 -->
<g id="Node000009" class="node">
<title>Node9</title>
<g id="a_Node000009"><a xlink:title=" ">
<polygon fill="#e0e0e0" stroke="#999999" points="396.88,-138 227.88,-138 227.88,-118 396.88,-118 396.88,-138"/>
<text text-anchor="middle" x="312.38" y="-124.5" font-family="Helvetica,sans-Serif" font-size="10.00">Components/CapsuleComponent.h</text>
</a>
</g>
</g>
<!-- Node1&#45;&gt;Node9 -->
<g id="edge9_Node000001_Node000009" class="edge">
<title>Node1&#45;&gt;Node9</title>
<g id="a_edge9_Node000001_Node000009"><a xlink:title=" ">
<path fill="none" stroke="#63b8ff" d="M383.04,-179.69C368.41,-169.2 349.05,-155.31 334.3,-144.73"/>
<polygon fill="#63b8ff" stroke="#63b8ff" points="336.76,-142.18 326.59,-139.2 332.68,-147.87 336.76,-142.18"/>
</a>
</g>
</g>
<!-- Node10 -->
<g id="Node000010" class="node">
<title>Node10</title>
<g id="a_Node000010"><a xlink:title=" ">
<polygon fill="#e0e0e0" stroke="#999999" points="578.25,-144 414.5,-144 414.5,-112 578.25,-112 578.25,-144"/>
<text text-anchor="start" x="422.5" y="-130.5" font-family="Helvetica,sans-Serif" font-size="10.00">GeometryCollection</text>
<text text-anchor="middle" x="496.38" y="-118.5" font-family="Helvetica,sans-Serif" font-size="10.00">/GeometryCollectionComponent.h</text>
</a>
</g>
</g>
<!-- Node1&#45;&gt;Node10 -->
<g id="edge10_Node000001_Node000010" class="edge">
<title>Node1&#45;&gt;Node10</title>
<g id="a_edge10_Node000001_Node000010"><a xlink:title=" ">
<path fill="none" stroke="#63b8ff" d="M425.71,-179.69C437.59,-171.17 452.57,-160.42 465.69,-151.01"/>
<polygon fill="#63b8ff" stroke="#63b8ff" points="467.52,-154.01 473.6,-145.34 463.44,-148.32 467.52,-154.01"/>
</a>
</g>
</g>
<!-- Node11 -->
<g id="Node000011" class="node">
<title>Node11</title>
<g id="a_Node000011"><a xlink:href="_treasure_8h.html" target="_top" xlink:title=" ">
<polygon fill="white" stroke="#666666" points="686.5,-138 596.25,-138 596.25,-118 686.5,-118 686.5,-138"/>
<text text-anchor="middle" x="641.38" y="-124.5" font-family="Helvetica,sans-Serif" font-size="10.00">Items/Treasure.h</text>
</a>
</g>
</g>
<!-- Node1&#45;&gt;Node11 -->
<g id="edge11_Node000001_Node000011" class="edge">
<title>Node1&#45;&gt;Node11</title>
<g id="a_edge11_Node000001_Node000011"><a xlink:title=" ">
<path fill="none" stroke="#63b8ff" d="M459.94,-179.53C501.53,-167.94 557.69,-152.3 596.46,-141.51"/>
<polygon fill="#63b8ff" stroke="#63b8ff" points="597.25,-144.92 605.95,-138.87 595.37,-138.18 597.25,-144.92"/>
</a>
</g>
</g>
<!-- Node3 -->
<g id="Node000003" class="node">
<title>Node3</title>
<g id="a_Node000003"><a xlink:title=" ">
<polygon fill="#e0e0e0" stroke="#999999" points="372.88,-20 293.88,-20 293.88,0 372.88,0 372.88,-20"/>
<text text-anchor="middle" x="333.38" y="-6.5" font-family="Helvetica,sans-Serif" font-size="10.00">CoreMinimal.h</text>
</a>
</g>
</g>
<!-- Node2&#45;&gt;Node3 -->
<g id="edge2_Node000002_Node000003" class="edge">
<title>Node2&#45;&gt;Node3</title>
<g id="a_edge2_Node000002_Node000003"><a xlink:title=" ">
<path fill="none" stroke="#63b8ff" d="M189.53,-117.53C219.27,-109.94 257.03,-97 285.38,-76 301.72,-63.89 314.95,-44.64 323.35,-30.23"/>
<polygon fill="#63b8ff" stroke="#63b8ff" points="326.31,-32.12 328.07,-21.67 320.18,-28.73 326.31,-32.12"/>
</a>
</g>
</g>
<!-- Node4 -->
<g id="Node000004" class="node">
<title>Node4</title>
<g id="a_Node000004"><a xlink:title=" ">
<polygon fill="#e0e0e0" stroke="#999999" points="516.12,-20 390.62,-20 390.62,0 516.12,0 516.12,-20"/>
<text text-anchor="middle" x="453.38" y="-6.5" font-family="Helvetica,sans-Serif" font-size="10.00">GameFramework/Actor.h</text>
</a>
</g>
</g>
<!-- Node2&#45;&gt;Node4 -->
<g id="edge3_Node000002_Node000004" class="edge">
<title>Node2&#45;&gt;Node4</title>
<g id="a_edge3_Node000002_Node000004"><a xlink:title=" ">
<path fill="none" stroke="#63b8ff" d="M176.99,-117.52C211.1,-108.11 263.81,-92.72 308.38,-76 349.37,-60.62 395.27,-39.32 424.23,-25.36"/>
<polygon fill="#63b8ff" stroke="#63b8ff" points="425.63,-28.57 433.1,-21.06 422.57,-22.28 425.63,-28.57"/>
</a>
</g>
</g>
<!-- Node5 -->
<g id="Node000005" class="node">
<title>Node5</title>
<g id="a_Node000005"><a xlink:href="_hit_interface_8h.html" target="_top" xlink:title=" ">
<polygon fill="white" stroke="#666666" points="276.25,-76 154.5,-76 154.5,-56 276.25,-56 276.25,-76"/>
<text text-anchor="middle" x="215.38" y="-62.5" font-family="Helvetica,sans-Serif" font-size="10.00">Interfaces/HitInterface.h</text>
</a>
</g>
</g>
<!-- Node2&#45;&gt;Node5 -->
<g id="edge4_Node000002_Node000005" class="edge">
<title>Node2&#45;&gt;Node5</title>
<g id="a_edge4_Node000002_Node000005"><a xlink:title=" ">
<path fill="none" stroke="#63b8ff" d="M152.94,-117.62C164.3,-108.41 181.86,-94.17 195.47,-83.14"/>
<polygon fill="#63b8ff" stroke="#63b8ff" points="197.4,-86.08 202.96,-77.07 192.99,-80.65 197.4,-86.08"/>
</a>
</g>
</g>
<!-- Node8 -->
<g id="Node000008" class="node">
<title>Node8</title>
<g id="a_Node000008"><a xlink:title=" ">
<polygon fill="#e0e0e0" stroke="#999999" points="136.75,-76 0,-76 0,-56 136.75,-56 136.75,-76"/>
<text text-anchor="middle" x="68.38" y="-62.5" font-family="Helvetica,sans-Serif" font-size="10.00">BreakableActor.generated.h</text>
</a>
</g>
</g>
<!-- Node2&#45;&gt;Node8 -->
<g id="edge8_Node000002_Node000008" class="edge">
<title>Node2&#45;&gt;Node8</title>
<g id="a_edge8_Node000002_Node000008"><a xlink:title=" ">
<path fill="none" stroke="#63b8ff" d="M129.97,-117.62C118.76,-108.41 101.43,-94.17 88.01,-83.14"/>
<polygon fill="#63b8ff" stroke="#63b8ff" points="90.58,-80.72 80.63,-77.07 86.13,-86.13 90.58,-80.72"/>
</a>
</g>
</g>
<!-- Node5&#45;&gt;Node3 -->
<g id="edge5_Node000005_Node000003" class="edge">
<title>Node5&#45;&gt;Node3</title>
<g id="a_edge5_Node000005_Node000003"><a xlink:title=" ">
<path fill="none" stroke="#63b8ff" d="M235.93,-55.59C254.26,-47.21 281.36,-34.8 302.33,-25.21"/>
<polygon fill="#63b8ff" stroke="#63b8ff" points="303.65,-28.45 311.28,-21.11 300.73,-22.09 303.65,-28.45"/>
</a>
</g>
</g>
<!-- Node6 -->
<g id="Node000006" class="node">
<title>Node6</title>
<g id="a_Node000006"><a xlink:title=" ">
<polygon fill="#e0e0e0" stroke="#999999" points="137.12,-20 35.62,-20 35.62,0 137.12,0 137.12,-20"/>
<text text-anchor="middle" x="86.38" y="-6.5" font-family="Helvetica,sans-Serif" font-size="10.00">UObject/Interface.h</text>
</a>
</g>
</g>
<!-- Node5&#45;&gt;Node6 -->
<g id="edge6_Node000005_Node000006" class="edge">
<title>Node5&#45;&gt;Node6</title>
<g id="a_edge6_Node000005_Node000006"><a xlink:title=" ">
<path fill="none" stroke="#63b8ff" d="M192.9,-55.59C172.59,-47.09 142.42,-34.46 119.37,-24.81"/>
<polygon fill="#63b8ff" stroke="#63b8ff" points="120.99,-21.7 110.42,-21.06 118.29,-28.15 120.99,-21.7"/>
</a>
</g>
</g>
<!-- Node7 -->
<g id="Node000007" class="node">
<title>Node7</title>
<g id="a_Node000007"><a xlink:title=" ">
<polygon fill="#e0e0e0" stroke="#999999" points="275.88,-20 154.88,-20 154.88,0 275.88,0 275.88,-20"/>
<text text-anchor="middle" x="215.38" y="-6.5" font-family="Helvetica,sans-Serif" font-size="10.00">HitInterface.generated.h</text>
</a>
</g>
</g>
<!-- Node5&#45;&gt;Node7 -->
<g id="edge7_Node000005_Node000007" class="edge">
<title>Node5&#45;&gt;Node7</title>
<g id="a_edge7_Node000005_Node000007"><a xlink:title=" ">
<path fill="none" stroke="#63b8ff" d="M215.38,-55.59C215.38,-49.01 215.38,-39.96 215.38,-31.73"/>
<polygon fill="#63b8ff" stroke="#63b8ff" points="218.88,-31.81 215.38,-21.81 211.88,-31.81 218.88,-31.81"/>
</a>
</g>
</g>
<!-- Node11&#45;&gt;Node3 -->
<g id="edge12_Node000011_Node000003" class="edge">
<title>Node11&#45;&gt;Node3</title>
<g id="a_edge12_Node000011_Node000003"><a xlink:title=" ">
<path fill="none" stroke="#63b8ff" d="M608.61,-117.58C601.62,-115.66 594.27,-113.7 587.38,-112 514.09,-93.89 490.16,-107.12 421.38,-76 394.66,-63.91 368.15,-42.76 351.33,-27.87"/>
<polygon fill="#63b8ff" stroke="#63b8ff" points="353.91,-25.49 344.16,-21.36 349.21,-30.68 353.91,-25.49"/>
</a>
</g>
</g>
<!-- Node12 -->
<g id="Node000012" class="node">
<title>Node12</title>
<g id="a_Node000012"><a xlink:href="_item_8h.html" target="_top" xlink:title=" ">
<polygon fill="white" stroke="#666666" points="502.12,-76 430.62,-76 430.62,-56 502.12,-56 502.12,-76"/>
<text text-anchor="middle" x="466.38" y="-62.5" font-family="Helvetica,sans-Serif" font-size="10.00">Items/Item.h</text>
</a>
</g>
</g>
<!-- Node11&#45;&gt;Node12 -->
<g id="edge13_Node000011_Node000012" class="edge">
<title>Node11&#45;&gt;Node12</title>
<g id="a_edge13_Node000011_Node000012"><a xlink:title=" ">
<path fill="none" stroke="#63b8ff" d="M614.03,-117.62C584.58,-107.53 537.51,-91.39 504.44,-80.05"/>
<polygon fill="#63b8ff" stroke="#63b8ff" points="505.84,-76.83 495.25,-76.9 503.57,-83.45 505.84,-76.83"/>
</a>
</g>
</g>
<!-- Node14 -->
<g id="Node000014" class="node">
<title>Node14</title>
<g id="a_Node000014"><a xlink:title=" ">
<polygon fill="#e0e0e0" stroke="#999999" points="695.5,-76 587.25,-76 587.25,-56 695.5,-56 695.5,-76"/>
<text text-anchor="middle" x="641.38" y="-62.5" font-family="Helvetica,sans-Serif" font-size="10.00">Treasure.generated.h</text>
</a>
</g>
</g>
<!-- Node11&#45;&gt;Node14 -->
<g id="edge17_Node000011_Node000014" class="edge">
<title>Node11&#45;&gt;Node14</title>
<g id="a_edge17_Node000011_Node000014"><a xlink:title=" ">
<path fill="none" stroke="#63b8ff" d="M641.38,-117.62C641.38,-109.56 641.38,-97.65 641.38,-87.41"/>
<polygon fill="#63b8ff" stroke="#63b8ff" points="644.88,-87.63 641.38,-77.63 637.88,-87.63 644.88,-87.63"/>
</a>
</g>
</g>
<!-- Node12&#45;&gt;Node3 -->
<g id="edge14_Node000012_Node000003" class="edge">
<title>Node12&#45;&gt;Node3</title>
<g id="a_edge14_Node000012_Node000003"><a xlink:title=" ">
<path fill="none" stroke="#63b8ff" d="M443.21,-55.59C422.17,-47.05 390.88,-34.35 367.07,-24.68"/>
<polygon fill="#63b8ff" stroke="#63b8ff" points="368.71,-21.57 358.12,-21.05 366.07,-28.05 368.71,-21.57"/>
</a>
</g>
</g>
<!-- Node12&#45;&gt;Node4 -->
<g id="edge15_Node000012_Node000004" class="edge">
<title>Node12&#45;&gt;Node4</title>
<g id="a_edge15_Node000012_Node000004"><a xlink:title=" ">
<path fill="none" stroke="#63b8ff" d="M464.11,-55.59C462.51,-48.93 460.3,-39.75 458.3,-31.44"/>
<polygon fill="#63b8ff" stroke="#63b8ff" points="461.71,-30.67 455.97,-21.77 454.91,-32.31 461.71,-30.67"/>
</a>
</g>
</g>
<!-- Node13 -->
<g id="Node000013" class="node">
<title>Node13</title>
<g id="a_Node000013"><a xlink:title=" ">
<polygon fill="#e0e0e0" stroke="#999999" points="624.12,-20 534.62,-20 534.62,0 624.12,0 624.12,-20"/>
<text text-anchor="middle" x="579.38" y="-6.5" font-family="Helvetica,sans-Serif" font-size="10.00">Item.generated.h</text>
</a>
</g>
</g>
<!-- Node12&#45;&gt;Node13 -->
<g id="edge16_Node000012_Node000013" class="edge">
<title>Node12&#45;&gt;Node13</title>
<g id="a_edge16_Node000012_Node000013"><a xlink:title=" ">
<path fill="none" stroke="#63b8ff" d="M486.06,-55.59C503.53,-47.24 529.33,-34.92 549.37,-25.34"/>
<polygon fill="#63b8ff" stroke="#63b8ff" points="550.66,-28.6 558.17,-21.13 547.64,-22.29 550.66,-28.6"/>
</a>
</g>
</g>
</g>
</svg>
