<?xml version="1.0" encoding="UTF-8" standalone="no"?>
<!DOCTYPE svg PUBLIC "-//W3C//DTD SVG 1.1//EN"
 "http://www.w3.org/Graphics/SVG/1.1/DTD/svg11.dtd">
<!-- Generated by graphviz version 12.2.1 (20241206.2353)
 -->
<!-- Title: Source/Slash/Public/Breakable/BreakableActor.h Pages: 1 -->
<svg width="441pt" height="152pt"
 viewBox="0.00 0.00 441.40 152.00" xmlns="http://www.w3.org/2000/svg" xmlns:xlink="http://www.w3.org/1999/xlink">
<g id="graph0" class="graph" transform="scale(1 1) rotate(0) translate(4 148)">
<title>Source/Slash/Public/Breakable/BreakableActor.h</title>
<!-- Node1 -->
<g id="Node000001" class="node">
<title>Node1</title>
<g id="a_Node000001"><a xlink:title=" ">
<polygon fill="#999999" stroke="#666666" points="217.27,-144 76.77,-144 76.77,-112 217.27,-112 217.27,-144"/>
<text text-anchor="start" x="84.77" y="-130.5" font-family="Helvetica,sans-Serif" font-size="10.00">Source/Slash/Public</text>
<text text-anchor="middle" x="147.02" y="-118.5" font-family="Helvetica,sans-Serif" font-size="10.00">/Breakable/BreakableActor.h</text>
</a>
</g>
</g>
<!-- Node2 -->
<g id="Node000002" class="node">
<title>Node2</title>
<g id="a_Node000002"><a xlink:title=" ">
<polygon fill="#e0e0e0" stroke="#999999" points="86.52,-20 7.52,-20 7.52,0 86.52,0 86.52,-20"/>
<text text-anchor="middle" x="47.02" y="-6.5" font-family="Helvetica,sans-Serif" font-size="10.00">CoreMinimal.h</text>
</a>
</g>
</g>
<!-- Node1&#45;&gt;Node2 -->
<g id="edge1_Node000001_Node000002" class="edge">
<title>Node1&#45;&gt;Node2</title>
<g id="a_edge1_Node000001_Node000002"><a xlink:title=" ">
<path fill="none" stroke="#63b8ff" d="M76.47,-119.19C49.22,-112.33 20.65,-99.59 4.02,-76 -7.45,-59.73 8.47,-40.69 24.08,-27.44"/>
<polygon fill="#63b8ff" stroke="#63b8ff" points="26.17,-30.26 31.84,-21.31 21.83,-24.76 26.17,-30.26"/>
</a>
</g>
</g>
<!-- Node3 -->
<g id="Node000003" class="node">
<title>Node3</title>
<g id="a_Node000003"><a xlink:title=" ">
<polygon fill="#e0e0e0" stroke="#999999" points="138.77,-76 13.27,-76 13.27,-56 138.77,-56 138.77,-76"/>
<text text-anchor="middle" x="76.02" y="-62.5" font-family="Helvetica,sans-Serif" font-size="10.00">GameFramework/Actor.h</text>
</a>
</g>
</g>
<!-- Node1&#45;&gt;Node3 -->
<g id="edge2_Node000001_Node000003" class="edge">
<title>Node1&#45;&gt;Node3</title>
<g id="a_edge2_Node000001_Node000003"><a xlink:title=" ">
<path fill="none" stroke="#63b8ff" d="M128.74,-111.55C118.67,-103.04 106.17,-92.48 95.87,-83.77"/>
<polygon fill="#63b8ff" stroke="#63b8ff" points="98.21,-81.17 88.31,-77.38 93.69,-86.51 98.21,-81.17"/>
</a>
</g>
</g>
<!-- Node4 -->
<g id="Node000004" class="node">
<title>Node4</title>
<g id="a_Node000004"><a xlink:href="_hit_interface_8h.html" target="_top" xlink:title=" ">
<polygon fill="white" stroke="#666666" points="278.9,-76 157.15,-76 157.15,-56 278.9,-56 278.9,-76"/>
<text text-anchor="middle" x="218.02" y="-62.5" font-family="Helvetica,sans-Serif" font-size="10.00">Interfaces/HitInterface.h</text>
</a>
</g>
</g>
<!-- Node1&#45;&gt;Node4 -->
<g id="edge3_Node000001_Node000004" class="edge">
<title>Node1&#45;&gt;Node4</title>
<g id="a_edge3_Node000001_Node000004"><a xlink:title=" ">
<path fill="none" stroke="#63b8ff" d="M165.31,-111.55C175.37,-103.04 187.88,-92.48 198.18,-83.77"/>
<polygon fill="#63b8ff" stroke="#63b8ff" points="200.36,-86.51 205.73,-77.38 195.84,-81.17 200.36,-86.51"/>
</a>
</g>
</g>
<!-- Node7 -->
<g id="Node000007" class="node">
<title>Node7</title>
<g id="a_Node000007"><a xlink:title=" ">
<polygon fill="#e0e0e0" stroke="#999999" points="433.4,-76 296.65,-76 296.65,-56 433.4,-56 433.4,-76"/>
<text text-anchor="middle" x="365.02" y="-62.5" font-family="Helvetica,sans-Serif" font-size="10.00">BreakableActor.generated.h</text>
</a>
</g>
</g>
<!-- Node1&#45;&gt;Node7 -->
<g id="edge7_Node000001_Node000007" class="edge">
<title>Node1&#45;&gt;Node7</title>
<g id="a_edge7_Node000001_Node000007"><a xlink:title=" ">
<path fill="none" stroke="#63b8ff" d="M203.16,-111.55C239.32,-101.6 285.72,-88.83 319.56,-79.51"/>
<polygon fill="#63b8ff" stroke="#63b8ff" points="320.35,-82.93 329.06,-76.9 318.49,-76.18 320.35,-82.93"/>
</a>
</g>
</g>
<!-- Node4&#45;&gt;Node2 -->
<g id="edge4_Node000004_Node000002" class="edge">
<title>Node4&#45;&gt;Node2</title>
<g id="a_edge4_Node000004_Node000002"><a xlink:title=" ">
<path fill="none" stroke="#63b8ff" d="M188.24,-55.59C160.46,-46.82 118.77,-33.66 87.89,-23.9"/>
<polygon fill="#63b8ff" stroke="#63b8ff" points="89.08,-20.61 78.49,-20.94 86.97,-27.28 89.08,-20.61"/>
</a>
</g>
</g>
<!-- Node5 -->
<g id="Node000005" class="node">
<title>Node5</title>
<g id="a_Node000005"><a xlink:title=" ">
<polygon fill="#e0e0e0" stroke="#999999" points="236.77,-20 135.27,-20 135.27,0 236.77,0 236.77,-20"/>
<text text-anchor="middle" x="186.02" y="-6.5" font-family="Helvetica,sans-Serif" font-size="10.00">UObject/Interface.h</text>
</a>
</g>
</g>
<!-- Node4&#45;&gt;Node5 -->
<g id="edge5_Node000004_Node000005" class="edge">
<title>Node4&#45;&gt;Node5</title>
<g id="a_edge5_Node000004_Node000005"><a xlink:title=" ">
<path fill="none" stroke="#63b8ff" d="M212.45,-55.59C208.27,-48.55 202.42,-38.67 197.28,-30"/>
<polygon fill="#63b8ff" stroke="#63b8ff" points="200.41,-28.42 192.31,-21.6 194.39,-31.99 200.41,-28.42"/>
</a>
</g>
</g>
<!-- Node6 -->
<g id="Node000006" class="node">
<title>Node6</title>
<g id="a_Node000006"><a xlink:title=" ">
<polygon fill="#e0e0e0" stroke="#999999" points="375.52,-20 254.52,-20 254.52,0 375.52,0 375.52,-20"/>
<text text-anchor="middle" x="315.02" y="-6.5" font-family="Helvetica,sans-Serif" font-size="10.00">HitInterface.generated.h</text>
</a>
</g>
</g>
<!-- Node4&#45;&gt;Node6 -->
<g id="edge6_Node000004_Node000006" class="edge">
<title>Node4&#45;&gt;Node6</title>
<g id="a_edge6_Node000004_Node000006"><a xlink:title=" ">
<path fill="none" stroke="#63b8ff" d="M234.92,-55.59C249.57,-47.44 271.05,-35.48 288.07,-26"/>
<polygon fill="#63b8ff" stroke="#63b8ff" points="289.64,-29.14 296.67,-21.22 286.23,-23.02 289.64,-29.14"/>
</a>
</g>
</g>
</g>
</svg>
