<?xml version="1.0" encoding="UTF-8" standalone="no"?>
<!DOCTYPE svg PUBLIC "-//W3C//DTD SVG 1.1//EN"
 "http://www.w3.org/Graphics/SVG/1.1/DTD/svg11.dtd">
<!-- Generated by graphviz version 12.2.1 (20241206.2353)
 -->
<!-- Title: Source/Slash/Public/Characters/CharacterTypes.h Pages: 1 -->
<svg width="770pt" height="176pt"
 viewBox="0.00 0.00 769.88 176.00" xmlns="http://www.w3.org/2000/svg" xmlns:xlink="http://www.w3.org/1999/xlink">
<g id="graph0" class="graph" transform="scale(1 1) rotate(0) translate(4 172)">
<title>Source/Slash/Public/Characters/CharacterTypes.h</title>
<!-- Node1 -->
<g id="Node000001" class="node">
<title>Node1</title>
<g id="a_Node000001"><a xlink:title=" ">
<polygon fill="#999999" stroke="#666666" points="417.38,-168 270.12,-168 270.12,-136 417.38,-136 417.38,-168"/>
<text text-anchor="start" x="278.12" y="-154.5" font-family="Helvetica,sans-Serif" font-size="10.00">Source/Slash/Public</text>
<text text-anchor="middle" x="343.75" y="-142.5" font-family="Helvetica,sans-Serif" font-size="10.00">/Characters/CharacterTypes.h</text>
</a>
</g>
</g>
<!-- Node2 -->
<g id="Node000002" class="node">
<title>Node2</title>
<g id="a_Node000002"><a xlink:href="_slash_anim_instance_8h.html" target="_top" xlink:title=" ">
<polygon fill="white" stroke="#666666" points="248.25,-100 85.25,-100 85.25,-68 248.25,-68 248.25,-100"/>
<text text-anchor="start" x="93.25" y="-86.5" font-family="Helvetica,sans-Serif" font-size="10.00">Source/Slash/Public</text>
<text text-anchor="middle" x="166.75" y="-74.5" font-family="Helvetica,sans-Serif" font-size="10.00">/Characters/SlashAnimInstance.h</text>
</a>
</g>
</g>
<!-- Node1&#45;&gt;Node2 -->
<g id="edge1_Node000001_Node000002" class="edge">
<title>Node1&#45;&gt;Node2</title>
<g id="a_edge1_Node000001_Node000002"><a xlink:title=" ">
<path fill="none" stroke="#63b8ff" d="M291.6,-131.56C265.04,-121.65 233.18,-109.77 208.29,-100.49"/>
<polygon fill="#63b8ff" stroke="#63b8ff" points="290.24,-134.78 300.83,-135 292.69,-128.22 290.24,-134.78"/>
</a>
</g>
</g>
<!-- Node4 -->
<g id="Node000004" class="node">
<title>Node4</title>
<g id="a_Node000004"><a xlink:href="_slash_character_8h.html" target="_top" xlink:title=" ">
<polygon fill="white" stroke="#666666" points="416.62,-100 270.88,-100 270.88,-68 416.62,-68 416.62,-100"/>
<text text-anchor="start" x="278.88" y="-86.5" font-family="Helvetica,sans-Serif" font-size="10.00">Source/Slash/Public</text>
<text text-anchor="middle" x="343.75" y="-74.5" font-family="Helvetica,sans-Serif" font-size="10.00">/Characters/SlashCharacter.h</text>
</a>
</g>
</g>
<!-- Node1&#45;&gt;Node4 -->
<g id="edge3_Node000001_Node000004" class="edge">
<title>Node1&#45;&gt;Node4</title>
<g id="a_edge3_Node000001_Node000004"><a xlink:title=" ">
<path fill="none" stroke="#63b8ff" d="M343.75,-124.31C343.75,-116.12 343.75,-107.38 343.75,-100.22"/>
<polygon fill="#63b8ff" stroke="#63b8ff" points="340.25,-124.18 343.75,-134.18 347.25,-124.18 340.25,-124.18"/>
</a>
</g>
</g>
<!-- Node8 -->
<g id="Node000008" class="node">
<title>Node8</title>
<g id="a_Node000008"><a xlink:href="_enemy_8h.html" target="_top" xlink:title=" ">
<polygon fill="white" stroke="#666666" points="686,-100 581.5,-100 581.5,-68 686,-68 686,-100"/>
<text text-anchor="start" x="589.5" y="-86.5" font-family="Helvetica,sans-Serif" font-size="10.00">Source/Slash/Public</text>
<text text-anchor="middle" x="633.75" y="-74.5" font-family="Helvetica,sans-Serif" font-size="10.00">/Enemy/Enemy.h</text>
</a>
</g>
</g>
<!-- Node1&#45;&gt;Node8 -->
<g id="edge8_Node000001_Node000008" class="edge">
<title>Node1&#45;&gt;Node8</title>
<g id="a_edge8_Node000001_Node000008"><a xlink:title=" ">
<path fill="none" stroke="#63b8ff" d="M422.91,-132.98C473.23,-121.53 536.96,-107.03 581.12,-96.98"/>
<polygon fill="#63b8ff" stroke="#63b8ff" points="422.19,-129.56 413.22,-135.19 423.75,-136.38 422.19,-129.56"/>
</a>
</g>
</g>
<!-- Node3 -->
<g id="Node000003" class="node">
<title>Node3</title>
<g id="a_Node000003"><a xlink:href="_slash_anim_instance_8cpp.html" target="_top" xlink:title=" ">
<polygon fill="white" stroke="#666666" points="173.5,-32 0,-32 0,0 173.5,0 173.5,-32"/>
<text text-anchor="start" x="8" y="-18.5" font-family="Helvetica,sans-Serif" font-size="10.00">Source/Slash/Private</text>
<text text-anchor="middle" x="86.75" y="-6.5" font-family="Helvetica,sans-Serif" font-size="10.00">/Characters/SlashAnimInstance.cpp</text>
</a>
</g>
</g>
<!-- Node2&#45;&gt;Node3 -->
<g id="edge2_Node000002_Node000003" class="edge">
<title>Node2&#45;&gt;Node3</title>
<g id="a_edge2_Node000002_Node000003"><a xlink:title=" ">
<path fill="none" stroke="#63b8ff" d="M139.6,-60.6C128.37,-51.34 115.64,-40.83 105.48,-32.45"/>
<polygon fill="#63b8ff" stroke="#63b8ff" points="137.09,-63.07 147.03,-66.73 141.54,-57.67 137.09,-63.07"/>
</a>
</g>
</g>
<!-- Node4&#45;&gt;Node3 -->
<g id="edge4_Node000004_Node000003" class="edge">
<title>Node4&#45;&gt;Node3</title>
<g id="a_edge4_Node000004_Node000003"><a xlink:title=" ">
<path fill="none" stroke="#63b8ff" d="M272.37,-64.67C232.97,-54.55 184.57,-42.12 147.07,-32.49"/>
<polygon fill="#63b8ff" stroke="#63b8ff" points="271.47,-68.05 282.03,-67.15 273.21,-61.27 271.47,-68.05"/>
</a>
</g>
</g>
<!-- Node5 -->
<g id="Node000005" class="node">
<title>Node5</title>
<g id="a_Node000005"><a xlink:href="_slash_character_8cpp.html" target="_top" xlink:title=" ">
<polygon fill="white" stroke="#666666" points="347.88,-32 191.62,-32 191.62,0 347.88,0 347.88,-32"/>
<text text-anchor="start" x="199.62" y="-18.5" font-family="Helvetica,sans-Serif" font-size="10.00">Source/Slash/Private</text>
<text text-anchor="middle" x="269.75" y="-6.5" font-family="Helvetica,sans-Serif" font-size="10.00">/Characters/SlashCharacter.cpp</text>
</a>
</g>
</g>
<!-- Node4&#45;&gt;Node5 -->
<g id="edge5_Node000004_Node000005" class="edge">
<title>Node4&#45;&gt;Node5</title>
<g id="a_edge5_Node000004_Node000005"><a xlink:title=" ">
<path fill="none" stroke="#63b8ff" d="M318.01,-60.05C307.78,-50.92 296.28,-40.67 287.08,-32.45"/>
<polygon fill="#63b8ff" stroke="#63b8ff" points="315.66,-62.64 325.46,-66.68 320.32,-57.42 315.66,-62.64"/>
</a>
</g>
</g>
<!-- Node6 -->
<g id="Node000006" class="node">
<title>Node6</title>
<g id="a_Node000006"><a xlink:href="_treasure_8cpp.html" target="_top" xlink:title=" ">
<polygon fill="white" stroke="#666666" points="473.88,-32 365.62,-32 365.62,0 473.88,0 473.88,-32"/>
<text text-anchor="start" x="373.62" y="-18.5" font-family="Helvetica,sans-Serif" font-size="10.00">Source/Slash/Private</text>
<text text-anchor="middle" x="419.75" y="-6.5" font-family="Helvetica,sans-Serif" font-size="10.00">/Items/Treasure.cpp</text>
</a>
</g>
</g>
<!-- Node4&#45;&gt;Node6 -->
<g id="edge6_Node000004_Node000006" class="edge">
<title>Node4&#45;&gt;Node6</title>
<g id="a_edge6_Node000004_Node000006"><a xlink:title=" ">
<path fill="none" stroke="#63b8ff" d="M369.86,-60.32C380.45,-51.13 392.4,-40.75 401.96,-32.45"/>
<polygon fill="#63b8ff" stroke="#63b8ff" points="367.78,-57.5 362.52,-66.7 372.36,-62.79 367.78,-57.5"/>
</a>
</g>
</g>
<!-- Node7 -->
<g id="Node000007" class="node">
<title>Node7</title>
<g id="a_Node000007"><a xlink:href="_weapon_8cpp.html" target="_top" xlink:title=" ">
<polygon fill="white" stroke="#666666" points="635.88,-32 491.62,-32 491.62,0 635.88,0 635.88,-32"/>
<text text-anchor="start" x="499.62" y="-18.5" font-family="Helvetica,sans-Serif" font-size="10.00">Source/Slash/Private</text>
<text text-anchor="middle" x="563.75" y="-6.5" font-family="Helvetica,sans-Serif" font-size="10.00">/Items/Weapons/Weapon.cpp</text>
</a>
</g>
</g>
<!-- Node4&#45;&gt;Node7 -->
<g id="edge7_Node000004_Node000007" class="edge">
<title>Node4&#45;&gt;Node7</title>
<g id="a_edge7_Node000004_Node000007"><a xlink:title=" ">
<path fill="none" stroke="#63b8ff" d="M405.94,-64.34C439.47,-54.28 480.36,-42.02 512.11,-32.49"/>
<polygon fill="#63b8ff" stroke="#63b8ff" points="405.35,-60.87 396.78,-67.09 407.36,-67.57 405.35,-60.87"/>
</a>
</g>
</g>
<!-- Node9 -->
<g id="Node000009" class="node">
<title>Node9</title>
<g id="a_Node000009"><a xlink:href="_enemy_8cpp.html" target="_top" xlink:title=" ">
<polygon fill="white" stroke="#666666" points="761.88,-32 653.62,-32 653.62,0 761.88,0 761.88,-32"/>
<text text-anchor="start" x="661.62" y="-18.5" font-family="Helvetica,sans-Serif" font-size="10.00">Source/Slash/Private</text>
<text text-anchor="middle" x="707.75" y="-6.5" font-family="Helvetica,sans-Serif" font-size="10.00">/Enemy/Enemy.cpp</text>
</a>
</g>
</g>
<!-- Node8&#45;&gt;Node9 -->
<g id="edge9_Node000008_Node000009" class="edge">
<title>Node8&#45;&gt;Node9</title>
<g id="a_edge9_Node000008_Node000009"><a xlink:title=" ">
<path fill="none" stroke="#63b8ff" d="M659.49,-60.05C669.72,-50.92 681.22,-40.67 690.42,-32.45"/>
<polygon fill="#63b8ff" stroke="#63b8ff" points="657.18,-57.42 652.04,-66.68 661.84,-62.64 657.18,-57.42"/>
</a>
</g>
</g>
</g>
</svg>
