<?xml version="1.0" encoding="UTF-8" standalone="no"?>
<!DOCTYPE svg PUBLIC "-//W3C//DTD SVG 1.1//EN"
 "http://www.w3.org/Graphics/SVG/1.1/DTD/svg11.dtd">
<!-- Generated by graphviz version 12.2.1 (20241206.2353)
 -->
<!-- Title: Source/Slash/DebugMacros.h Pages: 1 -->
<svg width="414pt" height="96pt"
 viewBox="0.00 0.00 414.12 96.00" xmlns="http://www.w3.org/2000/svg" xmlns:xlink="http://www.w3.org/1999/xlink">
<g id="graph0" class="graph" transform="scale(1 1) rotate(0) translate(4 92)">
<title>Source/Slash/DebugMacros.h</title>
<!-- Node1 -->
<g id="Node000001" class="node">
<title>Node1</title>
<g id="a_Node000001"><a xlink:title=" ">
<polygon fill="#999999" stroke="#666666" points="299.25,-88 152.75,-88 152.75,-68 299.25,-68 299.25,-88"/>
<text text-anchor="middle" x="226" y="-74.5" font-family="Helvetica,sans-Serif" font-size="10.00">Source/Slash/DebugMacros.h</text>
</a>
</g>
</g>
<!-- Node2 -->
<g id="Node000002" class="node">
<title>Node2</title>
<g id="a_Node000002"><a xlink:href="_base_character_8cpp.html" target="_top" xlink:title=" ">
<polygon fill="white" stroke="#666666" points="154,-32 0,-32 0,0 154,0 154,-32"/>
<text text-anchor="start" x="8" y="-18.5" font-family="Helvetica,sans-Serif" font-size="10.00">Source/Slash/Private</text>
<text text-anchor="middle" x="77" y="-6.5" font-family="Helvetica,sans-Serif" font-size="10.00">/Characters/BaseCharacter.cpp</text>
</a>
</g>
</g>
<!-- Node1&#45;&gt;Node2 -->
<g id="edge1_Node000001_Node000002" class="edge">
<title>Node1&#45;&gt;Node2</title>
<g id="a_edge1_Node000001_Node000002"><a xlink:title=" ">
<path fill="none" stroke="#63b8ff" d="M192.17,-63.38C169.35,-54.19 139.2,-42.05 115.47,-32.49"/>
<polygon fill="#63b8ff" stroke="#63b8ff" points="190.73,-66.57 201.31,-67.06 193.35,-60.08 190.73,-66.57"/>
</a>
</g>
</g>
<!-- Node3 -->
<g id="Node000003" class="node">
<title>Node3</title>
<g id="a_Node000003"><a xlink:href="_enemy_8cpp.html" target="_top" xlink:title=" ">
<polygon fill="white" stroke="#666666" points="280.12,-32 171.88,-32 171.88,0 280.12,0 280.12,-32"/>
<text text-anchor="start" x="179.88" y="-18.5" font-family="Helvetica,sans-Serif" font-size="10.00">Source/Slash/Private</text>
<text text-anchor="middle" x="226" y="-6.5" font-family="Helvetica,sans-Serif" font-size="10.00">/Enemy/Enemy.cpp</text>
</a>
</g>
</g>
<!-- Node1&#45;&gt;Node3 -->
<g id="edge2_Node000001_Node000003" class="edge">
<title>Node1&#45;&gt;Node3</title>
<g id="a_edge2_Node000001_Node000003"><a xlink:title=" ">
<path fill="none" stroke="#63b8ff" d="M226,-56.31C226,-48.37 226,-39.46 226,-32.14"/>
<polygon fill="#63b8ff" stroke="#63b8ff" points="222.5,-56.11 226,-66.11 229.5,-56.11 222.5,-56.11"/>
</a>
</g>
</g>
<!-- Node4 -->
<g id="Node000004" class="node">
<title>Node4</title>
<g id="a_Node000004"><a xlink:href="_item_8cpp.html" target="_top" xlink:title=" ">
<polygon fill="white" stroke="#666666" points="406.12,-32 297.88,-32 297.88,0 406.12,0 406.12,-32"/>
<text text-anchor="start" x="305.88" y="-18.5" font-family="Helvetica,sans-Serif" font-size="10.00">Source/Slash/Private</text>
<text text-anchor="middle" x="352" y="-6.5" font-family="Helvetica,sans-Serif" font-size="10.00">/Items/Item.cpp</text>
</a>
</g>
</g>
<!-- Node1&#45;&gt;Node4 -->
<g id="edge3_Node000001_Node000004" class="edge">
<title>Node1&#45;&gt;Node4</title>
<g id="a_edge3_Node000001_Node000004"><a xlink:title=" ">
<path fill="none" stroke="#63b8ff" d="M255.97,-62.73C275.17,-53.58 300.08,-41.72 319.72,-32.37"/>
<polygon fill="#63b8ff" stroke="#63b8ff" points="254.58,-59.51 247.05,-66.97 257.59,-65.83 254.58,-59.51"/>
</a>
</g>
</g>
</g>
</svg>
