<?xml version="1.0" encoding="UTF-8" standalone="no"?>
<!DOCTYPE svg PUBLIC "-//W3C//DTD SVG 1.1//EN"
 "http://www.w3.org/Graphics/SVG/1.1/DTD/svg11.dtd">
<!-- Generated by graphviz version 12.2.1 (20241206.2353)
 -->
<!-- Title: Source/Slash/Private/Enemy/Enemy.cpp Pages: 1 -->
<svg width="2014pt" height="276pt"
 viewBox="0.00 0.00 2013.88 276.00" xmlns="http://www.w3.org/2000/svg" xmlns:xlink="http://www.w3.org/1999/xlink">
<g id="graph0" class="graph" transform="scale(1 1) rotate(0) translate(4 272)">
<title>Source/Slash/Private/Enemy/Enemy.cpp</title>
<!-- Node1 -->
<g id="Node000001" class="node">
<title>Node1</title>
<g id="a_Node000001"><a xlink:title=" ">
<polygon fill="#999999" stroke="#666666" points="1398.62,-268 1290.38,-268 1290.38,-236 1398.62,-236 1398.62,-268"/>
<text text-anchor="start" x="1298.38" y="-254.5" font-family="Helvetica,sans-Serif" font-size="10.00">Source/Slash/Private</text>
<text text-anchor="middle" x="1344.5" y="-242.5" font-family="Helvetica,sans-Serif" font-size="10.00">/Enemy/Enemy.cpp</text>
</a>
</g>
</g>
<!-- Node2 -->
<g id="Node000002" class="node">
<title>Node2</title>
<g id="a_Node000002"><a xlink:href="_enemy_8h.html" target="_top" xlink:title=" ">
<polygon fill="white" stroke="#666666" points="571.5,-194 483.5,-194 483.5,-174 571.5,-174 571.5,-194"/>
<text text-anchor="middle" x="527.5" y="-180.5" font-family="Helvetica,sans-Serif" font-size="10.00">Enemy/Enemy.h</text>
</a>
</g>
</g>
<!-- Node1&#45;&gt;Node2 -->
<g id="edge1_Node000001_Node000002" class="edge">
<title>Node1&#45;&gt;Node2</title>
<g id="a_edge1_Node000001_Node000002"><a xlink:title=" ">
<path fill="none" stroke="#63b8ff" d="M1289.94,-246.59C1141.69,-234.62 732.52,-201.56 583.07,-189.49"/>
<polygon fill="#63b8ff" stroke="#63b8ff" points="583.69,-186.03 573.44,-188.71 583.13,-193.01 583.69,-186.03"/>
</a>
</g>
</g>
<!-- Node12 -->
<g id="Node000012" class="node">
<title>Node12</title>
<g id="a_Node000012"><a xlink:href="_attribute_component_8h.html" target="_top" xlink:title=" ">
<polygon fill="white" stroke="#666666" points="926.38,-194 756.62,-194 756.62,-174 926.38,-174 926.38,-194"/>
<text text-anchor="middle" x="841.5" y="-180.5" font-family="Helvetica,sans-Serif" font-size="10.00">Components/AttributeComponent.h</text>
</a>
</g>
</g>
<!-- Node1&#45;&gt;Node12 -->
<g id="edge13_Node000001_Node000012" class="edge">
<title>Node1&#45;&gt;Node12</title>
<g id="a_edge13_Node000001_Node000012"><a xlink:title=" ">
<path fill="none" stroke="#63b8ff" d="M1290.11,-244.38C1213.12,-234.93 1067.97,-216.86 944.5,-200 935.53,-198.77 926.12,-197.45 916.79,-196.12"/>
<polygon fill="#63b8ff" stroke="#63b8ff" points="917.38,-192.67 906.98,-194.71 916.38,-199.6 917.38,-192.67"/>
</a>
</g>
</g>
<!-- Node15 -->
<g id="Node000015" class="node">
<title>Node15</title>
<g id="a_Node000015"><a xlink:title=" ">
<polygon fill="#e0e0e0" stroke="#999999" points="1135.75,-200 953.25,-200 953.25,-168 1135.75,-168 1135.75,-200"/>
<text text-anchor="start" x="961.25" y="-186.5" font-family="Helvetica,sans-Serif" font-size="10.00">GameFramework/CharacterMovement</text>
<text text-anchor="middle" x="1044.5" y="-174.5" font-family="Helvetica,sans-Serif" font-size="10.00">Component.h</text>
</a>
</g>
</g>
<!-- Node1&#45;&gt;Node15 -->
<g id="edge17_Node000001_Node000015" class="edge">
<title>Node1&#45;&gt;Node15</title>
<g id="a_edge17_Node000001_Node000015"><a xlink:title=" ">
<path fill="none" stroke="#63b8ff" d="M1290.17,-239.05C1244.4,-228.98 1178.22,-214.42 1126.08,-202.95"/>
<polygon fill="#63b8ff" stroke="#63b8ff" points="1126.83,-199.53 1116.32,-200.8 1125.33,-206.37 1126.83,-199.53"/>
</a>
</g>
</g>
<!-- Node16 -->
<g id="Node000016" class="node">
<title>Node16</title>
<g id="a_Node000016"><a xlink:href="_health_bar_component_8h.html" target="_top" xlink:title=" ">
<polygon fill="white" stroke="#666666" points="1297.25,-194 1153.75,-194 1153.75,-174 1297.25,-174 1297.25,-194"/>
<text text-anchor="middle" x="1225.5" y="-180.5" font-family="Helvetica,sans-Serif" font-size="10.00">HUD/HealthBarComponent.h</text>
</a>
</g>
</g>
<!-- Node1&#45;&gt;Node16 -->
<g id="edge18_Node000001_Node000016" class="edge">
<title>Node1&#45;&gt;Node16</title>
<g id="a_edge18_Node000001_Node000016"><a xlink:title=" ">
<path fill="none" stroke="#63b8ff" d="M1316.6,-235.53C1297.24,-224.79 1271.59,-210.56 1252.44,-199.94"/>
<polygon fill="#63b8ff" stroke="#63b8ff" points="1254.32,-196.98 1243.88,-195.19 1250.93,-203.11 1254.32,-196.98"/>
</a>
</g>
</g>
<!-- Node19 -->
<g id="Node000019" class="node">
<title>Node19</title>
<g id="a_Node000019"><a xlink:href="_soul_8h.html" target="_top" xlink:title=" ">
<polygon fill="white" stroke="#666666" points="1579.25,-132 1507.75,-132 1507.75,-112 1579.25,-112 1579.25,-132"/>
<text text-anchor="middle" x="1543.5" y="-118.5" font-family="Helvetica,sans-Serif" font-size="10.00">Items/Soul.h</text>
</a>
</g>
</g>
<!-- Node1&#45;&gt;Node19 -->
<g id="edge22_Node000001_Node000019" class="edge">
<title>Node1&#45;&gt;Node19</title>
<g id="a_edge22_Node000001_Node000019"><a xlink:title=" ">
<path fill="none" stroke="#63b8ff" d="M1340.45,-235.54C1336.65,-217.2 1333.66,-186.75 1349.5,-168 1354.3,-162.32 1440.36,-143.93 1496.23,-132.49"/>
<polygon fill="#63b8ff" stroke="#63b8ff" points="1496.73,-135.96 1505.83,-130.54 1495.33,-129.1 1496.73,-135.96"/>
</a>
</g>
</g>
<!-- Node24 -->
<g id="Node000024" class="node">
<title>Node24</title>
<g id="a_Node000024"><a xlink:href="_weapon_8h.html" target="_top" xlink:title=" ">
<polygon fill="white" stroke="#666666" points="1727.88,-132 1597.12,-132 1597.12,-112 1727.88,-112 1727.88,-132"/>
<text text-anchor="middle" x="1662.5" y="-118.5" font-family="Helvetica,sans-Serif" font-size="10.00">Items/Weapons/Weapon.h</text>
</a>
</g>
</g>
<!-- Node1&#45;&gt;Node24 -->
<g id="edge29_Node000001_Node000024" class="edge">
<title>Node1&#45;&gt;Node24</title>
<g id="a_edge29_Node000001_Node000024"><a xlink:title=" ">
<path fill="none" stroke="#63b8ff" d="M1347.2,-235.71C1351.43,-216.65 1361.5,-184.58 1383.5,-168 1391.62,-161.88 1506.12,-144.83 1585.89,-133.56"/>
<polygon fill="#63b8ff" stroke="#63b8ff" points="1585.98,-137.08 1595.4,-132.22 1585.01,-130.15 1585.98,-137.08"/>
</a>
</g>
</g>
<!-- Node26 -->
<g id="Node000026" class="node">
<title>Node26</title>
<g id="a_Node000026"><a xlink:title=" ">
<polygon fill="#e0e0e0" stroke="#999999" points="1519,-200 1392,-200 1392,-168 1519,-168 1519,-200"/>
<text text-anchor="start" x="1400" y="-186.5" font-family="Helvetica,sans-Serif" font-size="10.00">Navigation/PathFollowing</text>
<text text-anchor="middle" x="1455.5" y="-174.5" font-family="Helvetica,sans-Serif" font-size="10.00">Component.h</text>
</a>
</g>
</g>
<!-- Node1&#45;&gt;Node26 -->
<g id="edge33_Node000001_Node000026" class="edge">
<title>Node1&#45;&gt;Node26</title>
<g id="a_edge33_Node000001_Node000026"><a xlink:title=" ">
<path fill="none" stroke="#63b8ff" d="M1370.52,-235.53C1385.28,-226.75 1403.94,-215.66 1420.02,-206.1"/>
<polygon fill="#63b8ff" stroke="#63b8ff" points="1421.53,-209.27 1428.34,-201.15 1417.95,-203.25 1421.53,-209.27"/>
</a>
</g>
</g>
<!-- Node27 -->
<g id="Node000027" class="node">
<title>Node27</title>
<g id="a_Node000027"><a xlink:title=" ">
<polygon fill="#e0e0e0" stroke="#999999" points="1721.5,-194 1537.5,-194 1537.5,-174 1721.5,-174 1721.5,-194"/>
<text text-anchor="middle" x="1629.5" y="-180.5" font-family="Helvetica,sans-Serif" font-size="10.00">Perception/PawnSensingComponent.h</text>
</a>
</g>
</g>
<!-- Node1&#45;&gt;Node27 -->
<g id="edge34_Node000001_Node000027" class="edge">
<title>Node1&#45;&gt;Node27</title>
<g id="a_edge34_Node000001_Node000027"><a xlink:title=" ">
<path fill="none" stroke="#63b8ff" d="M1399.11,-238.35C1450.65,-226.42 1527.36,-208.65 1577.89,-196.95"/>
<polygon fill="#63b8ff" stroke="#63b8ff" points="1578.46,-200.41 1587.41,-194.75 1576.88,-193.59 1578.46,-200.41"/>
</a>
</g>
</g>
<!-- Node28 -->
<g id="Node000028" class="node">
<title>Node28</title>
<g id="a_Node000028"><a xlink:title=" ">
<polygon fill="#e0e0e0" stroke="#999999" points="1875.5,-200 1739.5,-200 1739.5,-168 1875.5,-168 1875.5,-200"/>
<text text-anchor="start" x="1747.5" y="-186.5" font-family="Helvetica,sans-Serif" font-size="10.00">Runtime/AIModule/Classes</text>
<text text-anchor="middle" x="1807.5" y="-174.5" font-family="Helvetica,sans-Serif" font-size="10.00">/AIController.h</text>
</a>
</g>
</g>
<!-- Node1&#45;&gt;Node28 -->
<g id="edge35_Node000001_Node000028" class="edge">
<title>Node1&#45;&gt;Node28</title>
<g id="a_edge35_Node000001_Node000028"><a xlink:title=" ">
<path fill="none" stroke="#63b8ff" d="M1398.99,-244.86C1471.69,-236.44 1604.67,-220.22 1727.97,-200.36"/>
<polygon fill="#63b8ff" stroke="#63b8ff" points="1728.3,-203.85 1737.61,-198.79 1727.18,-196.94 1728.3,-203.85"/>
</a>
</g>
</g>
<!-- Node29 -->
<g id="Node000029" class="node">
<title>Node29</title>
<g id="a_Node000029"><a xlink:href="_debug_macros_8h.html" target="_top" xlink:title=" ">
<polygon fill="white" stroke="#666666" points="2005.88,-194 1893.12,-194 1893.12,-174 2005.88,-174 2005.88,-194"/>
<text text-anchor="middle" x="1949.5" y="-180.5" font-family="Helvetica,sans-Serif" font-size="10.00">Slash/DebugMacros.h</text>
</a>
</g>
</g>
<!-- Node1&#45;&gt;Node29 -->
<g id="edge36_Node000001_Node000029" class="edge">
<title>Node1&#45;&gt;Node29</title>
<g id="a_edge36_Node000001_Node000029"><a xlink:title=" ">
<path fill="none" stroke="#63b8ff" d="M1398.84,-248.26C1496.53,-242.8 1708.11,-228.55 1884.5,-200 1889.86,-199.13 1895.44,-198.08 1900.98,-196.94"/>
<polygon fill="#63b8ff" stroke="#63b8ff" points="1901.69,-200.36 1910.72,-194.82 1900.21,-193.52 1901.69,-200.36"/>
</a>
</g>
</g>
<!-- Node3 -->
<g id="Node000003" class="node">
<title>Node3</title>
<g id="a_Node000003"><a xlink:title=" ">
<polygon fill="#e0e0e0" stroke="#999999" points="961,-20 882,-20 882,0 961,0 961,-20"/>
<text text-anchor="middle" x="921.5" y="-6.5" font-family="Helvetica,sans-Serif" font-size="10.00">CoreMinimal.h</text>
</a>
</g>
</g>
<!-- Node2&#45;&gt;Node3 -->
<g id="edge2_Node000002_Node000003" class="edge">
<title>Node2&#45;&gt;Node3</title>
<g id="a_edge2_Node000002_Node000003"><a xlink:title=" ">
<path fill="none" stroke="#63b8ff" d="M527.22,-173.74C527.3,-158.67 529.73,-128.8 546.5,-112 592.07,-66.36 778.97,-32.53 870.5,-18.34"/>
<polygon fill="#63b8ff" stroke="#63b8ff" points="870.86,-21.83 880.21,-16.86 869.8,-14.91 870.86,-21.83"/>
</a>
</g>
</g>
<!-- Node4 -->
<g id="Node000004" class="node">
<title>Node4</title>
<g id="a_Node000004"><a xlink:href="_base_character_8h.html" target="_top" xlink:title=" ">
<polygon fill="white" stroke="#666666" points="499.75,-132 359.25,-132 359.25,-112 499.75,-112 499.75,-132"/>
<text text-anchor="middle" x="429.5" y="-118.5" font-family="Helvetica,sans-Serif" font-size="10.00">Characters/BaseCharacter.h</text>
</a>
</g>
</g>
<!-- Node2&#45;&gt;Node4 -->
<g id="edge3_Node000002_Node000004" class="edge">
<title>Node2&#45;&gt;Node4</title>
<g id="a_edge3_Node000002_Node000004"><a xlink:title=" ">
<path fill="none" stroke="#63b8ff" d="M512.19,-173.62C496.73,-164.16 472.59,-149.38 454.38,-138.23"/>
<polygon fill="#63b8ff" stroke="#63b8ff" points="456.35,-135.34 446,-133.1 452.7,-141.31 456.35,-135.34"/>
</a>
</g>
</g>
<!-- Node10 -->
<g id="Node000010" class="node">
<title>Node10</title>
<g id="a_Node000010"><a xlink:href="_character_types_8h.html" target="_top" xlink:title=" ">
<polygon fill="white" stroke="#666666" points="699.62,-132 555.38,-132 555.38,-112 699.62,-112 699.62,-132"/>
<text text-anchor="middle" x="627.5" y="-118.5" font-family="Helvetica,sans-Serif" font-size="10.00">Characters/CharacterTypes.h</text>
</a>
</g>
</g>
<!-- Node2&#45;&gt;Node10 -->
<g id="edge11_Node000002_Node000010" class="edge">
<title>Node2&#45;&gt;Node10</title>
<g id="a_edge11_Node000002_Node000010"><a xlink:title=" ">
<path fill="none" stroke="#63b8ff" d="M543.12,-173.62C558.9,-164.16 583.53,-149.38 602.12,-138.23"/>
<polygon fill="#63b8ff" stroke="#63b8ff" points="603.91,-141.23 610.69,-133.09 600.31,-135.23 603.91,-141.23"/>
</a>
</g>
</g>
<!-- Node11 -->
<g id="Node000011" class="node">
<title>Node11</title>
<g id="a_Node000011"><a xlink:title=" ">
<polygon fill="#e0e0e0" stroke="#999999" points="341.5,-132 241.5,-132 241.5,-112 341.5,-112 341.5,-132"/>
<text text-anchor="middle" x="291.5" y="-118.5" font-family="Helvetica,sans-Serif" font-size="10.00">Enemy.generated.h</text>
</a>
</g>
</g>
<!-- Node2&#45;&gt;Node11 -->
<g id="edge12_Node000002_Node000011" class="edge">
<title>Node2&#45;&gt;Node11</title>
<g id="a_edge12_Node000002_Node000011"><a xlink:title=" ">
<path fill="none" stroke="#63b8ff" d="M490.37,-173.56C449.77,-163.24 384.56,-146.66 339.96,-135.32"/>
<polygon fill="#63b8ff" stroke="#63b8ff" points="340.83,-131.93 330.27,-132.86 339.1,-138.71 340.83,-131.93"/>
</a>
</g>
</g>
<!-- Node4&#45;&gt;Node3 -->
<g id="edge4_Node000004_Node000003" class="edge">
<title>Node4&#45;&gt;Node3</title>
<g id="a_edge4_Node000004_Node000003"><a xlink:title=" ">
<path fill="none" stroke="#63b8ff" d="M445.72,-111.64C474.2,-95.35 532.31,-62.88 554.5,-56 663.54,-22.18 798.2,-13.63 870.26,-11.56"/>
<polygon fill="#63b8ff" stroke="#63b8ff" points="870.28,-15.07 880.19,-11.31 870.1,-8.07 870.28,-15.07"/>
</a>
</g>
</g>
<!-- Node5 -->
<g id="Node000005" class="node">
<title>Node5</title>
<g id="a_Node000005"><a xlink:title=" ">
<polygon fill="#e0e0e0" stroke="#999999" points="502,-76 357,-76 357,-56 502,-56 502,-76"/>
<text text-anchor="middle" x="429.5" y="-62.5" font-family="Helvetica,sans-Serif" font-size="10.00">GameFramework/Character.h</text>
</a>
</g>
</g>
<!-- Node4&#45;&gt;Node5 -->
<g id="edge5_Node000004_Node000005" class="edge">
<title>Node4&#45;&gt;Node5</title>
<g id="a_edge5_Node000004_Node000005"><a xlink:title=" ">
<path fill="none" stroke="#63b8ff" d="M429.5,-111.59C429.5,-105.01 429.5,-95.96 429.5,-87.73"/>
<polygon fill="#63b8ff" stroke="#63b8ff" points="433,-87.81 429.5,-77.81 426,-87.81 433,-87.81"/>
</a>
</g>
</g>
<!-- Node6 -->
<g id="Node000006" class="node">
<title>Node6</title>
<g id="a_Node000006"><a xlink:href="_hit_interface_8h.html" target="_top" xlink:title=" ">
<polygon fill="white" stroke="#666666" points="185.38,-76 63.62,-76 63.62,-56 185.38,-56 185.38,-76"/>
<text text-anchor="middle" x="124.5" y="-62.5" font-family="Helvetica,sans-Serif" font-size="10.00">Interfaces/HitInterface.h</text>
</a>
</g>
</g>
<!-- Node4&#45;&gt;Node6 -->
<g id="edge6_Node000004_Node000006" class="edge">
<title>Node4&#45;&gt;Node6</title>
<g id="a_edge6_Node000004_Node000006"><a xlink:title=" ">
<path fill="none" stroke="#63b8ff" d="M376.02,-111.53C323.92,-102.31 244.64,-88.27 189.05,-78.43"/>
<polygon fill="#63b8ff" stroke="#63b8ff" points="189.86,-75.02 179.4,-76.72 188.64,-81.91 189.86,-75.02"/>
</a>
</g>
</g>
<!-- Node9 -->
<g id="Node000009" class="node">
<title>Node9</title>
<g id="a_Node000009"><a xlink:title=" ">
<polygon fill="#e0e0e0" stroke="#999999" points="339.12,-76 203.88,-76 203.88,-56 339.12,-56 339.12,-76"/>
<text text-anchor="middle" x="271.5" y="-62.5" font-family="Helvetica,sans-Serif" font-size="10.00">BaseCharacter.generated.h</text>
</a>
</g>
</g>
<!-- Node4&#45;&gt;Node9 -->
<g id="edge10_Node000004_Node000009" class="edge">
<title>Node4&#45;&gt;Node9</title>
<g id="a_edge10_Node000004_Node000009"><a xlink:title=" ">
<path fill="none" stroke="#63b8ff" d="M401.98,-111.59C376.53,-102.9 338.47,-89.89 310.01,-80.16"/>
<polygon fill="#63b8ff" stroke="#63b8ff" points="311.26,-76.89 300.67,-76.97 309,-83.52 311.26,-76.89"/>
</a>
</g>
</g>
<!-- Node6&#45;&gt;Node3 -->
<g id="edge7_Node000006_Node000003" class="edge">
<title>Node6&#45;&gt;Node3</title>
<g id="a_edge7_Node000006_Node000003"><a xlink:title=" ">
<path fill="none" stroke="#63b8ff" d="M185.56,-56.91C188.58,-56.58 191.57,-56.28 194.5,-56 447.61,-31.92 751.57,-17.91 870.38,-13"/>
<polygon fill="#63b8ff" stroke="#63b8ff" points="870.27,-16.51 880.12,-12.6 869.98,-9.52 870.27,-16.51"/>
</a>
</g>
</g>
<!-- Node7 -->
<g id="Node000007" class="node">
<title>Node7</title>
<g id="a_Node000007"><a xlink:title=" ">
<polygon fill="#e0e0e0" stroke="#999999" points="240.25,-20 138.75,-20 138.75,0 240.25,0 240.25,-20"/>
<text text-anchor="middle" x="189.5" y="-6.5" font-family="Helvetica,sans-Serif" font-size="10.00">UObject/Interface.h</text>
</a>
</g>
</g>
<!-- Node6&#45;&gt;Node7 -->
<g id="edge8_Node000006_Node000007" class="edge">
<title>Node6&#45;&gt;Node7</title>
<g id="a_edge8_Node000006_Node000007"><a xlink:title=" ">
<path fill="none" stroke="#63b8ff" d="M135.82,-55.59C145.14,-47.85 158.58,-36.69 169.68,-27.47"/>
<polygon fill="#63b8ff" stroke="#63b8ff" points="171.69,-30.35 177.14,-21.27 167.21,-24.96 171.69,-30.35"/>
</a>
</g>
</g>
<!-- Node8 -->
<g id="Node000008" class="node">
<title>Node8</title>
<g id="a_Node000008"><a xlink:title=" ">
<polygon fill="#e0e0e0" stroke="#999999" points="121,-20 0,-20 0,0 121,0 121,-20"/>
<text text-anchor="middle" x="60.5" y="-6.5" font-family="Helvetica,sans-Serif" font-size="10.00">HitInterface.generated.h</text>
</a>
</g>
</g>
<!-- Node6&#45;&gt;Node8 -->
<g id="edge9_Node000006_Node000008" class="edge">
<title>Node6&#45;&gt;Node8</title>
<g id="a_edge9_Node000006_Node000008"><a xlink:title=" ">
<path fill="none" stroke="#63b8ff" d="M113.35,-55.59C104.17,-47.85 90.95,-36.69 80.02,-27.47"/>
<polygon fill="#63b8ff" stroke="#63b8ff" points="82.58,-25.05 72.68,-21.27 78.06,-30.4 82.58,-25.05"/>
</a>
</g>
</g>
<!-- Node12&#45;&gt;Node3 -->
<g id="edge14_Node000012_Node000003" class="edge">
<title>Node12&#45;&gt;Node3</title>
<g id="a_edge14_Node000012_Node000003"><a xlink:title=" ">
<path fill="none" stroke="#63b8ff" d="M807.28,-173.51C773.62,-162.28 729.56,-141.33 746.5,-112 773.63,-65.01 831.87,-37.93 873.71,-23.86"/>
<polygon fill="#63b8ff" stroke="#63b8ff" points="874.61,-27.25 883.06,-20.86 872.47,-20.58 874.61,-27.25"/>
</a>
</g>
</g>
<!-- Node13 -->
<g id="Node000013" class="node">
<title>Node13</title>
<g id="a_Node000013"><a xlink:title=" ">
<polygon fill="#e0e0e0" stroke="#999999" points="911.62,-132 755.38,-132 755.38,-112 911.62,-112 911.62,-132"/>
<text text-anchor="middle" x="833.5" y="-118.5" font-family="Helvetica,sans-Serif" font-size="10.00">Components/ActorComponent.h</text>
</a>
</g>
</g>
<!-- Node12&#45;&gt;Node13 -->
<g id="edge15_Node000012_Node000013" class="edge">
<title>Node12&#45;&gt;Node13</title>
<g id="a_edge15_Node000012_Node000013"><a xlink:title=" ">
<path fill="none" stroke="#63b8ff" d="M840.25,-173.62C839.18,-165.56 837.59,-153.65 836.22,-143.41"/>
<polygon fill="#63b8ff" stroke="#63b8ff" points="839.71,-143.06 834.92,-133.61 832.77,-143.99 839.71,-143.06"/>
</a>
</g>
</g>
<!-- Node14 -->
<g id="Node000014" class="node">
<title>Node14</title>
<g id="a_Node000014"><a xlink:title=" ">
<polygon fill="#e0e0e0" stroke="#999999" points="1087,-132 930,-132 930,-112 1087,-112 1087,-132"/>
<text text-anchor="middle" x="1008.5" y="-118.5" font-family="Helvetica,sans-Serif" font-size="10.00">AttributeComponent.generated.h</text>
</a>
</g>
</g>
<!-- Node12&#45;&gt;Node14 -->
<g id="edge16_Node000012_Node000014" class="edge">
<title>Node12&#45;&gt;Node14</title>
<g id="a_edge16_Node000012_Node000014"><a xlink:title=" ">
<path fill="none" stroke="#63b8ff" d="M867.59,-173.62C895.58,-163.57 940.23,-147.53 971.76,-136.2"/>
<polygon fill="#63b8ff" stroke="#63b8ff" points="972.66,-139.59 980.89,-132.92 970.3,-133.01 972.66,-139.59"/>
</a>
</g>
</g>
<!-- Node16&#45;&gt;Node3 -->
<g id="edge19_Node000016_Node000003" class="edge">
<title>Node16&#45;&gt;Node3</title>
<g id="a_edge19_Node000016_Node000003"><a xlink:title=" ">
<path fill="none" stroke="#63b8ff" d="M1208.71,-173.63C1190.44,-163.42 1160.37,-146.6 1134.5,-132 1067.18,-94.01 988.08,-48.97 947.87,-26.04"/>
<polygon fill="#63b8ff" stroke="#63b8ff" points="949.79,-23.11 939.37,-21.2 946.32,-29.19 949.79,-23.11"/>
</a>
</g>
</g>
<!-- Node17 -->
<g id="Node000017" class="node">
<title>Node17</title>
<g id="a_Node000017"><a xlink:title=" ">
<polygon fill="#e0e0e0" stroke="#999999" points="1307.38,-132 1143.62,-132 1143.62,-112 1307.38,-112 1307.38,-132"/>
<text text-anchor="middle" x="1225.5" y="-118.5" font-family="Helvetica,sans-Serif" font-size="10.00">Components/WidgetComponent.h</text>
</a>
</g>
</g>
<!-- Node16&#45;&gt;Node17 -->
<g id="edge20_Node000016_Node000017" class="edge">
<title>Node16&#45;&gt;Node17</title>
<g id="a_edge20_Node000016_Node000017"><a xlink:title=" ">
<path fill="none" stroke="#63b8ff" d="M1225.5,-173.62C1225.5,-165.56 1225.5,-153.65 1225.5,-143.41"/>
<polygon fill="#63b8ff" stroke="#63b8ff" points="1229,-143.63 1225.5,-133.63 1222,-143.63 1229,-143.63"/>
</a>
</g>
</g>
<!-- Node18 -->
<g id="Node000018" class="node">
<title>Node18</title>
<g id="a_Node000018"><a xlink:title=" ">
<polygon fill="#e0e0e0" stroke="#999999" points="1489.38,-132 1325.62,-132 1325.62,-112 1489.38,-112 1489.38,-132"/>
<text text-anchor="middle" x="1407.5" y="-118.5" font-family="Helvetica,sans-Serif" font-size="10.00">HealthBarComponent.generated.h</text>
</a>
</g>
</g>
<!-- Node16&#45;&gt;Node18 -->
<g id="edge21_Node000016_Node000018" class="edge">
<title>Node16&#45;&gt;Node18</title>
<g id="a_edge21_Node000016_Node000018"><a xlink:title=" ">
<path fill="none" stroke="#63b8ff" d="M1253.94,-173.62C1284.7,-163.48 1333.95,-147.25 1368.36,-135.9"/>
<polygon fill="#63b8ff" stroke="#63b8ff" points="1369.12,-139.34 1377.53,-132.88 1366.93,-132.69 1369.12,-139.34"/>
</a>
</g>
</g>
<!-- Node19&#45;&gt;Node3 -->
<g id="edge23_Node000019_Node000003" class="edge">
<title>Node19&#45;&gt;Node3</title>
<g id="a_edge23_Node000019_Node000003"><a xlink:title=" ">
<path fill="none" stroke="#63b8ff" d="M1507.65,-113.75C1504.56,-113.15 1501.48,-112.56 1498.5,-112 1304.76,-75.68 1073.63,-36.46 972.79,-19.55"/>
<polygon fill="#63b8ff" stroke="#63b8ff" points="973.37,-16.1 962.93,-17.9 972.21,-23 973.37,-16.1"/>
</a>
</g>
</g>
<!-- Node20 -->
<g id="Node000020" class="node">
<title>Node20</title>
<g id="a_Node000020"><a xlink:href="_item_8h.html" target="_top" xlink:title=" ">
<polygon fill="white" stroke="#666666" points="1585.25,-76 1513.75,-76 1513.75,-56 1585.25,-56 1585.25,-76"/>
<text text-anchor="middle" x="1549.5" y="-62.5" font-family="Helvetica,sans-Serif" font-size="10.00">Items/Item.h</text>
</a>
</g>
</g>
<!-- Node19&#45;&gt;Node20 -->
<g id="edge24_Node000019_Node000020" class="edge">
<title>Node19&#45;&gt;Node20</title>
<g id="a_edge24_Node000019_Node000020"><a xlink:title=" ">
<path fill="none" stroke="#63b8ff" d="M1544.55,-111.59C1545.28,-105.01 1546.28,-95.96 1547.2,-87.73"/>
<polygon fill="#63b8ff" stroke="#63b8ff" points="1550.67,-88.13 1548.3,-77.8 1543.72,-87.35 1550.67,-88.13"/>
</a>
</g>
</g>
<!-- Node23 -->
<g id="Node000023" class="node">
<title>Node23</title>
<g id="a_Node000023"><a xlink:title=" ">
<polygon fill="#e0e0e0" stroke="#999999" points="1457.25,-76 1367.75,-76 1367.75,-56 1457.25,-56 1457.25,-76"/>
<text text-anchor="middle" x="1412.5" y="-62.5" font-family="Helvetica,sans-Serif" font-size="10.00">Soul.generated.h</text>
</a>
</g>
</g>
<!-- Node19&#45;&gt;Node23 -->
<g id="edge28_Node000019_Node000023" class="edge">
<title>Node19&#45;&gt;Node23</title>
<g id="a_edge28_Node000019_Node000023"><a xlink:title=" ">
<path fill="none" stroke="#63b8ff" d="M1520.68,-111.59C1500.05,-103.09 1469.42,-90.46 1446.01,-80.81"/>
<polygon fill="#63b8ff" stroke="#63b8ff" points="1447.48,-77.63 1436.9,-77.06 1444.81,-84.1 1447.48,-77.63"/>
</a>
</g>
</g>
<!-- Node20&#45;&gt;Node3 -->
<g id="edge25_Node000020_Node000003" class="edge">
<title>Node20&#45;&gt;Node3</title>
<g id="a_edge25_Node000020_Node000003"><a xlink:title=" ">
<path fill="none" stroke="#63b8ff" d="M1513.52,-58.08C1508.81,-57.3 1504.05,-56.58 1499.5,-56 1305.77,-31.09 1073.6,-18.09 972.6,-13.25"/>
<polygon fill="#63b8ff" stroke="#63b8ff" points="972.9,-9.76 962.75,-12.79 972.57,-16.75 972.9,-9.76"/>
</a>
</g>
</g>
<!-- Node21 -->
<g id="Node000021" class="node">
<title>Node21</title>
<g id="a_Node000021"><a xlink:title=" ">
<polygon fill="#e0e0e0" stroke="#999999" points="1675.25,-20 1549.75,-20 1549.75,0 1675.25,0 1675.25,-20"/>
<text text-anchor="middle" x="1612.5" y="-6.5" font-family="Helvetica,sans-Serif" font-size="10.00">GameFramework/Actor.h</text>
</a>
</g>
</g>
<!-- Node20&#45;&gt;Node21 -->
<g id="edge26_Node000020_Node000021" class="edge">
<title>Node20&#45;&gt;Node21</title>
<g id="a_edge26_Node000020_Node000021"><a xlink:title=" ">
<path fill="none" stroke="#63b8ff" d="M1560.47,-55.59C1569.42,-47.93 1582.27,-36.91 1592.96,-27.75"/>
<polygon fill="#63b8ff" stroke="#63b8ff" points="1595.19,-30.45 1600.5,-21.28 1590.63,-25.13 1595.19,-30.45"/>
</a>
</g>
</g>
<!-- Node22 -->
<g id="Node000022" class="node">
<title>Node22</title>
<g id="a_Node000022"><a xlink:title=" ">
<polygon fill="#e0e0e0" stroke="#999999" points="1531.25,-20 1441.75,-20 1441.75,0 1531.25,0 1531.25,-20"/>
<text text-anchor="middle" x="1486.5" y="-6.5" font-family="Helvetica,sans-Serif" font-size="10.00">Item.generated.h</text>
</a>
</g>
</g>
<!-- Node20&#45;&gt;Node22 -->
<g id="edge27_Node000020_Node000022" class="edge">
<title>Node20&#45;&gt;Node22</title>
<g id="a_edge27_Node000020_Node000022"><a xlink:title=" ">
<path fill="none" stroke="#63b8ff" d="M1538.53,-55.59C1529.58,-47.93 1516.73,-36.91 1506.04,-27.75"/>
<polygon fill="#63b8ff" stroke="#63b8ff" points="1508.37,-25.13 1498.5,-21.28 1503.81,-30.45 1508.37,-25.13"/>
</a>
</g>
</g>
<!-- Node24&#45;&gt;Node3 -->
<g id="edge30_Node000024_Node000003" class="edge">
<title>Node24&#45;&gt;Node3</title>
<g id="a_edge30_Node000024_Node000003"><a xlink:title=" ">
<path fill="none" stroke="#63b8ff" d="M1620.46,-111.55C1588.17,-103.69 1542.76,-91.32 1504.5,-76 1486.78,-68.9 1484.82,-61.34 1466.5,-56 1374.74,-29.27 1090.21,-16.75 972.89,-12.62"/>
<polygon fill="#63b8ff" stroke="#63b8ff" points="973.03,-9.13 962.92,-12.28 972.79,-16.12 973.03,-9.13"/>
</a>
</g>
</g>
<!-- Node24&#45;&gt;Node20 -->
<g id="edge31_Node000024_Node000020" class="edge">
<title>Node24&#45;&gt;Node20</title>
<g id="a_edge31_Node000024_Node000020"><a xlink:title=" ">
<path fill="none" stroke="#63b8ff" d="M1642.82,-111.59C1625.34,-103.24 1599.55,-90.92 1579.5,-81.34"/>
<polygon fill="#63b8ff" stroke="#63b8ff" points="1581.23,-78.29 1570.7,-77.13 1578.22,-84.6 1581.23,-78.29"/>
</a>
</g>
</g>
<!-- Node25 -->
<g id="Node000025" class="node">
<title>Node25</title>
<g id="a_Node000025"><a xlink:title=" ">
<polygon fill="#e0e0e0" stroke="#999999" points="1715.12,-76 1609.88,-76 1609.88,-56 1715.12,-56 1715.12,-76"/>
<text text-anchor="middle" x="1662.5" y="-62.5" font-family="Helvetica,sans-Serif" font-size="10.00">Weapon.generated.h</text>
</a>
</g>
</g>
<!-- Node24&#45;&gt;Node25 -->
<g id="edge32_Node000024_Node000025" class="edge">
<title>Node24&#45;&gt;Node25</title>
<g id="a_edge32_Node000024_Node000025"><a xlink:title=" ">
<path fill="none" stroke="#63b8ff" d="M1662.5,-111.59C1662.5,-105.01 1662.5,-95.96 1662.5,-87.73"/>
<polygon fill="#63b8ff" stroke="#63b8ff" points="1666,-87.81 1662.5,-77.81 1659,-87.81 1666,-87.81"/>
</a>
</g>
</g>
<!-- Node30 -->
<g id="Node000030" class="node">
<title>Node30</title>
<g id="a_Node000030"><a xlink:title=" ">
<polygon fill="#e0e0e0" stroke="#999999" points="2004.38,-132 1894.62,-132 1894.62,-112 2004.38,-112 2004.38,-132"/>
<text text-anchor="middle" x="1949.5" y="-118.5" font-family="Helvetica,sans-Serif" font-size="10.00">DrawDebugHelpers.h</text>
</a>
</g>
</g>
<!-- Node29&#45;&gt;Node30 -->
<g id="edge37_Node000029_Node000030" class="edge">
<title>Node29&#45;&gt;Node30</title>
<g id="a_edge37_Node000029_Node000030"><a xlink:title=" ">
<path fill="none" stroke="#63b8ff" d="M1949.5,-173.62C1949.5,-165.56 1949.5,-153.65 1949.5,-143.41"/>
<polygon fill="#63b8ff" stroke="#63b8ff" points="1953,-143.63 1949.5,-133.63 1946,-143.63 1953,-143.63"/>
</a>
</g>
</g>
</g>
</svg>
