<?xml version="1.0" encoding="UTF-8" standalone="no"?>
<!DOCTYPE svg PUBLIC "-//W3C//DTD SVG 1.1//EN"
 "http://www.w3.org/Graphics/SVG/1.1/DTD/svg11.dtd">
<!-- Generated by graphviz version 12.2.1 (20241206.2353)
 -->
<!-- Title: Source/Slash/Public/Enemy/Enemy.h Pages: 1 -->
<svg width="514pt" height="208pt"
 viewBox="0.00 0.00 514.12 208.00" xmlns="http://www.w3.org/2000/svg" xmlns:xlink="http://www.w3.org/1999/xlink">
<g id="graph0" class="graph" transform="scale(1 1) rotate(0) translate(4 204)">
<title>Source/Slash/Public/Enemy/Enemy.h</title>
<!-- Node1 -->
<g id="Node000001" class="node">
<title>Node1</title>
<g id="a_Node000001"><a xlink:title=" ">
<polygon fill="#999999" stroke="#666666" points="272.75,-200 168.25,-200 168.25,-168 272.75,-168 272.75,-200"/>
<text text-anchor="start" x="176.25" y="-186.5" font-family="Helvetica,sans-Serif" font-size="10.00">Source/Slash/Public</text>
<text text-anchor="middle" x="220.5" y="-174.5" font-family="Helvetica,sans-Serif" font-size="10.00">/Enemy/Enemy.h</text>
</a>
</g>
</g>
<!-- Node2 -->
<g id="Node000002" class="node">
<title>Node2</title>
<g id="a_Node000002"><a xlink:title=" ">
<polygon fill="#e0e0e0" stroke="#999999" points="79,-20 0,-20 0,0 79,0 79,-20"/>
<text text-anchor="middle" x="39.5" y="-6.5" font-family="Helvetica,sans-Serif" font-size="10.00">CoreMinimal.h</text>
</a>
</g>
</g>
<!-- Node1&#45;&gt;Node2 -->
<g id="edge1_Node000001_Node000002" class="edge">
<title>Node1&#45;&gt;Node2</title>
<g id="a_edge1_Node000001_Node000002"><a xlink:title=" ">
<path fill="none" stroke="#63b8ff" d="M167.81,-178.59C133.26,-173.01 89.46,-160.41 61.5,-132 35.25,-105.34 34.63,-58.48 36.85,-31.56"/>
<polygon fill="#63b8ff" stroke="#63b8ff" points="40.3,-32.26 37.87,-21.94 33.34,-31.52 40.3,-32.26"/>
</a>
</g>
</g>
<!-- Node3 -->
<g id="Node000003" class="node">
<title>Node3</title>
<g id="a_Node000003"><a xlink:href="_base_character_8h.html" target="_top" xlink:title=" ">
<polygon fill="white" stroke="#666666" points="210.75,-132 70.25,-132 70.25,-112 210.75,-112 210.75,-132"/>
<text text-anchor="middle" x="140.5" y="-118.5" font-family="Helvetica,sans-Serif" font-size="10.00">Characters/BaseCharacter.h</text>
</a>
</g>
</g>
<!-- Node1&#45;&gt;Node3 -->
<g id="edge2_Node000001_Node000003" class="edge">
<title>Node1&#45;&gt;Node3</title>
<g id="a_edge2_Node000001_Node000003"><a xlink:title=" ">
<path fill="none" stroke="#63b8ff" d="M199.9,-167.55C188.32,-158.87 173.89,-148.04 162.15,-139.24"/>
<polygon fill="#63b8ff" stroke="#63b8ff" points="164.35,-136.52 154.25,-133.32 160.15,-142.12 164.35,-136.52"/>
</a>
</g>
</g>
<!-- Node9 -->
<g id="Node000009" class="node">
<title>Node9</title>
<g id="a_Node000009"><a xlink:href="_character_types_8h.html" target="_top" xlink:title=" ">
<polygon fill="white" stroke="#666666" points="372.62,-132 228.38,-132 228.38,-112 372.62,-112 372.62,-132"/>
<text text-anchor="middle" x="300.5" y="-118.5" font-family="Helvetica,sans-Serif" font-size="10.00">Characters/CharacterTypes.h</text>
</a>
</g>
</g>
<!-- Node1&#45;&gt;Node9 -->
<g id="edge10_Node000001_Node000009" class="edge">
<title>Node1&#45;&gt;Node9</title>
<g id="a_edge10_Node000001_Node000009"><a xlink:title=" ">
<path fill="none" stroke="#63b8ff" d="M241.1,-167.55C252.68,-158.87 267.11,-148.04 278.85,-139.24"/>
<polygon fill="#63b8ff" stroke="#63b8ff" points="280.85,-142.12 286.75,-133.32 276.65,-136.52 280.85,-142.12"/>
</a>
</g>
</g>
<!-- Node10 -->
<g id="Node000010" class="node">
<title>Node10</title>
<g id="a_Node000010"><a xlink:title=" ">
<polygon fill="#e0e0e0" stroke="#999999" points="490.5,-132 390.5,-132 390.5,-112 490.5,-112 490.5,-132"/>
<text text-anchor="middle" x="440.5" y="-118.5" font-family="Helvetica,sans-Serif" font-size="10.00">Enemy.generated.h</text>
</a>
</g>
</g>
<!-- Node1&#45;&gt;Node10 -->
<g id="edge11_Node000001_Node000010" class="edge">
<title>Node1&#45;&gt;Node10</title>
<g id="a_edge11_Node000001_Node000010"><a xlink:title=" ">
<path fill="none" stroke="#63b8ff" d="M273.2,-168.63C310.25,-158.52 359.33,-145.14 394.74,-135.48"/>
<polygon fill="#63b8ff" stroke="#63b8ff" points="395.54,-138.89 404.26,-132.88 393.69,-132.14 395.54,-138.89"/>
</a>
</g>
</g>
<!-- Node3&#45;&gt;Node2 -->
<g id="edge3_Node000003_Node000002" class="edge">
<title>Node3&#45;&gt;Node2</title>
<g id="a_edge3_Node000003_Node000002"><a xlink:title=" ">
<path fill="none" stroke="#63b8ff" d="M112.48,-111.65C94.95,-104.46 73.17,-92.87 59.5,-76 49.25,-63.36 44.24,-45.49 41.8,-31.69"/>
<polygon fill="#63b8ff" stroke="#63b8ff" points="45.29,-31.33 40.42,-21.92 38.35,-32.31 45.29,-31.33"/>
</a>
</g>
</g>
<!-- Node4 -->
<g id="Node000004" class="node">
<title>Node4</title>
<g id="a_Node000004"><a xlink:title=" ">
<polygon fill="#e0e0e0" stroke="#999999" points="213,-76 68,-76 68,-56 213,-56 213,-76"/>
<text text-anchor="middle" x="140.5" y="-62.5" font-family="Helvetica,sans-Serif" font-size="10.00">GameFramework/Character.h</text>
</a>
</g>
</g>
<!-- Node3&#45;&gt;Node4 -->
<g id="edge4_Node000003_Node000004" class="edge">
<title>Node3&#45;&gt;Node4</title>
<g id="a_edge4_Node000003_Node000004"><a xlink:title=" ">
<path fill="none" stroke="#63b8ff" d="M140.5,-111.59C140.5,-105.01 140.5,-95.96 140.5,-87.73"/>
<polygon fill="#63b8ff" stroke="#63b8ff" points="144,-87.81 140.5,-77.81 137,-87.81 144,-87.81"/>
</a>
</g>
</g>
<!-- Node5 -->
<g id="Node000005" class="node">
<title>Node5</title>
<g id="a_Node000005"><a xlink:href="_hit_interface_8h.html" target="_top" xlink:title=" ">
<polygon fill="white" stroke="#666666" points="352.38,-76 230.62,-76 230.62,-56 352.38,-56 352.38,-76"/>
<text text-anchor="middle" x="291.5" y="-62.5" font-family="Helvetica,sans-Serif" font-size="10.00">Interfaces/HitInterface.h</text>
</a>
</g>
</g>
<!-- Node3&#45;&gt;Node5 -->
<g id="edge5_Node000003_Node000005" class="edge">
<title>Node3&#45;&gt;Node5</title>
<g id="a_edge5_Node000003_Node000005"><a xlink:title=" ">
<path fill="none" stroke="#63b8ff" d="M166.8,-111.59C191.01,-102.94 227.18,-90 254.34,-80.29"/>
<polygon fill="#63b8ff" stroke="#63b8ff" points="255.33,-83.65 263.57,-76.99 252.97,-77.06 255.33,-83.65"/>
</a>
</g>
</g>
<!-- Node8 -->
<g id="Node000008" class="node">
<title>Node8</title>
<g id="a_Node000008"><a xlink:title=" ">
<polygon fill="#e0e0e0" stroke="#999999" points="506.12,-76 370.88,-76 370.88,-56 506.12,-56 506.12,-76"/>
<text text-anchor="middle" x="438.5" y="-62.5" font-family="Helvetica,sans-Serif" font-size="10.00">BaseCharacter.generated.h</text>
</a>
</g>
</g>
<!-- Node3&#45;&gt;Node8 -->
<g id="edge9_Node000003_Node000008" class="edge">
<title>Node3&#45;&gt;Node8</title>
<g id="a_edge9_Node000003_Node000008"><a xlink:title=" ">
<path fill="none" stroke="#63b8ff" d="M192.75,-111.53C243.55,-102.33 320.79,-88.33 375.09,-78.49"/>
<polygon fill="#63b8ff" stroke="#63b8ff" points="375.61,-81.95 384.82,-76.73 374.36,-75.07 375.61,-81.95"/>
</a>
</g>
</g>
<!-- Node5&#45;&gt;Node2 -->
<g id="edge6_Node000005_Node000002" class="edge">
<title>Node5&#45;&gt;Node2</title>
<g id="a_edge6_Node000005_Node000002"><a xlink:title=" ">
<path fill="none" stroke="#63b8ff" d="M247.32,-55.53C203.59,-46.16 136.71,-31.83 90.7,-21.97"/>
<polygon fill="#63b8ff" stroke="#63b8ff" points="91.46,-18.56 80.95,-19.88 90,-25.4 91.46,-18.56"/>
</a>
</g>
</g>
<!-- Node6 -->
<g id="Node000006" class="node">
<title>Node6</title>
<g id="a_Node000006"><a xlink:title=" ">
<polygon fill="#e0e0e0" stroke="#999999" points="277.25,-20 175.75,-20 175.75,0 277.25,0 277.25,-20"/>
<text text-anchor="middle" x="226.5" y="-6.5" font-family="Helvetica,sans-Serif" font-size="10.00">UObject/Interface.h</text>
</a>
</g>
</g>
<!-- Node5&#45;&gt;Node6 -->
<g id="edge7_Node000005_Node000006" class="edge">
<title>Node5&#45;&gt;Node6</title>
<g id="a_edge7_Node000005_Node000006"><a xlink:title=" ">
<path fill="none" stroke="#63b8ff" d="M280.18,-55.59C270.86,-47.85 257.42,-36.69 246.32,-27.47"/>
<polygon fill="#63b8ff" stroke="#63b8ff" points="248.79,-24.96 238.86,-21.27 244.31,-30.35 248.79,-24.96"/>
</a>
</g>
</g>
<!-- Node7 -->
<g id="Node000007" class="node">
<title>Node7</title>
<g id="a_Node000007"><a xlink:title=" ">
<polygon fill="#e0e0e0" stroke="#999999" points="416,-20 295,-20 295,0 416,0 416,-20"/>
<text text-anchor="middle" x="355.5" y="-6.5" font-family="Helvetica,sans-Serif" font-size="10.00">HitInterface.generated.h</text>
</a>
</g>
</g>
<!-- Node5&#45;&gt;Node7 -->
<g id="edge8_Node000005_Node000007" class="edge">
<title>Node5&#45;&gt;Node7</title>
<g id="a_edge8_Node000005_Node000007"><a xlink:title=" ">
<path fill="none" stroke="#63b8ff" d="M302.65,-55.59C311.83,-47.85 325.05,-36.69 335.98,-27.47"/>
<polygon fill="#63b8ff" stroke="#63b8ff" points="337.94,-30.4 343.32,-21.27 333.42,-25.05 337.94,-30.4"/>
</a>
</g>
</g>
</g>
</svg>
