<?xml version="1.0" encoding="UTF-8" standalone="no"?>
<!DOCTYPE svg PUBLIC "-//W3C//DTD SVG 1.1//EN"
 "http://www.w3.org/Graphics/SVG/1.1/DTD/svg11.dtd">
<!-- Generated by graphviz version 12.2.1 (20241206.2353)
 -->
<!-- Title: Source/Slash/Public/HUD/HealthBarComponent.h Pages: 1 -->
<svg width="292pt" height="108pt"
 viewBox="0.00 0.00 291.62 108.00" xmlns="http://www.w3.org/2000/svg" xmlns:xlink="http://www.w3.org/1999/xlink">
<g id="graph0" class="graph" transform="scale(1 1) rotate(0) translate(4 104)">
<title>Source/Slash/Public/HUD/HealthBarComponent.h</title>
<!-- Node1 -->
<g id="Node000001" class="node">
<title>Node1</title>
<g id="a_Node000001"><a xlink:title=" ">
<polygon fill="#999999" stroke="#666666" points="202.38,-100 55.88,-100 55.88,-68 202.38,-68 202.38,-100"/>
<text text-anchor="start" x="63.88" y="-86.5" font-family="Helvetica,sans-Serif" font-size="10.00">Source/Slash/Public</text>
<text text-anchor="middle" x="129.12" y="-74.5" font-family="Helvetica,sans-Serif" font-size="10.00">/HUD/HealthBarComponent.h</text>
</a>
</g>
</g>
<!-- Node2 -->
<g id="Node000002" class="node">
<title>Node2</title>
<g id="a_Node000002"><a xlink:href="_enemy_8cpp.html" target="_top" xlink:title=" ">
<polygon fill="white" stroke="#666666" points="108.25,-32 0,-32 0,0 108.25,0 108.25,-32"/>
<text text-anchor="start" x="8" y="-18.5" font-family="Helvetica,sans-Serif" font-size="10.00">Source/Slash/Private</text>
<text text-anchor="middle" x="54.12" y="-6.5" font-family="Helvetica,sans-Serif" font-size="10.00">/Enemy/Enemy.cpp</text>
</a>
</g>
</g>
<!-- Node1&#45;&gt;Node2 -->
<g id="edge1_Node000001_Node000002" class="edge">
<title>Node1&#45;&gt;Node2</title>
<g id="a_edge1_Node000001_Node000002"><a xlink:title=" ">
<path fill="none" stroke="#63b8ff" d="M103.35,-60.32C92.91,-51.13 81.11,-40.75 71.69,-32.45"/>
<polygon fill="#63b8ff" stroke="#63b8ff" points="100.77,-62.71 110.59,-66.69 105.4,-57.46 100.77,-62.71"/>
</a>
</g>
</g>
<!-- Node3 -->
<g id="Node000003" class="node">
<title>Node3</title>
<g id="a_Node000003"><a xlink:href="_health_bar_component_8cpp.html" target="_top" xlink:title=" ">
<polygon fill="white" stroke="#666666" points="283.62,-32 126.62,-32 126.62,0 283.62,0 283.62,-32"/>
<text text-anchor="start" x="134.62" y="-18.5" font-family="Helvetica,sans-Serif" font-size="10.00">Source/Slash/Private</text>
<text text-anchor="middle" x="205.12" y="-6.5" font-family="Helvetica,sans-Serif" font-size="10.00">/HUD/HealthBarComponent.cpp</text>
</a>
</g>
</g>
<!-- Node1&#45;&gt;Node3 -->
<g id="edge2_Node000001_Node000003" class="edge">
<title>Node1&#45;&gt;Node3</title>
<g id="a_edge2_Node000001_Node000003"><a xlink:title=" ">
<path fill="none" stroke="#63b8ff" d="M155.24,-60.32C165.82,-51.13 177.78,-40.75 187.33,-32.45"/>
<polygon fill="#63b8ff" stroke="#63b8ff" points="153.15,-57.5 147.89,-66.7 157.74,-62.79 153.15,-57.5"/>
</a>
</g>
</g>
</g>
</svg>
