<?xml version="1.0" encoding="UTF-8" standalone="no"?>
<!DOCTYPE svg PUBLIC "-//W3C//DTD SVG 1.1//EN"
 "http://www.w3.org/Graphics/SVG/1.1/DTD/svg11.dtd">
<!-- Generated by graphviz version 12.2.1 (20241206.2353)
 -->
<!-- Title: Source/Slash/Public/HUD/HealthBarComponent.h Pages: 1 -->
<svg width="450pt" height="96pt"
 viewBox="0.00 0.00 450.38 96.00" xmlns="http://www.w3.org/2000/svg" xmlns:xlink="http://www.w3.org/1999/xlink">
<g id="graph0" class="graph" transform="scale(1 1) rotate(0) translate(4 92)">
<title>Source/Slash/Public/HUD/HealthBarComponent.h</title>
<!-- Node1 -->
<g id="Node000001" class="node">
<title>Node1</title>
<g id="a_Node000001"><a xlink:title=" ">
<polygon fill="#999999" stroke="#666666" points="251.75,-88 105.25,-88 105.25,-56 251.75,-56 251.75,-88"/>
<text text-anchor="start" x="113.25" y="-74.5" font-family="Helvetica,sans-Serif" font-size="10.00">Source/Slash/Public</text>
<text text-anchor="middle" x="178.5" y="-62.5" font-family="Helvetica,sans-Serif" font-size="10.00">/HUD/HealthBarComponent.h</text>
</a>
</g>
</g>
<!-- Node2 -->
<g id="Node000002" class="node">
<title>Node2</title>
<g id="a_Node000002"><a xlink:title=" ">
<polygon fill="#e0e0e0" stroke="#999999" points="79,-20 0,-20 0,0 79,0 79,-20"/>
<text text-anchor="middle" x="39.5" y="-6.5" font-family="Helvetica,sans-Serif" font-size="10.00">CoreMinimal.h</text>
</a>
</g>
</g>
<!-- Node1&#45;&gt;Node2 -->
<g id="edge1_Node000001_Node000002" class="edge">
<title>Node1&#45;&gt;Node2</title>
<g id="a_edge1_Node000001_Node000002"><a xlink:title=" ">
<path fill="none" stroke="#63b8ff" d="M142.7,-55.55C120.78,-46.09 92.96,-34.08 71.73,-24.91"/>
<polygon fill="#63b8ff" stroke="#63b8ff" points="73.25,-21.76 62.68,-21.01 70.48,-28.18 73.25,-21.76"/>
</a>
</g>
</g>
<!-- Node3 -->
<g id="Node000003" class="node">
<title>Node3</title>
<g id="a_Node000003"><a xlink:title=" ">
<polygon fill="#e0e0e0" stroke="#999999" points="260.38,-20 96.62,-20 96.62,0 260.38,0 260.38,-20"/>
<text text-anchor="middle" x="178.5" y="-6.5" font-family="Helvetica,sans-Serif" font-size="10.00">Components/WidgetComponent.h</text>
</a>
</g>
</g>
<!-- Node1&#45;&gt;Node3 -->
<g id="edge2_Node000001_Node000003" class="edge">
<title>Node1&#45;&gt;Node3</title>
<g id="a_edge2_Node000001_Node000003"><a xlink:title=" ">
<path fill="none" stroke="#63b8ff" d="M178.5,-55.55C178.5,-48.34 178.5,-39.66 178.5,-31.88"/>
<polygon fill="#63b8ff" stroke="#63b8ff" points="182,-31.92 178.5,-21.92 175,-31.92 182,-31.92"/>
</a>
</g>
</g>
<!-- Node4 -->
<g id="Node000004" class="node">
<title>Node4</title>
<g id="a_Node000004"><a xlink:title=" ">
<polygon fill="#e0e0e0" stroke="#999999" points="442.38,-20 278.62,-20 278.62,0 442.38,0 442.38,-20"/>
<text text-anchor="middle" x="360.5" y="-6.5" font-family="Helvetica,sans-Serif" font-size="10.00">HealthBarComponent.generated.h</text>
</a>
</g>
</g>
<!-- Node1&#45;&gt;Node4 -->
<g id="edge3_Node000001_Node000004" class="edge">
<title>Node1&#45;&gt;Node4</title>
<g id="a_edge3_Node000001_Node000004"><a xlink:title=" ">
<path fill="none" stroke="#63b8ff" d="M225.37,-55.55C255.03,-45.77 292.94,-33.27 321.06,-24"/>
<polygon fill="#63b8ff" stroke="#63b8ff" points="321.86,-27.43 330.26,-20.97 319.66,-20.78 321.86,-27.43"/>
</a>
</g>
</g>
</g>
</svg>
