<?xml version="1.0" encoding="UTF-8" standalone="no"?>
<!DOCTYPE svg PUBLIC "-//W3C//DTD SVG 1.1//EN"
 "http://www.w3.org/Graphics/SVG/1.1/DTD/svg11.dtd">
<!-- Generated by graphviz version 12.2.1 (20241206.2353)
 -->
<!-- Title: Source/Slash/Private/HUD/HealthBarComponent.cpp Pages: 1 -->
<svg width="744pt" height="152pt"
 viewBox="0.00 0.00 743.62 152.00" xmlns="http://www.w3.org/2000/svg" xmlns:xlink="http://www.w3.org/1999/xlink">
<g id="graph0" class="graph" transform="scale(1 1) rotate(0) translate(4 148)">
<title>Source/Slash/Private/HUD/HealthBarComponent.cpp</title>
<!-- Node1 -->
<g id="Node000001" class="node">
<title>Node1</title>
<g id="a_Node000001"><a xlink:title=" ">
<polygon fill="#999999" stroke="#666666" points="495.38,-144 338.38,-144 338.38,-112 495.38,-112 495.38,-144"/>
<text text-anchor="start" x="346.38" y="-130.5" font-family="Helvetica,sans-Serif" font-size="10.00">Source/Slash/Private</text>
<text text-anchor="middle" x="416.88" y="-118.5" font-family="Helvetica,sans-Serif" font-size="10.00">/HUD/HealthBarComponent.cpp</text>
</a>
</g>
</g>
<!-- Node2 -->
<g id="Node000002" class="node">
<title>Node2</title>
<g id="a_Node000002"><a xlink:href="_health_bar_component_8h.html" target="_top" xlink:title=" ">
<polygon fill="white" stroke="#666666" points="330.62,-76 187.12,-76 187.12,-56 330.62,-56 330.62,-76"/>
<text text-anchor="middle" x="258.88" y="-62.5" font-family="Helvetica,sans-Serif" font-size="10.00">HUD/HealthBarComponent.h</text>
</a>
</g>
</g>
<!-- Node1&#45;&gt;Node2 -->
<g id="edge1_Node000001_Node000002" class="edge">
<title>Node1&#45;&gt;Node2</title>
<g id="a_edge1_Node000001_Node000002"><a xlink:title=" ">
<path fill="none" stroke="#63b8ff" d="M376.19,-111.55C350.81,-101.91 318.48,-89.64 294.19,-80.41"/>
<polygon fill="#63b8ff" stroke="#63b8ff" points="295.66,-77.22 285.06,-76.95 293.17,-83.77 295.66,-77.22"/>
</a>
</g>
</g>
<!-- Node6 -->
<g id="Node000006" class="node">
<title>Node6</title>
<g id="a_Node000006"><a xlink:title=" ">
<polygon fill="#e0e0e0" stroke="#999999" points="485.25,-76 348.5,-76 348.5,-56 485.25,-56 485.25,-76"/>
<text text-anchor="middle" x="416.88" y="-62.5" font-family="Helvetica,sans-Serif" font-size="10.00">Components/ProgressBar.h</text>
</a>
</g>
</g>
<!-- Node1&#45;&gt;Node6 -->
<g id="edge5_Node000001_Node000006" class="edge">
<title>Node1&#45;&gt;Node6</title>
<g id="a_edge5_Node000001_Node000006"><a xlink:title=" ">
<path fill="none" stroke="#63b8ff" d="M416.88,-111.55C416.88,-104.34 416.88,-95.66 416.88,-87.88"/>
<polygon fill="#63b8ff" stroke="#63b8ff" points="420.38,-87.92 416.88,-77.92 413.38,-87.92 420.38,-87.92"/>
</a>
</g>
</g>
<!-- Node7 -->
<g id="Node000007" class="node">
<title>Node7</title>
<g id="a_Node000007"><a xlink:href="_health_bar_8h.html" target="_top" xlink:title=" ">
<polygon fill="white" stroke="#666666" points="596.5,-76 503.25,-76 503.25,-56 596.5,-56 596.5,-76"/>
<text text-anchor="middle" x="549.88" y="-62.5" font-family="Helvetica,sans-Serif" font-size="10.00">HUD/HealthBar.h</text>
</a>
</g>
</g>
<!-- Node1&#45;&gt;Node7 -->
<g id="edge6_Node000001_Node000007" class="edge">
<title>Node1&#45;&gt;Node7</title>
<g id="a_edge6_Node000001_Node000007"><a xlink:title=" ">
<path fill="none" stroke="#63b8ff" d="M451.13,-111.55C472,-102.13 498.48,-90.19 518.76,-81.04"/>
<polygon fill="#63b8ff" stroke="#63b8ff" points="519.96,-84.33 527.64,-77.03 517.09,-77.95 519.96,-84.33"/>
</a>
</g>
</g>
<!-- Node3 -->
<g id="Node000003" class="node">
<title>Node3</title>
<g id="a_Node000003"><a xlink:title=" ">
<polygon fill="#e0e0e0" stroke="#999999" points="460.38,-20 381.38,-20 381.38,0 460.38,0 460.38,-20"/>
<text text-anchor="middle" x="420.88" y="-6.5" font-family="Helvetica,sans-Serif" font-size="10.00">CoreMinimal.h</text>
</a>
</g>
</g>
<!-- Node2&#45;&gt;Node3 -->
<g id="edge2_Node000002_Node000003" class="edge">
<title>Node2&#45;&gt;Node3</title>
<g id="a_edge2_Node000002_Node000003"><a xlink:title=" ">
<path fill="none" stroke="#63b8ff" d="M287.09,-55.59C313.3,-46.86 352.56,-33.77 381.78,-24.03"/>
<polygon fill="#63b8ff" stroke="#63b8ff" points="382.62,-27.44 391,-20.96 380.41,-20.8 382.62,-27.44"/>
</a>
</g>
</g>
<!-- Node4 -->
<g id="Node000004" class="node">
<title>Node4</title>
<g id="a_Node000004"><a xlink:title=" ">
<polygon fill="#e0e0e0" stroke="#999999" points="163.75,-20 0,-20 0,0 163.75,0 163.75,-20"/>
<text text-anchor="middle" x="81.88" y="-6.5" font-family="Helvetica,sans-Serif" font-size="10.00">Components/WidgetComponent.h</text>
</a>
</g>
</g>
<!-- Node2&#45;&gt;Node4 -->
<g id="edge3_Node000002_Node000004" class="edge">
<title>Node2&#45;&gt;Node4</title>
<g id="a_edge3_Node000002_Node000004"><a xlink:title=" ">
<path fill="none" stroke="#63b8ff" d="M228.04,-55.59C199.16,-46.78 155.76,-33.54 123.75,-23.78"/>
<polygon fill="#63b8ff" stroke="#63b8ff" points="124.98,-20.49 114.39,-20.92 122.94,-27.19 124.98,-20.49"/>
</a>
</g>
</g>
<!-- Node5 -->
<g id="Node000005" class="node">
<title>Node5</title>
<g id="a_Node000005"><a xlink:title=" ">
<polygon fill="#e0e0e0" stroke="#999999" points="345.75,-20 182,-20 182,0 345.75,0 345.75,-20"/>
<text text-anchor="middle" x="263.88" y="-6.5" font-family="Helvetica,sans-Serif" font-size="10.00">HealthBarComponent.generated.h</text>
</a>
</g>
</g>
<!-- Node2&#45;&gt;Node5 -->
<g id="edge4_Node000002_Node000005" class="edge">
<title>Node2&#45;&gt;Node5</title>
<g id="a_edge4_Node000002_Node000005"><a xlink:title=" ">
<path fill="none" stroke="#63b8ff" d="M259.75,-55.59C260.36,-49.01 261.19,-39.96 261.96,-31.73"/>
<polygon fill="#63b8ff" stroke="#63b8ff" points="265.44,-32.09 262.87,-21.81 258.47,-31.44 265.44,-32.09"/>
</a>
</g>
</g>
<!-- Node7&#45;&gt;Node3 -->
<g id="edge7_Node000007_Node000003" class="edge">
<title>Node7&#45;&gt;Node3</title>
<g id="a_edge7_Node000007_Node000003"><a xlink:title=" ">
<path fill="none" stroke="#63b8ff" d="M527.4,-55.59C507.09,-47.09 476.92,-34.46 453.87,-24.81"/>
<polygon fill="#63b8ff" stroke="#63b8ff" points="455.49,-21.7 444.92,-21.06 452.79,-28.15 455.49,-21.7"/>
</a>
</g>
</g>
<!-- Node8 -->
<g id="Node000008" class="node">
<title>Node8</title>
<g id="a_Node000008"><a xlink:title=" ">
<polygon fill="#e0e0e0" stroke="#999999" points="604.5,-20 487.25,-20 487.25,0 604.5,0 604.5,-20"/>
<text text-anchor="middle" x="545.88" y="-6.5" font-family="Helvetica,sans-Serif" font-size="10.00">Blueprint/UserWidget.h</text>
</a>
</g>
</g>
<!-- Node7&#45;&gt;Node8 -->
<g id="edge8_Node000007_Node000008" class="edge">
<title>Node7&#45;&gt;Node8</title>
<g id="a_edge8_Node000007_Node000008"><a xlink:title=" ">
<path fill="none" stroke="#63b8ff" d="M549.18,-55.59C548.69,-49.01 548.02,-39.96 547.41,-31.73"/>
<polygon fill="#63b8ff" stroke="#63b8ff" points="550.9,-31.52 546.68,-21.81 543.92,-32.04 550.9,-31.52"/>
</a>
</g>
</g>
<!-- Node9 -->
<g id="Node000009" class="node">
<title>Node9</title>
<g id="a_Node000009"><a xlink:title=" ">
<polygon fill="#e0e0e0" stroke="#999999" points="735.62,-20 622.12,-20 622.12,0 735.62,0 735.62,-20"/>
<text text-anchor="middle" x="678.88" y="-6.5" font-family="Helvetica,sans-Serif" font-size="10.00">HealthBar.generated.h</text>
</a>
</g>
</g>
<!-- Node7&#45;&gt;Node9 -->
<g id="edge9_Node000007_Node000009" class="edge">
<title>Node7&#45;&gt;Node9</title>
<g id="a_edge9_Node000007_Node000009"><a xlink:title=" ">
<path fill="none" stroke="#63b8ff" d="M572.35,-55.59C592.66,-47.09 622.83,-34.46 645.88,-24.81"/>
<polygon fill="#63b8ff" stroke="#63b8ff" points="646.96,-28.15 654.83,-21.06 644.26,-21.7 646.96,-28.15"/>
</a>
</g>
</g>
</g>
</svg>
