<?xml version="1.0" encoding="UTF-8" standalone="no"?>
<!DOCTYPE svg PUBLIC "-//W3C//DTD SVG 1.1//EN"
 "http://www.w3.org/Graphics/SVG/1.1/DTD/svg11.dtd">
<!-- Generated by graphviz version 12.2.1 (20241206.2353)
 -->
<!-- Title: Source/Slash/Public/Interfaces/HitInterface.h Pages: 1 -->
<svg width="941pt" height="244pt"
 viewBox="0.00 0.00 940.75 244.00" xmlns="http://www.w3.org/2000/svg" xmlns:xlink="http://www.w3.org/1999/xlink">
<g id="graph0" class="graph" transform="scale(1 1) rotate(0) translate(4 240)">
<title>Source/Slash/Public/Interfaces/HitInterface.h</title>
<!-- Node1 -->
<g id="Node000001" class="node">
<title>Node1</title>
<g id="a_Node000001"><a xlink:title=" ">
<polygon fill="#999999" stroke="#666666" points="275,-236 150.25,-236 150.25,-204 275,-204 275,-236"/>
<text text-anchor="start" x="158.25" y="-222.5" font-family="Helvetica,sans-Serif" font-size="10.00">Source/Slash/Public</text>
<text text-anchor="middle" x="212.62" y="-210.5" font-family="Helvetica,sans-Serif" font-size="10.00">/Interfaces/HitInterface.h</text>
</a>
</g>
</g>
<!-- Node2 -->
<g id="Node000002" class="node">
<title>Node2</title>
<g id="a_Node000002"><a xlink:href="_hit_interface_8cpp.html" target="_top" xlink:title=" ">
<polygon fill="white" stroke="#666666" points="135.25,-168 0,-168 0,-136 135.25,-136 135.25,-168"/>
<text text-anchor="start" x="8" y="-154.5" font-family="Helvetica,sans-Serif" font-size="10.00">Source/Slash/Private</text>
<text text-anchor="middle" x="67.62" y="-142.5" font-family="Helvetica,sans-Serif" font-size="10.00">/Interfaces/HitInterface.cpp</text>
</a>
</g>
</g>
<!-- Node1&#45;&gt;Node2 -->
<g id="edge1_Node000001_Node000002" class="edge">
<title>Node1&#45;&gt;Node2</title>
<g id="a_edge1_Node000001_Node000002"><a xlink:title=" ">
<path fill="none" stroke="#63b8ff" d="M168.16,-198.76C146.75,-189.02 121.5,-177.52 101.66,-168.49"/>
<polygon fill="#63b8ff" stroke="#63b8ff" points="166.7,-201.94 177.25,-202.9 169.6,-195.57 166.7,-201.94"/>
</a>
</g>
</g>
<!-- Node3 -->
<g id="Node000003" class="node">
<title>Node3</title>
<g id="a_Node000003"><a xlink:href="_weapon_8cpp.html" target="_top" xlink:title=" ">
<polygon fill="white" stroke="#666666" points="273.75,-32 129.5,-32 129.5,0 273.75,0 273.75,-32"/>
<text text-anchor="start" x="137.5" y="-18.5" font-family="Helvetica,sans-Serif" font-size="10.00">Source/Slash/Private</text>
<text text-anchor="middle" x="201.62" y="-6.5" font-family="Helvetica,sans-Serif" font-size="10.00">/Items/Weapons/Weapon.cpp</text>
</a>
</g>
</g>
<!-- Node1&#45;&gt;Node3 -->
<g id="edge2_Node000001_Node000003" class="edge">
<title>Node1&#45;&gt;Node3</title>
<g id="a_edge2_Node000001_Node000003"><a xlink:title=" ">
<path fill="none" stroke="#63b8ff" d="M194.65,-194.46C189.76,-186.43 185.13,-177.2 182.62,-168 169.43,-119.56 186.29,-59.85 195.86,-32.28"/>
<polygon fill="#63b8ff" stroke="#63b8ff" points="191.6,-196.19 200.01,-202.64 197.45,-192.36 191.6,-196.19"/>
</a>
</g>
</g>
<!-- Node4 -->
<g id="Node000004" class="node">
<title>Node4</title>
<g id="a_Node000004"><a xlink:href="_breakable_actor_8h.html" target="_top" xlink:title=" ">
<polygon fill="white" stroke="#666666" points="331.88,-168 191.38,-168 191.38,-136 331.88,-136 331.88,-168"/>
<text text-anchor="start" x="199.38" y="-154.5" font-family="Helvetica,sans-Serif" font-size="10.00">Source/Slash/Public</text>
<text text-anchor="middle" x="261.62" y="-142.5" font-family="Helvetica,sans-Serif" font-size="10.00">/Breakable/BreakableActor.h</text>
</a>
</g>
</g>
<!-- Node1&#45;&gt;Node4 -->
<g id="edge3_Node000001_Node000004" class="edge">
<title>Node1&#45;&gt;Node4</title>
<g id="a_edge3_Node000001_Node000004"><a xlink:title=" ">
<path fill="none" stroke="#63b8ff" d="M230.75,-194.59C237.31,-185.75 244.52,-176.04 250.32,-168.22"/>
<polygon fill="#63b8ff" stroke="#63b8ff" points="228.04,-192.36 224.89,-202.48 233.66,-196.53 228.04,-192.36"/>
</a>
</g>
</g>
<!-- Node6 -->
<g id="Node000006" class="node">
<title>Node6</title>
<g id="a_Node000006"><a xlink:href="_base_character_8h.html" target="_top" xlink:title=" ">
<polygon fill="white" stroke="#666666" points="632.38,-168 488.88,-168 488.88,-136 632.38,-136 632.38,-168"/>
<text text-anchor="start" x="496.88" y="-154.5" font-family="Helvetica,sans-Serif" font-size="10.00">Source/Slash/Public</text>
<text text-anchor="middle" x="560.62" y="-142.5" font-family="Helvetica,sans-Serif" font-size="10.00">/Characters/BaseCharacter.h</text>
</a>
</g>
</g>
<!-- Node1&#45;&gt;Node6 -->
<g id="edge6_Node000001_Node000006" class="edge">
<title>Node1&#45;&gt;Node6</title>
<g id="a_edge6_Node000001_Node000006"><a xlink:title=" ">
<path fill="none" stroke="#63b8ff" d="M286.46,-205C346.07,-193.69 429.47,-177.87 488.59,-166.66"/>
<polygon fill="#63b8ff" stroke="#63b8ff" points="285.9,-201.54 276.73,-206.84 287.21,-208.42 285.9,-201.54"/>
</a>
</g>
</g>
<!-- Node4&#45;&gt;Node3 -->
<g id="edge5_Node000004_Node000003" class="edge">
<title>Node4&#45;&gt;Node3</title>
<g id="a_edge5_Node000004_Node000003"><a xlink:title=" ">
<path fill="none" stroke="#63b8ff" d="M239.47,-127.13C232.91,-119.02 226.26,-109.57 221.62,-100 210.91,-77.85 205.68,-49.53 203.33,-32.35"/>
<polygon fill="#63b8ff" stroke="#63b8ff" points="236.6,-129.16 245.75,-134.51 241.94,-124.63 236.6,-129.16"/>
</a>
</g>
</g>
<!-- Node5 -->
<g id="Node000005" class="node">
<title>Node5</title>
<g id="a_Node000005"><a xlink:href="_breakable_actor_8cpp.html" target="_top" xlink:title=" ">
<polygon fill="white" stroke="#666666" points="381.12,-100 230.12,-100 230.12,-68 381.12,-68 381.12,-100"/>
<text text-anchor="start" x="238.12" y="-86.5" font-family="Helvetica,sans-Serif" font-size="10.00">Source/Slash/Private</text>
<text text-anchor="middle" x="305.62" y="-74.5" font-family="Helvetica,sans-Serif" font-size="10.00">/Breakable/BreakableActor.cpp</text>
</a>
</g>
</g>
<!-- Node4&#45;&gt;Node5 -->
<g id="edge4_Node000004_Node000005" class="edge">
<title>Node4&#45;&gt;Node5</title>
<g id="a_edge4_Node000004_Node000005"><a xlink:title=" ">
<path fill="none" stroke="#63b8ff" d="M278.09,-126.3C283.93,-117.55 290.32,-107.96 295.48,-100.22"/>
<polygon fill="#63b8ff" stroke="#63b8ff" points="275.3,-124.17 272.67,-134.43 281.13,-128.05 275.3,-124.17"/>
</a>
</g>
</g>
<!-- Node7 -->
<g id="Node000007" class="node">
<title>Node7</title>
<g id="a_Node000007"><a xlink:href="_base_character_8cpp.html" target="_top" xlink:title=" ">
<polygon fill="white" stroke="#666666" points="553.62,-100 399.62,-100 399.62,-68 553.62,-68 553.62,-100"/>
<text text-anchor="start" x="407.62" y="-86.5" font-family="Helvetica,sans-Serif" font-size="10.00">Source/Slash/Private</text>
<text text-anchor="middle" x="476.62" y="-74.5" font-family="Helvetica,sans-Serif" font-size="10.00">/Characters/BaseCharacter.cpp</text>
</a>
</g>
</g>
<!-- Node6&#45;&gt;Node7 -->
<g id="edge7_Node000006_Node000007" class="edge">
<title>Node6&#45;&gt;Node7</title>
<g id="a_edge7_Node000006_Node000007"><a xlink:title=" ">
<path fill="none" stroke="#63b8ff" d="M532.11,-128.6C520.33,-119.34 506.96,-108.83 496.29,-100.45"/>
<polygon fill="#63b8ff" stroke="#63b8ff" points="529.93,-131.33 539.95,-134.76 534.25,-125.83 529.93,-131.33"/>
</a>
</g>
</g>
<!-- Node8 -->
<g id="Node000008" class="node">
<title>Node8</title>
<g id="a_Node000008"><a xlink:href="_slash_character_8h.html" target="_top" xlink:title=" ">
<polygon fill="white" stroke="#666666" points="717.5,-100 571.75,-100 571.75,-68 717.5,-68 717.5,-100"/>
<text text-anchor="start" x="579.75" y="-86.5" font-family="Helvetica,sans-Serif" font-size="10.00">Source/Slash/Public</text>
<text text-anchor="middle" x="644.62" y="-74.5" font-family="Helvetica,sans-Serif" font-size="10.00">/Characters/SlashCharacter.h</text>
</a>
</g>
</g>
<!-- Node6&#45;&gt;Node8 -->
<g id="edge8_Node000006_Node000008" class="edge">
<title>Node6&#45;&gt;Node8</title>
<g id="a_edge8_Node000006_Node000008"><a xlink:title=" ">
<path fill="none" stroke="#63b8ff" d="M589.14,-128.6C600.92,-119.34 614.29,-108.83 624.96,-100.45"/>
<polygon fill="#63b8ff" stroke="#63b8ff" points="587,-125.83 581.3,-134.76 591.32,-131.33 587,-125.83"/>
</a>
</g>
</g>
<!-- Node12 -->
<g id="Node000012" class="node">
<title>Node12</title>
<g id="a_Node000012"><a xlink:href="_enemy_8h.html" target="_top" xlink:title=" ">
<polygon fill="white" stroke="#666666" points="864.88,-100 760.38,-100 760.38,-68 864.88,-68 864.88,-100"/>
<text text-anchor="start" x="768.38" y="-86.5" font-family="Helvetica,sans-Serif" font-size="10.00">Source/Slash/Public</text>
<text text-anchor="middle" x="812.62" y="-74.5" font-family="Helvetica,sans-Serif" font-size="10.00">/Enemy/Enemy.h</text>
</a>
</g>
</g>
<!-- Node6&#45;&gt;Node12 -->
<g id="edge13_Node000006_Node000012" class="edge">
<title>Node6&#45;&gt;Node12</title>
<g id="a_edge13_Node000006_Node000012"><a xlink:title=" ">
<path fill="none" stroke="#63b8ff" d="M630.7,-132.65C671.61,-121.93 722.4,-108.63 759.91,-98.81"/>
<polygon fill="#63b8ff" stroke="#63b8ff" points="629.96,-129.22 621.17,-135.14 631.73,-135.99 629.96,-129.22"/>
</a>
</g>
</g>
<!-- Node8&#45;&gt;Node3 -->
<g id="edge12_Node000008_Node000003" class="edge">
<title>Node8&#45;&gt;Node3</title>
<g id="a_edge12_Node000008_Node000003"><a xlink:title=" ">
<path fill="none" stroke="#63b8ff" d="M560.18,-67.64C454.94,-50.75 344.5,-35.65 274.02,-26.35"/>
<polygon fill="#63b8ff" stroke="#63b8ff" points="559.41,-71.06 569.84,-69.2 560.52,-64.15 559.41,-71.06"/>
</a>
</g>
</g>
<!-- Node9 -->
<g id="Node000009" class="node">
<title>Node9</title>
<g id="a_Node000009"><a xlink:href="_slash_anim_instance_8cpp.html" target="_top" xlink:title=" ">
<polygon fill="white" stroke="#666666" points="506.38,-32 332.88,-32 332.88,0 506.38,0 506.38,-32"/>
<text text-anchor="start" x="340.88" y="-18.5" font-family="Helvetica,sans-Serif" font-size="10.00">Source/Slash/Private</text>
<text text-anchor="middle" x="419.62" y="-6.5" font-family="Helvetica,sans-Serif" font-size="10.00">/Characters/SlashAnimInstance.cpp</text>
</a>
</g>
</g>
<!-- Node8&#45;&gt;Node9 -->
<g id="edge9_Node000008_Node000009" class="edge">
<title>Node8&#45;&gt;Node9</title>
<g id="a_edge9_Node000008_Node000009"><a xlink:title=" ">
<path fill="none" stroke="#63b8ff" d="M581.02,-64.34C546.73,-54.28 504.91,-42.02 472.44,-32.49"/>
<polygon fill="#63b8ff" stroke="#63b8ff" points="579.84,-67.64 590.42,-67.1 581.81,-60.93 579.84,-67.64"/>
</a>
</g>
</g>
<!-- Node10 -->
<g id="Node000010" class="node">
<title>Node10</title>
<g id="a_Node000010"><a xlink:href="_slash_character_8cpp.html" target="_top" xlink:title=" ">
<polygon fill="white" stroke="#666666" points="680.75,-32 524.5,-32 524.5,0 680.75,0 680.75,-32"/>
<text text-anchor="start" x="532.5" y="-18.5" font-family="Helvetica,sans-Serif" font-size="10.00">Source/Slash/Private</text>
<text text-anchor="middle" x="602.62" y="-6.5" font-family="Helvetica,sans-Serif" font-size="10.00">/Characters/SlashCharacter.cpp</text>
</a>
</g>
</g>
<!-- Node8&#45;&gt;Node10 -->
<g id="edge10_Node000008_Node000010" class="edge">
<title>Node8&#45;&gt;Node10</title>
<g id="a_edge10_Node000008_Node000010"><a xlink:title=" ">
<path fill="none" stroke="#63b8ff" d="M628.73,-58.02C623.21,-49.34 617.18,-39.88 612.31,-32.22"/>
<polygon fill="#63b8ff" stroke="#63b8ff" points="625.75,-59.86 634.07,-66.42 631.66,-56.1 625.75,-59.86"/>
</a>
</g>
</g>
<!-- Node11 -->
<g id="Node000011" class="node">
<title>Node11</title>
<g id="a_Node000011"><a xlink:href="_treasure_8cpp.html" target="_top" xlink:title=" ">
<polygon fill="white" stroke="#666666" points="806.75,-32 698.5,-32 698.5,0 806.75,0 806.75,-32"/>
<text text-anchor="start" x="706.5" y="-18.5" font-family="Helvetica,sans-Serif" font-size="10.00">Source/Slash/Private</text>
<text text-anchor="middle" x="752.62" y="-6.5" font-family="Helvetica,sans-Serif" font-size="10.00">/Items/Treasure.cpp</text>
</a>
</g>
</g>
<!-- Node8&#45;&gt;Node11 -->
<g id="edge11_Node000008_Node000011" class="edge">
<title>Node8&#45;&gt;Node11</title>
<g id="a_edge11_Node000008_Node000011"><a xlink:title=" ">
<path fill="none" stroke="#63b8ff" d="M679.76,-61.53C695.32,-52.02 713.27,-41.05 727.46,-32.38"/>
<polygon fill="#63b8ff" stroke="#63b8ff" points="677.95,-58.54 671.24,-66.74 681.6,-64.51 677.95,-58.54"/>
</a>
</g>
</g>
<!-- Node13 -->
<g id="Node000013" class="node">
<title>Node13</title>
<g id="a_Node000013"><a xlink:href="_enemy_8cpp.html" target="_top" xlink:title=" ">
<polygon fill="white" stroke="#666666" points="932.75,-32 824.5,-32 824.5,0 932.75,0 932.75,-32"/>
<text text-anchor="start" x="832.5" y="-18.5" font-family="Helvetica,sans-Serif" font-size="10.00">Source/Slash/Private</text>
<text text-anchor="middle" x="878.62" y="-6.5" font-family="Helvetica,sans-Serif" font-size="10.00">/Enemy/Enemy.cpp</text>
</a>
</g>
</g>
<!-- Node12&#45;&gt;Node13 -->
<g id="edge14_Node000012_Node000013" class="edge">
<title>Node12&#45;&gt;Node13</title>
<g id="a_edge14_Node000012_Node000013"><a xlink:title=" ">
<path fill="none" stroke="#63b8ff" d="M835.92,-59.71C845.04,-50.59 855.25,-40.37 863.4,-32.22"/>
<polygon fill="#63b8ff" stroke="#63b8ff" points="833.6,-57.08 829,-66.62 838.55,-62.03 833.6,-57.08"/>
</a>
</g>
</g>
</g>
</svg>
