<?xml version="1.0" encoding="UTF-8" standalone="no"?>
<!DOCTYPE svg PUBLIC "-//W3C//DTD SVG 1.1//EN"
 "http://www.w3.org/Graphics/SVG/1.1/DTD/svg11.dtd">
<!-- Generated by graphviz version 12.2.1 (20241206.2353)
 -->
<!-- Title: Source/Slash/Public/Interfaces/HitInterface.h Pages: 1 -->
<svg width="345pt" height="96pt"
 viewBox="0.00 0.00 345.00 96.00" xmlns="http://www.w3.org/2000/svg" xmlns:xlink="http://www.w3.org/1999/xlink">
<g id="graph0" class="graph" transform="scale(1 1) rotate(0) translate(4 92)">
<title>Source/Slash/Public/Interfaces/HitInterface.h</title>
<!-- Node1 -->
<g id="Node000001" class="node">
<title>Node1</title>
<g id="a_Node000001"><a xlink:title=" ">
<polygon fill="#999999" stroke="#666666" points="209.88,-88 85.12,-88 85.12,-56 209.88,-56 209.88,-88"/>
<text text-anchor="start" x="93.12" y="-74.5" font-family="Helvetica,sans-Serif" font-size="10.00">Source/Slash/Public</text>
<text text-anchor="middle" x="147.5" y="-62.5" font-family="Helvetica,sans-Serif" font-size="10.00">/Interfaces/HitInterface.h</text>
</a>
</g>
</g>
<!-- Node2 -->
<g id="Node000002" class="node">
<title>Node2</title>
<g id="a_Node000002"><a xlink:title=" ">
<polygon fill="#e0e0e0" stroke="#999999" points="79,-20 0,-20 0,0 79,0 79,-20"/>
<text text-anchor="middle" x="39.5" y="-6.5" font-family="Helvetica,sans-Serif" font-size="10.00">CoreMinimal.h</text>
</a>
</g>
</g>
<!-- Node1&#45;&gt;Node2 -->
<g id="edge1_Node000001_Node000002" class="edge">
<title>Node1&#45;&gt;Node2</title>
<g id="a_edge1_Node000001_Node000002"><a xlink:title=" ">
<path fill="none" stroke="#63b8ff" d="M119.69,-55.55C103.28,-46.43 82.62,-34.96 66.38,-25.93"/>
<polygon fill="#63b8ff" stroke="#63b8ff" points="68.2,-22.94 57.76,-21.14 64.8,-29.06 68.2,-22.94"/>
</a>
</g>
</g>
<!-- Node3 -->
<g id="Node000003" class="node">
<title>Node3</title>
<g id="a_Node000003"><a xlink:title=" ">
<polygon fill="#e0e0e0" stroke="#999999" points="198.25,-20 96.75,-20 96.75,0 198.25,0 198.25,-20"/>
<text text-anchor="middle" x="147.5" y="-6.5" font-family="Helvetica,sans-Serif" font-size="10.00">UObject/Interface.h</text>
</a>
</g>
</g>
<!-- Node1&#45;&gt;Node3 -->
<g id="edge2_Node000001_Node000003" class="edge">
<title>Node1&#45;&gt;Node3</title>
<g id="a_edge2_Node000001_Node000003"><a xlink:title=" ">
<path fill="none" stroke="#63b8ff" d="M147.5,-55.55C147.5,-48.34 147.5,-39.66 147.5,-31.88"/>
<polygon fill="#63b8ff" stroke="#63b8ff" points="151,-31.92 147.5,-21.92 144,-31.92 151,-31.92"/>
</a>
</g>
</g>
<!-- Node4 -->
<g id="Node000004" class="node">
<title>Node4</title>
<g id="a_Node000004"><a xlink:title=" ">
<polygon fill="#e0e0e0" stroke="#999999" points="337,-20 216,-20 216,0 337,0 337,-20"/>
<text text-anchor="middle" x="276.5" y="-6.5" font-family="Helvetica,sans-Serif" font-size="10.00">HitInterface.generated.h</text>
</a>
</g>
</g>
<!-- Node1&#45;&gt;Node4 -->
<g id="edge3_Node000001_Node000004" class="edge">
<title>Node1&#45;&gt;Node4</title>
<g id="a_edge3_Node000001_Node000004"><a xlink:title=" ">
<path fill="none" stroke="#63b8ff" d="M180.72,-55.55C200.88,-46.17 226.41,-34.3 246.04,-25.17"/>
<polygon fill="#63b8ff" stroke="#63b8ff" points="247.31,-28.44 254.9,-21.05 244.36,-22.09 247.31,-28.44"/>
</a>
</g>
</g>
</g>
</svg>
