<?xml version="1.0" encoding="UTF-8" standalone="no"?>
<!DOCTYPE svg PUBLIC "-//W3C//DTD SVG 1.1//EN"
 "http://www.w3.org/Graphics/SVG/1.1/DTD/svg11.dtd">
<!-- Generated by graphviz version 12.2.1 (20241206.2353)
 -->
<!-- Title: Source/Slash/Private/Items/Item.cpp Pages: 1 -->
<svg width="1211pt" height="152pt"
 viewBox="0.00 0.00 1211.25 152.00" xmlns="http://www.w3.org/2000/svg" xmlns:xlink="http://www.w3.org/1999/xlink">
<g id="graph0" class="graph" transform="scale(1 1) rotate(0) translate(4 148)">
<title>Source/Slash/Private/Items/Item.cpp</title>
<!-- Node1 -->
<g id="Node000001" class="node">
<title>Node1</title>
<g id="a_Node000001"><a xlink:title=" ">
<polygon fill="#999999" stroke="#666666" points="755.88,-144 647.62,-144 647.62,-112 755.88,-112 755.88,-144"/>
<text text-anchor="start" x="655.62" y="-130.5" font-family="Helvetica,sans-Serif" font-size="10.00">Source/Slash/Private</text>
<text text-anchor="middle" x="701.75" y="-118.5" font-family="Helvetica,sans-Serif" font-size="10.00">/Items/Item.cpp</text>
</a>
</g>
</g>
<!-- Node2 -->
<g id="Node000002" class="node">
<title>Node2</title>
<g id="a_Node000002"><a xlink:href="_item_8h.html" target="_top" xlink:title=" ">
<polygon fill="white" stroke="#666666" points="471.5,-76 400,-76 400,-56 471.5,-56 471.5,-76"/>
<text text-anchor="middle" x="435.75" y="-62.5" font-family="Helvetica,sans-Serif" font-size="10.00">Items/Item.h</text>
</a>
</g>
</g>
<!-- Node1&#45;&gt;Node2 -->
<g id="edge1_Node000001_Node000002" class="edge">
<title>Node1&#45;&gt;Node2</title>
<g id="a_edge1_Node000001_Node000002"><a xlink:title=" ">
<path fill="none" stroke="#63b8ff" d="M647.28,-114.71C598.94,-103.81 529.03,-88.04 483,-77.66"/>
<polygon fill="#63b8ff" stroke="#63b8ff" points="483.85,-74.26 473.32,-75.47 482.31,-81.09 483.85,-74.26"/>
</a>
</g>
</g>
<!-- Node6 -->
<g id="Node000006" class="node">
<title>Node6</title>
<g id="a_Node000006"><a xlink:href="_debug_macros_8h.html" target="_top" xlink:title=" ">
<polygon fill="white" stroke="#666666" points="602.12,-76 489.38,-76 489.38,-56 602.12,-56 602.12,-76"/>
<text text-anchor="middle" x="545.75" y="-62.5" font-family="Helvetica,sans-Serif" font-size="10.00">Slash/DebugMacros.h</text>
</a>
</g>
</g>
<!-- Node1&#45;&gt;Node6 -->
<g id="edge5_Node000001_Node000006" class="edge">
<title>Node1&#45;&gt;Node6</title>
<g id="a_edge5_Node000001_Node000006"><a xlink:title=" ">
<path fill="none" stroke="#63b8ff" d="M661.58,-111.55C636.64,-101.96 604.89,-89.75 580.94,-80.54"/>
<polygon fill="#63b8ff" stroke="#63b8ff" points="582.21,-77.27 571.62,-76.95 579.7,-83.81 582.21,-77.27"/>
</a>
</g>
</g>
<!-- Node8 -->
<g id="Node000008" class="node">
<title>Node8</title>
<g id="a_Node000008"><a xlink:title=" ">
<polygon fill="#e0e0e0" stroke="#999999" points="783.62,-76 619.88,-76 619.88,-56 783.62,-56 783.62,-76"/>
<text text-anchor="middle" x="701.75" y="-62.5" font-family="Helvetica,sans-Serif" font-size="10.00">Components/SphereComponent.h</text>
</a>
</g>
</g>
<!-- Node1&#45;&gt;Node8 -->
<g id="edge7_Node000001_Node000008" class="edge">
<title>Node1&#45;&gt;Node8</title>
<g id="a_edge7_Node000001_Node000008"><a xlink:title=" ">
<path fill="none" stroke="#63b8ff" d="M701.75,-111.55C701.75,-104.34 701.75,-95.66 701.75,-87.88"/>
<polygon fill="#63b8ff" stroke="#63b8ff" points="705.25,-87.92 701.75,-77.92 698.25,-87.92 705.25,-87.92"/>
</a>
</g>
</g>
<!-- Node9 -->
<g id="Node000009" class="node">
<title>Node9</title>
<g id="a_Node000009"><a xlink:title=" ">
<polygon fill="#e0e0e0" stroke="#999999" points="909.88,-76 801.62,-76 801.62,-56 909.88,-56 909.88,-76"/>
<text text-anchor="middle" x="855.75" y="-62.5" font-family="Helvetica,sans-Serif" font-size="10.00">NiagaraComponent.h</text>
</a>
</g>
</g>
<!-- Node1&#45;&gt;Node9 -->
<g id="edge8_Node000001_Node000009" class="edge">
<title>Node1&#45;&gt;Node9</title>
<g id="a_edge8_Node000001_Node000009"><a xlink:title=" ">
<path fill="none" stroke="#63b8ff" d="M741.41,-111.55C766.03,-101.96 797.37,-89.75 821.01,-80.54"/>
<polygon fill="#63b8ff" stroke="#63b8ff" points="822.15,-83.85 830.19,-76.96 819.6,-77.33 822.15,-83.85"/>
</a>
</g>
</g>
<!-- Node10 -->
<g id="Node000010" class="node">
<title>Node10</title>
<g id="a_Node000010"><a xlink:title=" ">
<polygon fill="#e0e0e0" stroke="#999999" points="1051.75,-76 927.75,-76 927.75,-56 1051.75,-56 1051.75,-76"/>
<text text-anchor="middle" x="989.75" y="-62.5" font-family="Helvetica,sans-Serif" font-size="10.00">NiagaraFunctionLibrary.h</text>
</a>
</g>
</g>
<!-- Node1&#45;&gt;Node10 -->
<g id="edge9_Node000001_Node000010" class="edge">
<title>Node1&#45;&gt;Node10</title>
<g id="a_edge9_Node000001_Node000010"><a xlink:title=" ">
<path fill="none" stroke="#63b8ff" d="M756.26,-115.64C806.9,-105.09 881.99,-89.45 933.26,-78.77"/>
<polygon fill="#63b8ff" stroke="#63b8ff" points="933.9,-82.21 942.98,-76.74 932.47,-75.36 933.9,-82.21"/>
</a>
</g>
</g>
<!-- Node11 -->
<g id="Node000011" class="node">
<title>Node11</title>
<g id="a_Node000011"><a xlink:href="_pickup_interface_8h.html" target="_top" xlink:title=" ">
<polygon fill="white" stroke="#666666" points="320.25,-76 181.25,-76 181.25,-56 320.25,-56 320.25,-76"/>
<text text-anchor="middle" x="250.75" y="-62.5" font-family="Helvetica,sans-Serif" font-size="10.00">Interfaces/PickupInterface.h</text>
</a>
</g>
</g>
<!-- Node1&#45;&gt;Node11 -->
<g id="edge10_Node000001_Node000011" class="edge">
<title>Node1&#45;&gt;Node11</title>
<g id="a_edge10_Node000001_Node000011"><a xlink:title=" ">
<path fill="none" stroke="#63b8ff" d="M647.35,-119.76C568.83,-109.32 423.16,-89.94 331.9,-77.8"/>
<polygon fill="#63b8ff" stroke="#63b8ff" points="332.37,-74.33 322,-76.48 331.45,-81.27 332.37,-74.33"/>
</a>
</g>
</g>
<!-- Node14 -->
<g id="Node000014" class="node">
<title>Node14</title>
<g id="a_Node000014"><a xlink:title=" ">
<polygon fill="#e0e0e0" stroke="#999999" points="1203.25,-76 1070.25,-76 1070.25,-56 1203.25,-56 1203.25,-76"/>
<text text-anchor="middle" x="1136.75" y="-62.5" font-family="Helvetica,sans-Serif" font-size="10.00">Kismet/GameplayStatics.h</text>
</a>
</g>
</g>
<!-- Node1&#45;&gt;Node14 -->
<g id="edge14_Node000001_Node000014" class="edge">
<title>Node1&#45;&gt;Node14</title>
<g id="a_edge14_Node000001_Node000014"><a xlink:title=" ">
<path fill="none" stroke="#63b8ff" d="M755.96,-119.52C832.22,-109 971.59,-89.78 1058.91,-77.74"/>
<polygon fill="#63b8ff" stroke="#63b8ff" points="1059.15,-81.24 1068.58,-76.4 1058.2,-74.3 1059.15,-81.24"/>
</a>
</g>
</g>
<!-- Node3 -->
<g id="Node000003" class="node">
<title>Node3</title>
<g id="a_Node000003"><a xlink:title=" ">
<polygon fill="#e0e0e0" stroke="#999999" points="355.25,-20 276.25,-20 276.25,0 355.25,0 355.25,-20"/>
<text text-anchor="middle" x="315.75" y="-6.5" font-family="Helvetica,sans-Serif" font-size="10.00">CoreMinimal.h</text>
</a>
</g>
</g>
<!-- Node2&#45;&gt;Node3 -->
<g id="edge2_Node000002_Node000003" class="edge">
<title>Node2&#45;&gt;Node3</title>
<g id="a_edge2_Node000002_Node000003"><a xlink:title=" ">
<path fill="none" stroke="#63b8ff" d="M414.85,-55.59C396.12,-47.17 368.39,-34.69 347.03,-25.07"/>
<polygon fill="#63b8ff" stroke="#63b8ff" points="348.75,-22.01 338.2,-21.1 345.88,-28.4 348.75,-22.01"/>
</a>
</g>
</g>
<!-- Node4 -->
<g id="Node000004" class="node">
<title>Node4</title>
<g id="a_Node000004"><a xlink:title=" ">
<polygon fill="#e0e0e0" stroke="#999999" points="498.5,-20 373,-20 373,0 498.5,0 498.5,-20"/>
<text text-anchor="middle" x="435.75" y="-6.5" font-family="Helvetica,sans-Serif" font-size="10.00">GameFramework/Actor.h</text>
</a>
</g>
</g>
<!-- Node2&#45;&gt;Node4 -->
<g id="edge3_Node000002_Node000004" class="edge">
<title>Node2&#45;&gt;Node4</title>
<g id="a_edge3_Node000002_Node000004"><a xlink:title=" ">
<path fill="none" stroke="#63b8ff" d="M435.75,-55.59C435.75,-49.01 435.75,-39.96 435.75,-31.73"/>
<polygon fill="#63b8ff" stroke="#63b8ff" points="439.25,-31.81 435.75,-21.81 432.25,-31.81 439.25,-31.81"/>
</a>
</g>
</g>
<!-- Node5 -->
<g id="Node000005" class="node">
<title>Node5</title>
<g id="a_Node000005"><a xlink:title=" ">
<polygon fill="#e0e0e0" stroke="#999999" points="606.5,-20 517,-20 517,0 606.5,0 606.5,-20"/>
<text text-anchor="middle" x="561.75" y="-6.5" font-family="Helvetica,sans-Serif" font-size="10.00">Item.generated.h</text>
</a>
</g>
</g>
<!-- Node2&#45;&gt;Node5 -->
<g id="edge4_Node000002_Node000005" class="edge">
<title>Node2&#45;&gt;Node5</title>
<g id="a_edge4_Node000002_Node000005"><a xlink:title=" ">
<path fill="none" stroke="#63b8ff" d="M457.7,-55.59C477.45,-47.13 506.74,-34.58 529.22,-24.94"/>
<polygon fill="#63b8ff" stroke="#63b8ff" points="530.43,-28.23 538.24,-21.08 527.67,-21.8 530.43,-28.23"/>
</a>
</g>
</g>
<!-- Node7 -->
<g id="Node000007" class="node">
<title>Node7</title>
<g id="a_Node000007"><a xlink:title=" ">
<polygon fill="#e0e0e0" stroke="#999999" points="734.62,-20 624.88,-20 624.88,0 734.62,0 734.62,-20"/>
<text text-anchor="middle" x="679.75" y="-6.5" font-family="Helvetica,sans-Serif" font-size="10.00">DrawDebugHelpers.h</text>
</a>
</g>
</g>
<!-- Node6&#45;&gt;Node7 -->
<g id="edge6_Node000006_Node000007" class="edge">
<title>Node6&#45;&gt;Node7</title>
<g id="a_edge6_Node000006_Node000007"><a xlink:title=" ">
<path fill="none" stroke="#63b8ff" d="M569.09,-55.59C590.29,-47.05 621.82,-34.35 645.8,-24.68"/>
<polygon fill="#63b8ff" stroke="#63b8ff" points="646.86,-28.03 654.82,-21.05 644.24,-21.54 646.86,-28.03"/>
</a>
</g>
</g>
<!-- Node11&#45;&gt;Node3 -->
<g id="edge11_Node000011_Node000003" class="edge">
<title>Node11&#45;&gt;Node3</title>
<g id="a_edge11_Node000011_Node000003"><a xlink:title=" ">
<path fill="none" stroke="#63b8ff" d="M262.07,-55.59C271.39,-47.85 284.83,-36.69 295.93,-27.47"/>
<polygon fill="#63b8ff" stroke="#63b8ff" points="297.94,-30.35 303.39,-21.27 293.46,-24.96 297.94,-30.35"/>
</a>
</g>
</g>
<!-- Node12 -->
<g id="Node000012" class="node">
<title>Node12</title>
<g id="a_Node000012"><a xlink:title=" ">
<polygon fill="#e0e0e0" stroke="#999999" points="101.5,-20 0,-20 0,0 101.5,0 101.5,-20"/>
<text text-anchor="middle" x="50.75" y="-6.5" font-family="Helvetica,sans-Serif" font-size="10.00">UObject/Interface.h</text>
</a>
</g>
</g>
<!-- Node11&#45;&gt;Node12 -->
<g id="edge12_Node000011_Node000012" class="edge">
<title>Node11&#45;&gt;Node12</title>
<g id="a_edge12_Node000011_Node000012"><a xlink:title=" ">
<path fill="none" stroke="#63b8ff" d="M215.91,-55.59C182.85,-46.67 132.95,-33.19 96.65,-23.39"/>
<polygon fill="#63b8ff" stroke="#63b8ff" points="97.89,-20.1 87.32,-20.87 96.06,-26.86 97.89,-20.1"/>
</a>
</g>
</g>
<!-- Node13 -->
<g id="Node000013" class="node">
<title>Node13</title>
<g id="a_Node000013"><a xlink:title=" ">
<polygon fill="#e0e0e0" stroke="#999999" points="257.88,-20 119.62,-20 119.62,0 257.88,0 257.88,-20"/>
<text text-anchor="middle" x="188.75" y="-6.5" font-family="Helvetica,sans-Serif" font-size="10.00">PickupInterface.generated.h</text>
</a>
</g>
</g>
<!-- Node11&#45;&gt;Node13 -->
<g id="edge13_Node000011_Node000013" class="edge">
<title>Node11&#45;&gt;Node13</title>
<g id="a_edge13_Node000011_Node000013"><a xlink:title=" ">
<path fill="none" stroke="#63b8ff" d="M239.95,-55.59C231.15,-47.93 218.5,-36.91 207.98,-27.75"/>
<polygon fill="#63b8ff" stroke="#63b8ff" points="210.41,-25.22 200.57,-21.29 205.81,-30.5 210.41,-25.22"/>
</a>
</g>
</g>
</g>
</svg>
