<?xml version="1.0" encoding="UTF-8" standalone="no"?>
<!DOCTYPE svg PUBLIC "-//W3C//DTD SVG 1.1//EN"
 "http://www.w3.org/Graphics/SVG/1.1/DTD/svg11.dtd">
<!-- Generated by graphviz version 12.2.1 (20241206.2353)
 -->
<!-- Title: Source/Slash/Public/Items/Item.h Pages: 1 -->
<svg width="1046pt" height="176pt"
 viewBox="0.00 0.00 1046.12 176.00" xmlns="http://www.w3.org/2000/svg" xmlns:xlink="http://www.w3.org/1999/xlink">
<g id="graph0" class="graph" transform="scale(1 1) rotate(0) translate(4 172)">
<title>Source/Slash/Public/Items/Item.h</title>
<!-- Node1 -->
<g id="Node000001" class="node">
<title>Node1</title>
<g id="a_Node000001"><a xlink:title=" ">
<polygon fill="#999999" stroke="#666666" points="490.38,-168 385.88,-168 385.88,-136 490.38,-136 490.38,-168"/>
<text text-anchor="start" x="393.88" y="-154.5" font-family="Helvetica,sans-Serif" font-size="10.00">Source/Slash/Public</text>
<text text-anchor="middle" x="438.12" y="-142.5" font-family="Helvetica,sans-Serif" font-size="10.00">/Items/Item.h</text>
</a>
</g>
</g>
<!-- Node2 -->
<g id="Node000002" class="node">
<title>Node2</title>
<g id="a_Node000002"><a xlink:href="_item_8cpp.html" target="_top" xlink:title=" ">
<polygon fill="white" stroke="#666666" points="307.25,-100 199,-100 199,-68 307.25,-68 307.25,-100"/>
<text text-anchor="start" x="207" y="-86.5" font-family="Helvetica,sans-Serif" font-size="10.00">Source/Slash/Private</text>
<text text-anchor="middle" x="253.12" y="-74.5" font-family="Helvetica,sans-Serif" font-size="10.00">/Items/Item.cpp</text>
</a>
</g>
</g>
<!-- Node1&#45;&gt;Node2 -->
<g id="edge1_Node000001_Node000002" class="edge">
<title>Node1&#45;&gt;Node2</title>
<g id="a_edge1_Node000001_Node000002"><a xlink:title=" ">
<path fill="none" stroke="#63b8ff" d="M383.99,-131.69C356.15,-121.76 322.67,-109.81 296.55,-100.49"/>
<polygon fill="#63b8ff" stroke="#63b8ff" points="382.73,-134.95 393.33,-135.02 385.08,-128.36 382.73,-134.95"/>
</a>
</g>
</g>
<!-- Node3 -->
<g id="Node000003" class="node">
<title>Node3</title>
<g id="a_Node000003"><a xlink:href="_soul_8h.html" target="_top" xlink:title=" ">
<polygon fill="white" stroke="#666666" points="552.38,-100 447.88,-100 447.88,-68 552.38,-68 552.38,-100"/>
<text text-anchor="start" x="455.88" y="-86.5" font-family="Helvetica,sans-Serif" font-size="10.00">Source/Slash/Public</text>
<text text-anchor="middle" x="500.12" y="-74.5" font-family="Helvetica,sans-Serif" font-size="10.00">/Items/Soul.h</text>
</a>
</g>
</g>
<!-- Node1&#45;&gt;Node3 -->
<g id="edge2_Node000001_Node000003" class="edge">
<title>Node1&#45;&gt;Node3</title>
<g id="a_edge2_Node000001_Node000003"><a xlink:title=" ">
<path fill="none" stroke="#63b8ff" d="M460.27,-127.43C468.77,-118.38 478.25,-108.29 485.82,-100.22"/>
<polygon fill="#63b8ff" stroke="#63b8ff" points="457.84,-124.9 453.54,-134.59 462.94,-129.7 457.84,-124.9"/>
</a>
</g>
</g>
<!-- Node7 -->
<g id="Node000007" class="node">
<title>Node7</title>
<g id="a_Node000007"><a xlink:href="_treasure_8h.html" target="_top" xlink:title=" ">
<polygon fill="white" stroke="#666666" points="429.38,-100 324.88,-100 324.88,-68 429.38,-68 429.38,-100"/>
<text text-anchor="start" x="332.88" y="-86.5" font-family="Helvetica,sans-Serif" font-size="10.00">Source/Slash/Public</text>
<text text-anchor="middle" x="377.12" y="-74.5" font-family="Helvetica,sans-Serif" font-size="10.00">/Items/Treasure.h</text>
</a>
</g>
</g>
<!-- Node1&#45;&gt;Node7 -->
<g id="edge6_Node000001_Node000007" class="edge">
<title>Node1&#45;&gt;Node7</title>
<g id="a_edge6_Node000001_Node000007"><a xlink:title=" ">
<path fill="none" stroke="#63b8ff" d="M416.34,-127.43C407.97,-118.38 398.65,-108.29 391.2,-100.22"/>
<polygon fill="#63b8ff" stroke="#63b8ff" points="413.59,-129.61 422.95,-134.58 418.73,-124.86 413.59,-129.61"/>
</a>
</g>
</g>
<!-- Node10 -->
<g id="Node000010" class="node">
<title>Node10</title>
<g id="a_Node000010"><a xlink:href="_weapon_8h.html" target="_top" xlink:title=" ">
<polygon fill="white" stroke="#666666" points="717,-100 583.25,-100 583.25,-68 717,-68 717,-100"/>
<text text-anchor="start" x="591.25" y="-86.5" font-family="Helvetica,sans-Serif" font-size="10.00">Source/Slash/Public</text>
<text text-anchor="middle" x="650.12" y="-74.5" font-family="Helvetica,sans-Serif" font-size="10.00">/Items/Weapons/Weapon.h</text>
</a>
</g>
</g>
<!-- Node1&#45;&gt;Node10 -->
<g id="edge10_Node000001_Node000010" class="edge">
<title>Node1&#45;&gt;Node10</title>
<g id="a_edge10_Node000001_Node000010"><a xlink:title=" ">
<path fill="none" stroke="#63b8ff" d="M498.47,-132.21C530.7,-122.18 569.9,-109.98 600.36,-100.49"/>
<polygon fill="#63b8ff" stroke="#63b8ff" points="497.78,-128.76 489.27,-135.08 499.86,-135.45 497.78,-128.76"/>
</a>
</g>
</g>
<!-- Node4 -->
<g id="Node000004" class="node">
<title>Node4</title>
<g id="a_Node000004"><a xlink:href="_slash_character_8cpp.html" target="_top" xlink:title=" ">
<polygon fill="white" stroke="#666666" points="578.25,-32 422,-32 422,0 578.25,0 578.25,-32"/>
<text text-anchor="start" x="430" y="-18.5" font-family="Helvetica,sans-Serif" font-size="10.00">Source/Slash/Private</text>
<text text-anchor="middle" x="500.12" y="-6.5" font-family="Helvetica,sans-Serif" font-size="10.00">/Characters/SlashCharacter.cpp</text>
</a>
</g>
</g>
<!-- Node3&#45;&gt;Node4 -->
<g id="edge3_Node000003_Node000004" class="edge">
<title>Node3&#45;&gt;Node4</title>
<g id="a_edge3_Node000003_Node000004"><a xlink:title=" ">
<path fill="none" stroke="#63b8ff" d="M500.12,-56.31C500.12,-48.12 500.12,-39.38 500.12,-32.22"/>
<polygon fill="#63b8ff" stroke="#63b8ff" points="496.63,-56.18 500.13,-66.18 503.63,-56.18 496.63,-56.18"/>
</a>
</g>
</g>
<!-- Node5 -->
<g id="Node000005" class="node">
<title>Node5</title>
<g id="a_Node000005"><a xlink:href="_enemy_8cpp.html" target="_top" xlink:title=" ">
<polygon fill="white" stroke="#666666" points="704.25,-32 596,-32 596,0 704.25,0 704.25,-32"/>
<text text-anchor="start" x="604" y="-18.5" font-family="Helvetica,sans-Serif" font-size="10.00">Source/Slash/Private</text>
<text text-anchor="middle" x="650.12" y="-6.5" font-family="Helvetica,sans-Serif" font-size="10.00">/Enemy/Enemy.cpp</text>
</a>
</g>
</g>
<!-- Node3&#45;&gt;Node5 -->
<g id="edge4_Node000003_Node000005" class="edge">
<title>Node3&#45;&gt;Node5</title>
<g id="a_edge4_Node000003_Node000005"><a xlink:title=" ">
<path fill="none" stroke="#63b8ff" d="M545.82,-62.89C568.03,-53.12 594.3,-41.56 614.92,-32.49"/>
<polygon fill="#63b8ff" stroke="#63b8ff" points="544.42,-59.69 536.68,-66.92 547.24,-66.09 544.42,-59.69"/>
</a>
</g>
</g>
<!-- Node6 -->
<g id="Node000006" class="node">
<title>Node6</title>
<g id="a_Node000006"><a xlink:href="_soul_8cpp.html" target="_top" xlink:title=" ">
<polygon fill="white" stroke="#666666" points="404.25,-32 296,-32 296,0 404.25,0 404.25,-32"/>
<text text-anchor="start" x="304" y="-18.5" font-family="Helvetica,sans-Serif" font-size="10.00">Source/Slash/Private</text>
<text text-anchor="middle" x="350.12" y="-6.5" font-family="Helvetica,sans-Serif" font-size="10.00">/Items/Soul.cpp</text>
</a>
</g>
</g>
<!-- Node3&#45;&gt;Node6 -->
<g id="edge5_Node000003_Node000006" class="edge">
<title>Node3&#45;&gt;Node6</title>
<g id="a_edge5_Node000003_Node000006"><a xlink:title=" ">
<path fill="none" stroke="#63b8ff" d="M454.43,-62.89C432.22,-53.12 405.95,-41.56 385.33,-32.49"/>
<polygon fill="#63b8ff" stroke="#63b8ff" points="453.01,-66.09 463.57,-66.92 455.83,-59.69 453.01,-66.09"/>
</a>
</g>
</g>
<!-- Node7&#45;&gt;Node4 -->
<g id="edge8_Node000007_Node000004" class="edge">
<title>Node7&#45;&gt;Node4</title>
<g id="a_edge8_Node000007_Node000004"><a xlink:title=" ">
<path fill="none" stroke="#63b8ff" d="M415.88,-62.2C433.89,-52.54 454.92,-41.26 471.47,-32.38"/>
<polygon fill="#63b8ff" stroke="#63b8ff" points="414.45,-59 407.3,-66.81 417.76,-65.17 414.45,-59"/>
</a>
</g>
</g>
<!-- Node8 -->
<g id="Node000008" class="node">
<title>Node8</title>
<g id="a_Node000008"><a xlink:href="_breakable_actor_8cpp.html" target="_top" xlink:title=" ">
<polygon fill="white" stroke="#666666" points="277.62,-32 126.62,-32 126.62,0 277.62,0 277.62,-32"/>
<text text-anchor="start" x="134.62" y="-18.5" font-family="Helvetica,sans-Serif" font-size="10.00">Source/Slash/Private</text>
<text text-anchor="middle" x="202.12" y="-6.5" font-family="Helvetica,sans-Serif" font-size="10.00">/Breakable/BreakableActor.cpp</text>
</a>
</g>
</g>
<!-- Node7&#45;&gt;Node8 -->
<g id="edge7_Node000007_Node000008" class="edge">
<title>Node7&#45;&gt;Node8</title>
<g id="a_edge7_Node000007_Node000008"><a xlink:title=" ">
<path fill="none" stroke="#63b8ff" d="M325.57,-63.56C299.3,-53.65 267.8,-41.77 243.2,-32.49"/>
<polygon fill="#63b8ff" stroke="#63b8ff" points="324.09,-66.74 334.68,-66.99 326.56,-60.19 324.09,-66.74"/>
</a>
</g>
</g>
<!-- Node9 -->
<g id="Node000009" class="node">
<title>Node9</title>
<g id="a_Node000009"><a xlink:href="_treasure_8cpp.html" target="_top" xlink:title=" ">
<polygon fill="white" stroke="#666666" points="108.25,-32 0,-32 0,0 108.25,0 108.25,-32"/>
<text text-anchor="start" x="8" y="-18.5" font-family="Helvetica,sans-Serif" font-size="10.00">Source/Slash/Private</text>
<text text-anchor="middle" x="54.12" y="-6.5" font-family="Helvetica,sans-Serif" font-size="10.00">/Items/Treasure.cpp</text>
</a>
</g>
</g>
<!-- Node7&#45;&gt;Node9 -->
<g id="edge9_Node000007_Node000009" class="edge">
<title>Node7&#45;&gt;Node9</title>
<g id="a_edge9_Node000007_Node000009"><a xlink:title=" ">
<path fill="none" stroke="#63b8ff" d="M313.37,-67.49C226.26,-49.32 201.58,-49.68 117.12,-32 114.37,-31.42 111.56,-30.82 108.72,-30.19"/>
<polygon fill="#63b8ff" stroke="#63b8ff" points="312.61,-70.91 323.12,-69.55 314.06,-64.06 312.61,-70.91"/>
</a>
</g>
</g>
<!-- Node10&#45;&gt;Node4 -->
<g id="edge12_Node000010_Node000004" class="edge">
<title>Node10&#45;&gt;Node4</title>
<g id="a_edge12_Node000010_Node000004"><a xlink:title=" ">
<path fill="none" stroke="#63b8ff" d="M604.43,-62.89C582.22,-53.12 555.95,-41.56 535.33,-32.49"/>
<polygon fill="#63b8ff" stroke="#63b8ff" points="603.01,-66.09 613.57,-66.92 605.83,-59.69 603.01,-66.09"/>
</a>
</g>
</g>
<!-- Node10&#45;&gt;Node5 -->
<g id="edge13_Node000010_Node000005" class="edge">
<title>Node10&#45;&gt;Node5</title>
<g id="a_edge13_Node000010_Node000005"><a xlink:title=" ">
<path fill="none" stroke="#63b8ff" d="M650.12,-56.31C650.12,-48.12 650.12,-39.38 650.12,-32.22"/>
<polygon fill="#63b8ff" stroke="#63b8ff" points="646.63,-56.18 650.13,-66.18 653.63,-56.18 646.63,-56.18"/>
</a>
</g>
</g>
<!-- Node11 -->
<g id="Node000011" class="node">
<title>Node11</title>
<g id="a_Node000011"><a xlink:href="_base_character_8cpp.html" target="_top" xlink:title=" ">
<polygon fill="white" stroke="#666666" points="1038.12,-32 884.12,-32 884.12,0 1038.12,0 1038.12,-32"/>
<text text-anchor="start" x="892.12" y="-18.5" font-family="Helvetica,sans-Serif" font-size="10.00">Source/Slash/Private</text>
<text text-anchor="middle" x="961.12" y="-6.5" font-family="Helvetica,sans-Serif" font-size="10.00">/Characters/BaseCharacter.cpp</text>
</a>
</g>
</g>
<!-- Node10&#45;&gt;Node11 -->
<g id="edge11_Node000010_Node000011" class="edge">
<title>Node10&#45;&gt;Node11</title>
<g id="a_edge11_Node000010_Node000011"><a xlink:title=" ">
<path fill="none" stroke="#63b8ff" d="M728.42,-66.38C777.44,-55.98 840.19,-42.66 888.17,-32.48"/>
<polygon fill="#63b8ff" stroke="#63b8ff" points="727.76,-62.95 718.71,-68.45 729.21,-69.79 727.76,-62.95"/>
</a>
</g>
</g>
<!-- Node12 -->
<g id="Node000012" class="node">
<title>Node12</title>
<g id="a_Node000012"><a xlink:href="_weapon_8cpp.html" target="_top" xlink:title=" ">
<polygon fill="white" stroke="#666666" points="866.25,-32 722,-32 722,0 866.25,0 866.25,-32"/>
<text text-anchor="start" x="730" y="-18.5" font-family="Helvetica,sans-Serif" font-size="10.00">Source/Slash/Private</text>
<text text-anchor="middle" x="794.12" y="-6.5" font-family="Helvetica,sans-Serif" font-size="10.00">/Items/Weapons/Weapon.cpp</text>
</a>
</g>
</g>
<!-- Node10&#45;&gt;Node12 -->
<g id="edge14_Node000010_Node000012" class="edge">
<title>Node10&#45;&gt;Node12</title>
<g id="a_edge14_Node000010_Node000012"><a xlink:title=" ">
<path fill="none" stroke="#63b8ff" d="M694.33,-62.74C715.66,-52.96 740.84,-41.42 760.57,-32.38"/>
<polygon fill="#63b8ff" stroke="#63b8ff" points="692.89,-59.55 685.26,-66.9 695.81,-65.91 692.89,-59.55"/>
</a>
</g>
</g>
</g>
</svg>
