<?xml version="1.0" encoding="UTF-8" standalone="no"?>
<!DOCTYPE svg PUBLIC "-//W3C//DTD SVG 1.1//EN"
 "http://www.w3.org/Graphics/SVG/1.1/DTD/svg11.dtd">
<!-- Generated by graphviz version 12.2.1 (20241206.2353)
 -->
<!-- Title: Source/Slash/Public/Interfaces/PickupInterface.h Pages: 1 -->
<svg width="794pt" height="176pt"
 viewBox="0.00 0.00 794.38 176.00" xmlns="http://www.w3.org/2000/svg" xmlns:xlink="http://www.w3.org/1999/xlink">
<g id="graph0" class="graph" transform="scale(1 1) rotate(0) translate(4 172)">
<title>Source/Slash/Public/Interfaces/PickupInterface.h</title>
<!-- Node1 -->
<g id="Node000001" class="node">
<title>Node1</title>
<g id="a_Node000001"><a xlink:title=" ">
<polygon fill="#999999" stroke="#666666" points="358.25,-168 216.25,-168 216.25,-136 358.25,-136 358.25,-168"/>
<text text-anchor="start" x="224.25" y="-154.5" font-family="Helvetica,sans-Serif" font-size="10.00">Source/Slash/Public</text>
<text text-anchor="middle" x="287.25" y="-142.5" font-family="Helvetica,sans-Serif" font-size="10.00">/Interfaces/PickupInterface.h</text>
</a>
</g>
</g>
<!-- Node2 -->
<g id="Node000002" class="node">
<title>Node2</title>
<g id="a_Node000002"><a xlink:href="_pickup_interface_8cpp.html" target="_top" xlink:title=" ">
<polygon fill="white" stroke="#666666" points="152.5,-100 0,-100 0,-68 152.5,-68 152.5,-100"/>
<text text-anchor="start" x="8" y="-86.5" font-family="Helvetica,sans-Serif" font-size="10.00">Source/Slash/Private</text>
<text text-anchor="middle" x="76.25" y="-74.5" font-family="Helvetica,sans-Serif" font-size="10.00">/Interfaces/PickupInterface.cpp</text>
</a>
</g>
</g>
<!-- Node1&#45;&gt;Node2 -->
<g id="edge1_Node000001_Node000002" class="edge">
<title>Node1&#45;&gt;Node2</title>
<g id="a_edge1_Node000001_Node000002"><a xlink:title=" ">
<path fill="none" stroke="#63b8ff" d="M227.19,-132.21C195.11,-122.18 156.1,-109.98 125.78,-100.49"/>
<polygon fill="#63b8ff" stroke="#63b8ff" points="225.75,-135.43 236.34,-135.07 227.84,-128.75 225.75,-135.43"/>
</a>
</g>
</g>
<!-- Node3 -->
<g id="Node000003" class="node">
<title>Node3</title>
<g id="a_Node000003"><a xlink:href="_item_8cpp.html" target="_top" xlink:title=" ">
<polygon fill="white" stroke="#666666" points="278.38,-100 170.12,-100 170.12,-68 278.38,-68 278.38,-100"/>
<text text-anchor="start" x="178.12" y="-86.5" font-family="Helvetica,sans-Serif" font-size="10.00">Source/Slash/Private</text>
<text text-anchor="middle" x="224.25" y="-74.5" font-family="Helvetica,sans-Serif" font-size="10.00">/Items/Item.cpp</text>
</a>
</g>
</g>
<!-- Node1&#45;&gt;Node3 -->
<g id="edge2_Node000001_Node000003" class="edge">
<title>Node1&#45;&gt;Node3</title>
<g id="a_edge2_Node000001_Node000003"><a xlink:title=" ">
<path fill="none" stroke="#63b8ff" d="M264.75,-127.43C256.11,-118.38 246.48,-108.29 238.78,-100.22"/>
<polygon fill="#63b8ff" stroke="#63b8ff" points="262.16,-129.78 271.59,-134.6 267.22,-124.95 262.16,-129.78"/>
</a>
</g>
</g>
<!-- Node4 -->
<g id="Node000004" class="node">
<title>Node4</title>
<g id="a_Node000004"><a xlink:href="_soul_8cpp.html" target="_top" xlink:title=" ">
<polygon fill="white" stroke="#666666" points="404.38,-100 296.12,-100 296.12,-68 404.38,-68 404.38,-100"/>
<text text-anchor="start" x="304.12" y="-86.5" font-family="Helvetica,sans-Serif" font-size="10.00">Source/Slash/Private</text>
<text text-anchor="middle" x="350.25" y="-74.5" font-family="Helvetica,sans-Serif" font-size="10.00">/Items/Soul.cpp</text>
</a>
</g>
</g>
<!-- Node1&#45;&gt;Node4 -->
<g id="edge3_Node000001_Node000004" class="edge">
<title>Node1&#45;&gt;Node4</title>
<g id="a_edge3_Node000001_Node000004"><a xlink:title=" ">
<path fill="none" stroke="#63b8ff" d="M309.75,-127.43C318.39,-118.38 328.02,-108.29 335.72,-100.22"/>
<polygon fill="#63b8ff" stroke="#63b8ff" points="307.28,-124.95 302.91,-134.6 312.34,-129.78 307.28,-124.95"/>
</a>
</g>
</g>
<!-- Node5 -->
<g id="Node000005" class="node">
<title>Node5</title>
<g id="a_Node000005"><a xlink:href="_slash_character_8h.html" target="_top" xlink:title=" ">
<polygon fill="white" stroke="#666666" points="568.12,-100 422.38,-100 422.38,-68 568.12,-68 568.12,-100"/>
<text text-anchor="start" x="430.38" y="-86.5" font-family="Helvetica,sans-Serif" font-size="10.00">Source/Slash/Public</text>
<text text-anchor="middle" x="495.25" y="-74.5" font-family="Helvetica,sans-Serif" font-size="10.00">/Characters/SlashCharacter.h</text>
</a>
</g>
</g>
<!-- Node1&#45;&gt;Node5 -->
<g id="edge4_Node000001_Node000005" class="edge">
<title>Node1&#45;&gt;Node5</title>
<g id="a_edge4_Node000001_Node000005"><a xlink:title=" ">
<path fill="none" stroke="#63b8ff" d="M346.87,-132.08C378.42,-122.07 416.67,-109.94 446.43,-100.49"/>
<polygon fill="#63b8ff" stroke="#63b8ff" points="345.93,-128.71 337.46,-135.07 348.05,-135.38 345.93,-128.71"/>
</a>
</g>
</g>
<!-- Node6 -->
<g id="Node000006" class="node">
<title>Node6</title>
<g id="a_Node000006"><a xlink:href="_slash_anim_instance_8cpp.html" target="_top" xlink:title=" ">
<polygon fill="white" stroke="#666666" points="324,-32 150.5,-32 150.5,0 324,0 324,-32"/>
<text text-anchor="start" x="158.5" y="-18.5" font-family="Helvetica,sans-Serif" font-size="10.00">Source/Slash/Private</text>
<text text-anchor="middle" x="237.25" y="-6.5" font-family="Helvetica,sans-Serif" font-size="10.00">/Characters/SlashAnimInstance.cpp</text>
</a>
</g>
</g>
<!-- Node5&#45;&gt;Node6 -->
<g id="edge5_Node000005_Node000006" class="edge">
<title>Node5&#45;&gt;Node6</title>
<g id="a_edge5_Node000005_Node000006"><a xlink:title=" ">
<path fill="none" stroke="#63b8ff" d="M423.85,-64.73C384.25,-54.6 335.53,-42.14 297.81,-32.49"/>
<polygon fill="#63b8ff" stroke="#63b8ff" points="422.74,-68.06 433.29,-67.15 424.47,-61.28 422.74,-68.06"/>
</a>
</g>
</g>
<!-- Node7 -->
<g id="Node000007" class="node">
<title>Node7</title>
<g id="a_Node000007"><a xlink:href="_slash_character_8cpp.html" target="_top" xlink:title=" ">
<polygon fill="white" stroke="#666666" points="498.38,-32 342.12,-32 342.12,0 498.38,0 498.38,-32"/>
<text text-anchor="start" x="350.12" y="-18.5" font-family="Helvetica,sans-Serif" font-size="10.00">Source/Slash/Private</text>
<text text-anchor="middle" x="420.25" y="-6.5" font-family="Helvetica,sans-Serif" font-size="10.00">/Characters/SlashCharacter.cpp</text>
</a>
</g>
</g>
<!-- Node5&#45;&gt;Node7 -->
<g id="edge6_Node000005_Node000007" class="edge">
<title>Node5&#45;&gt;Node7</title>
<g id="a_edge6_Node000005_Node000007"><a xlink:title=" ">
<path fill="none" stroke="#63b8ff" d="M469.48,-60.32C459.03,-51.13 447.24,-40.75 437.81,-32.45"/>
<polygon fill="#63b8ff" stroke="#63b8ff" points="466.9,-62.71 476.72,-66.69 471.52,-57.46 466.9,-62.71"/>
</a>
</g>
</g>
<!-- Node8 -->
<g id="Node000008" class="node">
<title>Node8</title>
<g id="a_Node000008"><a xlink:href="_treasure_8cpp.html" target="_top" xlink:title=" ">
<polygon fill="white" stroke="#666666" points="624.38,-32 516.12,-32 516.12,0 624.38,0 624.38,-32"/>
<text text-anchor="start" x="524.12" y="-18.5" font-family="Helvetica,sans-Serif" font-size="10.00">Source/Slash/Private</text>
<text text-anchor="middle" x="570.25" y="-6.5" font-family="Helvetica,sans-Serif" font-size="10.00">/Items/Treasure.cpp</text>
</a>
</g>
</g>
<!-- Node5&#45;&gt;Node8 -->
<g id="edge7_Node000005_Node000008" class="edge">
<title>Node5&#45;&gt;Node8</title>
<g id="a_edge7_Node000005_Node000008"><a xlink:title=" ">
<path fill="none" stroke="#63b8ff" d="M521.02,-60.32C531.47,-51.13 543.26,-40.75 552.69,-32.45"/>
<polygon fill="#63b8ff" stroke="#63b8ff" points="518.98,-57.46 513.78,-66.69 523.6,-62.71 518.98,-57.46"/>
</a>
</g>
</g>
<!-- Node9 -->
<g id="Node000009" class="node">
<title>Node9</title>
<g id="a_Node000009"><a xlink:href="_weapon_8cpp.html" target="_top" xlink:title=" ">
<polygon fill="white" stroke="#666666" points="786.38,-32 642.12,-32 642.12,0 786.38,0 786.38,-32"/>
<text text-anchor="start" x="650.12" y="-18.5" font-family="Helvetica,sans-Serif" font-size="10.00">Source/Slash/Private</text>
<text text-anchor="middle" x="714.25" y="-6.5" font-family="Helvetica,sans-Serif" font-size="10.00">/Items/Weapons/Weapon.cpp</text>
</a>
</g>
</g>
<!-- Node5&#45;&gt;Node9 -->
<g id="edge8_Node000005_Node000009" class="edge">
<title>Node5&#45;&gt;Node9</title>
<g id="a_edge8_Node000005_Node000009"><a xlink:title=" ">
<path fill="none" stroke="#63b8ff" d="M557.59,-64.21C590.88,-54.18 631.37,-41.98 662.85,-32.49"/>
<polygon fill="#63b8ff" stroke="#63b8ff" points="556.61,-60.85 548.04,-67.09 558.63,-67.55 556.61,-60.85"/>
</a>
</g>
</g>
</g>
</svg>
