<?xml version="1.0" encoding="UTF-8" standalone="no"?>
<!DOCTYPE svg PUBLIC "-//W3C//DTD SVG 1.1//EN"
 "http://www.w3.org/Graphics/SVG/1.1/DTD/svg11.dtd">
<!-- Generated by graphviz version 12.2.1 (20241206.2353)
 -->
<!-- Title: Source/Slash/Private/Interfaces/PickupInterface.cpp Pages: 1 -->
<svg width="363pt" height="152pt"
 viewBox="0.00 0.00 362.62 152.00" xmlns="http://www.w3.org/2000/svg" xmlns:xlink="http://www.w3.org/1999/xlink">
<g id="graph0" class="graph" transform="scale(1 1) rotate(0) translate(4 148)">
<title>Source/Slash/Private/Interfaces/PickupInterface.cpp</title>
<!-- Node1 -->
<g id="Node000001" class="node">
<title>Node1</title>
<g id="a_Node000001"><a xlink:title=" ">
<polygon fill="#999999" stroke="#666666" points="223.75,-144 71.25,-144 71.25,-112 223.75,-112 223.75,-144"/>
<text text-anchor="start" x="79.25" y="-130.5" font-family="Helvetica,sans-Serif" font-size="10.00">Source/Slash/Private</text>
<text text-anchor="middle" x="147.5" y="-118.5" font-family="Helvetica,sans-Serif" font-size="10.00">/Interfaces/PickupInterface.cpp</text>
</a>
</g>
</g>
<!-- Node2 -->
<g id="Node000002" class="node">
<title>Node2</title>
<g id="a_Node000002"><a xlink:href="_pickup_interface_8h.html" target="_top" xlink:title=" ">
<polygon fill="white" stroke="#666666" points="217,-76 78,-76 78,-56 217,-56 217,-76"/>
<text text-anchor="middle" x="147.5" y="-62.5" font-family="Helvetica,sans-Serif" font-size="10.00">Interfaces/PickupInterface.h</text>
</a>
</g>
</g>
<!-- Node1&#45;&gt;Node2 -->
<g id="edge1_Node000001_Node000002" class="edge">
<title>Node1&#45;&gt;Node2</title>
<g id="a_edge1_Node000001_Node000002"><a xlink:title=" ">
<path fill="none" stroke="#63b8ff" d="M147.5,-111.55C147.5,-104.34 147.5,-95.66 147.5,-87.88"/>
<polygon fill="#63b8ff" stroke="#63b8ff" points="151,-87.92 147.5,-77.92 144,-87.92 151,-87.92"/>
</a>
</g>
</g>
<!-- Node3 -->
<g id="Node000003" class="node">
<title>Node3</title>
<g id="a_Node000003"><a xlink:title=" ">
<polygon fill="#e0e0e0" stroke="#999999" points="79,-20 0,-20 0,0 79,0 79,-20"/>
<text text-anchor="middle" x="39.5" y="-6.5" font-family="Helvetica,sans-Serif" font-size="10.00">CoreMinimal.h</text>
</a>
</g>
</g>
<!-- Node2&#45;&gt;Node3 -->
<g id="edge2_Node000002_Node000003" class="edge">
<title>Node2&#45;&gt;Node3</title>
<g id="a_edge2_Node000002_Node000003"><a xlink:title=" ">
<path fill="none" stroke="#63b8ff" d="M128.69,-55.59C112.14,-47.32 87.79,-35.14 68.71,-25.6"/>
<polygon fill="#63b8ff" stroke="#63b8ff" points="70.32,-22.5 59.81,-21.16 67.19,-28.76 70.32,-22.5"/>
</a>
</g>
</g>
<!-- Node4 -->
<g id="Node000004" class="node">
<title>Node4</title>
<g id="a_Node000004"><a xlink:title=" ">
<polygon fill="#e0e0e0" stroke="#999999" points="198.25,-20 96.75,-20 96.75,0 198.25,0 198.25,-20"/>
<text text-anchor="middle" x="147.5" y="-6.5" font-family="Helvetica,sans-Serif" font-size="10.00">UObject/Interface.h</text>
</a>
</g>
</g>
<!-- Node2&#45;&gt;Node4 -->
<g id="edge3_Node000002_Node000004" class="edge">
<title>Node2&#45;&gt;Node4</title>
<g id="a_edge3_Node000002_Node000004"><a xlink:title=" ">
<path fill="none" stroke="#63b8ff" d="M147.5,-55.59C147.5,-49.01 147.5,-39.96 147.5,-31.73"/>
<polygon fill="#63b8ff" stroke="#63b8ff" points="151,-31.81 147.5,-21.81 144,-31.81 151,-31.81"/>
</a>
</g>
</g>
<!-- Node5 -->
<g id="Node000005" class="node">
<title>Node5</title>
<g id="a_Node000005"><a xlink:title=" ">
<polygon fill="#e0e0e0" stroke="#999999" points="354.62,-20 216.38,-20 216.38,0 354.62,0 354.62,-20"/>
<text text-anchor="middle" x="285.5" y="-6.5" font-family="Helvetica,sans-Serif" font-size="10.00">PickupInterface.generated.h</text>
</a>
</g>
</g>
<!-- Node2&#45;&gt;Node5 -->
<g id="edge4_Node000002_Node000005" class="edge">
<title>Node2&#45;&gt;Node5</title>
<g id="a_edge4_Node000002_Node000005"><a xlink:title=" ">
<path fill="none" stroke="#63b8ff" d="M171.54,-55.59C193.47,-47.01 226.13,-34.23 250.87,-24.55"/>
<polygon fill="#63b8ff" stroke="#63b8ff" points="251.83,-27.93 259.87,-21.03 249.28,-21.42 251.83,-27.93"/>
</a>
</g>
</g>
</g>
</svg>
