<?xml version="1.0" encoding="UTF-8" standalone="no"?>
<!DOCTYPE svg PUBLIC "-//W3C//DTD SVG 1.1//EN"
 "http://www.w3.org/Graphics/SVG/1.1/DTD/svg11.dtd">
<!-- Generated by graphviz version 12.2.1 (20241206.2353)
 -->
<!-- Title: Source/Slash/Public/Characters/SlashCharacter.h Pages: 1 -->
<svg width="644pt" height="108pt"
 viewBox="0.00 0.00 643.88 108.00" xmlns="http://www.w3.org/2000/svg" xmlns:xlink="http://www.w3.org/1999/xlink">
<g id="graph0" class="graph" transform="scale(1 1) rotate(0) translate(4 104)">
<title>Source/Slash/Public/Characters/SlashCharacter.h</title>
<!-- Node1 -->
<g id="Node000001" class="node">
<title>Node1</title>
<g id="a_Node000001"><a xlink:title=" ">
<polygon fill="#999999" stroke="#666666" points="417.62,-100 271.88,-100 271.88,-68 417.62,-68 417.62,-100"/>
<text text-anchor="start" x="279.88" y="-86.5" font-family="Helvetica,sans-Serif" font-size="10.00">Source/Slash/Public</text>
<text text-anchor="middle" x="344.75" y="-74.5" font-family="Helvetica,sans-Serif" font-size="10.00">/Characters/SlashCharacter.h</text>
</a>
</g>
</g>
<!-- Node2 -->
<g id="Node000002" class="node">
<title>Node2</title>
<g id="a_Node000002"><a xlink:href="_slash_anim_instance_8cpp.html" target="_top" xlink:title=" ">
<polygon fill="white" stroke="#666666" points="173.5,-32 0,-32 0,0 173.5,0 173.5,-32"/>
<text text-anchor="start" x="8" y="-18.5" font-family="Helvetica,sans-Serif" font-size="10.00">Source/Slash/Private</text>
<text text-anchor="middle" x="86.75" y="-6.5" font-family="Helvetica,sans-Serif" font-size="10.00">/Characters/SlashAnimInstance.cpp</text>
</a>
</g>
</g>
<!-- Node1&#45;&gt;Node2 -->
<g id="edge1_Node000001_Node000002" class="edge">
<title>Node1&#45;&gt;Node2</title>
<g id="a_edge1_Node000001_Node000002"><a xlink:title=" ">
<path fill="none" stroke="#63b8ff" d="M273.35,-64.73C233.75,-54.6 185.03,-42.14 147.31,-32.49"/>
<polygon fill="#63b8ff" stroke="#63b8ff" points="272.24,-68.06 282.79,-67.15 273.97,-61.28 272.24,-68.06"/>
</a>
</g>
</g>
<!-- Node3 -->
<g id="Node000003" class="node">
<title>Node3</title>
<g id="a_Node000003"><a xlink:href="_slash_character_8cpp.html" target="_top" xlink:title=" ">
<polygon fill="white" stroke="#666666" points="347.88,-32 191.62,-32 191.62,0 347.88,0 347.88,-32"/>
<text text-anchor="start" x="199.62" y="-18.5" font-family="Helvetica,sans-Serif" font-size="10.00">Source/Slash/Private</text>
<text text-anchor="middle" x="269.75" y="-6.5" font-family="Helvetica,sans-Serif" font-size="10.00">/Characters/SlashCharacter.cpp</text>
</a>
</g>
</g>
<!-- Node1&#45;&gt;Node3 -->
<g id="edge2_Node000001_Node000003" class="edge">
<title>Node1&#45;&gt;Node3</title>
<g id="a_edge2_Node000001_Node000003"><a xlink:title=" ">
<path fill="none" stroke="#63b8ff" d="M318.98,-60.32C308.53,-51.13 296.74,-40.75 287.31,-32.45"/>
<polygon fill="#63b8ff" stroke="#63b8ff" points="316.4,-62.71 326.22,-66.69 321.02,-57.46 316.4,-62.71"/>
</a>
</g>
</g>
<!-- Node4 -->
<g id="Node000004" class="node">
<title>Node4</title>
<g id="a_Node000004"><a xlink:href="_treasure_8cpp.html" target="_top" xlink:title=" ">
<polygon fill="white" stroke="#666666" points="473.88,-32 365.62,-32 365.62,0 473.88,0 473.88,-32"/>
<text text-anchor="start" x="373.62" y="-18.5" font-family="Helvetica,sans-Serif" font-size="10.00">Source/Slash/Private</text>
<text text-anchor="middle" x="419.75" y="-6.5" font-family="Helvetica,sans-Serif" font-size="10.00">/Items/Treasure.cpp</text>
</a>
</g>
</g>
<!-- Node1&#45;&gt;Node4 -->
<g id="edge3_Node000001_Node000004" class="edge">
<title>Node1&#45;&gt;Node4</title>
<g id="a_edge3_Node000001_Node000004"><a xlink:title=" ">
<path fill="none" stroke="#63b8ff" d="M370.52,-60.32C380.97,-51.13 392.76,-40.75 402.19,-32.45"/>
<polygon fill="#63b8ff" stroke="#63b8ff" points="368.48,-57.46 363.28,-66.69 373.1,-62.71 368.48,-57.46"/>
</a>
</g>
</g>
<!-- Node5 -->
<g id="Node000005" class="node">
<title>Node5</title>
<g id="a_Node000005"><a xlink:href="_weapon_8cpp.html" target="_top" xlink:title=" ">
<polygon fill="white" stroke="#666666" points="635.88,-32 491.62,-32 491.62,0 635.88,0 635.88,-32"/>
<text text-anchor="start" x="499.62" y="-18.5" font-family="Helvetica,sans-Serif" font-size="10.00">Source/Slash/Private</text>
<text text-anchor="middle" x="563.75" y="-6.5" font-family="Helvetica,sans-Serif" font-size="10.00">/Items/Weapons/Weapon.cpp</text>
</a>
</g>
</g>
<!-- Node1&#45;&gt;Node5 -->
<g id="edge4_Node000001_Node000005" class="edge">
<title>Node1&#45;&gt;Node5</title>
<g id="a_edge4_Node000001_Node000005"><a xlink:title=" ">
<path fill="none" stroke="#63b8ff" d="M407.09,-64.21C440.38,-54.18 480.87,-41.98 512.35,-32.49"/>
<polygon fill="#63b8ff" stroke="#63b8ff" points="406.11,-60.85 397.54,-67.09 408.13,-67.55 406.11,-60.85"/>
</a>
</g>
</g>
</g>
</svg>
