<?xml version="1.0" encoding="UTF-8" standalone="no"?>
<!DOCTYPE svg PUBLIC "-//W3C//DTD SVG 1.1//EN"
 "http://www.w3.org/Graphics/SVG/1.1/DTD/svg11.dtd">
<!-- Generated by graphviz version 12.2.1 (20241206.2353)
 -->
<!-- Title: Source/Slash/Private/Characters/SlashAnimInstance.cpp Pages: 1 -->
<svg width="1134pt" height="276pt"
 viewBox="0.00 0.00 1133.88 276.00" xmlns="http://www.w3.org/2000/svg" xmlns:xlink="http://www.w3.org/1999/xlink">
<g id="graph0" class="graph" transform="scale(1 1) rotate(0) translate(4 272)">
<title>Source/Slash/Private/Characters/SlashAnimInstance.cpp</title>
<!-- Node1 -->
<g id="Node000001" class="node">
<title>Node1</title>
<g id="a_Node000001"><a xlink:title=" ">
<polygon fill="#999999" stroke="#666666" points="704.12,-268 530.62,-268 530.62,-236 704.12,-236 704.12,-268"/>
<text text-anchor="start" x="538.62" y="-254.5" font-family="Helvetica,sans-Serif" font-size="10.00">Source/Slash/Private</text>
<text text-anchor="middle" x="617.38" y="-242.5" font-family="Helvetica,sans-Serif" font-size="10.00">/Characters/SlashAnimInstance.cpp</text>
</a>
</g>
</g>
<!-- Node2 -->
<g id="Node000002" class="node">
<title>Node2</title>
<g id="a_Node000002"><a xlink:href="_slash_anim_instance_8h.html" target="_top" xlink:title=" ">
<polygon fill="white" stroke="#666666" points="411.38,-194 251.38,-194 251.38,-174 411.38,-174 411.38,-194"/>
<text text-anchor="middle" x="331.38" y="-180.5" font-family="Helvetica,sans-Serif" font-size="10.00">Characters/SlashAnimInstance.h</text>
</a>
</g>
</g>
<!-- Node1&#45;&gt;Node2 -->
<g id="edge1_Node000001_Node000002" class="edge">
<title>Node1&#45;&gt;Node2</title>
<g id="a_edge1_Node000001_Node000002"><a xlink:title=" ">
<path fill="none" stroke="#63b8ff" d="M550.32,-235.53C499.38,-223.77 430.32,-207.83 383.48,-197.02"/>
<polygon fill="#63b8ff" stroke="#63b8ff" points="384.37,-193.64 373.84,-194.8 382.8,-200.46 384.37,-193.64"/>
</a>
</g>
</g>
<!-- Node7 -->
<g id="Node000007" class="node">
<title>Node7</title>
<g id="a_Node000007"><a xlink:href="_slash_character_8h.html" target="_top" xlink:title=" ">
<polygon fill="white" stroke="#666666" points="598.75,-194 456,-194 456,-174 598.75,-174 598.75,-194"/>
<text text-anchor="middle" x="527.38" y="-180.5" font-family="Helvetica,sans-Serif" font-size="10.00">Characters/SlashCharacter.h</text>
</a>
</g>
</g>
<!-- Node1&#45;&gt;Node7 -->
<g id="edge6_Node000001_Node000007" class="edge">
<title>Node1&#45;&gt;Node7</title>
<g id="a_edge6_Node000001_Node000007"><a xlink:title=" ">
<path fill="none" stroke="#63b8ff" d="M596.5,-235.69C582.32,-225.3 563.61,-211.57 549.23,-201.03"/>
<polygon fill="#63b8ff" stroke="#63b8ff" points="551.43,-198.3 541.3,-195.21 547.29,-203.95 551.43,-198.3"/>
</a>
</g>
</g>
<!-- Node17 -->
<g id="Node000017" class="node">
<title>Node17</title>
<g id="a_Node000017"><a xlink:title=" ">
<polygon fill="#e0e0e0" stroke="#999999" points="799.62,-200 617.12,-200 617.12,-168 799.62,-168 799.62,-200"/>
<text text-anchor="start" x="625.12" y="-186.5" font-family="Helvetica,sans-Serif" font-size="10.00">GameFramework/CharacterMovement</text>
<text text-anchor="middle" x="708.38" y="-174.5" font-family="Helvetica,sans-Serif" font-size="10.00">Component.h</text>
</a>
</g>
</g>
<!-- Node1&#45;&gt;Node17 -->
<g id="edge22_Node000001_Node000017" class="edge">
<title>Node1&#45;&gt;Node17</title>
<g id="a_edge22_Node000001_Node000017"><a xlink:title=" ">
<path fill="none" stroke="#63b8ff" d="M638.48,-235.69C650.23,-227.17 665.05,-216.42 678.02,-207.01"/>
<polygon fill="#63b8ff" stroke="#63b8ff" points="679.8,-210.05 685.84,-201.34 675.69,-204.38 679.8,-210.05"/>
</a>
</g>
</g>
<!-- Node18 -->
<g id="Node000018" class="node">
<title>Node18</title>
<g id="a_Node000018"><a xlink:title=" ">
<polygon fill="#e0e0e0" stroke="#999999" points="956.88,-194 817.88,-194 817.88,-174 956.88,-174 956.88,-194"/>
<text text-anchor="middle" x="887.38" y="-180.5" font-family="Helvetica,sans-Serif" font-size="10.00">Kismet/KismetMathLibrary.h</text>
</a>
</g>
</g>
<!-- Node1&#45;&gt;Node18 -->
<g id="edge23_Node000001_Node000018" class="edge">
<title>Node1&#45;&gt;Node18</title>
<g id="a_edge23_Node000001_Node000018"><a xlink:title=" ">
<path fill="none" stroke="#63b8ff" d="M680.68,-235.53C728.57,-223.82 793.42,-207.97 837.62,-197.16"/>
<polygon fill="#63b8ff" stroke="#63b8ff" points="838.32,-200.59 847.2,-194.82 836.66,-193.79 838.32,-200.59"/>
</a>
</g>
</g>
<!-- Node3 -->
<g id="Node000003" class="node">
<title>Node3</title>
<g id="a_Node000003"><a xlink:title=" ">
<polygon fill="#e0e0e0" stroke="#999999" points="541.88,-20 462.88,-20 462.88,0 541.88,0 541.88,-20"/>
<text text-anchor="middle" x="502.38" y="-6.5" font-family="Helvetica,sans-Serif" font-size="10.00">CoreMinimal.h</text>
</a>
</g>
</g>
<!-- Node2&#45;&gt;Node3 -->
<g id="edge2_Node000002_Node000003" class="edge">
<title>Node2&#45;&gt;Node3</title>
<g id="a_edge2_Node000002_Node000003"><a xlink:title=" ">
<path fill="none" stroke="#63b8ff" d="M331.79,-173.84C332.85,-159.41 336.68,-131.07 350.38,-112 380.36,-70.26 433.38,-40.86 468.2,-24.93"/>
<polygon fill="#63b8ff" stroke="#63b8ff" points="469.27,-28.28 476.99,-21.03 466.43,-21.88 469.27,-28.28"/>
</a>
</g>
</g>
<!-- Node4 -->
<g id="Node000004" class="node">
<title>Node4</title>
<g id="a_Node000004"><a xlink:href="_character_types_8h.html" target="_top" xlink:title=" ">
<polygon fill="white" stroke="#666666" points="453,-132 359.75,-132 359.75,-112 453,-112 453,-132"/>
<text text-anchor="middle" x="406.38" y="-118.5" font-family="Helvetica,sans-Serif" font-size="10.00">CharacterTypes.h</text>
</a>
</g>
</g>
<!-- Node2&#45;&gt;Node4 -->
<g id="edge3_Node000002_Node000004" class="edge">
<title>Node2&#45;&gt;Node4</title>
<g id="a_edge3_Node000002_Node000004"><a xlink:title=" ">
<path fill="none" stroke="#63b8ff" d="M343.09,-173.62C354.61,-164.41 372.41,-150.17 386.2,-139.14"/>
<polygon fill="#63b8ff" stroke="#63b8ff" points="388.18,-142.04 393.8,-133.06 383.81,-136.57 388.18,-142.04"/>
</a>
</g>
</g>
<!-- Node5 -->
<g id="Node000005" class="node">
<title>Node5</title>
<g id="a_Node000005"><a xlink:title=" ">
<polygon fill="#e0e0e0" stroke="#999999" points="303.75,-132 173,-132 173,-112 303.75,-112 303.75,-132"/>
<text text-anchor="middle" x="238.38" y="-118.5" font-family="Helvetica,sans-Serif" font-size="10.00">Animation/AnimInstance.h</text>
</a>
</g>
</g>
<!-- Node2&#45;&gt;Node5 -->
<g id="edge4_Node000002_Node000005" class="edge">
<title>Node2&#45;&gt;Node5</title>
<g id="a_edge4_Node000002_Node000005"><a xlink:title=" ">
<path fill="none" stroke="#63b8ff" d="M316.84,-173.62C302.24,-164.2 279.48,-149.52 262.22,-138.39"/>
<polygon fill="#63b8ff" stroke="#63b8ff" points="264.38,-135.61 254.08,-133.13 260.58,-141.49 264.38,-135.61"/>
</a>
</g>
</g>
<!-- Node6 -->
<g id="Node000006" class="node">
<title>Node6</title>
<g id="a_Node000006"><a xlink:title=" ">
<polygon fill="#e0e0e0" stroke="#999999" points="154.75,-132 0,-132 0,-112 154.75,-112 154.75,-132"/>
<text text-anchor="middle" x="77.38" y="-118.5" font-family="Helvetica,sans-Serif" font-size="10.00">SlashAnimInstance.generated.h</text>
</a>
</g>
</g>
<!-- Node2&#45;&gt;Node6 -->
<g id="edge5_Node000002_Node000006" class="edge">
<title>Node2&#45;&gt;Node6</title>
<g id="a_edge5_Node000002_Node000006"><a xlink:title=" ">
<path fill="none" stroke="#63b8ff" d="M291.41,-173.56C247.43,-163.17 176.63,-146.45 128.61,-135.1"/>
<polygon fill="#63b8ff" stroke="#63b8ff" points="129.54,-131.73 119,-132.83 127.93,-138.54 129.54,-131.73"/>
</a>
</g>
</g>
<!-- Node7&#45;&gt;Node3 -->
<g id="edge7_Node000007_Node000003" class="edge">
<title>Node7&#45;&gt;Node3</title>
<g id="a_edge7_Node000007_Node000003"><a xlink:title=" ">
<path fill="none" stroke="#63b8ff" d="M525.43,-173.59C521.65,-155.02 513.26,-112.27 508.38,-76 506.38,-61.17 504.85,-44.36 503.83,-31.54"/>
<polygon fill="#63b8ff" stroke="#63b8ff" points="507.34,-31.5 503.1,-21.79 500.36,-32.03 507.34,-31.5"/>
</a>
</g>
</g>
<!-- Node7&#45;&gt;Node4 -->
<g id="edge16_Node000007_Node000004" class="edge">
<title>Node7&#45;&gt;Node4</title>
<g id="a_edge16_Node000007_Node000004"><a xlink:title=" ">
<path fill="none" stroke="#63b8ff" d="M508.47,-173.62C488.84,-163.89 457.9,-148.55 435.22,-137.31"/>
<polygon fill="#63b8ff" stroke="#63b8ff" points="437.02,-134.29 426.5,-132.98 433.91,-140.56 437.02,-134.29"/>
</a>
</g>
</g>
<!-- Node8 -->
<g id="Node000008" class="node">
<title>Node8</title>
<g id="a_Node000008"><a xlink:href="_base_character_8h.html" target="_top" xlink:title=" ">
<polygon fill="white" stroke="#666666" points="632.12,-132 542.62,-132 542.62,-112 632.12,-112 632.12,-132"/>
<text text-anchor="middle" x="587.38" y="-118.5" font-family="Helvetica,sans-Serif" font-size="10.00">BaseCharacter.h</text>
</a>
</g>
</g>
<!-- Node7&#45;&gt;Node8 -->
<g id="edge8_Node000007_Node000008" class="edge">
<title>Node7&#45;&gt;Node8</title>
<g id="a_edge8_Node000007_Node000008"><a xlink:title=" ">
<path fill="none" stroke="#63b8ff" d="M536.75,-173.62C545.7,-164.68 559.39,-150.99 570.27,-140.1"/>
<polygon fill="#63b8ff" stroke="#63b8ff" points="572.6,-142.73 577.19,-133.18 567.65,-137.78 572.6,-142.73"/>
</a>
</g>
</g>
<!-- Node14 -->
<g id="Node000014" class="node">
<title>Node14</title>
<g id="a_Node000014"><a xlink:href="_pickup_interface_8h.html" target="_top" xlink:title=" ">
<polygon fill="white" stroke="#666666" points="1125.88,-76 986.88,-76 986.88,-56 1125.88,-56 1125.88,-76"/>
<text text-anchor="middle" x="1056.38" y="-62.5" font-family="Helvetica,sans-Serif" font-size="10.00">Interfaces/PickupInterface.h</text>
</a>
</g>
</g>
<!-- Node7&#45;&gt;Node14 -->
<g id="edge17_Node000007_Node000014" class="edge">
<title>Node7&#45;&gt;Node14</title>
<g id="a_edge17_Node000007_Node000014"><a xlink:title=" ">
<path fill="none" stroke="#63b8ff" d="M549.42,-173.63C572.53,-163.7 609.79,-147.36 641.38,-132 658.54,-123.65 661.15,-117.67 679.38,-112 682.89,-110.91 865.64,-89.36 975.38,-76.48"/>
<polygon fill="#63b8ff" stroke="#63b8ff" points="975.71,-79.97 985.24,-75.33 974.9,-73.02 975.71,-79.97"/>
</a>
</g>
</g>
<!-- Node16 -->
<g id="Node000016" class="node">
<title>Node16</title>
<g id="a_Node000016"><a xlink:title=" ">
<polygon fill="#e0e0e0" stroke="#999999" points="826.12,-132 688.62,-132 688.62,-112 826.12,-112 826.12,-132"/>
<text text-anchor="middle" x="757.38" y="-118.5" font-family="Helvetica,sans-Serif" font-size="10.00">SlashCharacter.generated.h</text>
</a>
</g>
</g>
<!-- Node7&#45;&gt;Node16 -->
<g id="edge21_Node000007_Node000016" class="edge">
<title>Node7&#45;&gt;Node16</title>
<g id="a_edge21_Node000007_Node000016"><a xlink:title=" ">
<path fill="none" stroke="#63b8ff" d="M563.57,-173.56C603.13,-163.24 666.68,-146.66 710.15,-135.32"/>
<polygon fill="#63b8ff" stroke="#63b8ff" points="710.76,-138.78 719.55,-132.87 708.99,-132 710.76,-138.78"/>
</a>
</g>
</g>
<!-- Node8&#45;&gt;Node3 -->
<g id="edge9_Node000008_Node000003" class="edge">
<title>Node8&#45;&gt;Node3</title>
<g id="a_edge9_Node000008_Node000003"><a xlink:title=" ">
<path fill="none" stroke="#63b8ff" d="M567.03,-111.53C552.63,-103.85 533.89,-91.73 522.38,-76 512.76,-62.87 507.7,-45.04 505.08,-31.37"/>
<polygon fill="#63b8ff" stroke="#63b8ff" points="508.58,-31.06 503.54,-21.75 501.67,-32.17 508.58,-31.06"/>
</a>
</g>
</g>
<!-- Node9 -->
<g id="Node000009" class="node">
<title>Node9</title>
<g id="a_Node000009"><a xlink:title=" ">
<polygon fill="#e0e0e0" stroke="#999999" points="675.88,-76 530.88,-76 530.88,-56 675.88,-56 675.88,-76"/>
<text text-anchor="middle" x="603.38" y="-62.5" font-family="Helvetica,sans-Serif" font-size="10.00">GameFramework/Character.h</text>
</a>
</g>
</g>
<!-- Node8&#45;&gt;Node9 -->
<g id="edge10_Node000008_Node000009" class="edge">
<title>Node8&#45;&gt;Node9</title>
<g id="a_edge10_Node000008_Node000009"><a xlink:title=" ">
<path fill="none" stroke="#63b8ff" d="M590.16,-111.59C592.16,-104.86 594.92,-95.53 597.4,-87.15"/>
<polygon fill="#63b8ff" stroke="#63b8ff" points="600.7,-88.33 600.19,-77.75 593.99,-86.34 600.7,-88.33"/>
</a>
</g>
</g>
<!-- Node10 -->
<g id="Node000010" class="node">
<title>Node10</title>
<g id="a_Node000010"><a xlink:href="_hit_interface_8h.html" target="_top" xlink:title=" ">
<polygon fill="white" stroke="#666666" points="815.25,-76 693.5,-76 693.5,-56 815.25,-56 815.25,-76"/>
<text text-anchor="middle" x="754.38" y="-62.5" font-family="Helvetica,sans-Serif" font-size="10.00">Interfaces/HitInterface.h</text>
</a>
</g>
</g>
<!-- Node8&#45;&gt;Node10 -->
<g id="edge11_Node000008_Node000010" class="edge">
<title>Node8&#45;&gt;Node10</title>
<g id="a_edge11_Node000008_Node000010"><a xlink:title=" ">
<path fill="none" stroke="#63b8ff" d="M616.46,-111.59C643.6,-102.82 684.31,-89.66 714.47,-79.9"/>
<polygon fill="#63b8ff" stroke="#63b8ff" points="715.18,-83.35 723.62,-76.95 713.03,-76.69 715.18,-83.35"/>
</a>
</g>
</g>
<!-- Node13 -->
<g id="Node000013" class="node">
<title>Node13</title>
<g id="a_Node000013"><a xlink:title=" ">
<polygon fill="#e0e0e0" stroke="#999999" points="969,-76 833.75,-76 833.75,-56 969,-56 969,-76"/>
<text text-anchor="middle" x="901.38" y="-62.5" font-family="Helvetica,sans-Serif" font-size="10.00">BaseCharacter.generated.h</text>
</a>
</g>
</g>
<!-- Node8&#45;&gt;Node13 -->
<g id="edge15_Node000008_Node000013" class="edge">
<title>Node8&#45;&gt;Node13</title>
<g id="a_edge15_Node000008_Node000013"><a xlink:title=" ">
<path fill="none" stroke="#63b8ff" d="M632.36,-113.26C685.44,-104.13 774.17,-88.88 835.11,-78.4"/>
<polygon fill="#63b8ff" stroke="#63b8ff" points="835.4,-81.9 844.66,-76.75 834.22,-75 835.4,-81.9"/>
</a>
</g>
</g>
<!-- Node10&#45;&gt;Node3 -->
<g id="edge12_Node000010_Node000003" class="edge">
<title>Node10&#45;&gt;Node3</title>
<g id="a_edge12_Node000010_Node000003"><a xlink:title=" ">
<path fill="none" stroke="#63b8ff" d="M710.19,-55.53C666.47,-46.16 599.59,-31.83 553.57,-21.97"/>
<polygon fill="#63b8ff" stroke="#63b8ff" points="554.34,-18.56 543.83,-19.88 552.87,-25.4 554.34,-18.56"/>
</a>
</g>
</g>
<!-- Node11 -->
<g id="Node000011" class="node">
<title>Node11</title>
<g id="a_Node000011"><a xlink:title=" ">
<polygon fill="#e0e0e0" stroke="#999999" points="952.12,-20 850.62,-20 850.62,0 952.12,0 952.12,-20"/>
<text text-anchor="middle" x="901.38" y="-6.5" font-family="Helvetica,sans-Serif" font-size="10.00">UObject/Interface.h</text>
</a>
</g>
</g>
<!-- Node10&#45;&gt;Node11 -->
<g id="edge13_Node000010_Node000011" class="edge">
<title>Node10&#45;&gt;Node11</title>
<g id="a_edge13_Node000010_Node000011"><a xlink:title=" ">
<path fill="none" stroke="#63b8ff" d="M779.98,-55.59C803.44,-46.97 838.44,-34.12 864.84,-24.42"/>
<polygon fill="#63b8ff" stroke="#63b8ff" points="865.97,-27.73 874.15,-21 863.56,-21.16 865.97,-27.73"/>
</a>
</g>
</g>
<!-- Node12 -->
<g id="Node000012" class="node">
<title>Node12</title>
<g id="a_Node000012"><a xlink:title=" ">
<polygon fill="#e0e0e0" stroke="#999999" points="814.88,-20 693.88,-20 693.88,0 814.88,0 814.88,-20"/>
<text text-anchor="middle" x="754.38" y="-6.5" font-family="Helvetica,sans-Serif" font-size="10.00">HitInterface.generated.h</text>
</a>
</g>
</g>
<!-- Node10&#45;&gt;Node12 -->
<g id="edge14_Node000010_Node000012" class="edge">
<title>Node10&#45;&gt;Node12</title>
<g id="a_edge14_Node000010_Node000012"><a xlink:title=" ">
<path fill="none" stroke="#63b8ff" d="M754.38,-55.59C754.38,-49.01 754.38,-39.96 754.38,-31.73"/>
<polygon fill="#63b8ff" stroke="#63b8ff" points="757.88,-31.81 754.38,-21.81 750.88,-31.81 757.88,-31.81"/>
</a>
</g>
</g>
<!-- Node14&#45;&gt;Node3 -->
<g id="edge18_Node000014_Node000003" class="edge">
<title>Node14&#45;&gt;Node3</title>
<g id="a_edge18_Node000014_Node000003"><a xlink:title=" ">
<path fill="none" stroke="#63b8ff" d="M986.64,-56.88C983.85,-56.58 981.09,-56.28 978.38,-56 823.88,-39.79 640.88,-23.23 553.62,-15.5"/>
<polygon fill="#63b8ff" stroke="#63b8ff" points="553.99,-12.01 543.72,-14.62 553.37,-18.99 553.99,-12.01"/>
</a>
</g>
</g>
<!-- Node14&#45;&gt;Node11 -->
<g id="edge19_Node000014_Node000011" class="edge">
<title>Node14&#45;&gt;Node11</title>
<g id="a_edge19_Node000014_Node000011"><a xlink:title=" ">
<path fill="none" stroke="#63b8ff" d="M1029.38,-55.59C1004.41,-46.9 967.07,-33.89 939.15,-24.16"/>
<polygon fill="#63b8ff" stroke="#63b8ff" points="940.61,-20.96 930.01,-20.98 938.31,-27.57 940.61,-20.96"/>
</a>
</g>
</g>
<!-- Node15 -->
<g id="Node000015" class="node">
<title>Node15</title>
<g id="a_Node000015"><a xlink:title=" ">
<polygon fill="#e0e0e0" stroke="#999999" points="1125.5,-20 987.25,-20 987.25,0 1125.5,0 1125.5,-20"/>
<text text-anchor="middle" x="1056.38" y="-6.5" font-family="Helvetica,sans-Serif" font-size="10.00">PickupInterface.generated.h</text>
</a>
</g>
</g>
<!-- Node14&#45;&gt;Node15 -->
<g id="edge20_Node000014_Node000015" class="edge">
<title>Node14&#45;&gt;Node15</title>
<g id="a_edge20_Node000014_Node000015"><a xlink:title=" ">
<path fill="none" stroke="#63b8ff" d="M1056.38,-55.59C1056.38,-49.01 1056.38,-39.96 1056.38,-31.73"/>
<polygon fill="#63b8ff" stroke="#63b8ff" points="1059.88,-31.81 1056.38,-21.81 1052.88,-31.81 1059.88,-31.81"/>
</a>
</g>
</g>
</g>
</svg>
