<?xml version="1.0" encoding="UTF-8" standalone="no"?>
<!DOCTYPE svg PUBLIC "-//W3C//DTD SVG 1.1//EN"
 "http://www.w3.org/Graphics/SVG/1.1/DTD/svg11.dtd">
<!-- Generated by graphviz version 12.2.1 (20241206.2353)
 -->
<!-- Title: Source/Slash/Public/Characters/SlashAnimInstance.h Pages: 1 -->
<svg width="520pt" height="96pt"
 viewBox="0.00 0.00 519.88 96.00" xmlns="http://www.w3.org/2000/svg" xmlns:xlink="http://www.w3.org/1999/xlink">
<g id="graph0" class="graph" transform="scale(1 1) rotate(0) translate(4 92)">
<title>Source/Slash/Public/Characters/SlashAnimInstance.h</title>
<!-- Node1 -->
<g id="Node000001" class="node">
<title>Node1</title>
<g id="a_Node000001"><a xlink:title=" ">
<polygon fill="#999999" stroke="#666666" points="290,-88 127,-88 127,-56 290,-56 290,-88"/>
<text text-anchor="start" x="135" y="-74.5" font-family="Helvetica,sans-Serif" font-size="10.00">Source/Slash/Public</text>
<text text-anchor="middle" x="208.5" y="-62.5" font-family="Helvetica,sans-Serif" font-size="10.00">/Characters/SlashAnimInstance.h</text>
</a>
</g>
</g>
<!-- Node2 -->
<g id="Node000002" class="node">
<title>Node2</title>
<g id="a_Node000002"><a xlink:title=" ">
<polygon fill="#e0e0e0" stroke="#999999" points="79,-20 0,-20 0,0 79,0 79,-20"/>
<text text-anchor="middle" x="39.5" y="-6.5" font-family="Helvetica,sans-Serif" font-size="10.00">CoreMinimal.h</text>
</a>
</g>
</g>
<!-- Node1&#45;&gt;Node2 -->
<g id="edge1_Node000001_Node000002" class="edge">
<title>Node1&#45;&gt;Node2</title>
<g id="a_edge1_Node000001_Node000002"><a xlink:title=" ">
<path fill="none" stroke="#63b8ff" d="M164.98,-55.55C137.68,-45.86 102.85,-33.49 76.82,-24.25"/>
<polygon fill="#63b8ff" stroke="#63b8ff" points="78.27,-21.05 67.67,-21 75.93,-27.65 78.27,-21.05"/>
</a>
</g>
</g>
<!-- Node3 -->
<g id="Node000003" class="node">
<title>Node3</title>
<g id="a_Node000003"><a xlink:href="_character_types_8h.html" target="_top" xlink:title=" ">
<polygon fill="white" stroke="#666666" points="190.12,-20 96.88,-20 96.88,0 190.12,0 190.12,-20"/>
<text text-anchor="middle" x="143.5" y="-6.5" font-family="Helvetica,sans-Serif" font-size="10.00">CharacterTypes.h</text>
</a>
</g>
</g>
<!-- Node1&#45;&gt;Node3 -->
<g id="edge2_Node000001_Node000003" class="edge">
<title>Node1&#45;&gt;Node3</title>
<g id="a_edge2_Node000001_Node000003"><a xlink:title=" ">
<path fill="none" stroke="#63b8ff" d="M191.76,-55.55C182.64,-47.13 171.33,-36.69 161.96,-28.04"/>
<polygon fill="#63b8ff" stroke="#63b8ff" points="164.53,-25.65 154.8,-21.43 159.78,-30.79 164.53,-25.65"/>
</a>
</g>
</g>
<!-- Node4 -->
<g id="Node000004" class="node">
<title>Node4</title>
<g id="a_Node000004"><a xlink:title=" ">
<polygon fill="#e0e0e0" stroke="#999999" points="338.88,-20 208.12,-20 208.12,0 338.88,0 338.88,-20"/>
<text text-anchor="middle" x="273.5" y="-6.5" font-family="Helvetica,sans-Serif" font-size="10.00">Animation/AnimInstance.h</text>
</a>
</g>
</g>
<!-- Node1&#45;&gt;Node4 -->
<g id="edge3_Node000001_Node000004" class="edge">
<title>Node1&#45;&gt;Node4</title>
<g id="a_edge3_Node000001_Node000004"><a xlink:title=" ">
<path fill="none" stroke="#63b8ff" d="M225.24,-55.55C234.36,-47.13 245.67,-36.69 255.04,-28.04"/>
<polygon fill="#63b8ff" stroke="#63b8ff" points="257.22,-30.79 262.2,-21.43 252.47,-25.65 257.22,-30.79"/>
</a>
</g>
</g>
<!-- Node5 -->
<g id="Node000005" class="node">
<title>Node5</title>
<g id="a_Node000005"><a xlink:title=" ">
<polygon fill="#e0e0e0" stroke="#999999" points="511.88,-20 357.12,-20 357.12,0 511.88,0 511.88,-20"/>
<text text-anchor="middle" x="434.5" y="-6.5" font-family="Helvetica,sans-Serif" font-size="10.00">SlashAnimInstance.generated.h</text>
</a>
</g>
</g>
<!-- Node1&#45;&gt;Node5 -->
<g id="edge4_Node000001_Node000005" class="edge">
<title>Node1&#45;&gt;Node5</title>
<g id="a_edge4_Node000001_Node000005"><a xlink:title=" ">
<path fill="none" stroke="#63b8ff" d="M266.7,-55.55C304.35,-45.55 352.7,-32.72 387.82,-23.39"/>
<polygon fill="#63b8ff" stroke="#63b8ff" points="388.5,-26.83 397.27,-20.88 386.7,-20.07 388.5,-26.83"/>
</a>
</g>
</g>
</g>
</svg>
