<?xml version="1.0" encoding="UTF-8" standalone="no"?>
<!DOCTYPE svg PUBLIC "-//W3C//DTD SVG 1.1//EN"
 "http://www.w3.org/Graphics/SVG/1.1/DTD/svg11.dtd">
<!-- Generated by graphviz version 12.2.1 (20241206.2353)
 -->
<!-- Title: Source/Slash/Slash.cpp Pages: 1 -->
<svg width="223pt" height="140pt"
 viewBox="0.00 0.00 223.00 140.00" xmlns="http://www.w3.org/2000/svg" xmlns:xlink="http://www.w3.org/1999/xlink">
<g id="graph0" class="graph" transform="scale(1 1) rotate(0) translate(4 136)">
<title>Source/Slash/Slash.cpp</title>
<!-- Node1 -->
<g id="Node000001" class="node">
<title>Node1</title>
<g id="a_Node000001"><a xlink:title=" ">
<polygon fill="#999999" stroke="#666666" points="154,-132 33,-132 33,-112 154,-112 154,-132"/>
<text text-anchor="middle" x="93.5" y="-118.5" font-family="Helvetica,sans-Serif" font-size="10.00">Source/Slash/Slash.cpp</text>
</a>
</g>
</g>
<!-- Node2 -->
<g id="Node000002" class="node">
<title>Node2</title>
<g id="a_Node000002"><a xlink:href="_slash_8h.html" target="_top" xlink:title=" ">
<polygon fill="white" stroke="#666666" points="64,-76 15,-76 15,-56 64,-56 64,-76"/>
<text text-anchor="middle" x="39.5" y="-62.5" font-family="Helvetica,sans-Serif" font-size="10.00">Slash.h</text>
</a>
</g>
</g>
<!-- Node1&#45;&gt;Node2 -->
<g id="edge1_Node000001_Node000002" class="edge">
<title>Node1&#45;&gt;Node2</title>
<g id="a_edge1_Node000001_Node000002"><a xlink:title=" ">
<path fill="none" stroke="#63b8ff" d="M84.09,-111.59C76.58,-104.08 65.85,-93.35 56.8,-84.3"/>
<polygon fill="#63b8ff" stroke="#63b8ff" points="59.41,-81.96 49.87,-77.37 54.46,-86.91 59.41,-81.96"/>
</a>
</g>
</g>
<!-- Node4 -->
<g id="Node000004" class="node">
<title>Node4</title>
<g id="a_Node000004"><a xlink:title=" ">
<polygon fill="#e0e0e0" stroke="#999999" points="215,-76 82,-76 82,-56 215,-56 215,-76"/>
<text text-anchor="middle" x="148.5" y="-62.5" font-family="Helvetica,sans-Serif" font-size="10.00">Modules/ModuleManager.h</text>
</a>
</g>
</g>
<!-- Node1&#45;&gt;Node4 -->
<g id="edge3_Node000001_Node000004" class="edge">
<title>Node1&#45;&gt;Node4</title>
<g id="a_edge3_Node000001_Node000004"><a xlink:title=" ">
<path fill="none" stroke="#63b8ff" d="M103.08,-111.59C110.73,-104.08 121.66,-93.35 130.88,-84.3"/>
<polygon fill="#63b8ff" stroke="#63b8ff" points="133.27,-86.86 137.95,-77.36 128.36,-81.87 133.27,-86.86"/>
</a>
</g>
</g>
<!-- Node3 -->
<g id="Node000003" class="node">
<title>Node3</title>
<g id="a_Node000003"><a xlink:title=" ">
<polygon fill="#e0e0e0" stroke="#999999" points="79,-20 0,-20 0,0 79,0 79,-20"/>
<text text-anchor="middle" x="39.5" y="-6.5" font-family="Helvetica,sans-Serif" font-size="10.00">CoreMinimal.h</text>
</a>
</g>
</g>
<!-- Node2&#45;&gt;Node3 -->
<g id="edge2_Node000002_Node000003" class="edge">
<title>Node2&#45;&gt;Node3</title>
<g id="a_edge2_Node000002_Node000003"><a xlink:title=" ">
<path fill="none" stroke="#63b8ff" d="M39.5,-55.59C39.5,-49.01 39.5,-39.96 39.5,-31.73"/>
<polygon fill="#63b8ff" stroke="#63b8ff" points="43,-31.81 39.5,-21.81 36,-31.81 43,-31.81"/>
</a>
</g>
</g>
</g>
</svg>
