<?xml version="1.0" encoding="UTF-8" standalone="no"?>
<!DOCTYPE svg PUBLIC "-//W3C//DTD SVG 1.1//EN"
 "http://www.w3.org/Graphics/SVG/1.1/DTD/svg11.dtd">
<!-- Generated by graphviz version 12.2.1 (20241206.2353)
 -->
<!-- Title: Source/Slash/Public/HUD/SlashOverlay.h Pages: 1 -->
<svg width="432pt" height="108pt"
 viewBox="0.00 0.00 431.62 108.00" xmlns="http://www.w3.org/2000/svg" xmlns:xlink="http://www.w3.org/1999/xlink">
<g id="graph0" class="graph" transform="scale(1 1) rotate(0) translate(4 104)">
<title>Source/Slash/Public/HUD/SlashOverlay.h</title>
<!-- Node1 -->
<g id="Node000001" class="node">
<title>Node1</title>
<g id="a_Node000001"><a xlink:title=" ">
<polygon fill="#999999" stroke="#666666" points="284.38,-100 173.88,-100 173.88,-68 284.38,-68 284.38,-100"/>
<text text-anchor="start" x="181.88" y="-86.5" font-family="Helvetica,sans-Serif" font-size="10.00">Source/Slash/Public</text>
<text text-anchor="middle" x="229.12" y="-74.5" font-family="Helvetica,sans-Serif" font-size="10.00">/HUD/SlashOverlay.h</text>
</a>
</g>
</g>
<!-- Node2 -->
<g id="Node000002" class="node">
<title>Node2</title>
<g id="a_Node000002"><a xlink:href="_slash_character_8cpp.html" target="_top" xlink:title=" ">
<polygon fill="white" stroke="#666666" points="156.25,-32 0,-32 0,0 156.25,0 156.25,-32"/>
<text text-anchor="start" x="8" y="-18.5" font-family="Helvetica,sans-Serif" font-size="10.00">Source/Slash/Private</text>
<text text-anchor="middle" x="78.12" y="-6.5" font-family="Helvetica,sans-Serif" font-size="10.00">/Characters/SlashCharacter.cpp</text>
</a>
</g>
</g>
<!-- Node1&#45;&gt;Node2 -->
<g id="edge1_Node000001_Node000002" class="edge">
<title>Node1&#45;&gt;Node2</title>
<g id="a_edge1_Node000001_Node000002"><a xlink:title=" ">
<path fill="none" stroke="#63b8ff" d="M183.43,-63.03C161.01,-53.23 134.42,-41.61 113.57,-32.49"/>
<polygon fill="#63b8ff" stroke="#63b8ff" points="181.77,-66.12 192.34,-66.92 184.57,-59.71 181.77,-66.12"/>
</a>
</g>
</g>
<!-- Node3 -->
<g id="Node000003" class="node">
<title>Node3</title>
<g id="a_Node000003"><a xlink:href="_slash_h_u_d_8cpp.html" target="_top" xlink:title=" ">
<polygon fill="white" stroke="#666666" points="284.38,-32 173.88,-32 173.88,0 284.38,0 284.38,-32"/>
<text text-anchor="start" x="181.88" y="-18.5" font-family="Helvetica,sans-Serif" font-size="10.00">Source/Slash/Private</text>
<text text-anchor="middle" x="229.12" y="-6.5" font-family="Helvetica,sans-Serif" font-size="10.00">/HUD/SlashHUD.cpp</text>
</a>
</g>
</g>
<!-- Node1&#45;&gt;Node3 -->
<g id="edge2_Node000001_Node000003" class="edge">
<title>Node1&#45;&gt;Node3</title>
<g id="a_edge2_Node000001_Node000003"><a xlink:title=" ">
<path fill="none" stroke="#63b8ff" d="M229.12,-56.31C229.12,-48.12 229.12,-39.38 229.12,-32.22"/>
<polygon fill="#63b8ff" stroke="#63b8ff" points="225.63,-56.18 229.13,-66.18 232.63,-56.18 225.63,-56.18"/>
</a>
</g>
</g>
<!-- Node4 -->
<g id="Node000004" class="node">
<title>Node4</title>
<g id="a_Node000004"><a xlink:href="_slash_overlay_8cpp.html" target="_top" xlink:title=" ">
<polygon fill="white" stroke="#666666" points="423.62,-32 302.62,-32 302.62,0 423.62,0 423.62,-32"/>
<text text-anchor="start" x="310.62" y="-18.5" font-family="Helvetica,sans-Serif" font-size="10.00">Source/Slash/Private</text>
<text text-anchor="middle" x="363.12" y="-6.5" font-family="Helvetica,sans-Serif" font-size="10.00">/HUD/SlashOverlay.cpp</text>
</a>
</g>
</g>
<!-- Node1&#45;&gt;Node4 -->
<g id="edge3_Node000001_Node000004" class="edge">
<title>Node1&#45;&gt;Node4</title>
<g id="a_edge3_Node000001_Node000004"><a xlink:title=" ">
<path fill="none" stroke="#63b8ff" d="M270.8,-62.47C290.54,-52.75 313.71,-41.34 331.9,-32.38"/>
<polygon fill="#63b8ff" stroke="#63b8ff" points="269.32,-59.3 261.9,-66.86 272.42,-65.58 269.32,-59.3"/>
</a>
</g>
</g>
</g>
</svg>
