<?xml version="1.0" encoding="UTF-8" standalone="no"?>
<!DOCTYPE svg PUBLIC "-//W3C//DTD SVG 1.1//EN"
 "http://www.w3.org/Graphics/SVG/1.1/DTD/svg11.dtd">
<!-- Generated by graphviz version 12.2.1 (20241206.2353)
 -->
<!-- Title: Source/Slash/Public/Characters/SlashCharacter.h Pages: 1 -->
<svg width="782pt" height="208pt"
 viewBox="0.00 0.00 782.37 208.00" xmlns="http://www.w3.org/2000/svg" xmlns:xlink="http://www.w3.org/1999/xlink">
<g id="graph0" class="graph" transform="scale(1 1) rotate(0) translate(4 204)">
<title>Source/Slash/Public/Characters/SlashCharacter.h</title>
<!-- Node1 -->
<g id="Node000001" class="node">
<title>Node1</title>
<g id="a_Node000001"><a xlink:title=" ">
<polygon fill="#999999" stroke="#666666" points="438.12,-200 292.37,-200 292.37,-168 438.12,-168 438.12,-200"/>
<text text-anchor="start" x="300.37" y="-186.5" font-family="Helvetica,sans-Serif" font-size="10.00">Source/Slash/Public</text>
<text text-anchor="middle" x="365.24" y="-174.5" font-family="Helvetica,sans-Serif" font-size="10.00">/Characters/SlashCharacter.h</text>
</a>
</g>
</g>
<!-- Node2 -->
<g id="Node000002" class="node">
<title>Node2</title>
<g id="a_Node000002"><a xlink:title=" ">
<polygon fill="#e0e0e0" stroke="#999999" points="359.74,-20 280.74,-20 280.74,0 359.74,0 359.74,-20"/>
<text text-anchor="middle" x="320.24" y="-6.5" font-family="Helvetica,sans-Serif" font-size="10.00">CoreMinimal.h</text>
</a>
</g>
</g>
<!-- Node1&#45;&gt;Node2 -->
<g id="edge1_Node000001_Node000002" class="edge">
<title>Node1&#45;&gt;Node2</title>
<g id="a_edge1_Node000001_Node000002"><a xlink:title=" ">
<path fill="none" stroke="#63b8ff" d="M292,-171.76C196.83,-155.48 38.71,-122.16 4.24,-76 -1.08,-68.88 -1.58,-62.71 4.24,-56 37.9,-17.2 188.52,-11 269.06,-10.53"/>
<polygon fill="#63b8ff" stroke="#63b8ff" points="268.9,-14.03 278.89,-10.5 268.88,-7.03 268.9,-14.03"/>
</a>
</g>
</g>
<!-- Node3 -->
<g id="Node000003" class="node">
<title>Node3</title>
<g id="a_Node000003"><a xlink:href="_base_character_8h.html" target="_top" xlink:title=" ">
<polygon fill="white" stroke="#666666" points="336.99,-132 247.49,-132 247.49,-112 336.99,-112 336.99,-132"/>
<text text-anchor="middle" x="292.24" y="-118.5" font-family="Helvetica,sans-Serif" font-size="10.00">BaseCharacter.h</text>
</a>
</g>
</g>
<!-- Node1&#45;&gt;Node3 -->
<g id="edge2_Node000001_Node000003" class="edge">
<title>Node1&#45;&gt;Node3</title>
<g id="a_edge2_Node000001_Node000003"><a xlink:title=" ">
<path fill="none" stroke="#63b8ff" d="M346.44,-167.55C335.99,-158.95 322.97,-148.26 312.32,-139.5"/>
<polygon fill="#63b8ff" stroke="#63b8ff" points="314.81,-137.01 304.86,-133.37 310.36,-142.42 314.81,-137.01"/>
</a>
</g>
</g>
<!-- Node9 -->
<g id="Node000009" class="node">
<title>Node9</title>
<g id="a_Node000009"><a xlink:href="_character_types_8h.html" target="_top" xlink:title=" ">
<polygon fill="white" stroke="#666666" points="486.87,-132 393.62,-132 393.62,-112 486.87,-112 486.87,-132"/>
<text text-anchor="middle" x="440.24" y="-118.5" font-family="Helvetica,sans-Serif" font-size="10.00">CharacterTypes.h</text>
</a>
</g>
</g>
<!-- Node1&#45;&gt;Node9 -->
<g id="edge10_Node000001_Node000009" class="edge">
<title>Node1&#45;&gt;Node9</title>
<g id="a_edge10_Node000001_Node000009"><a xlink:title=" ">
<path fill="none" stroke="#63b8ff" d="M384.56,-167.55C395.3,-158.95 408.67,-148.26 419.61,-139.5"/>
<polygon fill="#63b8ff" stroke="#63b8ff" points="421.68,-142.33 427.3,-133.35 417.31,-136.87 421.68,-142.33"/>
</a>
</g>
</g>
<!-- Node10 -->
<g id="Node000010" class="node">
<title>Node10</title>
<g id="a_Node000010"><a xlink:href="_pickup_interface_8h.html" target="_top" xlink:title=" ">
<polygon fill="white" stroke="#666666" points="646.74,-76 507.74,-76 507.74,-56 646.74,-56 646.74,-76"/>
<text text-anchor="middle" x="577.24" y="-62.5" font-family="Helvetica,sans-Serif" font-size="10.00">Interfaces/PickupInterface.h</text>
</a>
</g>
</g>
<!-- Node1&#45;&gt;Node10 -->
<g id="edge11_Node000001_Node000010" class="edge">
<title>Node1&#45;&gt;Node10</title>
<g id="a_edge11_Node000001_Node000010"><a xlink:title=" ">
<path fill="none" stroke="#63b8ff" d="M365.01,-167.72C365.64,-151.6 369.21,-126.56 384.24,-112 400.48,-96.28 450.87,-84.85 496.09,-77.44"/>
<polygon fill="#63b8ff" stroke="#63b8ff" points="496.63,-80.89 505.96,-75.87 495.54,-73.98 496.63,-80.89"/>
</a>
</g>
</g>
<!-- Node12 -->
<g id="Node000012" class="node">
<title>Node12</title>
<g id="a_Node000012"><a xlink:title=" ">
<polygon fill="#e0e0e0" stroke="#999999" points="641.99,-132 504.49,-132 504.49,-112 641.99,-112 641.99,-132"/>
<text text-anchor="middle" x="573.24" y="-118.5" font-family="Helvetica,sans-Serif" font-size="10.00">SlashCharacter.generated.h</text>
</a>
</g>
</g>
<!-- Node1&#45;&gt;Node12 -->
<g id="edge15_Node000001_Node000012" class="edge">
<title>Node1&#45;&gt;Node12</title>
<g id="a_edge15_Node000001_Node000012"><a xlink:title=" ">
<path fill="none" stroke="#63b8ff" d="M418.81,-167.55C453.16,-157.64 497.19,-144.94 529.44,-135.64"/>
<polygon fill="#63b8ff" stroke="#63b8ff" points="530.23,-139.05 538.87,-132.92 528.29,-132.32 530.23,-139.05"/>
</a>
</g>
</g>
<!-- Node3&#45;&gt;Node2 -->
<g id="edge3_Node000003_Node000002" class="edge">
<title>Node3&#45;&gt;Node2</title>
<g id="a_edge3_Node000003_Node000002"><a xlink:title=" ">
<path fill="none" stroke="#63b8ff" d="M300.46,-111.8C307.53,-103.23 317.2,-89.73 321.24,-76 325.49,-61.56 325.04,-44.52 323.64,-31.51"/>
<polygon fill="#63b8ff" stroke="#63b8ff" points="327.16,-31.42 322.32,-21.99 320.22,-32.38 327.16,-31.42"/>
</a>
</g>
</g>
<!-- Node4 -->
<g id="Node000004" class="node">
<title>Node4</title>
<g id="a_Node000004"><a xlink:title=" ">
<polygon fill="#e0e0e0" stroke="#999999" points="158.74,-76 13.74,-76 13.74,-56 158.74,-56 158.74,-76"/>
<text text-anchor="middle" x="86.24" y="-62.5" font-family="Helvetica,sans-Serif" font-size="10.00">GameFramework/Character.h</text>
</a>
</g>
</g>
<!-- Node3&#45;&gt;Node4 -->
<g id="edge4_Node000003_Node000004" class="edge">
<title>Node3&#45;&gt;Node4</title>
<g id="a_edge4_Node000003_Node000004"><a xlink:title=" ">
<path fill="none" stroke="#63b8ff" d="M256.36,-111.59C222.3,-102.67 170.91,-89.19 133.52,-79.39"/>
<polygon fill="#63b8ff" stroke="#63b8ff" points="134.43,-76.01 123.87,-76.86 132.65,-82.78 134.43,-76.01"/>
</a>
</g>
</g>
<!-- Node5 -->
<g id="Node000005" class="node">
<title>Node5</title>
<g id="a_Node000005"><a xlink:href="_hit_interface_8h.html" target="_top" xlink:title=" ">
<polygon fill="white" stroke="#666666" points="490.12,-76 368.37,-76 368.37,-56 490.12,-56 490.12,-76"/>
<text text-anchor="middle" x="429.24" y="-62.5" font-family="Helvetica,sans-Serif" font-size="10.00">Interfaces/HitInterface.h</text>
</a>
</g>
</g>
<!-- Node3&#45;&gt;Node5 -->
<g id="edge5_Node000003_Node000005" class="edge">
<title>Node3&#45;&gt;Node5</title>
<g id="a_edge5_Node000003_Node000005"><a xlink:title=" ">
<path fill="none" stroke="#63b8ff" d="M316.11,-111.59C337.78,-103.05 370.01,-90.35 394.53,-80.68"/>
<polygon fill="#63b8ff" stroke="#63b8ff" points="395.76,-83.96 403.78,-77.03 393.2,-77.45 395.76,-83.96"/>
</a>
</g>
</g>
<!-- Node8 -->
<g id="Node000008" class="node">
<title>Node8</title>
<g id="a_Node000008"><a xlink:title=" ">
<polygon fill="#e0e0e0" stroke="#999999" points="311.87,-76 176.62,-76 176.62,-56 311.87,-56 311.87,-76"/>
<text text-anchor="middle" x="244.24" y="-62.5" font-family="Helvetica,sans-Serif" font-size="10.00">BaseCharacter.generated.h</text>
</a>
</g>
</g>
<!-- Node3&#45;&gt;Node8 -->
<g id="edge9_Node000003_Node000008" class="edge">
<title>Node3&#45;&gt;Node8</title>
<g id="a_edge9_Node000003_Node000008"><a xlink:title=" ">
<path fill="none" stroke="#63b8ff" d="M283.88,-111.59C277.34,-104.24 268.06,-93.8 260.12,-84.87"/>
<polygon fill="#63b8ff" stroke="#63b8ff" points="262.77,-82.58 253.51,-77.43 257.54,-87.23 262.77,-82.58"/>
</a>
</g>
</g>
<!-- Node5&#45;&gt;Node2 -->
<g id="edge6_Node000005_Node000002" class="edge">
<title>Node5&#45;&gt;Node2</title>
<g id="a_edge6_Node000005_Node000002"><a xlink:title=" ">
<path fill="none" stroke="#63b8ff" d="M410.26,-55.59C393.48,-47.28 368.75,-35.03 349.45,-25.47"/>
<polygon fill="#63b8ff" stroke="#63b8ff" points="351.25,-22.45 340.73,-21.15 348.14,-28.73 351.25,-22.45"/>
</a>
</g>
</g>
<!-- Node6 -->
<g id="Node000006" class="node">
<title>Node6</title>
<g id="a_Node000006"><a xlink:title=" ">
<polygon fill="#e0e0e0" stroke="#999999" points="617.99,-20 516.49,-20 516.49,0 617.99,0 617.99,-20"/>
<text text-anchor="middle" x="567.24" y="-6.5" font-family="Helvetica,sans-Serif" font-size="10.00">UObject/Interface.h</text>
</a>
</g>
</g>
<!-- Node5&#45;&gt;Node6 -->
<g id="edge7_Node000005_Node000006" class="edge">
<title>Node5&#45;&gt;Node6</title>
<g id="a_edge7_Node000005_Node000006"><a xlink:title=" ">
<path fill="none" stroke="#63b8ff" d="M453.28,-55.59C475.21,-47.01 507.87,-34.23 532.61,-24.55"/>
<polygon fill="#63b8ff" stroke="#63b8ff" points="533.57,-27.93 541.61,-21.03 531.02,-21.42 533.57,-27.93"/>
</a>
</g>
</g>
<!-- Node7 -->
<g id="Node000007" class="node">
<title>Node7</title>
<g id="a_Node000007"><a xlink:title=" ">
<polygon fill="#e0e0e0" stroke="#999999" points="498.74,-20 377.74,-20 377.74,0 498.74,0 498.74,-20"/>
<text text-anchor="middle" x="438.24" y="-6.5" font-family="Helvetica,sans-Serif" font-size="10.00">HitInterface.generated.h</text>
</a>
</g>
</g>
<!-- Node5&#45;&gt;Node7 -->
<g id="edge8_Node000005_Node000007" class="edge">
<title>Node5&#45;&gt;Node7</title>
<g id="a_edge8_Node000005_Node000007"><a xlink:title=" ">
<path fill="none" stroke="#63b8ff" d="M430.81,-55.59C431.92,-48.93 433.45,-39.75 434.84,-31.44"/>
<polygon fill="#63b8ff" stroke="#63b8ff" points="438.25,-32.23 436.44,-21.79 431.35,-31.08 438.25,-32.23"/>
</a>
</g>
</g>
<!-- Node10&#45;&gt;Node2 -->
<g id="edge12_Node000010_Node000002" class="edge">
<title>Node10&#45;&gt;Node2</title>
<g id="a_edge12_Node000010_Node000002"><a xlink:title=" ">
<path fill="none" stroke="#63b8ff" d="M532.18,-55.53C487.23,-46.09 418.28,-31.6 371.32,-21.73"/>
<polygon fill="#63b8ff" stroke="#63b8ff" points="372.17,-18.33 361.66,-19.7 370.73,-25.18 372.17,-18.33"/>
</a>
</g>
</g>
<!-- Node10&#45;&gt;Node6 -->
<g id="edge13_Node000010_Node000006" class="edge">
<title>Node10&#45;&gt;Node6</title>
<g id="a_edge13_Node000010_Node000006"><a xlink:title=" ">
<path fill="none" stroke="#63b8ff" d="M575.5,-55.59C574.27,-48.93 572.57,-39.75 571.03,-31.44"/>
<polygon fill="#63b8ff" stroke="#63b8ff" points="574.5,-30.98 569.24,-21.79 567.62,-32.26 574.5,-30.98"/>
</a>
</g>
</g>
<!-- Node11 -->
<g id="Node000011" class="node">
<title>Node11</title>
<g id="a_Node000011"><a xlink:title=" ">
<polygon fill="#e0e0e0" stroke="#999999" points="774.37,-20 636.12,-20 636.12,0 774.37,0 774.37,-20"/>
<text text-anchor="middle" x="705.24" y="-6.5" font-family="Helvetica,sans-Serif" font-size="10.00">PickupInterface.generated.h</text>
</a>
</g>
</g>
<!-- Node10&#45;&gt;Node11 -->
<g id="edge14_Node000010_Node000011" class="edge">
<title>Node10&#45;&gt;Node11</title>
<g id="a_edge14_Node000010_Node000011"><a xlink:title=" ">
<path fill="none" stroke="#63b8ff" d="M599.54,-55.59C619.6,-47.13 649.36,-34.58 672.19,-24.94"/>
<polygon fill="#63b8ff" stroke="#63b8ff" points="673.52,-28.18 681.38,-21.07 670.8,-21.73 673.52,-28.18"/>
</a>
</g>
</g>
</g>
</svg>
