<?xml version="1.0" encoding="UTF-8" standalone="no"?>
<!DOCTYPE svg PUBLIC "-//W3C//DTD SVG 1.1//EN"
 "http://www.w3.org/Graphics/SVG/1.1/DTD/svg11.dtd">
<!-- Generated by graphviz version 12.2.1 (20241206.2353)
 -->
<!-- Title: Source/Slash/Private/HUD/SlashHUD.cpp Pages: 1 -->
<svg width="646pt" height="152pt"
 viewBox="0.00 0.00 646.25 152.00" xmlns="http://www.w3.org/2000/svg" xmlns:xlink="http://www.w3.org/1999/xlink">
<g id="graph0" class="graph" transform="scale(1 1) rotate(0) translate(4 148)">
<title>Source/Slash/Private/HUD/SlashHUD.cpp</title>
<!-- Node1 -->
<g id="Node000001" class="node">
<title>Node1</title>
<g id="a_Node000001"><a xlink:title=" ">
<polygon fill="#999999" stroke="#666666" points="372.62,-144 262.12,-144 262.12,-112 372.62,-112 372.62,-144"/>
<text text-anchor="start" x="270.12" y="-130.5" font-family="Helvetica,sans-Serif" font-size="10.00">Source/Slash/Private</text>
<text text-anchor="middle" x="317.38" y="-118.5" font-family="Helvetica,sans-Serif" font-size="10.00">/HUD/SlashHUD.cpp</text>
</a>
</g>
</g>
<!-- Node2 -->
<g id="Node000002" class="node">
<title>Node2</title>
<g id="a_Node000002"><a xlink:href="_slash_h_u_d_8h.html" target="_top" xlink:title=" ">
<polygon fill="white" stroke="#666666" points="305.88,-76 208.88,-76 208.88,-56 305.88,-56 305.88,-76"/>
<text text-anchor="middle" x="257.38" y="-62.5" font-family="Helvetica,sans-Serif" font-size="10.00">HUD/SlashHUD.h</text>
</a>
</g>
</g>
<!-- Node1&#45;&gt;Node2 -->
<g id="edge1_Node000001_Node000002" class="edge">
<title>Node1&#45;&gt;Node2</title>
<g id="a_edge1_Node000001_Node000002"><a xlink:title=" ">
<path fill="none" stroke="#63b8ff" d="M301.92,-111.55C293.59,-103.22 283.28,-92.91 274.68,-84.3"/>
<polygon fill="#63b8ff" stroke="#63b8ff" points="277.4,-82.07 267.85,-77.48 272.45,-87.02 277.4,-82.07"/>
</a>
</g>
</g>
<!-- Node6 -->
<g id="Node000006" class="node">
<title>Node6</title>
<g id="a_Node000006"><a xlink:href="_slash_overlay_8h.html" target="_top" xlink:title=" ">
<polygon fill="white" stroke="#666666" points="459.12,-76 351.62,-76 351.62,-56 459.12,-56 459.12,-76"/>
<text text-anchor="middle" x="405.38" y="-62.5" font-family="Helvetica,sans-Serif" font-size="10.00">HUD/SlashOverlay.h</text>
</a>
</g>
</g>
<!-- Node1&#45;&gt;Node6 -->
<g id="edge5_Node000001_Node000006" class="edge">
<title>Node1&#45;&gt;Node6</title>
<g id="a_edge5_Node000001_Node000006"><a xlink:title=" ">
<path fill="none" stroke="#63b8ff" d="M340.04,-111.55C353.02,-102.69 369.28,-91.61 382.33,-82.71"/>
<polygon fill="#63b8ff" stroke="#63b8ff" points="384.04,-85.79 390.33,-77.26 380.09,-80 384.04,-85.79"/>
</a>
</g>
</g>
<!-- Node3 -->
<g id="Node000003" class="node">
<title>Node3</title>
<g id="a_Node000003"><a xlink:title=" ">
<polygon fill="#e0e0e0" stroke="#999999" points="356.88,-20 277.88,-20 277.88,0 356.88,0 356.88,-20"/>
<text text-anchor="middle" x="317.38" y="-6.5" font-family="Helvetica,sans-Serif" font-size="10.00">CoreMinimal.h</text>
</a>
</g>
</g>
<!-- Node2&#45;&gt;Node3 -->
<g id="edge2_Node000002_Node000003" class="edge">
<title>Node2&#45;&gt;Node3</title>
<g id="a_edge2_Node000002_Node000003"><a xlink:title=" ">
<path fill="none" stroke="#63b8ff" d="M267.83,-55.59C276.34,-47.93 288.59,-36.91 298.77,-27.75"/>
<polygon fill="#63b8ff" stroke="#63b8ff" points="300.83,-30.6 305.92,-21.31 296.14,-25.4 300.83,-30.6"/>
</a>
</g>
</g>
<!-- Node4 -->
<g id="Node000004" class="node">
<title>Node4</title>
<g id="a_Node000004"><a xlink:title=" ">
<polygon fill="#e0e0e0" stroke="#999999" points="124.75,-20 0,-20 0,0 124.75,0 124.75,-20"/>
<text text-anchor="middle" x="62.38" y="-6.5" font-family="Helvetica,sans-Serif" font-size="10.00">GameFramework/HUD.h</text>
</a>
</g>
</g>
<!-- Node2&#45;&gt;Node4 -->
<g id="edge3_Node000002_Node000004" class="edge">
<title>Node2&#45;&gt;Node4</title>
<g id="a_edge3_Node000002_Node000004"><a xlink:title=" ">
<path fill="none" stroke="#63b8ff" d="M223.41,-55.59C191.31,-46.71 142.94,-33.31 107.59,-23.52"/>
<polygon fill="#63b8ff" stroke="#63b8ff" points="108.64,-20.18 98.07,-20.88 106.77,-26.93 108.64,-20.18"/>
</a>
</g>
</g>
<!-- Node5 -->
<g id="Node000005" class="node">
<title>Node5</title>
<g id="a_Node000005"><a xlink:title=" ">
<polygon fill="#e0e0e0" stroke="#999999" points="260,-20 142.75,-20 142.75,0 260,0 260,-20"/>
<text text-anchor="middle" x="201.38" y="-6.5" font-family="Helvetica,sans-Serif" font-size="10.00">SlashHUD.generated.h</text>
</a>
</g>
</g>
<!-- Node2&#45;&gt;Node5 -->
<g id="edge4_Node000002_Node000005" class="edge">
<title>Node2&#45;&gt;Node5</title>
<g id="a_edge4_Node000002_Node000005"><a xlink:title=" ">
<path fill="none" stroke="#63b8ff" d="M247.62,-55.59C239.75,-48.01 228.48,-37.13 219.03,-28.02"/>
<polygon fill="#63b8ff" stroke="#63b8ff" points="221.74,-25.77 212.11,-21.35 216.88,-30.81 221.74,-25.77"/>
</a>
</g>
</g>
<!-- Node6&#45;&gt;Node3 -->
<g id="edge6_Node000006_Node000003" class="edge">
<title>Node6&#45;&gt;Node3</title>
<g id="a_edge6_Node000006_Node000003"><a xlink:title=" ">
<path fill="none" stroke="#63b8ff" d="M390.05,-55.59C376.88,-47.51 357.64,-35.71 342.27,-26.27"/>
<polygon fill="#63b8ff" stroke="#63b8ff" points="344.47,-23.52 334.11,-21.27 340.81,-29.48 344.47,-23.52"/>
</a>
</g>
</g>
<!-- Node7 -->
<g id="Node000007" class="node">
<title>Node7</title>
<g id="a_Node000007"><a xlink:title=" ">
<polygon fill="#e0e0e0" stroke="#999999" points="492,-20 374.75,-20 374.75,0 492,0 492,-20"/>
<text text-anchor="middle" x="433.38" y="-6.5" font-family="Helvetica,sans-Serif" font-size="10.00">Blueprint/UserWidget.h</text>
</a>
</g>
</g>
<!-- Node6&#45;&gt;Node7 -->
<g id="edge7_Node000006_Node000007" class="edge">
<title>Node6&#45;&gt;Node7</title>
<g id="a_edge7_Node000006_Node000007"><a xlink:title=" ">
<path fill="none" stroke="#63b8ff" d="M410.25,-55.59C413.87,-48.63 418.92,-38.89 423.37,-30.29"/>
<polygon fill="#63b8ff" stroke="#63b8ff" points="426.36,-32.13 427.86,-21.64 420.15,-28.91 426.36,-32.13"/>
</a>
</g>
</g>
<!-- Node8 -->
<g id="Node000008" class="node">
<title>Node8</title>
<g id="a_Node000008"><a xlink:title=" ">
<polygon fill="#e0e0e0" stroke="#999999" points="638.25,-20 510.5,-20 510.5,0 638.25,0 638.25,-20"/>
<text text-anchor="middle" x="574.38" y="-6.5" font-family="Helvetica,sans-Serif" font-size="10.00">SlashOverlay.generated.h</text>
</a>
</g>
</g>
<!-- Node6&#45;&gt;Node8 -->
<g id="edge8_Node000006_Node000008" class="edge">
<title>Node6&#45;&gt;Node8</title>
<g id="a_edge8_Node000006_Node000008"><a xlink:title=" ">
<path fill="none" stroke="#63b8ff" d="M434.81,-55.59C462.27,-46.82 503.47,-33.66 533.99,-23.9"/>
<polygon fill="#63b8ff" stroke="#63b8ff" points="534.81,-27.32 543.27,-20.94 532.68,-20.65 534.81,-27.32"/>
</a>
</g>
</g>
</g>
</svg>
