<?xml version="1.0" encoding="UTF-8" standalone="no"?>
<!DOCTYPE svg PUBLIC "-//W3C//DTD SVG 1.1//EN"
 "http://www.w3.org/Graphics/SVG/1.1/DTD/svg11.dtd">
<!-- Generated by graphviz version 12.2.1 (20241206.2353)
 -->
<!-- Title: Source/Slash/Private/Characters/SlashCharacter.cpp Pages: 1 -->
<svg width="2150pt" height="276pt"
 viewBox="0.00 0.00 2149.75 276.00" xmlns="http://www.w3.org/2000/svg" xmlns:xlink="http://www.w3.org/1999/xlink">
<g id="graph0" class="graph" transform="scale(1 1) rotate(0) translate(4 272)">
<title>Source/Slash/Private/Characters/SlashCharacter.cpp</title>
<!-- Node1 -->
<g id="Node000001" class="node">
<title>Node1</title>
<g id="a_Node000001"><a xlink:title=" ">
<polygon fill="#999999" stroke="#666666" points="1252.25,-268 1096,-268 1096,-236 1252.25,-236 1252.25,-268"/>
<text text-anchor="start" x="1104" y="-254.5" font-family="Helvetica,sans-Serif" font-size="10.00">Source/Slash/Private</text>
<text text-anchor="middle" x="1174.12" y="-242.5" font-family="Helvetica,sans-Serif" font-size="10.00">/Characters/SlashCharacter.cpp</text>
</a>
</g>
</g>
<!-- Node2 -->
<g id="Node000002" class="node">
<title>Node2</title>
<g id="a_Node000002"><a xlink:href="_slash_character_8h.html" target="_top" xlink:title=" ">
<polygon fill="white" stroke="#666666" points="195.5,-194 52.75,-194 52.75,-174 195.5,-174 195.5,-194"/>
<text text-anchor="middle" x="124.12" y="-180.5" font-family="Helvetica,sans-Serif" font-size="10.00">Characters/SlashCharacter.h</text>
</a>
</g>
</g>
<!-- Node1&#45;&gt;Node2 -->
<g id="edge1_Node000001_Node000002" class="edge">
<title>Node1&#45;&gt;Node2</title>
<g id="a_edge1_Node000001_Node000002"><a xlink:title=" ">
<path fill="none" stroke="#63b8ff" d="M1095.55,-250.4C930.08,-248.36 533.78,-239.39 204.12,-200 196.3,-199.07 188.1,-197.83 180.04,-196.46"/>
<polygon fill="#63b8ff" stroke="#63b8ff" points="180.76,-193.03 170.3,-194.73 179.54,-199.93 180.76,-193.03"/>
</a>
</g>
</g>
<!-- Node14 -->
<g id="Node000014" class="node">
<title>Node14</title>
<g id="a_Node000014"><a xlink:title=" ">
<polygon fill="#e0e0e0" stroke="#999999" points="353,-194 213.25,-194 213.25,-174 353,-174 353,-194"/>
<text text-anchor="middle" x="283.12" y="-180.5" font-family="Helvetica,sans-Serif" font-size="10.00">EnhancedInputComponent.h</text>
</a>
</g>
</g>
<!-- Node1&#45;&gt;Node14 -->
<g id="edge17_Node000001_Node000014" class="edge">
<title>Node1&#45;&gt;Node14</title>
<g id="a_edge17_Node000001_Node000014"><a xlink:title=" ">
<path fill="none" stroke="#63b8ff" d="M1095.72,-249.33C950.48,-245.51 629.98,-233.71 362.12,-200 354.59,-199.05 346.68,-197.83 338.91,-196.49"/>
<polygon fill="#63b8ff" stroke="#63b8ff" points="339.63,-193.06 329.16,-194.73 338.39,-199.95 339.63,-193.06"/>
</a>
</g>
</g>
<!-- Node15 -->
<g id="Node000015" class="node">
<title>Node15</title>
<g id="a_Node000015"><a xlink:title=" ">
<polygon fill="#e0e0e0" stroke="#999999" points="515.25,-194 371,-194 371,-174 515.25,-174 515.25,-194"/>
<text text-anchor="middle" x="443.12" y="-180.5" font-family="Helvetica,sans-Serif" font-size="10.00">EnhancedInputSubsystems.h</text>
</a>
</g>
</g>
<!-- Node1&#45;&gt;Node15 -->
<g id="edge18_Node000001_Node000015" class="edge">
<title>Node1&#45;&gt;Node15</title>
<g id="a_edge18_Node000001_Node000015"><a xlink:title=" ">
<path fill="none" stroke="#63b8ff" d="M1095.56,-247.5C973.07,-241.44 729.36,-226.98 524.12,-200 516.6,-199.01 508.71,-197.79 500.94,-196.47"/>
<polygon fill="#63b8ff" stroke="#63b8ff" points="501.63,-193.04 491.17,-194.75 500.41,-199.93 501.63,-193.04"/>
</a>
</g>
</g>
<!-- Node16 -->
<g id="Node000016" class="node">
<title>Node16</title>
<g id="a_Node000016"><a xlink:title=" ">
<polygon fill="#e0e0e0" stroke="#999999" points="637,-194 533.25,-194 533.25,-174 637,-174 637,-194"/>
<text text-anchor="middle" x="585.12" y="-180.5" font-family="Helvetica,sans-Serif" font-size="10.00">GroomComponent.h</text>
</a>
</g>
</g>
<!-- Node1&#45;&gt;Node16 -->
<g id="edge19_Node000001_Node000016" class="edge">
<title>Node1&#45;&gt;Node16</title>
<g id="a_edge19_Node000001_Node000016"><a xlink:title=" ">
<path fill="none" stroke="#63b8ff" d="M1095.83,-246.99C992.32,-240.88 804.55,-226.98 646.12,-200 641.15,-199.15 635.99,-198.12 630.86,-197"/>
<polygon fill="#63b8ff" stroke="#63b8ff" points="631.79,-193.63 621.26,-194.78 630.21,-200.45 631.79,-193.63"/>
</a>
</g>
</g>
<!-- Node17 -->
<g id="Node000017" class="node">
<title>Node17</title>
<g id="a_Node000017"><a xlink:title=" ">
<polygon fill="#e0e0e0" stroke="#999999" points="801.38,-194 654.88,-194 654.88,-174 801.38,-174 801.38,-194"/>
<text text-anchor="middle" x="728.12" y="-180.5" font-family="Helvetica,sans-Serif" font-size="10.00">Camera/CameraComponent.h</text>
</a>
</g>
</g>
<!-- Node1&#45;&gt;Node17 -->
<g id="edge20_Node000001_Node000017" class="edge">
<title>Node1&#45;&gt;Node17</title>
<g id="a_edge20_Node000001_Node000017"><a xlink:title=" ">
<path fill="none" stroke="#63b8ff" d="M1095.52,-240.95C1021.7,-231.28 908.24,-215.84 810.12,-200 803.28,-198.89 796.13,-197.68 789.02,-196.43"/>
<polygon fill="#63b8ff" stroke="#63b8ff" points="789.88,-193.03 779.43,-194.72 788.66,-199.92 789.88,-193.03"/>
</a>
</g>
</g>
<!-- Node18 -->
<g id="Node000018" class="node">
<title>Node18</title>
<g id="a_Node000018"><a xlink:href="_attribute_component_8h.html" target="_top" xlink:title=" ">
<polygon fill="white" stroke="#666666" points="989,-194 819.25,-194 819.25,-174 989,-174 989,-194"/>
<text text-anchor="middle" x="904.12" y="-180.5" font-family="Helvetica,sans-Serif" font-size="10.00">Components/AttributeComponent.h</text>
</a>
</g>
</g>
<!-- Node1&#45;&gt;Node18 -->
<g id="edge21_Node000001_Node000018" class="edge">
<title>Node1&#45;&gt;Node18</title>
<g id="a_edge21_Node000001_Node000018"><a xlink:title=" ">
<path fill="none" stroke="#63b8ff" d="M1110.82,-235.53C1062.93,-223.82 998.08,-207.97 953.88,-197.16"/>
<polygon fill="#63b8ff" stroke="#63b8ff" points="954.84,-193.79 944.3,-194.82 953.18,-200.59 954.84,-193.79"/>
</a>
</g>
</g>
<!-- Node21 -->
<g id="Node000021" class="node">
<title>Node21</title>
<g id="a_Node000021"><a xlink:title=" ">
<polygon fill="#e0e0e0" stroke="#999999" points="1157.25,-194 1007,-194 1007,-174 1157.25,-174 1157.25,-194"/>
<text text-anchor="middle" x="1082.12" y="-180.5" font-family="Helvetica,sans-Serif" font-size="10.00">Components/BoxComponent.h</text>
</a>
</g>
</g>
<!-- Node1&#45;&gt;Node21 -->
<g id="edge25_Node000001_Node000021" class="edge">
<title>Node1&#45;&gt;Node21</title>
<g id="a_edge25_Node000001_Node000021"><a xlink:title=" ">
<path fill="none" stroke="#63b8ff" d="M1152.79,-235.69C1138.16,-225.2 1118.8,-211.31 1104.05,-200.73"/>
<polygon fill="#63b8ff" stroke="#63b8ff" points="1106.51,-198.18 1096.34,-195.2 1102.43,-203.87 1106.51,-198.18"/>
</a>
</g>
</g>
<!-- Node22 -->
<g id="Node000022" class="node">
<title>Node22</title>
<g id="a_Node000022"><a xlink:title=" ">
<polygon fill="#e0e0e0" stroke="#999999" points="1357.38,-200 1174.88,-200 1174.88,-168 1357.38,-168 1357.38,-200"/>
<text text-anchor="start" x="1182.88" y="-186.5" font-family="Helvetica,sans-Serif" font-size="10.00">GameFramework/CharacterMovement</text>
<text text-anchor="middle" x="1266.12" y="-174.5" font-family="Helvetica,sans-Serif" font-size="10.00">Component.h</text>
</a>
</g>
</g>
<!-- Node1&#45;&gt;Node22 -->
<g id="edge26_Node000001_Node000022" class="edge">
<title>Node1&#45;&gt;Node22</title>
<g id="a_edge26_Node000001_Node000022"><a xlink:title=" ">
<path fill="none" stroke="#63b8ff" d="M1195.46,-235.69C1207.34,-227.17 1222.32,-216.42 1235.44,-207.01"/>
<polygon fill="#63b8ff" stroke="#63b8ff" points="1237.27,-210.01 1243.35,-201.34 1233.19,-204.32 1237.27,-210.01"/>
</a>
</g>
</g>
<!-- Node23 -->
<g id="Node000023" class="node">
<title>Node23</title>
<g id="a_Node000023"><a xlink:title=" ">
<polygon fill="#e0e0e0" stroke="#999999" points="1573.25,-194 1375,-194 1375,-174 1573.25,-174 1573.25,-194"/>
<text text-anchor="middle" x="1474.12" y="-180.5" font-family="Helvetica,sans-Serif" font-size="10.00">GameFramework/SpringArmComponent.h</text>
</a>
</g>
</g>
<!-- Node1&#45;&gt;Node23 -->
<g id="edge27_Node000001_Node000023" class="edge">
<title>Node1&#45;&gt;Node23</title>
<g id="a_edge27_Node000001_Node000023"><a xlink:title=" ">
<path fill="none" stroke="#63b8ff" d="M1244.46,-235.53C1298.13,-223.72 1370.95,-207.7 1420.09,-196.89"/>
<polygon fill="#63b8ff" stroke="#63b8ff" points="1420.63,-200.35 1429.65,-194.79 1419.13,-193.52 1420.63,-200.35"/>
</a>
</g>
</g>
<!-- Node24 -->
<g id="Node000024" class="node">
<title>Node24</title>
<g id="a_Node000024"><a xlink:href="_slash_h_u_d_8h.html" target="_top" xlink:title=" ">
<polygon fill="white" stroke="#666666" points="1688.62,-194 1591.62,-194 1591.62,-174 1688.62,-174 1688.62,-194"/>
<text text-anchor="middle" x="1640.12" y="-180.5" font-family="Helvetica,sans-Serif" font-size="10.00">HUD/SlashHUD.h</text>
</a>
</g>
</g>
<!-- Node1&#45;&gt;Node24 -->
<g id="edge28_Node000001_Node000024" class="edge">
<title>Node1&#45;&gt;Node24</title>
<g id="a_edge28_Node000001_Node000024"><a xlink:title=" ">
<path fill="none" stroke="#63b8ff" d="M1252.43,-244.23C1334.91,-236.4 1468.36,-221.73 1582.12,-200 1586.48,-199.17 1591,-198.2 1595.5,-197.16"/>
<polygon fill="#63b8ff" stroke="#63b8ff" points="1596.2,-200.59 1605.08,-194.82 1594.54,-193.79 1596.2,-200.59"/>
</a>
</g>
</g>
<!-- Node27 -->
<g id="Node000027" class="node">
<title>Node27</title>
<g id="a_Node000027"><a xlink:href="_slash_overlay_8h.html" target="_top" xlink:title=" ">
<polygon fill="white" stroke="#666666" points="1813.88,-194 1706.38,-194 1706.38,-174 1813.88,-174 1813.88,-194"/>
<text text-anchor="middle" x="1760.12" y="-180.5" font-family="Helvetica,sans-Serif" font-size="10.00">HUD/SlashOverlay.h</text>
</a>
</g>
</g>
<!-- Node1&#45;&gt;Node27 -->
<g id="edge32_Node000001_Node000027" class="edge">
<title>Node1&#45;&gt;Node27</title>
<g id="a_edge32_Node000001_Node000027"><a xlink:title=" ">
<path fill="none" stroke="#63b8ff" d="M1252.7,-246.8C1355.59,-240.52 1541.3,-226.47 1698.12,-200 1703.31,-199.12 1708.71,-198.06 1714.06,-196.9"/>
<polygon fill="#63b8ff" stroke="#63b8ff" points="1714.44,-200.4 1723.42,-194.77 1712.89,-193.58 1714.44,-200.4"/>
</a>
</g>
</g>
<!-- Node30 -->
<g id="Node000030" class="node">
<title>Node30</title>
<g id="a_Node000030"><a xlink:href="_soul_8h.html" target="_top" xlink:title=" ">
<polygon fill="white" stroke="#666666" points="1880.88,-132 1809.38,-132 1809.38,-112 1880.88,-112 1880.88,-132"/>
<text text-anchor="middle" x="1845.12" y="-118.5" font-family="Helvetica,sans-Serif" font-size="10.00">Items/Soul.h</text>
</a>
</g>
</g>
<!-- Node1&#45;&gt;Node30 -->
<g id="edge36_Node000001_Node000030" class="edge">
<title>Node1&#45;&gt;Node30</title>
<g id="a_edge36_Node000001_Node000030"><a xlink:title=" ">
<path fill="none" stroke="#63b8ff" d="M1252.61,-249.78C1415.73,-246.54 1779.84,-235.39 1823.12,-200 1839.58,-186.54 1844.23,-161.7 1845.3,-143.86"/>
<polygon fill="#63b8ff" stroke="#63b8ff" points="1848.8,-143.97 1845.53,-133.89 1841.8,-143.81 1848.8,-143.97"/>
</a>
</g>
</g>
<!-- Node35 -->
<g id="Node000035" class="node">
<title>Node35</title>
<g id="a_Node000035"><a xlink:href="_treasure_8h.html" target="_top" xlink:title=" ">
<polygon fill="white" stroke="#666666" points="1989.25,-132 1899,-132 1899,-112 1989.25,-112 1989.25,-132"/>
<text text-anchor="middle" x="1944.12" y="-118.5" font-family="Helvetica,sans-Serif" font-size="10.00">Items/Treasure.h</text>
</a>
</g>
</g>
<!-- Node1&#45;&gt;Node35 -->
<g id="edge43_Node000001_Node000035" class="edge">
<title>Node1&#45;&gt;Node35</title>
<g id="a_edge43_Node000001_Node000035"><a xlink:title=" ">
<path fill="none" stroke="#63b8ff" d="M1252.59,-250.73C1405.98,-249.28 1739.87,-241.32 1846.12,-200 1879.23,-187.13 1910.17,-159.11 1928.11,-140.66"/>
<polygon fill="#63b8ff" stroke="#63b8ff" points="1930.47,-143.25 1934.79,-133.58 1925.38,-138.45 1930.47,-143.25"/>
</a>
</g>
</g>
<!-- Node37 -->
<g id="Node000037" class="node">
<title>Node37</title>
<g id="a_Node000037"><a xlink:href="_weapon_8h.html" target="_top" xlink:title=" ">
<polygon fill="white" stroke="#666666" points="2138.5,-132 2007.75,-132 2007.75,-112 2138.5,-112 2138.5,-132"/>
<text text-anchor="middle" x="2073.12" y="-118.5" font-family="Helvetica,sans-Serif" font-size="10.00">Items/Weapons/Weapon.h</text>
</a>
</g>
</g>
<!-- Node1&#45;&gt;Node37 -->
<g id="edge47_Node000001_Node000037" class="edge">
<title>Node1&#45;&gt;Node37</title>
<g id="a_edge47_Node000001_Node000037"><a xlink:title=" ">
<path fill="none" stroke="#63b8ff" d="M1252.73,-248.52C1411.99,-242.99 1767.68,-227.87 1886.12,-200 1945.28,-186.08 2009.93,-155.78 2045.6,-137.62"/>
<polygon fill="#63b8ff" stroke="#63b8ff" points="2047.08,-140.79 2054.36,-133.1 2043.87,-134.57 2047.08,-140.79"/>
</a>
</g>
</g>
<!-- Node3 -->
<g id="Node000003" class="node">
<title>Node3</title>
<g id="a_Node000003"><a xlink:title=" ">
<polygon fill="#e0e0e0" stroke="#999999" points="1223.62,-20 1144.62,-20 1144.62,0 1223.62,0 1223.62,-20"/>
<text text-anchor="middle" x="1184.12" y="-6.5" font-family="Helvetica,sans-Serif" font-size="10.00">CoreMinimal.h</text>
</a>
</g>
</g>
<!-- Node2&#45;&gt;Node3 -->
<g id="edge2_Node000002_Node000003" class="edge">
<title>Node2&#45;&gt;Node3</title>
<g id="a_edge2_Node000002_Node000003"><a xlink:title=" ">
<path fill="none" stroke="#63b8ff" d="M170.54,-173.57C181.52,-171.54 193.21,-169.54 204.12,-168 370.35,-144.51 414.84,-161.37 580.12,-132 711.31,-108.69 739.52,-82.38 870.12,-56 962.1,-37.42 1070.75,-23.64 1133.13,-16.5"/>
<polygon fill="#63b8ff" stroke="#63b8ff" points="1133.18,-20.01 1142.72,-15.41 1132.39,-13.06 1133.18,-20.01"/>
</a>
</g>
</g>
<!-- Node4 -->
<g id="Node000004" class="node">
<title>Node4</title>
<g id="a_Node000004"><a xlink:href="_base_character_8h.html" target="_top" xlink:title=" ">
<polygon fill="white" stroke="#666666" points="414.88,-132 325.38,-132 325.38,-112 414.88,-112 414.88,-132"/>
<text text-anchor="middle" x="370.12" y="-118.5" font-family="Helvetica,sans-Serif" font-size="10.00">BaseCharacter.h</text>
</a>
</g>
</g>
<!-- Node2&#45;&gt;Node4 -->
<g id="edge3_Node000002_Node000004" class="edge">
<title>Node2&#45;&gt;Node4</title>
<g id="a_edge3_Node000002_Node000004"><a xlink:title=" ">
<path fill="none" stroke="#63b8ff" d="M162.83,-173.56C205.33,-163.19 273.7,-146.52 320.21,-135.18"/>
<polygon fill="#63b8ff" stroke="#63b8ff" points="320.88,-138.61 329.77,-132.84 319.22,-131.81 320.88,-138.61"/>
</a>
</g>
</g>
<!-- Node10 -->
<g id="Node000010" class="node">
<title>Node10</title>
<g id="a_Node000010"><a xlink:href="_character_types_8h.html" target="_top" xlink:title=" ">
<polygon fill="white" stroke="#666666" points="245.75,-132 152.5,-132 152.5,-112 245.75,-112 245.75,-132"/>
<text text-anchor="middle" x="199.12" y="-118.5" font-family="Helvetica,sans-Serif" font-size="10.00">CharacterTypes.h</text>
</a>
</g>
</g>
<!-- Node2&#45;&gt;Node10 -->
<g id="edge11_Node000002_Node000010" class="edge">
<title>Node2&#45;&gt;Node10</title>
<g id="a_edge11_Node000002_Node000010"><a xlink:title=" ">
<path fill="none" stroke="#63b8ff" d="M135.84,-173.62C147.36,-164.41 165.16,-150.17 178.95,-139.14"/>
<polygon fill="#63b8ff" stroke="#63b8ff" points="180.93,-142.04 186.55,-133.06 176.56,-136.57 180.93,-142.04"/>
</a>
</g>
</g>
<!-- Node11 -->
<g id="Node000011" class="node">
<title>Node11</title>
<g id="a_Node000011"><a xlink:href="_pickup_interface_8h.html" target="_top" xlink:title=" ">
<polygon fill="white" stroke="#666666" points="197.62,-76 58.62,-76 58.62,-56 197.62,-56 197.62,-76"/>
<text text-anchor="middle" x="128.12" y="-62.5" font-family="Helvetica,sans-Serif" font-size="10.00">Interfaces/PickupInterface.h</text>
</a>
</g>
</g>
<!-- Node2&#45;&gt;Node11 -->
<g id="edge12_Node000002_Node000011" class="edge">
<title>Node2&#45;&gt;Node11</title>
<g id="a_edge12_Node000002_Node000011"><a xlink:title=" ">
<path fill="none" stroke="#63b8ff" d="M124.45,-173.51C125.1,-154.81 126.54,-112.82 127.42,-87.51"/>
<polygon fill="#63b8ff" stroke="#63b8ff" points="130.91,-87.93 127.75,-77.81 123.91,-87.69 130.91,-87.93"/>
</a>
</g>
</g>
<!-- Node13 -->
<g id="Node000013" class="node">
<title>Node13</title>
<g id="a_Node000013"><a xlink:title=" ">
<polygon fill="#e0e0e0" stroke="#999999" points="570.88,-132 433.38,-132 433.38,-112 570.88,-112 570.88,-132"/>
<text text-anchor="middle" x="502.12" y="-118.5" font-family="Helvetica,sans-Serif" font-size="10.00">SlashCharacter.generated.h</text>
</a>
</g>
</g>
<!-- Node2&#45;&gt;Node13 -->
<g id="edge16_Node000002_Node000013" class="edge">
<title>Node2&#45;&gt;Node13</title>
<g id="a_edge16_Node000002_Node000013"><a xlink:title=" ">
<path fill="none" stroke="#63b8ff" d="M173.15,-173.52C183.38,-171.63 194.09,-169.7 204.12,-168 278.4,-155.43 363.38,-142.77 423.54,-134.09"/>
<polygon fill="#63b8ff" stroke="#63b8ff" points="423.95,-137.57 433.35,-132.68 422.96,-130.64 423.95,-137.57"/>
</a>
</g>
</g>
<!-- Node4&#45;&gt;Node3 -->
<g id="edge4_Node000004_Node000003" class="edge">
<title>Node4&#45;&gt;Node3</title>
<g id="a_edge4_Node000004_Node000003"><a xlink:title=" ">
<path fill="none" stroke="#63b8ff" d="M415.19,-113.4C418.21,-112.91 421.21,-112.45 424.12,-112 539.01,-94.45 570.1,-103.07 683.12,-76 709.64,-69.65 714.5,-61.86 741.12,-56 880.69,-25.28 1049.69,-15.46 1132.84,-12.38"/>
<polygon fill="#63b8ff" stroke="#63b8ff" points="1132.85,-15.88 1142.72,-12.03 1132.6,-8.88 1132.85,-15.88"/>
</a>
</g>
</g>
<!-- Node5 -->
<g id="Node000005" class="node">
<title>Node5</title>
<g id="a_Node000005"><a xlink:title=" ">
<polygon fill="#e0e0e0" stroke="#999999" points="673.62,-76 528.62,-76 528.62,-56 673.62,-56 673.62,-76"/>
<text text-anchor="middle" x="601.12" y="-62.5" font-family="Helvetica,sans-Serif" font-size="10.00">GameFramework/Character.h</text>
</a>
</g>
</g>
<!-- Node4&#45;&gt;Node5 -->
<g id="edge5_Node000004_Node000005" class="edge">
<title>Node4&#45;&gt;Node5</title>
<g id="a_edge5_Node000004_Node000005"><a xlink:title=" ">
<path fill="none" stroke="#63b8ff" d="M410.63,-111.53C449.27,-102.5 507.64,-88.85 549.58,-79.05"/>
<polygon fill="#63b8ff" stroke="#63b8ff" points="550.26,-82.49 559.2,-76.8 548.66,-75.67 550.26,-82.49"/>
</a>
</g>
</g>
<!-- Node6 -->
<g id="Node000006" class="node">
<title>Node6</title>
<g id="a_Node000006"><a xlink:href="_hit_interface_8h.html" target="_top" xlink:title=" ">
<polygon fill="white" stroke="#666666" points="357,-76 235.25,-76 235.25,-56 357,-56 357,-76"/>
<text text-anchor="middle" x="296.12" y="-62.5" font-family="Helvetica,sans-Serif" font-size="10.00">Interfaces/HitInterface.h</text>
</a>
</g>
</g>
<!-- Node4&#45;&gt;Node6 -->
<g id="edge6_Node000004_Node000006" class="edge">
<title>Node4&#45;&gt;Node6</title>
<g id="a_edge6_Node000004_Node000006"><a xlink:title=" ">
<path fill="none" stroke="#63b8ff" d="M357.24,-111.59C346.41,-103.7 330.71,-92.24 317.94,-82.92"/>
<polygon fill="#63b8ff" stroke="#63b8ff" points="320.23,-80.26 310.09,-77.19 316.1,-85.91 320.23,-80.26"/>
</a>
</g>
</g>
<!-- Node9 -->
<g id="Node000009" class="node">
<title>Node9</title>
<g id="a_Node000009"><a xlink:title=" ">
<polygon fill="#e0e0e0" stroke="#999999" points="510.75,-76 375.5,-76 375.5,-56 510.75,-56 510.75,-76"/>
<text text-anchor="middle" x="443.12" y="-62.5" font-family="Helvetica,sans-Serif" font-size="10.00">BaseCharacter.generated.h</text>
</a>
</g>
</g>
<!-- Node4&#45;&gt;Node9 -->
<g id="edge10_Node000004_Node000009" class="edge">
<title>Node4&#45;&gt;Node9</title>
<g id="a_edge10_Node000004_Node000009"><a xlink:title=" ">
<path fill="none" stroke="#63b8ff" d="M382.84,-111.59C393.52,-103.7 409,-92.24 421.61,-82.92"/>
<polygon fill="#63b8ff" stroke="#63b8ff" points="423.38,-85.96 429.34,-77.2 419.22,-80.33 423.38,-85.96"/>
</a>
</g>
</g>
<!-- Node6&#45;&gt;Node3 -->
<g id="edge7_Node000006_Node000003" class="edge">
<title>Node6&#45;&gt;Node3</title>
<g id="a_edge7_Node000006_Node000003"><a xlink:title=" ">
<path fill="none" stroke="#63b8ff" d="M357.18,-56.88C360.2,-56.57 363.2,-56.27 366.12,-56 655.58,-29.47 1004.2,-16.62 1133.05,-12.51"/>
<polygon fill="#63b8ff" stroke="#63b8ff" points="1133.07,-16.02 1142.95,-12.2 1132.85,-9.02 1133.07,-16.02"/>
</a>
</g>
</g>
<!-- Node7 -->
<g id="Node000007" class="node">
<title>Node7</title>
<g id="a_Node000007"><a xlink:title=" ">
<polygon fill="#e0e0e0" stroke="#999999" points="257.88,-20 156.38,-20 156.38,0 257.88,0 257.88,-20"/>
<text text-anchor="middle" x="207.12" y="-6.5" font-family="Helvetica,sans-Serif" font-size="10.00">UObject/Interface.h</text>
</a>
</g>
</g>
<!-- Node6&#45;&gt;Node7 -->
<g id="edge8_Node000006_Node000007" class="edge">
<title>Node6&#45;&gt;Node7</title>
<g id="a_edge8_Node000006_Node000007"><a xlink:title=" ">
<path fill="none" stroke="#63b8ff" d="M280.62,-55.59C267.3,-47.51 247.85,-35.71 232.3,-26.27"/>
<polygon fill="#63b8ff" stroke="#63b8ff" points="234.41,-23.46 224.04,-21.26 230.78,-29.44 234.41,-23.46"/>
</a>
</g>
</g>
<!-- Node8 -->
<g id="Node000008" class="node">
<title>Node8</title>
<g id="a_Node000008"><a xlink:title=" ">
<polygon fill="#e0e0e0" stroke="#999999" points="396.62,-20 275.62,-20 275.62,0 396.62,0 396.62,-20"/>
<text text-anchor="middle" x="336.12" y="-6.5" font-family="Helvetica,sans-Serif" font-size="10.00">HitInterface.generated.h</text>
</a>
</g>
</g>
<!-- Node6&#45;&gt;Node8 -->
<g id="edge9_Node000006_Node000008" class="edge">
<title>Node6&#45;&gt;Node8</title>
<g id="a_edge9_Node000006_Node000008"><a xlink:title=" ">
<path fill="none" stroke="#63b8ff" d="M303.09,-55.59C308.43,-48.39 315.95,-38.23 322.47,-29.43"/>
<polygon fill="#63b8ff" stroke="#63b8ff" points="325.2,-31.63 328.34,-21.51 319.57,-27.47 325.2,-31.63"/>
</a>
</g>
</g>
<!-- Node11&#45;&gt;Node3 -->
<g id="edge13_Node000011_Node000003" class="edge">
<title>Node11&#45;&gt;Node3</title>
<g id="a_edge13_Node000011_Node000003"><a xlink:title=" ">
<path fill="none" stroke="#63b8ff" d="M197.96,-58.2C207.42,-57.39 217.01,-56.63 226.12,-56 572.27,-31.99 989.68,-17.25 1132.97,-12.6"/>
<polygon fill="#63b8ff" stroke="#63b8ff" points="1133,-16.1 1142.88,-12.28 1132.77,-9.1 1133,-16.1"/>
</a>
</g>
</g>
<!-- Node11&#45;&gt;Node7 -->
<g id="edge14_Node000011_Node000007" class="edge">
<title>Node11&#45;&gt;Node7</title>
<g id="a_edge14_Node000011_Node000007"><a xlink:title=" ">
<path fill="none" stroke="#63b8ff" d="M141.89,-55.59C153.48,-47.67 170.32,-36.16 183.99,-26.82"/>
<polygon fill="#63b8ff" stroke="#63b8ff" points="185.73,-29.87 192.01,-21.33 181.78,-24.09 185.73,-29.87"/>
</a>
</g>
</g>
<!-- Node12 -->
<g id="Node000012" class="node">
<title>Node12</title>
<g id="a_Node000012"><a xlink:title=" ">
<polygon fill="#e0e0e0" stroke="#999999" points="138.25,-20 0,-20 0,0 138.25,0 138.25,-20"/>
<text text-anchor="middle" x="69.12" y="-6.5" font-family="Helvetica,sans-Serif" font-size="10.00">PickupInterface.generated.h</text>
</a>
</g>
</g>
<!-- Node11&#45;&gt;Node12 -->
<g id="edge15_Node000011_Node000012" class="edge">
<title>Node11&#45;&gt;Node12</title>
<g id="a_edge15_Node000011_Node000012"><a xlink:title=" ">
<path fill="none" stroke="#63b8ff" d="M117.85,-55.59C109.56,-48.01 97.68,-37.13 87.72,-28.02"/>
<polygon fill="#63b8ff" stroke="#63b8ff" points="90.14,-25.49 80.4,-21.32 85.41,-30.65 90.14,-25.49"/>
</a>
</g>
</g>
<!-- Node18&#45;&gt;Node3 -->
<g id="edge22_Node000018_Node000003" class="edge">
<title>Node18&#45;&gt;Node3</title>
<g id="a_edge22_Node000018_Node000003"><a xlink:title=" ">
<path fill="none" stroke="#63b8ff" d="M874.73,-173.54C841.87,-161.4 795.77,-138.69 816.12,-112 854.6,-61.54 1041.54,-30.05 1133.22,-17.39"/>
<polygon fill="#63b8ff" stroke="#63b8ff" points="1133.5,-20.88 1142.94,-16.07 1132.56,-13.94 1133.5,-20.88"/>
</a>
</g>
</g>
<!-- Node19 -->
<g id="Node000019" class="node">
<title>Node19</title>
<g id="a_Node000019"><a xlink:title=" ">
<polygon fill="#e0e0e0" stroke="#999999" points="1156.25,-132 1000,-132 1000,-112 1156.25,-112 1156.25,-132"/>
<text text-anchor="middle" x="1078.12" y="-118.5" font-family="Helvetica,sans-Serif" font-size="10.00">Components/ActorComponent.h</text>
</a>
</g>
</g>
<!-- Node18&#45;&gt;Node19 -->
<g id="edge23_Node000018_Node000019" class="edge">
<title>Node18&#45;&gt;Node19</title>
<g id="a_edge23_Node000018_Node000019"><a xlink:title=" ">
<path fill="none" stroke="#63b8ff" d="M931.31,-173.62C960.6,-163.53 1007.4,-147.39 1040.27,-136.05"/>
<polygon fill="#63b8ff" stroke="#63b8ff" points="1041.1,-139.47 1049.41,-132.9 1038.82,-132.85 1041.1,-139.47"/>
</a>
</g>
</g>
<!-- Node20 -->
<g id="Node000020" class="node">
<title>Node20</title>
<g id="a_Node000020"><a xlink:title=" ">
<polygon fill="#e0e0e0" stroke="#999999" points="981.62,-132 824.62,-132 824.62,-112 981.62,-112 981.62,-132"/>
<text text-anchor="middle" x="903.12" y="-118.5" font-family="Helvetica,sans-Serif" font-size="10.00">AttributeComponent.generated.h</text>
</a>
</g>
</g>
<!-- Node18&#45;&gt;Node20 -->
<g id="edge24_Node000018_Node000020" class="edge">
<title>Node18&#45;&gt;Node20</title>
<g id="a_edge24_Node000018_Node000020"><a xlink:title=" ">
<path fill="none" stroke="#63b8ff" d="M903.97,-173.62C903.83,-165.56 903.64,-153.65 903.47,-143.41"/>
<polygon fill="#63b8ff" stroke="#63b8ff" points="906.97,-143.57 903.3,-133.63 899.97,-143.68 906.97,-143.57"/>
</a>
</g>
</g>
<!-- Node24&#45;&gt;Node3 -->
<g id="edge29_Node000024_Node000003" class="edge">
<title>Node24&#45;&gt;Node3</title>
<g id="a_edge29_Node000024_Node000003"><a xlink:title=" ">
<path fill="none" stroke="#63b8ff" d="M1607.2,-173.52C1599.06,-171.44 1590.32,-169.44 1582.12,-168 1498.8,-153.36 1264.75,-189.97 1203.12,-132 1175.85,-106.34 1177.11,-58.72 1180.55,-31.5"/>
<polygon fill="#63b8ff" stroke="#63b8ff" points="1183.99,-32.18 1182.02,-21.77 1177.07,-31.13 1183.99,-32.18"/>
</a>
</g>
</g>
<!-- Node25 -->
<g id="Node000025" class="node">
<title>Node25</title>
<g id="a_Node000025"><a xlink:title=" ">
<polygon fill="#e0e0e0" stroke="#999999" points="1472.5,-132 1347.75,-132 1347.75,-112 1472.5,-112 1472.5,-132"/>
<text text-anchor="middle" x="1410.12" y="-118.5" font-family="Helvetica,sans-Serif" font-size="10.00">GameFramework/HUD.h</text>
</a>
</g>
</g>
<!-- Node24&#45;&gt;Node25 -->
<g id="edge30_Node000024_Node000025" class="edge">
<title>Node24&#45;&gt;Node25</title>
<g id="a_edge30_Node000024_Node000025"><a xlink:title=" ">
<path fill="none" stroke="#63b8ff" d="M1603.93,-173.56C1564.37,-163.24 1500.82,-146.66 1457.35,-135.32"/>
<polygon fill="#63b8ff" stroke="#63b8ff" points="1458.51,-132 1447.95,-132.87 1456.74,-138.78 1458.51,-132"/>
</a>
</g>
</g>
<!-- Node26 -->
<g id="Node000026" class="node">
<title>Node26</title>
<g id="a_Node000026"><a xlink:title=" ">
<polygon fill="#e0e0e0" stroke="#999999" points="1329.75,-132 1212.5,-132 1212.5,-112 1329.75,-112 1329.75,-132"/>
<text text-anchor="middle" x="1271.12" y="-118.5" font-family="Helvetica,sans-Serif" font-size="10.00">SlashHUD.generated.h</text>
</a>
</g>
</g>
<!-- Node24&#45;&gt;Node26 -->
<g id="edge31_Node000024_Node000026" class="edge">
<title>Node24&#45;&gt;Node26</title>
<g id="a_edge31_Node000024_Node000026"><a xlink:title=" ">
<path fill="none" stroke="#63b8ff" d="M1606.23,-173.57C1598.35,-171.56 1589.98,-169.58 1582.12,-168 1559.05,-163.36 1425.77,-144.53 1341.34,-132.75"/>
<polygon fill="#63b8ff" stroke="#63b8ff" points="1341.91,-129.29 1331.52,-131.38 1340.94,-136.22 1341.91,-129.29"/>
</a>
</g>
</g>
<!-- Node27&#45;&gt;Node3 -->
<g id="edge33_Node000027_Node000003" class="edge">
<title>Node27&#45;&gt;Node3</title>
<g id="a_edge33_Node000027_Node000003"><a xlink:title=" ">
<path fill="none" stroke="#63b8ff" d="M1722.14,-173.56C1714.22,-171.66 1705.91,-169.72 1698.12,-168 1618.9,-150.46 1595.59,-159.17 1519.12,-132 1501.14,-125.61 1498.66,-119.54 1481.12,-112 1393.46,-74.3 1286.68,-40.9 1228,-23.57"/>
<polygon fill="#63b8ff" stroke="#63b8ff" points="1229.31,-20.3 1218.73,-20.84 1227.34,-27.02 1229.31,-20.3"/>
</a>
</g>
</g>
<!-- Node28 -->
<g id="Node000028" class="node">
<title>Node28</title>
<g id="a_Node000028"><a xlink:title=" ">
<polygon fill="#e0e0e0" stroke="#999999" points="1791.75,-132 1674.5,-132 1674.5,-112 1791.75,-112 1791.75,-132"/>
<text text-anchor="middle" x="1733.12" y="-118.5" font-family="Helvetica,sans-Serif" font-size="10.00">Blueprint/UserWidget.h</text>
</a>
</g>
</g>
<!-- Node27&#45;&gt;Node28 -->
<g id="edge34_Node000027_Node000028" class="edge">
<title>Node27&#45;&gt;Node28</title>
<g id="a_edge34_Node000027_Node000028"><a xlink:title=" ">
<path fill="none" stroke="#63b8ff" d="M1755.91,-173.62C1752.16,-165.3 1746.56,-152.86 1741.86,-142.4"/>
<polygon fill="#63b8ff" stroke="#63b8ff" points="1745.14,-141.18 1737.85,-133.49 1738.76,-144.05 1745.14,-141.18"/>
</a>
</g>
</g>
<!-- Node29 -->
<g id="Node000029" class="node">
<title>Node29</title>
<g id="a_Node000029"><a xlink:title=" ">
<polygon fill="#e0e0e0" stroke="#999999" points="1656,-132 1528.25,-132 1528.25,-112 1656,-112 1656,-132"/>
<text text-anchor="middle" x="1592.12" y="-118.5" font-family="Helvetica,sans-Serif" font-size="10.00">SlashOverlay.generated.h</text>
</a>
</g>
</g>
<!-- Node27&#45;&gt;Node29 -->
<g id="edge35_Node000027_Node000029" class="edge">
<title>Node27&#45;&gt;Node29</title>
<g id="a_edge35_Node000027_Node000029"><a xlink:title=" ">
<path fill="none" stroke="#63b8ff" d="M1733.88,-173.62C1705.72,-163.57 1660.8,-147.53 1629.09,-136.2"/>
<polygon fill="#63b8ff" stroke="#63b8ff" points="1630.49,-132.98 1619.89,-132.92 1628.13,-139.58 1630.49,-132.98"/>
</a>
</g>
</g>
<!-- Node30&#45;&gt;Node3 -->
<g id="edge37_Node000030_Node000003" class="edge">
<title>Node30&#45;&gt;Node3</title>
<g id="a_edge37_Node000030_Node000003"><a xlink:title=" ">
<path fill="none" stroke="#63b8ff" d="M1809.11,-113.61C1806.41,-113.06 1803.72,-112.52 1801.12,-112 1673.68,-86.53 1642.34,-77.23 1514.12,-56 1415.78,-39.71 1300.23,-24.95 1235.25,-17.05"/>
<polygon fill="#63b8ff" stroke="#63b8ff" points="1235.96,-13.61 1225.61,-15.89 1235.12,-20.56 1235.96,-13.61"/>
</a>
</g>
</g>
<!-- Node31 -->
<g id="Node000031" class="node">
<title>Node31</title>
<g id="a_Node000031"><a xlink:href="_item_8h.html" target="_top" xlink:title=" ">
<polygon fill="white" stroke="#666666" points="1979.88,-76 1908.38,-76 1908.38,-56 1979.88,-56 1979.88,-76"/>
<text text-anchor="middle" x="1944.12" y="-62.5" font-family="Helvetica,sans-Serif" font-size="10.00">Items/Item.h</text>
</a>
</g>
</g>
<!-- Node30&#45;&gt;Node31 -->
<g id="edge38_Node000030_Node000031" class="edge">
<title>Node30&#45;&gt;Node31</title>
<g id="a_edge38_Node000030_Node000031"><a xlink:title=" ">
<path fill="none" stroke="#63b8ff" d="M1862.37,-111.59C1877.47,-103.36 1899.65,-91.26 1917.11,-81.74"/>
<polygon fill="#63b8ff" stroke="#63b8ff" points="1918.31,-85.07 1925.42,-77.2 1914.96,-78.92 1918.31,-85.07"/>
</a>
</g>
</g>
<!-- Node34 -->
<g id="Node000034" class="node">
<title>Node34</title>
<g id="a_Node000034"><a xlink:title=" ">
<polygon fill="#e0e0e0" stroke="#999999" points="1725.88,-76 1636.38,-76 1636.38,-56 1725.88,-56 1725.88,-76"/>
<text text-anchor="middle" x="1681.12" y="-62.5" font-family="Helvetica,sans-Serif" font-size="10.00">Soul.generated.h</text>
</a>
</g>
</g>
<!-- Node30&#45;&gt;Node34 -->
<g id="edge42_Node000030_Node000034" class="edge">
<title>Node30&#45;&gt;Node34</title>
<g id="a_edge42_Node000030_Node000034"><a xlink:title=" ">
<path fill="none" stroke="#63b8ff" d="M1816.56,-111.59C1790.03,-102.86 1750.29,-89.77 1720.71,-80.03"/>
<polygon fill="#63b8ff" stroke="#63b8ff" points="1721.95,-76.76 1711.35,-76.95 1719.76,-83.4 1721.95,-76.76"/>
</a>
</g>
</g>
<!-- Node31&#45;&gt;Node3 -->
<g id="edge39_Node000031_Node000003" class="edge">
<title>Node31&#45;&gt;Node3</title>
<g id="a_edge39_Node000031_Node000003"><a xlink:title=" ">
<path fill="none" stroke="#63b8ff" d="M1907.88,-57.97C1903.26,-57.22 1898.59,-56.54 1894.12,-56 1648.45,-26.2 1352.4,-15.48 1235.33,-12.23"/>
<polygon fill="#63b8ff" stroke="#63b8ff" points="1235.52,-8.73 1225.43,-11.96 1235.33,-15.73 1235.52,-8.73"/>
</a>
</g>
</g>
<!-- Node32 -->
<g id="Node000032" class="node">
<title>Node32</title>
<g id="a_Node000032"><a xlink:title=" ">
<polygon fill="#e0e0e0" stroke="#999999" points="1943.88,-20 1818.38,-20 1818.38,0 1943.88,0 1943.88,-20"/>
<text text-anchor="middle" x="1881.12" y="-6.5" font-family="Helvetica,sans-Serif" font-size="10.00">GameFramework/Actor.h</text>
</a>
</g>
</g>
<!-- Node31&#45;&gt;Node32 -->
<g id="edge40_Node000031_Node000032" class="edge">
<title>Node31&#45;&gt;Node32</title>
<g id="a_edge40_Node000031_Node000032"><a xlink:title=" ">
<path fill="none" stroke="#63b8ff" d="M1933.15,-55.59C1924.21,-47.93 1911.35,-36.91 1900.66,-27.75"/>
<polygon fill="#63b8ff" stroke="#63b8ff" points="1902.99,-25.13 1893.12,-21.28 1898.44,-30.45 1902.99,-25.13"/>
</a>
</g>
</g>
<!-- Node33 -->
<g id="Node000033" class="node">
<title>Node33</title>
<g id="a_Node000033"><a xlink:title=" ">
<polygon fill="#e0e0e0" stroke="#999999" points="2051.88,-20 1962.38,-20 1962.38,0 2051.88,0 2051.88,-20"/>
<text text-anchor="middle" x="2007.12" y="-6.5" font-family="Helvetica,sans-Serif" font-size="10.00">Item.generated.h</text>
</a>
</g>
</g>
<!-- Node31&#45;&gt;Node33 -->
<g id="edge41_Node000031_Node000033" class="edge">
<title>Node31&#45;&gt;Node33</title>
<g id="a_edge41_Node000031_Node000033"><a xlink:title=" ">
<path fill="none" stroke="#63b8ff" d="M1955.1,-55.59C1964.04,-47.93 1976.9,-36.91 1987.59,-27.75"/>
<polygon fill="#63b8ff" stroke="#63b8ff" points="1989.81,-30.45 1995.13,-21.28 1985.26,-25.13 1989.81,-30.45"/>
</a>
</g>
</g>
<!-- Node35&#45;&gt;Node3 -->
<g id="edge44_Node000035_Node000003" class="edge">
<title>Node35&#45;&gt;Node3</title>
<g id="a_edge44_Node000035_Node000003"><a xlink:title=" ">
<path fill="none" stroke="#63b8ff" d="M1936.03,-111.81C1922.33,-96.96 1892.92,-68.16 1861.12,-56 1746.87,-12.29 1372.39,-9.89 1235.13,-10.53"/>
<polygon fill="#63b8ff" stroke="#63b8ff" points="1235.24,-7.03 1225.26,-10.59 1235.28,-14.03 1235.24,-7.03"/>
</a>
</g>
</g>
<!-- Node35&#45;&gt;Node31 -->
<g id="edge45_Node000035_Node000031" class="edge">
<title>Node35&#45;&gt;Node31</title>
<g id="a_edge45_Node000035_Node000031"><a xlink:title=" ">
<path fill="none" stroke="#63b8ff" d="M1944.12,-111.59C1944.12,-105.01 1944.12,-95.96 1944.12,-87.73"/>
<polygon fill="#63b8ff" stroke="#63b8ff" points="1947.63,-87.81 1944.13,-77.81 1940.63,-87.81 1947.63,-87.81"/>
</a>
</g>
</g>
<!-- Node36 -->
<g id="Node000036" class="node">
<title>Node36</title>
<g id="a_Node000036"><a xlink:title=" ">
<polygon fill="#e0e0e0" stroke="#999999" points="1852.25,-76 1744,-76 1744,-56 1852.25,-56 1852.25,-76"/>
<text text-anchor="middle" x="1798.12" y="-62.5" font-family="Helvetica,sans-Serif" font-size="10.00">Treasure.generated.h</text>
</a>
</g>
</g>
<!-- Node35&#45;&gt;Node36 -->
<g id="edge46_Node000035_Node000036" class="edge">
<title>Node35&#45;&gt;Node36</title>
<g id="a_edge46_Node000035_Node000036"><a xlink:title=" ">
<path fill="none" stroke="#63b8ff" d="M1918.69,-111.59C1895.39,-102.97 1860.63,-90.12 1834.41,-80.42"/>
<polygon fill="#63b8ff" stroke="#63b8ff" points="1835.77,-77.19 1825.17,-77 1833.34,-83.76 1835.77,-77.19"/>
</a>
</g>
</g>
<!-- Node37&#45;&gt;Node3 -->
<g id="edge48_Node000037_Node000003" class="edge">
<title>Node37&#45;&gt;Node3</title>
<g id="a_edge48_Node000037_Node000003"><a xlink:title=" ">
<path fill="none" stroke="#63b8ff" d="M2064.93,-111.77C2051.04,-96.87 2021.26,-67.99 1989.12,-56 1918.81,-29.76 1401.27,-15.9 1235.24,-12.1"/>
<polygon fill="#63b8ff" stroke="#63b8ff" points="1235.49,-8.6 1225.42,-11.87 1235.33,-15.6 1235.49,-8.6"/>
</a>
</g>
</g>
<!-- Node37&#45;&gt;Node31 -->
<g id="edge49_Node000037_Node000031" class="edge">
<title>Node37&#45;&gt;Node31</title>
<g id="a_edge49_Node000037_Node000031"><a xlink:title=" ">
<path fill="none" stroke="#63b8ff" d="M2050.65,-111.59C2030.34,-103.09 2000.17,-90.46 1977.12,-80.81"/>
<polygon fill="#63b8ff" stroke="#63b8ff" points="1978.74,-77.7 1968.17,-77.06 1976.04,-84.15 1978.74,-77.7"/>
</a>
</g>
</g>
<!-- Node38 -->
<g id="Node000038" class="node">
<title>Node38</title>
<g id="a_Node000038"><a xlink:title=" ">
<polygon fill="#e0e0e0" stroke="#999999" points="2141.75,-76 2036.5,-76 2036.5,-56 2141.75,-56 2141.75,-76"/>
<text text-anchor="middle" x="2089.12" y="-62.5" font-family="Helvetica,sans-Serif" font-size="10.00">Weapon.generated.h</text>
</a>
</g>
</g>
<!-- Node37&#45;&gt;Node38 -->
<g id="edge50_Node000037_Node000038" class="edge">
<title>Node37&#45;&gt;Node38</title>
<g id="a_edge50_Node000037_Node000038"><a xlink:title=" ">
<path fill="none" stroke="#63b8ff" d="M2075.91,-111.59C2077.91,-104.86 2080.67,-95.53 2083.15,-87.15"/>
<polygon fill="#63b8ff" stroke="#63b8ff" points="2086.45,-88.33 2085.94,-77.75 2079.74,-86.34 2086.45,-88.33"/>
</a>
</g>
</g>
</g>
</svg>
