<?xml version="1.0" encoding="UTF-8" standalone="no"?>
<!DOCTYPE svg PUBLIC "-//W3C//DTD SVG 1.1//EN"
 "http://www.w3.org/Graphics/SVG/1.1/DTD/svg11.dtd">
<!-- Generated by graphviz version 12.2.1 (20241206.2353)
 -->
<!-- Title: Source/Slash/Public/Items/Soul.h Pages: 1 -->
<svg width="416pt" height="108pt"
 viewBox="0.00 0.00 416.25 108.00" xmlns="http://www.w3.org/2000/svg" xmlns:xlink="http://www.w3.org/1999/xlink">
<g id="graph0" class="graph" transform="scale(1 1) rotate(0) translate(4 104)">
<title>Source/Slash/Public/Items/Soul.h</title>
<!-- Node1 -->
<g id="Node000001" class="node">
<title>Node1</title>
<g id="a_Node000001"><a xlink:title=" ">
<polygon fill="#999999" stroke="#666666" points="280.38,-100 175.88,-100 175.88,-68 280.38,-68 280.38,-100"/>
<text text-anchor="start" x="183.88" y="-86.5" font-family="Helvetica,sans-Serif" font-size="10.00">Source/Slash/Public</text>
<text text-anchor="middle" x="228.12" y="-74.5" font-family="Helvetica,sans-Serif" font-size="10.00">/Items/Soul.h</text>
</a>
</g>
</g>
<!-- Node2 -->
<g id="Node000002" class="node">
<title>Node2</title>
<g id="a_Node000002"><a xlink:href="_slash_character_8cpp.html" target="_top" xlink:title=" ">
<polygon fill="white" stroke="#666666" points="156.25,-32 0,-32 0,0 156.25,0 156.25,-32"/>
<text text-anchor="start" x="8" y="-18.5" font-family="Helvetica,sans-Serif" font-size="10.00">Source/Slash/Private</text>
<text text-anchor="middle" x="78.12" y="-6.5" font-family="Helvetica,sans-Serif" font-size="10.00">/Characters/SlashCharacter.cpp</text>
</a>
</g>
</g>
<!-- Node1&#45;&gt;Node2 -->
<g id="edge1_Node000001_Node000002" class="edge">
<title>Node1&#45;&gt;Node2</title>
<g id="a_edge1_Node000001_Node000002"><a xlink:title=" ">
<path fill="none" stroke="#63b8ff" d="M182.43,-62.89C160.22,-53.12 133.95,-41.56 113.33,-32.49"/>
<polygon fill="#63b8ff" stroke="#63b8ff" points="181.01,-66.09 191.57,-66.92 183.83,-59.69 181.01,-66.09"/>
</a>
</g>
</g>
<!-- Node3 -->
<g id="Node000003" class="node">
<title>Node3</title>
<g id="a_Node000003"><a xlink:href="_enemy_8cpp.html" target="_top" xlink:title=" ">
<polygon fill="white" stroke="#666666" points="282.25,-32 174,-32 174,0 282.25,0 282.25,-32"/>
<text text-anchor="start" x="182" y="-18.5" font-family="Helvetica,sans-Serif" font-size="10.00">Source/Slash/Private</text>
<text text-anchor="middle" x="228.12" y="-6.5" font-family="Helvetica,sans-Serif" font-size="10.00">/Enemy/Enemy.cpp</text>
</a>
</g>
</g>
<!-- Node1&#45;&gt;Node3 -->
<g id="edge2_Node000001_Node000003" class="edge">
<title>Node1&#45;&gt;Node3</title>
<g id="a_edge2_Node000001_Node000003"><a xlink:title=" ">
<path fill="none" stroke="#63b8ff" d="M228.12,-56.31C228.12,-48.12 228.12,-39.38 228.12,-32.22"/>
<polygon fill="#63b8ff" stroke="#63b8ff" points="224.63,-56.18 228.13,-66.18 231.63,-56.18 224.63,-56.18"/>
</a>
</g>
</g>
<!-- Node4 -->
<g id="Node000004" class="node">
<title>Node4</title>
<g id="a_Node000004"><a xlink:href="_soul_8cpp.html" target="_top" xlink:title=" ">
<polygon fill="white" stroke="#666666" points="408.25,-32 300,-32 300,0 408.25,0 408.25,-32"/>
<text text-anchor="start" x="308" y="-18.5" font-family="Helvetica,sans-Serif" font-size="10.00">Source/Slash/Private</text>
<text text-anchor="middle" x="354.12" y="-6.5" font-family="Helvetica,sans-Serif" font-size="10.00">/Items/Soul.cpp</text>
</a>
</g>
</g>
<!-- Node1&#45;&gt;Node4 -->
<g id="edge3_Node000001_Node000004" class="edge">
<title>Node1&#45;&gt;Node4</title>
<g id="a_edge3_Node000001_Node000004"><a xlink:title=" ">
<path fill="none" stroke="#63b8ff" d="M267.83,-62.2C286.27,-52.54 307.82,-41.26 324.77,-32.38"/>
<polygon fill="#63b8ff" stroke="#63b8ff" points="266.24,-59.08 259.01,-66.82 269.49,-65.28 266.24,-59.08"/>
</a>
</g>
</g>
</g>
</svg>
