<?xml version="1.0" encoding="UTF-8" standalone="no"?>
<!DOCTYPE svg PUBLIC "-//W3C//DTD SVG 1.1//EN"
 "http://www.w3.org/Graphics/SVG/1.1/DTD/svg11.dtd">
<!-- Generated by graphviz version 12.2.1 (20241206.2353)
 -->
<!-- Title: Source/Slash/Private/Items/Soul.cpp Pages: 1 -->
<svg width="818pt" height="208pt"
 viewBox="0.00 0.00 818.25 208.00" xmlns="http://www.w3.org/2000/svg" xmlns:xlink="http://www.w3.org/1999/xlink">
<g id="graph0" class="graph" transform="scale(1 1) rotate(0) translate(4 204)">
<title>Source/Slash/Private/Items/Soul.cpp</title>
<!-- Node1 -->
<g id="Node000001" class="node">
<title>Node1</title>
<g id="a_Node000001"><a xlink:title=" ">
<polygon fill="#999999" stroke="#666666" points="557.88,-200 449.62,-200 449.62,-168 557.88,-168 557.88,-200"/>
<text text-anchor="start" x="457.62" y="-186.5" font-family="Helvetica,sans-Serif" font-size="10.00">Source/Slash/Private</text>
<text text-anchor="middle" x="503.75" y="-174.5" font-family="Helvetica,sans-Serif" font-size="10.00">/Items/Soul.cpp</text>
</a>
</g>
</g>
<!-- Node2 -->
<g id="Node000002" class="node">
<title>Node2</title>
<g id="a_Node000002"><a xlink:href="_soul_8h.html" target="_top" xlink:title=" ">
<polygon fill="white" stroke="#666666" points="330.5,-132 259,-132 259,-112 330.5,-112 330.5,-132"/>
<text text-anchor="middle" x="294.75" y="-118.5" font-family="Helvetica,sans-Serif" font-size="10.00">Items/Soul.h</text>
</a>
</g>
</g>
<!-- Node1&#45;&gt;Node2 -->
<g id="edge1_Node000001_Node000002" class="edge">
<title>Node1&#45;&gt;Node2</title>
<g id="a_edge1_Node000001_Node000002"><a xlink:title=" ">
<path fill="none" stroke="#63b8ff" d="M449.93,-167.55C415.41,-157.64 371.17,-144.94 338.76,-135.64"/>
<polygon fill="#63b8ff" stroke="#63b8ff" points="339.86,-132.31 329.28,-132.91 337.93,-139.04 339.86,-132.31"/>
</a>
</g>
</g>
<!-- Node8 -->
<g id="Node000008" class="node">
<title>Node8</title>
<g id="a_Node000008"><a xlink:title=" ">
<polygon fill="#e0e0e0" stroke="#999999" points="640.75,-132 516.75,-132 516.75,-112 640.75,-112 640.75,-132"/>
<text text-anchor="middle" x="578.75" y="-118.5" font-family="Helvetica,sans-Serif" font-size="10.00">NiagaraFunctionLibrary.h</text>
</a>
</g>
</g>
<!-- Node1&#45;&gt;Node8 -->
<g id="edge8_Node000001_Node000008" class="edge">
<title>Node1&#45;&gt;Node8</title>
<g id="a_edge8_Node000001_Node000008"><a xlink:title=" ">
<path fill="none" stroke="#63b8ff" d="M523.06,-167.55C533.81,-158.95 547.18,-148.26 558.12,-139.5"/>
<polygon fill="#63b8ff" stroke="#63b8ff" points="560.19,-142.33 565.81,-133.35 555.81,-136.87 560.19,-142.33"/>
</a>
</g>
</g>
<!-- Node9 -->
<g id="Node000009" class="node">
<title>Node9</title>
<g id="a_Node000009"><a xlink:href="_pickup_interface_8h.html" target="_top" xlink:title=" ">
<polygon fill="white" stroke="#666666" points="498.25,-132 359.25,-132 359.25,-112 498.25,-112 498.25,-132"/>
<text text-anchor="middle" x="428.75" y="-118.5" font-family="Helvetica,sans-Serif" font-size="10.00">Interfaces/PickupInterface.h</text>
</a>
</g>
</g>
<!-- Node1&#45;&gt;Node9 -->
<g id="edge9_Node000001_Node000009" class="edge">
<title>Node1&#45;&gt;Node9</title>
<g id="a_edge9_Node000001_Node000009"><a xlink:title=" ">
<path fill="none" stroke="#63b8ff" d="M484.44,-167.55C473.69,-158.95 460.32,-148.26 449.38,-139.5"/>
<polygon fill="#63b8ff" stroke="#63b8ff" points="451.69,-136.87 441.69,-133.35 447.31,-142.33 451.69,-136.87"/>
</a>
</g>
</g>
<!-- Node12 -->
<g id="Node000012" class="node">
<title>Node12</title>
<g id="a_Node000012"><a xlink:title=" ">
<polygon fill="#e0e0e0" stroke="#999999" points="810.25,-132 659.25,-132 659.25,-112 810.25,-112 810.25,-132"/>
<text text-anchor="middle" x="734.75" y="-118.5" font-family="Helvetica,sans-Serif" font-size="10.00">Kismet/KismetSystemLibrary.h</text>
</a>
</g>
</g>
<!-- Node1&#45;&gt;Node12 -->
<g id="edge13_Node000001_Node000012" class="edge">
<title>Node1&#45;&gt;Node12</title>
<g id="a_edge13_Node000001_Node000012"><a xlink:title=" ">
<path fill="none" stroke="#63b8ff" d="M558.2,-168.86C597.37,-158.68 649.68,-145.1 687.17,-135.36"/>
<polygon fill="#63b8ff" stroke="#63b8ff" points="688.04,-138.75 696.84,-132.85 686.28,-131.97 688.04,-138.75"/>
</a>
</g>
</g>
<!-- Node3 -->
<g id="Node000003" class="node">
<title>Node3</title>
<g id="a_Node000003"><a xlink:title=" ">
<polygon fill="#e0e0e0" stroke="#999999" points="330.25,-20 251.25,-20 251.25,0 330.25,0 330.25,-20"/>
<text text-anchor="middle" x="290.75" y="-6.5" font-family="Helvetica,sans-Serif" font-size="10.00">CoreMinimal.h</text>
</a>
</g>
</g>
<!-- Node2&#45;&gt;Node3 -->
<g id="edge2_Node000002_Node000003" class="edge">
<title>Node2&#45;&gt;Node3</title>
<g id="a_edge2_Node000002_Node000003"><a xlink:title=" ">
<path fill="none" stroke="#63b8ff" d="M288.21,-111.52C282.59,-102.75 274.91,-89.14 271.75,-76 268,-60.44 273.61,-43.05 279.69,-30.17"/>
<polygon fill="#63b8ff" stroke="#63b8ff" points="282.68,-32 284.22,-21.52 276.48,-28.76 282.68,-32"/>
</a>
</g>
</g>
<!-- Node4 -->
<g id="Node000004" class="node">
<title>Node4</title>
<g id="a_Node000004"><a xlink:href="_item_8h.html" target="_top" xlink:title=" ">
<polygon fill="white" stroke="#666666" points="224.5,-76 153,-76 153,-56 224.5,-56 224.5,-76"/>
<text text-anchor="middle" x="188.75" y="-62.5" font-family="Helvetica,sans-Serif" font-size="10.00">Items/Item.h</text>
</a>
</g>
</g>
<!-- Node2&#45;&gt;Node4 -->
<g id="edge3_Node000002_Node000004" class="edge">
<title>Node2&#45;&gt;Node4</title>
<g id="a_edge3_Node000002_Node000004"><a xlink:title=" ">
<path fill="none" stroke="#63b8ff" d="M276.29,-111.59C260.05,-103.32 236.14,-91.14 217.42,-81.6"/>
<polygon fill="#63b8ff" stroke="#63b8ff" points="219.21,-78.59 208.71,-77.17 216.03,-84.82 219.21,-78.59"/>
</a>
</g>
</g>
<!-- Node7 -->
<g id="Node000007" class="node">
<title>Node7</title>
<g id="a_Node000007"><a xlink:title=" ">
<polygon fill="#e0e0e0" stroke="#999999" points="370.5,-76 281,-76 281,-56 370.5,-56 370.5,-76"/>
<text text-anchor="middle" x="325.75" y="-62.5" font-family="Helvetica,sans-Serif" font-size="10.00">Soul.generated.h</text>
</a>
</g>
</g>
<!-- Node2&#45;&gt;Node7 -->
<g id="edge7_Node000002_Node000007" class="edge">
<title>Node2&#45;&gt;Node7</title>
<g id="a_edge7_Node000002_Node000007"><a xlink:title=" ">
<path fill="none" stroke="#63b8ff" d="M300.15,-111.59C304.19,-104.55 309.87,-94.67 314.84,-86"/>
<polygon fill="#63b8ff" stroke="#63b8ff" points="317.72,-88.03 319.66,-77.61 311.64,-84.54 317.72,-88.03"/>
</a>
</g>
</g>
<!-- Node4&#45;&gt;Node3 -->
<g id="edge4_Node000004_Node000003" class="edge">
<title>Node4&#45;&gt;Node3</title>
<g id="a_edge4_Node000004_Node000003"><a xlink:title=" ">
<path fill="none" stroke="#63b8ff" d="M206.52,-55.59C222.07,-47.36 244.93,-35.26 262.91,-25.74"/>
<polygon fill="#63b8ff" stroke="#63b8ff" points="264.31,-28.96 271.51,-21.19 261.03,-22.77 264.31,-28.96"/>
</a>
</g>
</g>
<!-- Node5 -->
<g id="Node000005" class="node">
<title>Node5</title>
<g id="a_Node000005"><a xlink:title=" ">
<polygon fill="#e0e0e0" stroke="#999999" points="125.5,-20 0,-20 0,0 125.5,0 125.5,-20"/>
<text text-anchor="middle" x="62.75" y="-6.5" font-family="Helvetica,sans-Serif" font-size="10.00">GameFramework/Actor.h</text>
</a>
</g>
</g>
<!-- Node4&#45;&gt;Node5 -->
<g id="edge5_Node000004_Node000005" class="edge">
<title>Node4&#45;&gt;Node5</title>
<g id="a_edge5_Node000004_Node000005"><a xlink:title=" ">
<path fill="none" stroke="#63b8ff" d="M166.8,-55.59C147.05,-47.13 117.76,-34.58 95.28,-24.94"/>
<polygon fill="#63b8ff" stroke="#63b8ff" points="96.83,-21.8 86.26,-21.08 94.07,-28.23 96.83,-21.8"/>
</a>
</g>
</g>
<!-- Node6 -->
<g id="Node000006" class="node">
<title>Node6</title>
<g id="a_Node000006"><a xlink:title=" ">
<polygon fill="#e0e0e0" stroke="#999999" points="233.5,-20 144,-20 144,0 233.5,0 233.5,-20"/>
<text text-anchor="middle" x="188.75" y="-6.5" font-family="Helvetica,sans-Serif" font-size="10.00">Item.generated.h</text>
</a>
</g>
</g>
<!-- Node4&#45;&gt;Node6 -->
<g id="edge6_Node000004_Node000006" class="edge">
<title>Node4&#45;&gt;Node6</title>
<g id="a_edge6_Node000004_Node000006"><a xlink:title=" ">
<path fill="none" stroke="#63b8ff" d="M188.75,-55.59C188.75,-49.01 188.75,-39.96 188.75,-31.73"/>
<polygon fill="#63b8ff" stroke="#63b8ff" points="192.25,-31.81 188.75,-21.81 185.25,-31.81 192.25,-31.81"/>
</a>
</g>
</g>
<!-- Node9&#45;&gt;Node3 -->
<g id="edge10_Node000009_Node000003" class="edge">
<title>Node9&#45;&gt;Node3</title>
<g id="a_edge10_Node000009_Node000003"><a xlink:title=" ">
<path fill="none" stroke="#63b8ff" d="M423.52,-111.53C415.56,-97.82 399.26,-72.32 379.75,-56 364.13,-42.94 344.08,-32.38 326.97,-24.78"/>
<polygon fill="#63b8ff" stroke="#63b8ff" points="328.72,-21.73 318.15,-21.03 325.98,-28.17 328.72,-21.73"/>
</a>
</g>
</g>
<!-- Node10 -->
<g id="Node000010" class="node">
<title>Node10</title>
<g id="a_Node000010"><a xlink:title=" ">
<polygon fill="#e0e0e0" stroke="#999999" points="528.5,-76 427,-76 427,-56 528.5,-56 528.5,-76"/>
<text text-anchor="middle" x="477.75" y="-62.5" font-family="Helvetica,sans-Serif" font-size="10.00">UObject/Interface.h</text>
</a>
</g>
</g>
<!-- Node9&#45;&gt;Node10 -->
<g id="edge11_Node000009_Node000010" class="edge">
<title>Node9&#45;&gt;Node10</title>
<g id="a_edge11_Node000009_Node000010"><a xlink:title=" ">
<path fill="none" stroke="#63b8ff" d="M437.29,-111.59C444.03,-104.16 453.64,-93.58 461.79,-84.58"/>
<polygon fill="#63b8ff" stroke="#63b8ff" points="464.17,-87.18 468.3,-77.42 458.98,-82.47 464.17,-87.18"/>
</a>
</g>
</g>
<!-- Node11 -->
<g id="Node000011" class="node">
<title>Node11</title>
<g id="a_Node000011"><a xlink:title=" ">
<polygon fill="#e0e0e0" stroke="#999999" points="684.88,-76 546.62,-76 546.62,-56 684.88,-56 684.88,-76"/>
<text text-anchor="middle" x="615.75" y="-62.5" font-family="Helvetica,sans-Serif" font-size="10.00">PickupInterface.generated.h</text>
</a>
</g>
</g>
<!-- Node9&#45;&gt;Node11 -->
<g id="edge12_Node000009_Node000011" class="edge">
<title>Node9&#45;&gt;Node11</title>
<g id="a_edge12_Node000009_Node000011"><a xlink:title=" ">
<path fill="none" stroke="#63b8ff" d="M461.32,-111.59C491.97,-102.74 538.09,-89.43 571.95,-79.65"/>
<polygon fill="#63b8ff" stroke="#63b8ff" points="572.83,-83.04 581.47,-76.9 570.89,-76.31 572.83,-83.04"/>
</a>
</g>
</g>
</g>
</svg>
