<?xml version="1.0" encoding="UTF-8" standalone="no"?>
<!DOCTYPE svg PUBLIC "-//W3C//DTD SVG 1.1//EN"
 "http://www.w3.org/Graphics/SVG/1.1/DTD/svg11.dtd">
<!-- Generated by graphviz version 12.2.1 (20241206.2353)
 -->
<!-- Title: Source/Slash/Private/Items/Treasure.cpp Pages: 1 -->
<svg width="1143pt" height="264pt"
 viewBox="0.00 0.00 1142.88 264.00" xmlns="http://www.w3.org/2000/svg" xmlns:xlink="http://www.w3.org/1999/xlink">
<g id="graph0" class="graph" transform="scale(1 1) rotate(0) translate(4 260)">
<title>Source/Slash/Private/Items/Treasure.cpp</title>
<!-- Node1 -->
<g id="Node000001" class="node">
<title>Node1</title>
<g id="a_Node000001"><a xlink:title=" ">
<polygon fill="#999999" stroke="#666666" points="452.88,-256 344.62,-256 344.62,-224 452.88,-224 452.88,-256"/>
<text text-anchor="start" x="352.62" y="-242.5" font-family="Helvetica,sans-Serif" font-size="10.00">Source/Slash/Private</text>
<text text-anchor="middle" x="398.75" y="-230.5" font-family="Helvetica,sans-Serif" font-size="10.00">/Items/Treasure.cpp</text>
</a>
</g>
</g>
<!-- Node2 -->
<g id="Node000002" class="node">
<title>Node2</title>
<g id="a_Node000002"><a xlink:href="_treasure_8h.html" target="_top" xlink:title=" ">
<polygon fill="white" stroke="#666666" points="152.88,-132 62.62,-132 62.62,-112 152.88,-112 152.88,-132"/>
<text text-anchor="middle" x="107.75" y="-118.5" font-family="Helvetica,sans-Serif" font-size="10.00">Items/Treasure.h</text>
</a>
</g>
</g>
<!-- Node1&#45;&gt;Node2 -->
<g id="edge1_Node000001_Node000002" class="edge">
<title>Node1&#45;&gt;Node2</title>
<g id="a_edge1_Node000001_Node000002"><a xlink:title=" ">
<path fill="none" stroke="#63b8ff" d="M360.11,-223.6C302.83,-200.76 196.31,-158.3 141.81,-136.58"/>
<polygon fill="#63b8ff" stroke="#63b8ff" points="143.3,-133.41 132.72,-132.95 140.71,-139.91 143.3,-133.41"/>
</a>
</g>
</g>
<!-- Node8 -->
<g id="Node000008" class="node">
<title>Node8</title>
<g id="a_Node000008"><a xlink:href="_slash_character_8h.html" target="_top" xlink:title=" ">
<polygon fill="white" stroke="#666666" points="470.12,-188 327.38,-188 327.38,-168 470.12,-168 470.12,-188"/>
<text text-anchor="middle" x="398.75" y="-174.5" font-family="Helvetica,sans-Serif" font-size="10.00">Characters/SlashCharacter.h</text>
</a>
</g>
</g>
<!-- Node1&#45;&gt;Node8 -->
<g id="edge8_Node000001_Node000008" class="edge">
<title>Node1&#45;&gt;Node8</title>
<g id="a_edge8_Node000001_Node000008"><a xlink:title=" ">
<path fill="none" stroke="#63b8ff" d="M398.75,-223.55C398.75,-216.34 398.75,-207.66 398.75,-199.88"/>
<polygon fill="#63b8ff" stroke="#63b8ff" points="402.25,-199.92 398.75,-189.92 395.25,-199.92 402.25,-199.92"/>
</a>
</g>
</g>
<!-- Node19 -->
<g id="Node000019" class="node">
<title>Node19</title>
<g id="a_Node000019"><a xlink:title=" ">
<polygon fill="#e0e0e0" stroke="#999999" points="621.25,-188 488.25,-188 488.25,-168 621.25,-168 621.25,-188"/>
<text text-anchor="middle" x="554.75" y="-174.5" font-family="Helvetica,sans-Serif" font-size="10.00">Kismet/GameplayStatics.h</text>
</a>
</g>
</g>
<!-- Node1&#45;&gt;Node19 -->
<g id="edge24_Node000001_Node000019" class="edge">
<title>Node1&#45;&gt;Node19</title>
<g id="a_edge24_Node000001_Node000019"><a xlink:title=" ">
<path fill="none" stroke="#63b8ff" d="M438.92,-223.55C463.86,-213.96 495.61,-201.75 519.56,-192.54"/>
<polygon fill="#63b8ff" stroke="#63b8ff" points="520.8,-195.81 528.88,-188.95 518.29,-189.27 520.8,-195.81"/>
</a>
</g>
</g>
<!-- Node3 -->
<g id="Node000003" class="node">
<title>Node3</title>
<g id="a_Node000003"><a xlink:title=" ">
<polygon fill="#e0e0e0" stroke="#999999" points="473.25,-20 394.25,-20 394.25,0 473.25,0 473.25,-20"/>
<text text-anchor="middle" x="433.75" y="-6.5" font-family="Helvetica,sans-Serif" font-size="10.00">CoreMinimal.h</text>
</a>
</g>
</g>
<!-- Node2&#45;&gt;Node3 -->
<g id="edge2_Node000002_Node000003" class="edge">
<title>Node2&#45;&gt;Node3</title>
<g id="a_edge2_Node000002_Node000003"><a xlink:title=" ">
<path fill="none" stroke="#63b8ff" d="M150.4,-111.53C185.3,-103.36 235.73,-90.6 278.75,-76 323.24,-60.9 373.08,-39.08 403.94,-24.97"/>
<polygon fill="#63b8ff" stroke="#63b8ff" points="405.04,-28.32 412.65,-20.95 402.11,-21.96 405.04,-28.32"/>
</a>
</g>
</g>
<!-- Node4 -->
<g id="Node000004" class="node">
<title>Node4</title>
<g id="a_Node000004"><a xlink:href="_item_8h.html" target="_top" xlink:title=" ">
<polygon fill="white" stroke="#666666" points="143.5,-76 72,-76 72,-56 143.5,-56 143.5,-76"/>
<text text-anchor="middle" x="107.75" y="-62.5" font-family="Helvetica,sans-Serif" font-size="10.00">Items/Item.h</text>
</a>
</g>
</g>
<!-- Node2&#45;&gt;Node4 -->
<g id="edge3_Node000002_Node000004" class="edge">
<title>Node2&#45;&gt;Node4</title>
<g id="a_edge3_Node000002_Node000004"><a xlink:title=" ">
<path fill="none" stroke="#63b8ff" d="M107.75,-111.59C107.75,-105.01 107.75,-95.96 107.75,-87.73"/>
<polygon fill="#63b8ff" stroke="#63b8ff" points="111.25,-87.81 107.75,-77.81 104.25,-87.81 111.25,-87.81"/>
</a>
</g>
</g>
<!-- Node7 -->
<g id="Node000007" class="node">
<title>Node7</title>
<g id="a_Node000007"><a xlink:title=" ">
<polygon fill="#e0e0e0" stroke="#999999" points="269.88,-76 161.62,-76 161.62,-56 269.88,-56 269.88,-76"/>
<text text-anchor="middle" x="215.75" y="-62.5" font-family="Helvetica,sans-Serif" font-size="10.00">Treasure.generated.h</text>
</a>
</g>
</g>
<!-- Node2&#45;&gt;Node7 -->
<g id="edge7_Node000002_Node000007" class="edge">
<title>Node2&#45;&gt;Node7</title>
<g id="a_edge7_Node000002_Node000007"><a xlink:title=" ">
<path fill="none" stroke="#63b8ff" d="M126.56,-111.59C143.11,-103.32 167.46,-91.14 186.54,-81.6"/>
<polygon fill="#63b8ff" stroke="#63b8ff" points="188.06,-84.76 195.44,-77.16 184.93,-78.5 188.06,-84.76"/>
</a>
</g>
</g>
<!-- Node4&#45;&gt;Node3 -->
<g id="edge4_Node000004_Node000003" class="edge">
<title>Node4&#45;&gt;Node3</title>
<g id="a_edge4_Node000004_Node000003"><a xlink:title=" ">
<path fill="none" stroke="#63b8ff" d="M143.59,-57.7C146.68,-57.11 149.77,-56.54 152.75,-56 233.04,-41.55 326.66,-27.02 383.01,-18.52"/>
<polygon fill="#63b8ff" stroke="#63b8ff" points="383.25,-22.03 392.62,-17.08 382.21,-15.1 383.25,-22.03"/>
</a>
</g>
</g>
<!-- Node5 -->
<g id="Node000005" class="node">
<title>Node5</title>
<g id="a_Node000005"><a xlink:title=" ">
<polygon fill="#e0e0e0" stroke="#999999" points="233.5,-20 108,-20 108,0 233.5,0 233.5,-20"/>
<text text-anchor="middle" x="170.75" y="-6.5" font-family="Helvetica,sans-Serif" font-size="10.00">GameFramework/Actor.h</text>
</a>
</g>
</g>
<!-- Node4&#45;&gt;Node5 -->
<g id="edge5_Node000004_Node000005" class="edge">
<title>Node4&#45;&gt;Node5</title>
<g id="a_edge5_Node000004_Node000005"><a xlink:title=" ">
<path fill="none" stroke="#63b8ff" d="M118.72,-55.59C127.67,-47.93 140.52,-36.91 151.21,-27.75"/>
<polygon fill="#63b8ff" stroke="#63b8ff" points="153.44,-30.45 158.75,-21.28 148.88,-25.13 153.44,-30.45"/>
</a>
</g>
</g>
<!-- Node6 -->
<g id="Node000006" class="node">
<title>Node6</title>
<g id="a_Node000006"><a xlink:title=" ">
<polygon fill="#e0e0e0" stroke="#999999" points="89.5,-20 0,-20 0,0 89.5,0 89.5,-20"/>
<text text-anchor="middle" x="44.75" y="-6.5" font-family="Helvetica,sans-Serif" font-size="10.00">Item.generated.h</text>
</a>
</g>
</g>
<!-- Node4&#45;&gt;Node6 -->
<g id="edge6_Node000004_Node000006" class="edge">
<title>Node4&#45;&gt;Node6</title>
<g id="a_edge6_Node000004_Node000006"><a xlink:title=" ">
<path fill="none" stroke="#63b8ff" d="M96.78,-55.59C87.83,-47.93 74.98,-36.91 64.29,-27.75"/>
<polygon fill="#63b8ff" stroke="#63b8ff" points="66.62,-25.13 56.75,-21.28 62.06,-30.45 66.62,-25.13"/>
</a>
</g>
</g>
<!-- Node8&#45;&gt;Node3 -->
<g id="edge9_Node000008_Node000003" class="edge">
<title>Node8&#45;&gt;Node3</title>
<g id="a_edge9_Node000008_Node000003"><a xlink:title=" ">
<path fill="none" stroke="#63b8ff" d="M407.11,-167.81C414.33,-159.24 424.27,-145.75 428.75,-132 439.73,-98.28 438.41,-56.46 436.23,-31.86"/>
<polygon fill="#63b8ff" stroke="#63b8ff" points="439.71,-31.5 435.2,-21.91 432.75,-32.22 439.71,-31.5"/>
</a>
</g>
</g>
<!-- Node9 -->
<g id="Node000009" class="node">
<title>Node9</title>
<g id="a_Node000009"><a xlink:href="_base_character_8h.html" target="_top" xlink:title=" ">
<polygon fill="white" stroke="#666666" points="598.5,-132 509,-132 509,-112 598.5,-112 598.5,-132"/>
<text text-anchor="middle" x="553.75" y="-118.5" font-family="Helvetica,sans-Serif" font-size="10.00">BaseCharacter.h</text>
</a>
</g>
</g>
<!-- Node8&#45;&gt;Node9 -->
<g id="edge10_Node000008_Node000009" class="edge">
<title>Node8&#45;&gt;Node9</title>
<g id="a_edge10_Node000008_Node000009"><a xlink:title=" ">
<path fill="none" stroke="#63b8ff" d="M425.75,-167.59C450.71,-158.9 488.05,-145.89 515.97,-136.16"/>
<polygon fill="#63b8ff" stroke="#63b8ff" points="516.82,-139.57 525.11,-132.98 514.52,-132.96 516.82,-139.57"/>
</a>
</g>
</g>
<!-- Node15 -->
<g id="Node000015" class="node">
<title>Node15</title>
<g id="a_Node000015"><a xlink:href="_character_types_8h.html" target="_top" xlink:title=" ">
<polygon fill="white" stroke="#666666" points="264.38,-132 171.12,-132 171.12,-112 264.38,-112 264.38,-132"/>
<text text-anchor="middle" x="217.75" y="-118.5" font-family="Helvetica,sans-Serif" font-size="10.00">CharacterTypes.h</text>
</a>
</g>
</g>
<!-- Node8&#45;&gt;Node15 -->
<g id="edge18_Node000008_Node000015" class="edge">
<title>Node8&#45;&gt;Node15</title>
<g id="a_edge18_Node000008_Node000015"><a xlink:title=" ">
<path fill="none" stroke="#63b8ff" d="M367.22,-167.59C337.56,-158.74 292.92,-145.43 260.14,-135.65"/>
<polygon fill="#63b8ff" stroke="#63b8ff" points="261.56,-132.42 250.97,-132.91 259.56,-139.13 261.56,-132.42"/>
</a>
</g>
</g>
<!-- Node16 -->
<g id="Node000016" class="node">
<title>Node16</title>
<g id="a_Node000016"><a xlink:href="_pickup_interface_8h.html" target="_top" xlink:title=" ">
<polygon fill="white" stroke="#666666" points="1076.25,-76 937.25,-76 937.25,-56 1076.25,-56 1076.25,-76"/>
<text text-anchor="middle" x="1006.75" y="-62.5" font-family="Helvetica,sans-Serif" font-size="10.00">Interfaces/PickupInterface.h</text>
</a>
</g>
</g>
<!-- Node8&#45;&gt;Node16 -->
<g id="edge19_Node000008_Node000016" class="edge">
<title>Node8&#45;&gt;Node16</title>
<g id="a_edge19_Node000008_Node000016"><a xlink:title=" ">
<path fill="none" stroke="#63b8ff" d="M451.11,-167.53C562.45,-147.38 822.36,-100.36 943.06,-78.52"/>
<polygon fill="#63b8ff" stroke="#63b8ff" points="943.59,-81.98 952.81,-76.76 942.34,-75.1 943.59,-81.98"/>
</a>
</g>
</g>
<!-- Node18 -->
<g id="Node000018" class="node">
<title>Node18</title>
<g id="a_Node000018"><a xlink:title=" ">
<polygon fill="#e0e0e0" stroke="#999999" points="419.5,-132 282,-132 282,-112 419.5,-112 419.5,-132"/>
<text text-anchor="middle" x="350.75" y="-118.5" font-family="Helvetica,sans-Serif" font-size="10.00">SlashCharacter.generated.h</text>
</a>
</g>
</g>
<!-- Node8&#45;&gt;Node18 -->
<g id="edge23_Node000008_Node000018" class="edge">
<title>Node8&#45;&gt;Node18</title>
<g id="a_edge23_Node000008_Node000018"><a xlink:title=" ">
<path fill="none" stroke="#63b8ff" d="M390.39,-167.59C383.85,-160.24 374.57,-149.8 366.63,-140.87"/>
<polygon fill="#63b8ff" stroke="#63b8ff" points="369.28,-138.58 360.02,-133.43 364.05,-143.23 369.28,-138.58"/>
</a>
</g>
</g>
<!-- Node9&#45;&gt;Node3 -->
<g id="edge11_Node000009_Node000003" class="edge">
<title>Node9&#45;&gt;Node3</title>
<g id="a_edge11_Node000009_Node000003"><a xlink:title=" ">
<path fill="none" stroke="#63b8ff" d="M529.64,-111.62C512.3,-103.99 489.17,-91.88 472.75,-76 459.45,-63.13 448.99,-44.79 442.27,-30.87"/>
<polygon fill="#63b8ff" stroke="#63b8ff" points="445.47,-29.46 438.15,-21.81 439.1,-32.36 445.47,-29.46"/>
</a>
</g>
</g>
<!-- Node10 -->
<g id="Node000010" class="node">
<title>Node10</title>
<g id="a_Node000010"><a xlink:title=" ">
<polygon fill="#e0e0e0" stroke="#999999" points="626.25,-76 481.25,-76 481.25,-56 626.25,-56 626.25,-76"/>
<text text-anchor="middle" x="553.75" y="-62.5" font-family="Helvetica,sans-Serif" font-size="10.00">GameFramework/Character.h</text>
</a>
</g>
</g>
<!-- Node9&#45;&gt;Node10 -->
<g id="edge12_Node000009_Node000010" class="edge">
<title>Node9&#45;&gt;Node10</title>
<g id="a_edge12_Node000009_Node000010"><a xlink:title=" ">
<path fill="none" stroke="#63b8ff" d="M553.75,-111.59C553.75,-105.01 553.75,-95.96 553.75,-87.73"/>
<polygon fill="#63b8ff" stroke="#63b8ff" points="557.25,-87.81 553.75,-77.81 550.25,-87.81 557.25,-87.81"/>
</a>
</g>
</g>
<!-- Node11 -->
<g id="Node000011" class="node">
<title>Node11</title>
<g id="a_Node000011"><a xlink:href="_hit_interface_8h.html" target="_top" xlink:title=" ">
<polygon fill="white" stroke="#666666" points="919.62,-76 797.88,-76 797.88,-56 919.62,-56 919.62,-76"/>
<text text-anchor="middle" x="858.75" y="-62.5" font-family="Helvetica,sans-Serif" font-size="10.00">Interfaces/HitInterface.h</text>
</a>
</g>
</g>
<!-- Node9&#45;&gt;Node11 -->
<g id="edge13_Node000009_Node000011" class="edge">
<title>Node9&#45;&gt;Node11</title>
<g id="a_edge13_Node000009_Node000011"><a xlink:title=" ">
<path fill="none" stroke="#63b8ff" d="M598.75,-113.03C650.44,-103.88 735.64,-88.8 794.34,-78.4"/>
<polygon fill="#63b8ff" stroke="#63b8ff" points="794.61,-81.91 803.85,-76.72 793.39,-75.02 794.61,-81.91"/>
</a>
</g>
</g>
<!-- Node14 -->
<g id="Node000014" class="node">
<title>Node14</title>
<g id="a_Node000014"><a xlink:title=" ">
<polygon fill="#e0e0e0" stroke="#999999" points="779.38,-76 644.12,-76 644.12,-56 779.38,-56 779.38,-76"/>
<text text-anchor="middle" x="711.75" y="-62.5" font-family="Helvetica,sans-Serif" font-size="10.00">BaseCharacter.generated.h</text>
</a>
</g>
</g>
<!-- Node9&#45;&gt;Node14 -->
<g id="edge17_Node000009_Node000014" class="edge">
<title>Node9&#45;&gt;Node14</title>
<g id="a_edge17_Node000009_Node000014"><a xlink:title=" ">
<path fill="none" stroke="#63b8ff" d="M581.27,-111.59C606.72,-102.9 644.78,-89.89 673.24,-80.16"/>
<polygon fill="#63b8ff" stroke="#63b8ff" points="674.25,-83.52 682.58,-76.97 671.99,-76.89 674.25,-83.52"/>
</a>
</g>
</g>
<!-- Node11&#45;&gt;Node3 -->
<g id="edge14_Node000011_Node000003" class="edge">
<title>Node11&#45;&gt;Node3</title>
<g id="a_edge14_Node000011_Node000003"><a xlink:title=" ">
<path fill="none" stroke="#63b8ff" d="M797.67,-57.14C794.65,-56.75 791.67,-56.37 788.75,-56 680.69,-42.2 554.1,-26.19 485.07,-17.48"/>
<polygon fill="#63b8ff" stroke="#63b8ff" points="485.54,-14.01 475.18,-16.23 484.67,-20.95 485.54,-14.01"/>
</a>
</g>
</g>
<!-- Node12 -->
<g id="Node000012" class="node">
<title>Node12</title>
<g id="a_Node000012"><a xlink:title=" ">
<polygon fill="#e0e0e0" stroke="#999999" points="978.5,-20 877,-20 877,0 978.5,0 978.5,-20"/>
<text text-anchor="middle" x="927.75" y="-6.5" font-family="Helvetica,sans-Serif" font-size="10.00">UObject/Interface.h</text>
</a>
</g>
</g>
<!-- Node11&#45;&gt;Node12 -->
<g id="edge15_Node000011_Node000012" class="edge">
<title>Node11&#45;&gt;Node12</title>
<g id="a_edge15_Node000011_Node000012"><a xlink:title=" ">
<path fill="none" stroke="#63b8ff" d="M870.77,-55.59C880.76,-47.77 895.21,-36.46 907.06,-27.19"/>
<polygon fill="#63b8ff" stroke="#63b8ff" points="908.96,-30.15 914.68,-21.23 904.64,-24.64 908.96,-30.15"/>
</a>
</g>
</g>
<!-- Node13 -->
<g id="Node000013" class="node">
<title>Node13</title>
<g id="a_Node000013"><a xlink:title=" ">
<polygon fill="#e0e0e0" stroke="#999999" points="859.25,-20 738.25,-20 738.25,0 859.25,0 859.25,-20"/>
<text text-anchor="middle" x="798.75" y="-6.5" font-family="Helvetica,sans-Serif" font-size="10.00">HitInterface.generated.h</text>
</a>
</g>
</g>
<!-- Node11&#45;&gt;Node13 -->
<g id="edge16_Node000011_Node000013" class="edge">
<title>Node11&#45;&gt;Node13</title>
<g id="a_edge16_Node000011_Node000013"><a xlink:title=" ">
<path fill="none" stroke="#63b8ff" d="M848.3,-55.59C839.78,-47.93 827.54,-36.91 817.36,-27.75"/>
<polygon fill="#63b8ff" stroke="#63b8ff" points="819.98,-25.4 810.21,-21.31 815.3,-30.6 819.98,-25.4"/>
</a>
</g>
</g>
<!-- Node16&#45;&gt;Node3 -->
<g id="edge20_Node000016_Node000003" class="edge">
<title>Node16&#45;&gt;Node3</title>
<g id="a_edge20_Node000016_Node000003"><a xlink:title=" ">
<path fill="none" stroke="#63b8ff" d="M937.02,-56.87C934.23,-56.57 931.46,-56.28 928.75,-56 766.75,-39.29 574.58,-22.76 484.77,-15.23"/>
<polygon fill="#63b8ff" stroke="#63b8ff" points="485.33,-11.76 475.07,-14.42 484.74,-18.74 485.33,-11.76"/>
</a>
</g>
</g>
<!-- Node16&#45;&gt;Node12 -->
<g id="edge21_Node000016_Node000012" class="edge">
<title>Node16&#45;&gt;Node12</title>
<g id="a_edge21_Node000016_Node000012"><a xlink:title=" ">
<path fill="none" stroke="#63b8ff" d="M992.99,-55.59C981.39,-47.67 964.55,-36.16 950.89,-26.82"/>
<polygon fill="#63b8ff" stroke="#63b8ff" points="953.1,-24.09 942.87,-21.33 949.15,-29.87 953.1,-24.09"/>
</a>
</g>
</g>
<!-- Node17 -->
<g id="Node000017" class="node">
<title>Node17</title>
<g id="a_Node000017"><a xlink:title=" ">
<polygon fill="#e0e0e0" stroke="#999999" points="1134.88,-20 996.62,-20 996.62,0 1134.88,0 1134.88,-20"/>
<text text-anchor="middle" x="1065.75" y="-6.5" font-family="Helvetica,sans-Serif" font-size="10.00">PickupInterface.generated.h</text>
</a>
</g>
</g>
<!-- Node16&#45;&gt;Node17 -->
<g id="edge22_Node000016_Node000017" class="edge">
<title>Node16&#45;&gt;Node17</title>
<g id="a_edge22_Node000016_Node000017"><a xlink:title=" ">
<path fill="none" stroke="#63b8ff" d="M1017.03,-55.59C1025.32,-48.01 1037.2,-37.13 1047.15,-28.02"/>
<polygon fill="#63b8ff" stroke="#63b8ff" points="1049.46,-30.65 1054.47,-21.32 1044.73,-25.49 1049.46,-30.65"/>
</a>
</g>
</g>
</g>
</svg>
