<?xml version="1.0" encoding="UTF-8" standalone="no"?>
<!DOCTYPE svg PUBLIC "-//W3C//DTD SVG 1.1//EN"
 "http://www.w3.org/Graphics/SVG/1.1/DTD/svg11.dtd">
<!-- Generated by graphviz version 12.2.1 (20241206.2353)
 -->
<!-- Title: Source/Slash/Public/Items/Weapons/Weapon.h Pages: 1 -->
<svg width="338pt" height="152pt"
 viewBox="0.00 0.00 338.25 152.00" xmlns="http://www.w3.org/2000/svg" xmlns:xlink="http://www.w3.org/1999/xlink">
<g id="graph0" class="graph" transform="scale(1 1) rotate(0) translate(4 148)">
<title>Source/Slash/Public/Items/Weapons/Weapon.h</title>
<!-- Node1 -->
<g id="Node000001" class="node">
<title>Node1</title>
<g id="a_Node000001"><a xlink:title=" ">
<polygon fill="#999999" stroke="#666666" points="212.38,-144 78.62,-144 78.62,-112 212.38,-112 212.38,-144"/>
<text text-anchor="start" x="86.62" y="-130.5" font-family="Helvetica,sans-Serif" font-size="10.00">Source/Slash/Public</text>
<text text-anchor="middle" x="145.5" y="-118.5" font-family="Helvetica,sans-Serif" font-size="10.00">/Items/Weapons/Weapon.h</text>
</a>
</g>
</g>
<!-- Node2 -->
<g id="Node000002" class="node">
<title>Node2</title>
<g id="a_Node000002"><a xlink:title=" ">
<polygon fill="#e0e0e0" stroke="#999999" points="79,-20 0,-20 0,0 79,0 79,-20"/>
<text text-anchor="middle" x="39.5" y="-6.5" font-family="Helvetica,sans-Serif" font-size="10.00">CoreMinimal.h</text>
</a>
</g>
</g>
<!-- Node1&#45;&gt;Node2 -->
<g id="edge1_Node000001_Node000002" class="edge">
<title>Node1&#45;&gt;Node2</title>
<g id="a_edge1_Node000001_Node000002"><a xlink:title=" ">
<path fill="none" stroke="#63b8ff" d="M131.64,-111.84C112.11,-90.46 76.55,-51.55 55.79,-28.82"/>
<polygon fill="#63b8ff" stroke="#63b8ff" points="58.47,-26.58 49.14,-21.55 53.31,-31.3 58.47,-26.58"/>
</a>
</g>
</g>
<!-- Node3 -->
<g id="Node000003" class="node">
<title>Node3</title>
<g id="a_Node000003"><a xlink:href="_item_8h.html" target="_top" xlink:title=" ">
<polygon fill="white" stroke="#666666" points="181.25,-76 109.75,-76 109.75,-56 181.25,-56 181.25,-76"/>
<text text-anchor="middle" x="145.5" y="-62.5" font-family="Helvetica,sans-Serif" font-size="10.00">Items/Item.h</text>
</a>
</g>
</g>
<!-- Node1&#45;&gt;Node3 -->
<g id="edge2_Node000001_Node000003" class="edge">
<title>Node1&#45;&gt;Node3</title>
<g id="a_edge2_Node000001_Node000003"><a xlink:title=" ">
<path fill="none" stroke="#63b8ff" d="M145.5,-111.55C145.5,-104.34 145.5,-95.66 145.5,-87.88"/>
<polygon fill="#63b8ff" stroke="#63b8ff" points="149,-87.92 145.5,-77.92 142,-87.92 149,-87.92"/>
</a>
</g>
</g>
<!-- Node6 -->
<g id="Node000006" class="node">
<title>Node6</title>
<g id="a_Node000006"><a xlink:title=" ">
<polygon fill="#e0e0e0" stroke="#999999" points="304.12,-76 198.88,-76 198.88,-56 304.12,-56 304.12,-76"/>
<text text-anchor="middle" x="251.5" y="-62.5" font-family="Helvetica,sans-Serif" font-size="10.00">Weapon.generated.h</text>
</a>
</g>
</g>
<!-- Node1&#45;&gt;Node6 -->
<g id="edge6_Node000001_Node000006" class="edge">
<title>Node1&#45;&gt;Node6</title>
<g id="a_edge6_Node000001_Node000006"><a xlink:title=" ">
<path fill="none" stroke="#63b8ff" d="M172.8,-111.55C188.9,-102.43 209.18,-90.96 225.12,-81.93"/>
<polygon fill="#63b8ff" stroke="#63b8ff" points="226.58,-85.13 233.56,-77.15 223.14,-79.03 226.58,-85.13"/>
</a>
</g>
</g>
<!-- Node3&#45;&gt;Node2 -->
<g id="edge3_Node000003_Node000002" class="edge">
<title>Node3&#45;&gt;Node2</title>
<g id="a_edge3_Node000003_Node000002"><a xlink:title=" ">
<path fill="none" stroke="#63b8ff" d="M127.04,-55.59C110.8,-47.32 86.89,-35.14 68.17,-25.6"/>
<polygon fill="#63b8ff" stroke="#63b8ff" points="69.96,-22.59 59.46,-21.17 66.78,-28.82 69.96,-22.59"/>
</a>
</g>
</g>
<!-- Node4 -->
<g id="Node000004" class="node">
<title>Node4</title>
<g id="a_Node000004"><a xlink:title=" ">
<polygon fill="#e0e0e0" stroke="#999999" points="222.25,-20 96.75,-20 96.75,0 222.25,0 222.25,-20"/>
<text text-anchor="middle" x="159.5" y="-6.5" font-family="Helvetica,sans-Serif" font-size="10.00">GameFramework/Actor.h</text>
</a>
</g>
</g>
<!-- Node3&#45;&gt;Node4 -->
<g id="edge4_Node000003_Node000004" class="edge">
<title>Node3&#45;&gt;Node4</title>
<g id="a_edge4_Node000003_Node000004"><a xlink:title=" ">
<path fill="none" stroke="#63b8ff" d="M147.94,-55.59C149.67,-48.93 152.05,-39.75 154.2,-31.44"/>
<polygon fill="#63b8ff" stroke="#63b8ff" points="157.59,-32.32 156.71,-21.76 150.81,-30.56 157.59,-32.32"/>
</a>
</g>
</g>
<!-- Node5 -->
<g id="Node000005" class="node">
<title>Node5</title>
<g id="a_Node000005"><a xlink:title=" ">
<polygon fill="#e0e0e0" stroke="#999999" points="330.25,-20 240.75,-20 240.75,0 330.25,0 330.25,-20"/>
<text text-anchor="middle" x="285.5" y="-6.5" font-family="Helvetica,sans-Serif" font-size="10.00">Item.generated.h</text>
</a>
</g>
</g>
<!-- Node3&#45;&gt;Node5 -->
<g id="edge5_Node000003_Node000005" class="edge">
<title>Node3&#45;&gt;Node5</title>
<g id="a_edge5_Node000003_Node000005"><a xlink:title=" ">
<path fill="none" stroke="#63b8ff" d="M169.89,-55.59C192.13,-47.01 225.27,-34.23 250.37,-24.55"/>
<polygon fill="#63b8ff" stroke="#63b8ff" points="251.44,-27.89 259.51,-21.02 248.92,-21.36 251.44,-27.89"/>
</a>
</g>
</g>
</g>
</svg>
