<?xml version="1.0" encoding="UTF-8" standalone="no"?>
<!DOCTYPE svg PUBLIC "-//W3C//DTD SVG 1.1//EN"
 "http://www.w3.org/Graphics/SVG/1.1/DTD/svg11.dtd">
<!-- Generated by graphviz version 12.2.1 (20241206.2353)
 -->
<!-- Title: Source/Slash/Private/Items/Weapons/Weapon.cpp Pages: 1 -->
<svg width="1442pt" height="264pt"
 viewBox="0.00 0.00 1442.12 264.00" xmlns="http://www.w3.org/2000/svg" xmlns:xlink="http://www.w3.org/1999/xlink">
<g id="graph0" class="graph" transform="scale(1 1) rotate(0) translate(4 260)">
<title>Source/Slash/Private/Items/Weapons/Weapon.cpp</title>
<!-- Node1 -->
<g id="Node000001" class="node">
<title>Node1</title>
<g id="a_Node000001"><a xlink:title=" ">
<polygon fill="#999999" stroke="#666666" points="879.75,-256 735.5,-256 735.5,-224 879.75,-224 879.75,-256"/>
<text text-anchor="start" x="743.5" y="-242.5" font-family="Helvetica,sans-Serif" font-size="10.00">Source/Slash/Private</text>
<text text-anchor="middle" x="807.62" y="-230.5" font-family="Helvetica,sans-Serif" font-size="10.00">/Items/Weapons/Weapon.cpp</text>
</a>
</g>
</g>
<!-- Node2 -->
<g id="Node000002" class="node">
<title>Node2</title>
<g id="a_Node000002"><a xlink:href="_weapon_8h.html" target="_top" xlink:title=" ">
<polygon fill="white" stroke="#666666" points="236,-188 105.25,-188 105.25,-168 236,-168 236,-188"/>
<text text-anchor="middle" x="170.62" y="-174.5" font-family="Helvetica,sans-Serif" font-size="10.00">Items/Weapons/Weapon.h</text>
</a>
</g>
</g>
<!-- Node1&#45;&gt;Node2 -->
<g id="edge1_Node000001_Node000002" class="edge">
<title>Node1&#45;&gt;Node2</title>
<g id="a_edge1_Node000001_Node000002"><a xlink:title=" ">
<path fill="none" stroke="#63b8ff" d="M735.17,-232.18C614.06,-220.77 371.59,-197.93 247.56,-186.25"/>
<polygon fill="#63b8ff" stroke="#63b8ff" points="248.09,-182.78 237.8,-185.33 247.43,-189.75 248.09,-182.78"/>
</a>
</g>
</g>
<!-- Node8 -->
<g id="Node000008" class="node">
<title>Node8</title>
<g id="a_Node000008"><a xlink:title=" ">
<polygon fill="#e0e0e0" stroke="#999999" points="933.75,-188 825.5,-188 825.5,-168 933.75,-168 933.75,-188"/>
<text text-anchor="middle" x="879.62" y="-174.5" font-family="Helvetica,sans-Serif" font-size="10.00">NiagaraComponent.h</text>
</a>
</g>
</g>
<!-- Node1&#45;&gt;Node8 -->
<g id="edge8_Node000001_Node000008" class="edge">
<title>Node1&#45;&gt;Node8</title>
<g id="a_edge8_Node000001_Node000008"><a xlink:title=" ">
<path fill="none" stroke="#63b8ff" d="M826.17,-223.55C836.38,-215.04 849.05,-204.48 859.5,-195.77"/>
<polygon fill="#63b8ff" stroke="#63b8ff" points="861.73,-198.47 867.17,-189.38 857.25,-193.09 861.73,-198.47"/>
</a>
</g>
</g>
<!-- Node9 -->
<g id="Node000009" class="node">
<title>Node9</title>
<g id="a_Node000009"><a xlink:href="_breakable_actor_8h.html" target="_top" xlink:title=" ">
<polygon fill="white" stroke="#666666" points="594.38,-132 456.88,-132 456.88,-112 594.38,-112 594.38,-132"/>
<text text-anchor="middle" x="525.62" y="-118.5" font-family="Helvetica,sans-Serif" font-size="10.00">Breakable/BreakableActor.h</text>
</a>
</g>
</g>
<!-- Node1&#45;&gt;Node9 -->
<g id="edge9_Node000001_Node000009" class="edge">
<title>Node1&#45;&gt;Node9</title>
<g id="a_edge9_Node000001_Node000009"><a xlink:title=" ">
<path fill="none" stroke="#63b8ff" d="M735.11,-227.89C696.23,-220.12 648.3,-207.54 608.62,-188 583.64,-175.7 559.04,-155.06 543.19,-140.34"/>
<polygon fill="#63b8ff" stroke="#63b8ff" points="545.68,-137.88 536.03,-133.51 540.85,-142.94 545.68,-137.88"/>
</a>
</g>
</g>
<!-- Node10 -->
<g id="Node000010" class="node">
<title>Node10</title>
<g id="a_Node000010"><a xlink:href="_hit_interface_8h.html" target="_top" xlink:title=" ">
<polygon fill="white" stroke="#666666" points="803.5,-76 681.75,-76 681.75,-56 803.5,-56 803.5,-76"/>
<text text-anchor="middle" x="742.62" y="-62.5" font-family="Helvetica,sans-Serif" font-size="10.00">Interfaces/HitInterface.h</text>
</a>
</g>
</g>
<!-- Node1&#45;&gt;Node10 -->
<g id="edge32_Node000001_Node000010" class="edge">
<title>Node1&#45;&gt;Node10</title>
<g id="a_edge32_Node000001_Node000010"><a xlink:title=" ">
<path fill="none" stroke="#63b8ff" d="M735.12,-232.85C705.48,-226.35 673.91,-213.42 655.62,-188 628.4,-150.15 682.62,-105.63 717.11,-82.58"/>
<polygon fill="#63b8ff" stroke="#63b8ff" points="718.88,-85.61 725.37,-77.24 715.08,-79.73 718.88,-85.61"/>
</a>
</g>
</g>
<!-- Node14 -->
<g id="Node000014" class="node">
<title>Node14</title>
<g id="a_Node000014"><a xlink:href="_slash_character_8h.html" target="_top" xlink:title=" ">
<polygon fill="white" stroke="#666666" points="807,-188 664.25,-188 664.25,-168 807,-168 807,-188"/>
<text text-anchor="middle" x="735.62" y="-174.5" font-family="Helvetica,sans-Serif" font-size="10.00">Characters/SlashCharacter.h</text>
</a>
</g>
</g>
<!-- Node1&#45;&gt;Node14 -->
<g id="edge17_Node000001_Node000014" class="edge">
<title>Node1&#45;&gt;Node14</title>
<g id="a_edge17_Node000001_Node000014"><a xlink:title=" ">
<path fill="none" stroke="#63b8ff" d="M789.08,-223.55C778.87,-215.04 766.2,-204.48 755.75,-195.77"/>
<polygon fill="#63b8ff" stroke="#63b8ff" points="758,-193.09 748.08,-189.38 753.52,-198.47 758,-193.09"/>
</a>
</g>
</g>
<!-- Node22 -->
<g id="Node000022" class="node">
<title>Node22</title>
<g id="a_Node000022"><a xlink:title=" ">
<polygon fill="#e0e0e0" stroke="#999999" points="1101.75,-188 951.5,-188 951.5,-168 1101.75,-168 1101.75,-188"/>
<text text-anchor="middle" x="1026.62" y="-174.5" font-family="Helvetica,sans-Serif" font-size="10.00">Components/BoxComponent.h</text>
</a>
</g>
</g>
<!-- Node1&#45;&gt;Node22 -->
<g id="edge30_Node000001_Node000022" class="edge">
<title>Node1&#45;&gt;Node22</title>
<g id="a_edge30_Node000001_Node000022"><a xlink:title=" ">
<path fill="none" stroke="#63b8ff" d="M864.02,-223.55C900.35,-213.6 946.95,-200.83 980.95,-191.51"/>
<polygon fill="#63b8ff" stroke="#63b8ff" points="981.78,-194.91 990.5,-188.9 979.93,-188.16 981.78,-194.91"/>
</a>
</g>
</g>
<!-- Node23 -->
<g id="Node000023" class="node">
<title>Node23</title>
<g id="a_Node000023"><a xlink:title=" ">
<polygon fill="#e0e0e0" stroke="#999999" points="1283.5,-188 1119.75,-188 1119.75,-168 1283.5,-168 1283.5,-188"/>
<text text-anchor="middle" x="1201.62" y="-174.5" font-family="Helvetica,sans-Serif" font-size="10.00">Components/SphereComponent.h</text>
</a>
</g>
</g>
<!-- Node1&#45;&gt;Node23 -->
<g id="edge31_Node000001_Node000023" class="edge">
<title>Node1&#45;&gt;Node23</title>
<g id="a_edge31_Node000001_Node000023"><a xlink:title=" ">
<path fill="none" stroke="#63b8ff" d="M879.89,-228C950.53,-217.24 1057.53,-200.94 1128.48,-190.14"/>
<polygon fill="#63b8ff" stroke="#63b8ff" points="1128.69,-193.65 1138.04,-188.68 1127.63,-186.73 1128.69,-193.65"/>
</a>
</g>
</g>
<!-- Node24 -->
<g id="Node000024" class="node">
<title>Node24</title>
<g id="a_Node000024"><a xlink:title=" ">
<polygon fill="#e0e0e0" stroke="#999999" points="1434.12,-188 1301.12,-188 1301.12,-168 1434.12,-168 1434.12,-188"/>
<text text-anchor="middle" x="1367.62" y="-174.5" font-family="Helvetica,sans-Serif" font-size="10.00">Kismet/GameplayStatics.h</text>
</a>
</g>
</g>
<!-- Node1&#45;&gt;Node24 -->
<g id="edge33_Node000001_Node000024" class="edge">
<title>Node1&#45;&gt;Node24</title>
<g id="a_edge33_Node000001_Node000024"><a xlink:title=" ">
<path fill="none" stroke="#63b8ff" d="M879.97,-231.73C972.47,-222.35 1137.91,-205.34 1289.61,-188.33"/>
<polygon fill="#63b8ff" stroke="#63b8ff" points="1289.92,-191.81 1299.47,-187.22 1289.14,-184.86 1289.92,-191.81"/>
</a>
</g>
</g>
<!-- Node3 -->
<g id="Node000003" class="node">
<title>Node3</title>
<g id="a_Node000003"><a xlink:title=" ">
<polygon fill="#e0e0e0" stroke="#999999" points="678.12,-20 599.12,-20 599.12,0 678.12,0 678.12,-20"/>
<text text-anchor="middle" x="638.62" y="-6.5" font-family="Helvetica,sans-Serif" font-size="10.00">CoreMinimal.h</text>
</a>
</g>
</g>
<!-- Node2&#45;&gt;Node3 -->
<g id="edge2_Node000002_Node000003" class="edge">
<title>Node2&#45;&gt;Node3</title>
<g id="a_edge2_Node000002_Node000003"><a xlink:title=" ">
<path fill="none" stroke="#63b8ff" d="M164.89,-167.69C151.92,-145.28 123.58,-87.86 152.62,-56 181.53,-24.3 468.82,-14.59 587.62,-11.92"/>
<polygon fill="#63b8ff" stroke="#63b8ff" points="587.47,-15.42 597.4,-11.71 587.32,-8.43 587.47,-15.42"/>
</a>
</g>
</g>
<!-- Node4 -->
<g id="Node000004" class="node">
<title>Node4</title>
<g id="a_Node000004"><a xlink:href="_item_8h.html" target="_top" xlink:title=" ">
<polygon fill="white" stroke="#666666" points="279.38,-132 207.88,-132 207.88,-112 279.38,-112 279.38,-132"/>
<text text-anchor="middle" x="243.62" y="-118.5" font-family="Helvetica,sans-Serif" font-size="10.00">Items/Item.h</text>
</a>
</g>
</g>
<!-- Node2&#45;&gt;Node4 -->
<g id="edge3_Node000002_Node000004" class="edge">
<title>Node2&#45;&gt;Node4</title>
<g id="a_edge3_Node000002_Node000004"><a xlink:title=" ">
<path fill="none" stroke="#63b8ff" d="M183.34,-167.59C194.02,-159.7 209.5,-148.24 222.11,-138.92"/>
<polygon fill="#63b8ff" stroke="#63b8ff" points="223.88,-141.96 229.84,-133.2 219.72,-136.33 223.88,-141.96"/>
</a>
</g>
</g>
<!-- Node7 -->
<g id="Node000007" class="node">
<title>Node7</title>
<g id="a_Node000007"><a xlink:title=" ">
<polygon fill="#e0e0e0" stroke="#999999" points="105.25,-132 0,-132 0,-112 105.25,-112 105.25,-132"/>
<text text-anchor="middle" x="52.62" y="-118.5" font-family="Helvetica,sans-Serif" font-size="10.00">Weapon.generated.h</text>
</a>
</g>
</g>
<!-- Node2&#45;&gt;Node7 -->
<g id="edge7_Node000002_Node000007" class="edge">
<title>Node2&#45;&gt;Node7</title>
<g id="a_edge7_Node000002_Node000007"><a xlink:title=" ">
<path fill="none" stroke="#63b8ff" d="M150.07,-167.59C131.74,-159.21 104.64,-146.8 83.67,-137.21"/>
<polygon fill="#63b8ff" stroke="#63b8ff" points="85.27,-134.09 74.72,-133.11 82.35,-140.45 85.27,-134.09"/>
</a>
</g>
</g>
<!-- Node4&#45;&gt;Node3 -->
<g id="edge4_Node000004_Node000003" class="edge">
<title>Node4&#45;&gt;Node3</title>
<g id="a_edge4_Node000004_Node000003"><a xlink:title=" ">
<path fill="none" stroke="#63b8ff" d="M248.57,-111.56C256.79,-96.92 274.76,-69.04 298.62,-56 347.29,-29.41 505.17,-17.69 587.55,-13.28"/>
<polygon fill="#63b8ff" stroke="#63b8ff" points="587.57,-16.78 597.38,-12.77 587.21,-9.79 587.57,-16.78"/>
</a>
</g>
</g>
<!-- Node5 -->
<g id="Node000005" class="node">
<title>Node5</title>
<g id="a_Node000005"><a xlink:title=" ">
<polygon fill="#e0e0e0" stroke="#999999" points="433.38,-76 307.88,-76 307.88,-56 433.38,-56 433.38,-76"/>
<text text-anchor="middle" x="370.62" y="-62.5" font-family="Helvetica,sans-Serif" font-size="10.00">GameFramework/Actor.h</text>
</a>
</g>
</g>
<!-- Node4&#45;&gt;Node5 -->
<g id="edge5_Node000004_Node000005" class="edge">
<title>Node4&#45;&gt;Node5</title>
<g id="a_edge5_Node000004_Node000005"><a xlink:title=" ">
<path fill="none" stroke="#63b8ff" d="M265.75,-111.59C285.66,-103.13 315.18,-90.58 337.83,-80.94"/>
<polygon fill="#63b8ff" stroke="#63b8ff" points="339.1,-84.21 346.94,-77.07 336.37,-77.76 339.1,-84.21"/>
</a>
</g>
</g>
<!-- Node6 -->
<g id="Node000006" class="node">
<title>Node6</title>
<g id="a_Node000006"><a xlink:title=" ">
<polygon fill="#e0e0e0" stroke="#999999" points="251.38,-76 161.88,-76 161.88,-56 251.38,-56 251.38,-76"/>
<text text-anchor="middle" x="206.62" y="-62.5" font-family="Helvetica,sans-Serif" font-size="10.00">Item.generated.h</text>
</a>
</g>
</g>
<!-- Node4&#45;&gt;Node6 -->
<g id="edge6_Node000004_Node000006" class="edge">
<title>Node4&#45;&gt;Node6</title>
<g id="a_edge6_Node000004_Node000006"><a xlink:title=" ">
<path fill="none" stroke="#63b8ff" d="M237.18,-111.59C232.3,-104.47 225.43,-94.45 219.45,-85.72"/>
<polygon fill="#63b8ff" stroke="#63b8ff" points="222.39,-83.82 213.85,-77.55 216.62,-87.77 222.39,-83.82"/>
</a>
</g>
</g>
<!-- Node9&#45;&gt;Node3 -->
<g id="edge10_Node000009_Node000003" class="edge">
<title>Node9&#45;&gt;Node3</title>
<g id="a_edge10_Node000009_Node000003"><a xlink:title=" ">
<path fill="none" stroke="#63b8ff" d="M510.92,-111.57C492.8,-98.77 466.07,-75.28 480.62,-56 493.62,-38.78 546.43,-26.2 587.46,-18.79"/>
<polygon fill="#63b8ff" stroke="#63b8ff" points="587.94,-22.26 597.19,-17.09 586.74,-15.36 587.94,-22.26"/>
</a>
</g>
</g>
<!-- Node9&#45;&gt;Node5 -->
<g id="edge11_Node000009_Node000005" class="edge">
<title>Node9&#45;&gt;Node5</title>
<g id="a_edge11_Node000009_Node000005"><a xlink:title=" ">
<path fill="none" stroke="#63b8ff" d="M498.63,-111.59C473.66,-102.9 436.32,-89.89 408.4,-80.16"/>
<polygon fill="#63b8ff" stroke="#63b8ff" points="409.86,-76.96 399.26,-76.98 407.56,-83.57 409.86,-76.96"/>
</a>
</g>
</g>
<!-- Node9&#45;&gt;Node10 -->
<g id="edge12_Node000009_Node000010" class="edge">
<title>Node9&#45;&gt;Node10</title>
<g id="a_edge12_Node000009_Node000010"><a xlink:title=" ">
<path fill="none" stroke="#63b8ff" d="M563.42,-111.59C599.53,-102.61 654.14,-89.02 693.58,-79.2"/>
<polygon fill="#63b8ff" stroke="#63b8ff" points="694.2,-82.66 703.06,-76.84 692.51,-75.86 694.2,-82.66"/>
</a>
</g>
</g>
<!-- Node13 -->
<g id="Node000013" class="node">
<title>Node13</title>
<g id="a_Node000013"><a xlink:title=" ">
<polygon fill="#e0e0e0" stroke="#999999" points="626,-76 489.25,-76 489.25,-56 626,-56 626,-76"/>
<text text-anchor="middle" x="557.62" y="-62.5" font-family="Helvetica,sans-Serif" font-size="10.00">BreakableActor.generated.h</text>
</a>
</g>
</g>
<!-- Node9&#45;&gt;Node13 -->
<g id="edge16_Node000009_Node000013" class="edge">
<title>Node9&#45;&gt;Node13</title>
<g id="a_edge16_Node000009_Node000013"><a xlink:title=" ">
<path fill="none" stroke="#63b8ff" d="M531.2,-111.59C535.37,-104.55 541.23,-94.67 546.37,-86"/>
<polygon fill="#63b8ff" stroke="#63b8ff" points="549.26,-87.99 551.34,-77.6 543.23,-84.42 549.26,-87.99"/>
</a>
</g>
</g>
<!-- Node10&#45;&gt;Node3 -->
<g id="edge13_Node000010_Node000003" class="edge">
<title>Node10&#45;&gt;Node3</title>
<g id="a_edge13_Node000010_Node000003"><a xlink:title=" ">
<path fill="none" stroke="#63b8ff" d="M724.51,-55.59C708.65,-47.36 685.34,-35.26 667.01,-25.74"/>
<polygon fill="#63b8ff" stroke="#63b8ff" points="668.71,-22.68 658.23,-21.18 665.49,-28.89 668.71,-22.68"/>
</a>
</g>
</g>
<!-- Node11 -->
<g id="Node000011" class="node">
<title>Node11</title>
<g id="a_Node000011"><a xlink:title=" ">
<polygon fill="#e0e0e0" stroke="#999999" points="1040.38,-20 938.88,-20 938.88,0 1040.38,0 1040.38,-20"/>
<text text-anchor="middle" x="989.62" y="-6.5" font-family="Helvetica,sans-Serif" font-size="10.00">UObject/Interface.h</text>
</a>
</g>
</g>
<!-- Node10&#45;&gt;Node11 -->
<g id="edge14_Node000010_Node000011" class="edge">
<title>Node10&#45;&gt;Node11</title>
<g id="a_edge14_Node000010_Node000011"><a xlink:title=" ">
<path fill="none" stroke="#63b8ff" d="M785.93,-55.53C827.51,-46.44 890.46,-32.68 935.36,-22.86"/>
<polygon fill="#63b8ff" stroke="#63b8ff" points="935.87,-26.34 944.89,-20.78 934.37,-19.5 935.87,-26.34"/>
</a>
</g>
</g>
<!-- Node12 -->
<g id="Node000012" class="node">
<title>Node12</title>
<g id="a_Node000012"><a xlink:title=" ">
<polygon fill="#e0e0e0" stroke="#999999" points="817.12,-20 696.12,-20 696.12,0 817.12,0 817.12,-20"/>
<text text-anchor="middle" x="756.62" y="-6.5" font-family="Helvetica,sans-Serif" font-size="10.00">HitInterface.generated.h</text>
</a>
</g>
</g>
<!-- Node10&#45;&gt;Node12 -->
<g id="edge15_Node000010_Node000012" class="edge">
<title>Node10&#45;&gt;Node12</title>
<g id="a_edge15_Node000010_Node000012"><a xlink:title=" ">
<path fill="none" stroke="#63b8ff" d="M745.06,-55.59C746.79,-48.93 749.17,-39.75 751.33,-31.44"/>
<polygon fill="#63b8ff" stroke="#63b8ff" points="754.71,-32.32 753.83,-21.76 747.94,-30.56 754.71,-32.32"/>
</a>
</g>
</g>
<!-- Node14&#45;&gt;Node3 -->
<g id="edge18_Node000014_Node000003" class="edge">
<title>Node14&#45;&gt;Node3</title>
<g id="a_edge18_Node000014_Node000003"><a xlink:title=" ">
<path fill="none" stroke="#63b8ff" d="M723.45,-167.77C713.07,-159.38 698.31,-146.18 688.62,-132 666.68,-99.89 651.74,-56.65 644.24,-31.51"/>
<polygon fill="#63b8ff" stroke="#63b8ff" points="647.6,-30.56 641.49,-21.9 640.87,-32.48 647.6,-30.56"/>
</a>
</g>
</g>
<!-- Node15 -->
<g id="Node000015" class="node">
<title>Node15</title>
<g id="a_Node000015"><a xlink:href="_base_character_8h.html" target="_top" xlink:title=" ">
<polygon fill="white" stroke="#666666" points="787.38,-132 697.88,-132 697.88,-112 787.38,-112 787.38,-132"/>
<text text-anchor="middle" x="742.62" y="-118.5" font-family="Helvetica,sans-Serif" font-size="10.00">BaseCharacter.h</text>
</a>
</g>
</g>
<!-- Node14&#45;&gt;Node15 -->
<g id="edge19_Node000014_Node000015" class="edge">
<title>Node14&#45;&gt;Node15</title>
<g id="a_edge19_Node000014_Node000015"><a xlink:title=" ">
<path fill="none" stroke="#63b8ff" d="M736.84,-167.59C737.71,-160.93 738.9,-151.75 739.98,-143.44"/>
<polygon fill="#63b8ff" stroke="#63b8ff" points="743.41,-144.17 741.23,-133.8 736.47,-143.27 743.41,-144.17"/>
</a>
</g>
</g>
<!-- Node18 -->
<g id="Node000018" class="node">
<title>Node18</title>
<g id="a_Node000018"><a xlink:href="_character_types_8h.html" target="_top" xlink:title=" ">
<polygon fill="white" stroke="#666666" points="937.25,-132 844,-132 844,-112 937.25,-112 937.25,-132"/>
<text text-anchor="middle" x="890.62" y="-118.5" font-family="Helvetica,sans-Serif" font-size="10.00">CharacterTypes.h</text>
</a>
</g>
</g>
<!-- Node14&#45;&gt;Node18 -->
<g id="edge24_Node000014_Node000018" class="edge">
<title>Node14&#45;&gt;Node18</title>
<g id="a_edge24_Node000014_Node000018"><a xlink:title=" ">
<path fill="none" stroke="#63b8ff" d="M762.62,-167.59C787.59,-158.9 824.93,-145.89 852.85,-136.16"/>
<polygon fill="#63b8ff" stroke="#63b8ff" points="853.69,-139.57 861.99,-132.98 851.39,-132.96 853.69,-139.57"/>
</a>
</g>
</g>
<!-- Node19 -->
<g id="Node000019" class="node">
<title>Node19</title>
<g id="a_Node000019"><a xlink:href="_pickup_interface_8h.html" target="_top" xlink:title=" ">
<polygon fill="white" stroke="#666666" points="1315.12,-76 1176.12,-76 1176.12,-56 1315.12,-56 1315.12,-76"/>
<text text-anchor="middle" x="1245.62" y="-62.5" font-family="Helvetica,sans-Serif" font-size="10.00">Interfaces/PickupInterface.h</text>
</a>
</g>
</g>
<!-- Node14&#45;&gt;Node19 -->
<g id="edge25_Node000014_Node000019" class="edge">
<title>Node14&#45;&gt;Node19</title>
<g id="a_edge25_Node000014_Node000019"><a xlink:title=" ">
<path fill="none" stroke="#63b8ff" d="M748.31,-167.58C770.61,-151.2 816.24,-118.59 834.62,-112 971.33,-62.98 1017.43,-91.08 1164.64,-76.27"/>
<polygon fill="#63b8ff" stroke="#63b8ff" points="1164.81,-79.77 1174.38,-75.23 1164.07,-72.81 1164.81,-79.77"/>
</a>
</g>
</g>
<!-- Node21 -->
<g id="Node000021" class="node">
<title>Node21</title>
<g id="a_Node000021"><a xlink:title=" ">
<polygon fill="#e0e0e0" stroke="#999999" points="1092.38,-132 954.88,-132 954.88,-112 1092.38,-112 1092.38,-132"/>
<text text-anchor="middle" x="1023.62" y="-118.5" font-family="Helvetica,sans-Serif" font-size="10.00">SlashCharacter.generated.h</text>
</a>
</g>
</g>
<!-- Node14&#45;&gt;Node21 -->
<g id="edge29_Node000014_Node000021" class="edge">
<title>Node14&#45;&gt;Node21</title>
<g id="a_edge29_Node000014_Node000021"><a xlink:title=" ">
<path fill="none" stroke="#63b8ff" d="M786.12,-167.53C835.12,-158.35 909.56,-144.39 962.01,-134.55"/>
<polygon fill="#63b8ff" stroke="#63b8ff" points="962.52,-138.02 971.7,-132.74 961.23,-131.14 962.52,-138.02"/>
</a>
</g>
</g>
<!-- Node15&#45;&gt;Node3 -->
<g id="edge20_Node000015_Node000003" class="edge">
<title>Node15&#45;&gt;Node3</title>
<g id="a_edge20_Node000015_Node000003"><a xlink:title=" ">
<path fill="none" stroke="#63b8ff" d="M766.39,-111.68C792.92,-99.89 829.99,-78.42 812.62,-56 804.95,-46.09 738.41,-30.9 689.89,-20.96"/>
<polygon fill="#63b8ff" stroke="#63b8ff" points="690.59,-17.53 680.09,-18.97 689.2,-24.39 690.59,-17.53"/>
</a>
</g>
</g>
<!-- Node15&#45;&gt;Node10 -->
<g id="edge22_Node000015_Node000010" class="edge">
<title>Node15&#45;&gt;Node10</title>
<g id="a_edge22_Node000015_Node000010"><a xlink:title=" ">
<path fill="none" stroke="#63b8ff" d="M742.62,-111.59C742.62,-105.01 742.62,-95.96 742.62,-87.73"/>
<polygon fill="#63b8ff" stroke="#63b8ff" points="746.13,-87.81 742.63,-77.81 739.13,-87.81 746.13,-87.81"/>
</a>
</g>
</g>
<!-- Node16 -->
<g id="Node000016" class="node">
<title>Node16</title>
<g id="a_Node000016"><a xlink:title=" ">
<polygon fill="#e0e0e0" stroke="#999999" points="1005.12,-76 860.12,-76 860.12,-56 1005.12,-56 1005.12,-76"/>
<text text-anchor="middle" x="932.62" y="-62.5" font-family="Helvetica,sans-Serif" font-size="10.00">GameFramework/Character.h</text>
</a>
</g>
</g>
<!-- Node15&#45;&gt;Node16 -->
<g id="edge21_Node000015_Node000016" class="edge">
<title>Node15&#45;&gt;Node16</title>
<g id="a_edge21_Node000015_Node000016"><a xlink:title=" ">
<path fill="none" stroke="#63b8ff" d="M775.72,-111.59C807,-102.71 854.13,-89.31 888.57,-79.52"/>
<polygon fill="#63b8ff" stroke="#63b8ff" points="889.15,-82.99 897.82,-76.89 887.24,-76.26 889.15,-82.99"/>
</a>
</g>
</g>
<!-- Node17 -->
<g id="Node000017" class="node">
<title>Node17</title>
<g id="a_Node000017"><a xlink:title=" ">
<polygon fill="#e0e0e0" stroke="#999999" points="1158.25,-76 1023,-76 1023,-56 1158.25,-56 1158.25,-76"/>
<text text-anchor="middle" x="1090.62" y="-62.5" font-family="Helvetica,sans-Serif" font-size="10.00">BaseCharacter.generated.h</text>
</a>
</g>
</g>
<!-- Node15&#45;&gt;Node17 -->
<g id="edge23_Node000015_Node000017" class="edge">
<title>Node15&#45;&gt;Node17</title>
<g id="a_edge23_Node000015_Node000017"><a xlink:title=" ">
<path fill="none" stroke="#63b8ff" d="M787.76,-114C846.21,-104.93 948.79,-89.01 1018.19,-78.24"/>
<polygon fill="#63b8ff" stroke="#63b8ff" points="1018.62,-81.71 1027.97,-76.72 1017.55,-74.8 1018.62,-81.71"/>
</a>
</g>
</g>
<!-- Node19&#45;&gt;Node3 -->
<g id="edge26_Node000019_Node000003" class="edge">
<title>Node19&#45;&gt;Node3</title>
<g id="a_edge26_Node000019_Node000003"><a xlink:title=" ">
<path fill="none" stroke="#63b8ff" d="M1175.9,-56.81C1173.11,-56.53 1170.34,-56.26 1167.62,-56 958.29,-36.08 901.72,-46.97 689.62,-20.11"/>
<polygon fill="#63b8ff" stroke="#63b8ff" points="690.28,-16.67 679.92,-18.87 689.39,-23.61 690.28,-16.67"/>
</a>
</g>
</g>
<!-- Node19&#45;&gt;Node11 -->
<g id="edge27_Node000019_Node000011" class="edge">
<title>Node19&#45;&gt;Node11</title>
<g id="a_edge27_Node000019_Node000011"><a xlink:title=" ">
<path fill="none" stroke="#63b8ff" d="M1200.74,-55.53C1157.55,-46.42 1092.13,-32.62 1045.57,-22.8"/>
<polygon fill="#63b8ff" stroke="#63b8ff" points="1046.45,-19.41 1035.94,-20.77 1045,-26.26 1046.45,-19.41"/>
</a>
</g>
</g>
<!-- Node20 -->
<g id="Node000020" class="node">
<title>Node20</title>
<g id="a_Node000020"><a xlink:title=" ">
<polygon fill="#e0e0e0" stroke="#999999" points="1314.75,-20 1176.5,-20 1176.5,0 1314.75,0 1314.75,-20"/>
<text text-anchor="middle" x="1245.62" y="-6.5" font-family="Helvetica,sans-Serif" font-size="10.00">PickupInterface.generated.h</text>
</a>
</g>
</g>
<!-- Node19&#45;&gt;Node20 -->
<g id="edge28_Node000019_Node000020" class="edge">
<title>Node19&#45;&gt;Node20</title>
<g id="a_edge28_Node000019_Node000020"><a xlink:title=" ">
<path fill="none" stroke="#63b8ff" d="M1245.62,-55.59C1245.62,-49.01 1245.62,-39.96 1245.62,-31.73"/>
<polygon fill="#63b8ff" stroke="#63b8ff" points="1249.13,-31.81 1245.63,-21.81 1242.13,-31.81 1249.13,-31.81"/>
</a>
</g>
</g>
</g>
</svg>
