<?xml version="1.0" encoding="UTF-8" standalone="no"?>
<!DOCTYPE svg PUBLIC "-//W3C//DTD SVG 1.1//EN"
 "http://www.w3.org/Graphics/SVG/1.1/DTD/svg11.dtd">
<!-- Generated by graphviz version 12.2.1 (20241206.2353)
 -->
<!-- Title: ASlashCharacter Pages: 1 -->
<svg width="288pt" height="972pt"
 viewBox="0.00 0.00 287.50 972.00" xmlns="http://www.w3.org/2000/svg" xmlns:xlink="http://www.w3.org/1999/xlink">
<g id="graph0" class="graph" transform="scale(1 1) rotate(0) translate(4 968)">
<title>ASlashCharacter</title>
<!-- Node1 -->
<g id="Node000001" class="node">
<title>Node1</title>
<g id="a_Node000001"><a xlink:title=" ">
<polygon fill="#999999" stroke="none" points="224,-532 74.75,-532 74.75,0 224,0 224,-532"/>
<text text-anchor="start" x="112.25" y="-518.5" font-family="Helvetica,sans-Serif" font-size="10.00">ASlashCharacter</text>
<text text-anchor="start" x="79.12" y="-502.5" font-family="Helvetica,sans-Serif" font-size="10.00">#</text>
<text text-anchor="start" x="88.75" y="-502.5" font-family="Helvetica,sans-Serif" font-size="10.00">Category</text>
<text text-anchor="start" x="80.25" y="-486.5" font-family="Helvetica,sans-Serif" font-size="10.00">&#45;</text>
<text text-anchor="start" x="88.75" y="-486.5" font-family="Helvetica,sans-Serif" font-size="10.00">CameraBoom</text>
<text text-anchor="start" x="80.25" y="-470.5" font-family="Helvetica,sans-Serif" font-size="10.00">&#45;</text>
<text text-anchor="start" x="88.75" y="-470.5" font-family="Helvetica,sans-Serif" font-size="10.00">ViewCamera</text>
<text text-anchor="start" x="80.25" y="-454.5" font-family="Helvetica,sans-Serif" font-size="10.00">&#45;</text>
<text text-anchor="start" x="88.75" y="-454.5" font-family="Helvetica,sans-Serif" font-size="10.00">OverlappingItem</text>
<text text-anchor="start" x="80.25" y="-438.5" font-family="Helvetica,sans-Serif" font-size="10.00">&#45;</text>
<text text-anchor="start" x="88.75" y="-438.5" font-family="Helvetica,sans-Serif" font-size="10.00">CharacterState</text>
<text text-anchor="start" x="80.25" y="-422.5" font-family="Helvetica,sans-Serif" font-size="10.00">&#45;</text>
<text text-anchor="start" x="88.75" y="-422.5" font-family="Helvetica,sans-Serif" font-size="10.00">meta</text>
<text text-anchor="start" x="80.25" y="-406.5" font-family="Helvetica,sans-Serif" font-size="10.00">&#45;</text>
<text text-anchor="start" x="88.75" y="-406.5" font-family="Helvetica,sans-Serif" font-size="10.00">SlashOverlay</text>
<text text-anchor="start" x="78.75" y="-390.5" font-family="Helvetica,sans-Serif" font-size="10.00">+</text>
<text text-anchor="start" x="88.75" y="-390.5" font-family="Helvetica,sans-Serif" font-size="10.00">ASlashCharacter()</text>
<text text-anchor="start" x="78.75" y="-374.5" font-family="Helvetica,sans-Serif" font-size="10.00">+</text>
<text text-anchor="start" x="88.75" y="-374.5" font-family="Helvetica,sans-Serif" font-size="10.00">Tick()</text>
<text text-anchor="start" x="78.75" y="-358.5" font-family="Helvetica,sans-Serif" font-size="10.00">+</text>
<text text-anchor="start" x="88.75" y="-358.5" font-family="Helvetica,sans-Serif" font-size="10.00">SetupPlayerInputComponent()</text>
<text text-anchor="start" x="78.75" y="-342.5" font-family="Helvetica,sans-Serif" font-size="10.00">+</text>
<text text-anchor="start" x="88.75" y="-342.5" font-family="Helvetica,sans-Serif" font-size="10.00">Jump()</text>
<text text-anchor="start" x="78.75" y="-326.5" font-family="Helvetica,sans-Serif" font-size="10.00">+</text>
<text text-anchor="start" x="88.75" y="-326.5" font-family="Helvetica,sans-Serif" font-size="10.00">TakeDamage()</text>
<text text-anchor="start" x="78.75" y="-310.5" font-family="Helvetica,sans-Serif" font-size="10.00">+</text>
<text text-anchor="start" x="88.75" y="-310.5" font-family="Helvetica,sans-Serif" font-size="10.00">GetHit_Implementation()</text>
<text text-anchor="start" x="78.75" y="-294.5" font-family="Helvetica,sans-Serif" font-size="10.00">+</text>
<text text-anchor="start" x="88.75" y="-294.5" font-family="Helvetica,sans-Serif" font-size="10.00">SetOverlappingItem()</text>
<text text-anchor="start" x="78.75" y="-278.5" font-family="Helvetica,sans-Serif" font-size="10.00">+</text>
<text text-anchor="start" x="88.75" y="-278.5" font-family="Helvetica,sans-Serif" font-size="10.00">AddSouls()</text>
<text text-anchor="start" x="78.75" y="-262.5" font-family="Helvetica,sans-Serif" font-size="10.00">+</text>
<text text-anchor="start" x="88.75" y="-262.5" font-family="Helvetica,sans-Serif" font-size="10.00">AddGold()</text>
<text text-anchor="start" x="78.75" y="-246.5" font-family="Helvetica,sans-Serif" font-size="10.00">+</text>
<text text-anchor="start" x="88.75" y="-246.5" font-family="Helvetica,sans-Serif" font-size="10.00">GetCharacterState()</text>
<text text-anchor="start" x="78.75" y="-230.5" font-family="Helvetica,sans-Serif" font-size="10.00">+</text>
<text text-anchor="start" x="88.75" y="-230.5" font-family="Helvetica,sans-Serif" font-size="10.00">GetActionState()</text>
<text text-anchor="start" x="79.12" y="-214.5" font-family="Helvetica,sans-Serif" font-size="10.00">#</text>
<text text-anchor="start" x="88.75" y="-214.5" font-family="Helvetica,sans-Serif" font-size="10.00">BeginPlay()</text>
<text text-anchor="start" x="79.12" y="-198.5" font-family="Helvetica,sans-Serif" font-size="10.00">#</text>
<text text-anchor="start" x="88.75" y="-198.5" font-family="Helvetica,sans-Serif" font-size="10.00">Move()</text>
<text text-anchor="start" x="79.12" y="-182.5" font-family="Helvetica,sans-Serif" font-size="10.00">#</text>
<text text-anchor="start" x="88.75" y="-182.5" font-family="Helvetica,sans-Serif" font-size="10.00">Look()</text>
<text text-anchor="start" x="79.12" y="-166.5" font-family="Helvetica,sans-Serif" font-size="10.00">#</text>
<text text-anchor="start" x="88.75" y="-166.5" font-family="Helvetica,sans-Serif" font-size="10.00">EKeyPressed()</text>
<text text-anchor="start" x="79.12" y="-150.5" font-family="Helvetica,sans-Serif" font-size="10.00">#</text>
<text text-anchor="start" x="88.75" y="-150.5" font-family="Helvetica,sans-Serif" font-size="10.00">Attack()</text>
<text text-anchor="start" x="79.12" y="-134.5" font-family="Helvetica,sans-Serif" font-size="10.00">#</text>
<text text-anchor="start" x="88.75" y="-134.5" font-family="Helvetica,sans-Serif" font-size="10.00">Dodge()</text>
<text text-anchor="start" x="79.12" y="-118.5" font-family="Helvetica,sans-Serif" font-size="10.00">#</text>
<text text-anchor="start" x="88.75" y="-118.5" font-family="Helvetica,sans-Serif" font-size="10.00">EquipWeapon()</text>
<text text-anchor="start" x="79.12" y="-102.5" font-family="Helvetica,sans-Serif" font-size="10.00">#</text>
<text text-anchor="start" x="88.75" y="-102.5" font-family="Helvetica,sans-Serif" font-size="10.00">AttackEnd()</text>
<text text-anchor="start" x="79.12" y="-86.5" font-family="Helvetica,sans-Serif" font-size="10.00">#</text>
<text text-anchor="start" x="88.75" y="-86.5" font-family="Helvetica,sans-Serif" font-size="10.00">DodgeEnd()</text>
<text text-anchor="start" x="79.12" y="-70.5" font-family="Helvetica,sans-Serif" font-size="10.00">#</text>
<text text-anchor="start" x="88.75" y="-70.5" font-family="Helvetica,sans-Serif" font-size="10.00">CanAttack()</text>
<text text-anchor="start" x="88.75" y="-54.5" font-family="Helvetica,sans-Serif" font-size="10.00">and 11 more...</text>
<text text-anchor="start" x="80.25" y="-38.5" font-family="Helvetica,sans-Serif" font-size="10.00">&#45;</text>
<text text-anchor="start" x="88.75" y="-38.5" font-family="Helvetica,sans-Serif" font-size="10.00">IsUnoccupied()</text>
<text text-anchor="start" x="80.25" y="-22.5" font-family="Helvetica,sans-Serif" font-size="10.00">&#45;</text>
<text text-anchor="start" x="88.75" y="-22.5" font-family="Helvetica,sans-Serif" font-size="10.00">InitializeSlashOverlay()</text>
<text text-anchor="start" x="80.25" y="-6.5" font-family="Helvetica,sans-Serif" font-size="10.00">&#45;</text>
<text text-anchor="start" x="88.75" y="-6.5" font-family="Helvetica,sans-Serif" font-size="10.00">SetHUDHealth()</text>
<polygon fill="#666666" stroke="#666666" points="74.75,-514 74.75,-514 224,-514 224,-514 74.75,-514"/>
<polygon fill="#666666" stroke="#666666" points="74.75,-402 74.75,-402 86.75,-402 86.75,-402 74.75,-402"/>
<polygon fill="#666666" stroke="#666666" points="86.75,-402 86.75,-402 224,-402 224,-402 86.75,-402"/>
<polygon fill="none" stroke="#666666" points="74.75,0 74.75,-532 224,-532 224,0 74.75,0"/>
</a>
</g>
</g>
<!-- Node2 -->
<g id="Node000002" class="node">
<title>Node2</title>
<g id="a_Node000002"><a xlink:href="class_a_base_character.html" target="_top" xlink:title=" ">
<polygon fill="white" stroke="none" points="150.75,-876 0,-876 0,-568 150.75,-568 150.75,-876"/>
<text text-anchor="start" x="39.38" y="-862.5" font-family="Helvetica,sans-Serif" font-size="10.00">ABaseCharacter</text>
<text text-anchor="start" x="4.38" y="-846.5" font-family="Helvetica,sans-Serif" font-size="10.00">#</text>
<text text-anchor="start" x="14" y="-846.5" font-family="Helvetica,sans-Serif" font-size="10.00">Category</text>
<text text-anchor="start" x="4.38" y="-830.5" font-family="Helvetica,sans-Serif" font-size="10.00">#</text>
<text text-anchor="start" x="14" y="-830.5" font-family="Helvetica,sans-Serif" font-size="10.00">BlueprintReadOnly</text>
<text text-anchor="start" x="4.38" y="-814.5" font-family="Helvetica,sans-Serif" font-size="10.00">#</text>
<text text-anchor="start" x="14" y="-814.5" font-family="Helvetica,sans-Serif" font-size="10.00">meta</text>
<text text-anchor="start" x="4" y="-798.5" font-family="Helvetica,sans-Serif" font-size="10.00">+</text>
<text text-anchor="start" x="14" y="-798.5" font-family="Helvetica,sans-Serif" font-size="10.00">ABaseCharacter()</text>
<text text-anchor="start" x="4" y="-782.5" font-family="Helvetica,sans-Serif" font-size="10.00">+</text>
<text text-anchor="start" x="14" y="-782.5" font-family="Helvetica,sans-Serif" font-size="10.00">Tick()</text>
<text text-anchor="start" x="4.38" y="-766.5" font-family="Helvetica,sans-Serif" font-size="10.00">#</text>
<text text-anchor="start" x="14" y="-766.5" font-family="Helvetica,sans-Serif" font-size="10.00">BeginPlay()</text>
<text text-anchor="start" x="4.38" y="-750.5" font-family="Helvetica,sans-Serif" font-size="10.00">#</text>
<text text-anchor="start" x="14" y="-750.5" font-family="Helvetica,sans-Serif" font-size="10.00">GetHit_Implementation()</text>
<text text-anchor="start" x="4.38" y="-734.5" font-family="Helvetica,sans-Serif" font-size="10.00">#</text>
<text text-anchor="start" x="14" y="-734.5" font-family="Helvetica,sans-Serif" font-size="10.00">Attack()</text>
<text text-anchor="start" x="4.38" y="-718.5" font-family="Helvetica,sans-Serif" font-size="10.00">#</text>
<text text-anchor="start" x="14" y="-718.5" font-family="Helvetica,sans-Serif" font-size="10.00">Die()</text>
<text text-anchor="start" x="4.38" y="-702.5" font-family="Helvetica,sans-Serif" font-size="10.00">#</text>
<text text-anchor="start" x="14" y="-702.5" font-family="Helvetica,sans-Serif" font-size="10.00">DirectionalHitReact()</text>
<text text-anchor="start" x="4.38" y="-686.5" font-family="Helvetica,sans-Serif" font-size="10.00">#</text>
<text text-anchor="start" x="14" y="-686.5" font-family="Helvetica,sans-Serif" font-size="10.00">HandleDamage()</text>
<text text-anchor="start" x="4.38" y="-670.5" font-family="Helvetica,sans-Serif" font-size="10.00">#</text>
<text text-anchor="start" x="14" y="-670.5" font-family="Helvetica,sans-Serif" font-size="10.00">PlayHitSound()</text>
<text text-anchor="start" x="4.38" y="-654.5" font-family="Helvetica,sans-Serif" font-size="10.00">#</text>
<text text-anchor="start" x="14" y="-654.5" font-family="Helvetica,sans-Serif" font-size="10.00">SpawnHitParticles()</text>
<text text-anchor="start" x="4.38" y="-638.5" font-family="Helvetica,sans-Serif" font-size="10.00">#</text>
<text text-anchor="start" x="14" y="-638.5" font-family="Helvetica,sans-Serif" font-size="10.00">DisableCapsule()</text>
<text text-anchor="start" x="4.38" y="-622.5" font-family="Helvetica,sans-Serif" font-size="10.00">#</text>
<text text-anchor="start" x="14" y="-622.5" font-family="Helvetica,sans-Serif" font-size="10.00">CanAttack()</text>
<text text-anchor="start" x="14" y="-606.5" font-family="Helvetica,sans-Serif" font-size="10.00">and 12 more...</text>
<text text-anchor="start" x="5.5" y="-590.5" font-family="Helvetica,sans-Serif" font-size="10.00">&#45;</text>
<text text-anchor="start" x="14" y="-590.5" font-family="Helvetica,sans-Serif" font-size="10.00">PlayMontageSection()</text>
<text text-anchor="start" x="5.5" y="-574.5" font-family="Helvetica,sans-Serif" font-size="10.00">&#45;</text>
<text text-anchor="start" x="14" y="-574.5" font-family="Helvetica,sans-Serif" font-size="10.00">PlayRandomMontageSection()</text>
<polygon fill="#666666" stroke="#666666" points="0,-858 0,-858 150.75,-858 150.75,-858 0,-858"/>
<polygon fill="#666666" stroke="#666666" points="0,-810 0,-810 12,-810 12,-810 0,-810"/>
<polygon fill="#666666" stroke="#666666" points="12,-810 12,-810 150.75,-810 150.75,-810 12,-810"/>
<polygon fill="none" stroke="#666666" points="0,-568 0,-876 150.75,-876 150.75,-568 0,-568"/>
</a>
</g>
</g>
<!-- Node2&#45;&gt;Node1 -->
<g id="edge1_Node000001_Node000002" class="edge">
<title>Node2&#45;&gt;Node1</title>
<g id="a_edge1_Node000001_Node000002"><a xlink:title=" ">
<path fill="none" stroke="#63b8ff" d="M102.1,-557.06C103.44,-548.79 104.81,-540.41 106.19,-531.95"/>
<polygon fill="none" stroke="#63b8ff" points="98.67,-556.32 100.52,-566.75 105.58,-557.44 98.67,-556.32"/>
</a>
</g>
</g>
<!-- Node3 -->
<g id="Node000003" class="node">
<title>Node3</title>
<g id="a_Node000003"><a xlink:title=" ">
<polygon fill="white" stroke="none" points="65.12,-964 7.62,-964 7.62,-912 65.12,-912 65.12,-964"/>
<text text-anchor="start" x="11.62" y="-950.5" font-family="Helvetica,sans-Serif" font-size="10.00">ACharacter</text>
<text text-anchor="start" x="34.88" y="-934.5" font-family="Helvetica,sans-Serif" font-size="10.00"> </text>
<text text-anchor="start" x="34.88" y="-918.5" font-family="Helvetica,sans-Serif" font-size="10.00"> </text>
<polygon fill="#666666" stroke="#666666" points="7.62,-946 7.62,-946 65.12,-946 65.12,-946 7.62,-946"/>
<polygon fill="#666666" stroke="#666666" points="7.62,-930 7.62,-930 65.12,-930 65.12,-930 7.62,-930"/>
<polygon fill="none" stroke="#666666" points="7.62,-912 7.62,-964 65.12,-964 65.12,-912 7.62,-912"/>
</a>
</g>
</g>
<!-- Node3&#45;&gt;Node2 -->
<g id="edge2_Node000002_Node000003" class="edge">
<title>Node3&#45;&gt;Node2</title>
<g id="a_edge2_Node000002_Node000003"><a xlink:title=" ">
<path fill="none" stroke="#63b8ff" d="M42.96,-900.88C44.34,-893.3 45.88,-884.86 47.51,-875.89"/>
<polygon fill="none" stroke="#63b8ff" points="39.55,-900.08 41.2,-910.54 46.43,-901.33 39.55,-900.08"/>
</a>
</g>
</g>
<!-- Node4 -->
<g id="Node000004" class="node">
<title>Node4</title>
<g id="a_Node000004"><a xlink:href="class_i_hit_interface.html" target="_top" xlink:title=" ">
<polygon fill="white" stroke="none" points="145.38,-964 83.38,-964 83.38,-912 145.38,-912 145.38,-964"/>
<text text-anchor="start" x="87.38" y="-950.5" font-family="Helvetica,sans-Serif" font-size="10.00">IHitInterface</text>
<text text-anchor="start" x="112.88" y="-934.5" font-family="Helvetica,sans-Serif" font-size="10.00"> </text>
<text text-anchor="start" x="89.75" y="-918.5" font-family="Helvetica,sans-Serif" font-size="10.00">+</text>
<text text-anchor="start" x="102.12" y="-918.5" font-family="Helvetica,sans-Serif" font-size="10.00">GetHit()</text>
<polygon fill="#666666" stroke="#666666" points="83.38,-946 83.38,-946 145.38,-946 145.38,-946 83.38,-946"/>
<polygon fill="#666666" stroke="#666666" points="83.38,-930 83.38,-930 145.38,-930 145.38,-930 83.38,-930"/>
<polygon fill="none" stroke="#666666" points="83.38,-912 83.38,-964 145.38,-964 145.38,-912 83.38,-912"/>
</a>
</g>
</g>
<!-- Node4&#45;&gt;Node2 -->
<g id="edge3_Node000002_Node000004" class="edge">
<title>Node4&#45;&gt;Node2</title>
<g id="a_edge3_Node000002_Node000004"><a xlink:title=" ">
<path fill="none" stroke="#63b8ff" d="M107.79,-900.88C106.41,-893.3 104.87,-884.86 103.24,-875.89"/>
<polygon fill="none" stroke="#63b8ff" points="104.32,-901.33 109.55,-910.54 111.2,-900.08 104.32,-901.33"/>
</a>
</g>
</g>
<!-- Node5 -->
<g id="Node000005" class="node">
<title>Node5</title>
<g id="a_Node000005"><a xlink:href="class_i_pickup_interface.html" target="_top" xlink:title=" ">
<polygon fill="white" stroke="none" points="279.5,-764 169.25,-764 169.25,-680 279.5,-680 279.5,-764"/>
<text text-anchor="start" x="188.75" y="-750.5" font-family="Helvetica,sans-Serif" font-size="10.00">IPickupInterface</text>
<text text-anchor="start" x="222.88" y="-734.5" font-family="Helvetica,sans-Serif" font-size="10.00"> </text>
<text text-anchor="start" x="173.25" y="-718.5" font-family="Helvetica,sans-Serif" font-size="10.00">+</text>
<text text-anchor="start" x="183.25" y="-718.5" font-family="Helvetica,sans-Serif" font-size="10.00">SetOverlappingItem()</text>
<text text-anchor="start" x="173.25" y="-702.5" font-family="Helvetica,sans-Serif" font-size="10.00">+</text>
<text text-anchor="start" x="183.25" y="-702.5" font-family="Helvetica,sans-Serif" font-size="10.00">AddSouls()</text>
<text text-anchor="start" x="173.25" y="-686.5" font-family="Helvetica,sans-Serif" font-size="10.00">+</text>
<text text-anchor="start" x="183.25" y="-686.5" font-family="Helvetica,sans-Serif" font-size="10.00">AddGold()</text>
<polygon fill="#666666" stroke="#666666" points="169.25,-746 169.25,-746 279.5,-746 279.5,-746 169.25,-746"/>
<polygon fill="#666666" stroke="#666666" points="169.25,-730 169.25,-730 279.5,-730 279.5,-730 169.25,-730"/>
<polygon fill="none" stroke="#666666" points="169.25,-680 169.25,-764 279.5,-764 279.5,-680 169.25,-680"/>
</a>
</g>
</g>
<!-- Node5&#45;&gt;Node1 -->
<g id="edge4_Node000001_Node000005" class="edge">
<title>Node5&#45;&gt;Node1</title>
<g id="a_edge4_Node000001_Node000005"><a xlink:title=" ">
<path fill="none" stroke="#63b8ff" d="M215.85,-669.38C210.02,-634.1 201.8,-584.37 193.13,-531.86"/>
<polygon fill="none" stroke="#63b8ff" points="212.32,-669.52 217.41,-678.82 219.23,-668.38 212.32,-669.52"/>
</a>
</g>
</g>
</g>
</svg>
