<?xml version="1.0" encoding="UTF-8" standalone="no"?>
<!DOCTYPE svg PUBLIC "-//W3C//DTD SVG 1.1//EN"
 "http://www.w3.org/Graphics/SVG/1.1/DTD/svg11.dtd">
<!-- Generated by graphviz version 12.2.1 (20241206.2353)
 -->
<!-- Title: UHealthBarComponent Pages: 1 -->
<svg width="205pt" height="249pt"
 viewBox="0.00 0.00 204.89 249.00" xmlns="http://www.w3.org/2000/svg" xmlns:xlink="http://www.w3.org/1999/xlink">
<g id="graph0" class="graph" transform="scale(1 1) rotate(0) translate(4 245)">
<title>UHealthBarComponent</title>
<!-- Node1 -->
<g id="Node000001" class="node">
<title>Node1</title>
<g id="a_Node000001"><a xlink:title=" ">
<polygon fill="#999999" stroke="none" points="134.88,-52 25.62,-52 25.62,0 134.88,0 134.88,-52"/>
<text text-anchor="start" x="29.62" y="-38.5" font-family="Helvetica,sans-Serif" font-size="10.00">UHealthBarComponent</text>
<text text-anchor="start" x="78.75" y="-22.5" font-family="Helvetica,sans-Serif" font-size="10.00"> </text>
<text text-anchor="start" x="31.62" y="-6.5" font-family="Helvetica,sans-Serif" font-size="10.00">+</text>
<text text-anchor="start" x="43.62" y="-6.5" font-family="Helvetica,sans-Serif" font-size="10.00">SetHealthPercent()</text>
<polygon fill="#666666" stroke="#666666" points="25.62,-34 25.62,-34 134.88,-34 134.88,-34 25.62,-34"/>
<polygon fill="#666666" stroke="#666666" points="25.62,-18 25.62,-18 134.88,-18 134.88,-18 25.62,-18"/>
<polygon fill="none" stroke="#666666" points="25.62,0 25.62,-52 134.88,-52 134.88,0 25.62,0"/>
</a>
</g>
</g>
<!-- Node2 -->
<g id="Node000002" class="node">
<title>Node2</title>
<g id="a_Node000002"><a xlink:title=" ">
<polygon fill="white" stroke="none" points="96.5,-152 0,-152 0,-100 96.5,-100 96.5,-152"/>
<text text-anchor="start" x="4" y="-138.5" font-family="Helvetica,sans-Serif" font-size="10.00">UWidgetComponent</text>
<text text-anchor="start" x="46.75" y="-122.5" font-family="Helvetica,sans-Serif" font-size="10.00"> </text>
<text text-anchor="start" x="46.75" y="-106.5" font-family="Helvetica,sans-Serif" font-size="10.00"> </text>
<polygon fill="#666666" stroke="#666666" points="0,-134 0,-134 96.5,-134 96.5,-134 0,-134"/>
<polygon fill="#666666" stroke="#666666" points="0,-118 0,-118 96.5,-118 96.5,-118 0,-118"/>
<polygon fill="none" stroke="#666666" points="0,-100 0,-152 96.5,-152 96.5,-100 0,-100"/>
</a>
</g>
</g>
<!-- Node2&#45;&gt;Node1 -->
<g id="edge1_Node000001_Node000002" class="edge">
<title>Node2&#45;&gt;Node1</title>
<g id="a_edge1_Node000001_Node000002"><a xlink:title=" ">
<path fill="none" stroke="#63b8ff" d="M59.97,-89.11C64,-76.77 68.42,-63.22 72.11,-51.94"/>
<polygon fill="none" stroke="#63b8ff" points="56.65,-87.99 56.88,-98.58 63.31,-90.16 56.65,-87.99"/>
</a>
</g>
</g>
<!-- Node3 -->
<g id="Node000003" class="node">
<title>Node3</title>
<g id="a_Node000003"><a xlink:href="class_u_health_bar.html" target="_top" xlink:title=" ">
<polygon fill="white" stroke="none" points="176,-152 114.5,-152 114.5,-100 176,-100 176,-152"/>
<text text-anchor="start" x="119.75" y="-138.5" font-family="Helvetica,sans-Serif" font-size="10.00">UHealthBar</text>
<text text-anchor="start" x="118.5" y="-122.5" font-family="Helvetica,sans-Serif" font-size="10.00">+</text>
<text text-anchor="start" x="128.5" y="-122.5" font-family="Helvetica,sans-Serif" font-size="10.00">HealthBar</text>
<text text-anchor="start" x="143.75" y="-106.5" font-family="Helvetica,sans-Serif" font-size="10.00"> </text>
<polygon fill="#666666" stroke="#666666" points="114.5,-134 114.5,-134 176,-134 176,-134 114.5,-134"/>
<polygon fill="#666666" stroke="#666666" points="114.5,-118 114.5,-118 126.5,-118 126.5,-118 114.5,-118"/>
<polygon fill="#666666" stroke="#666666" points="126.5,-118 126.5,-118 176,-118 176,-118 126.5,-118"/>
<polygon fill="none" stroke="#666666" points="114.5,-100 114.5,-152 176,-152 176,-100 114.5,-100"/>
</a>
</g>
</g>
<!-- Node3&#45;&gt;Node1 -->
<g id="edge2_Node000001_Node000003" class="edge">
<title>Node3&#45;&gt;Node1</title>
<g id="a_edge2_Node000001_Node000003"><a xlink:title=" ">
<path fill="none" stroke="#63b8ff" d="M128.68,-100.02C121.12,-88.61 112.02,-74.9 103.77,-62.46"/>
<polygon fill="none" stroke="#63b8ff" points="103.92,-62.69 97.27,-59.9 97.29,-52.69 103.94,-55.48 103.92,-62.69"/>
</a>
</g>
<text text-anchor="middle" x="156.77" y="-72.5" font-family="Helvetica,sans-Serif" font-size="10.00" fill="grey"> &#45;HealthBarWidget</text>
</g>
<!-- Node4 -->
<g id="Node000004" class="node">
<title>Node4</title>
<g id="a_Node000004"><a xlink:title=" ">
<polygon fill="white" stroke="none" points="178.88,-241 111.62,-241 111.62,-189 178.88,-189 178.88,-241"/>
<text text-anchor="start" x="115.62" y="-227.5" font-family="Helvetica,sans-Serif" font-size="10.00">UUserWidget</text>
<text text-anchor="start" x="143.75" y="-211.5" font-family="Helvetica,sans-Serif" font-size="10.00"> </text>
<text text-anchor="start" x="143.75" y="-195.5" font-family="Helvetica,sans-Serif" font-size="10.00"> </text>
<polygon fill="#666666" stroke="#666666" points="111.62,-223 111.62,-223 178.88,-223 178.88,-223 111.62,-223"/>
<polygon fill="#666666" stroke="#666666" points="111.62,-207 111.62,-207 178.88,-207 178.88,-207 111.62,-207"/>
<polygon fill="none" stroke="#666666" points="111.62,-189 111.62,-241 178.88,-241 178.88,-189 111.62,-189"/>
</a>
</g>
</g>
<!-- Node4&#45;&gt;Node3 -->
<g id="edge3_Node000003_Node000004" class="edge">
<title>Node4&#45;&gt;Node3</title>
<g id="a_edge3_Node000003_Node000004"><a xlink:title=" ">
<path fill="none" stroke="#63b8ff" d="M145.25,-178.05C145.25,-169.21 145.25,-159.94 145.25,-151.76"/>
<polygon fill="none" stroke="#63b8ff" points="141.75,-177.79 145.25,-187.79 148.75,-177.79 141.75,-177.79"/>
</a>
</g>
</g>
</g>
</svg>
