<?xml version="1.0" encoding="UTF-8" standalone="no"?>
<!DOCTYPE svg PUBLIC "-//W3C//DTD SVG 1.1//EN"
 "http://www.w3.org/Graphics/SVG/1.1/DTD/svg11.dtd">
<!-- Generated by graphviz version 12.2.1 (20241206.2353)
 -->
<!-- Title: AEnemy Pages: 1 -->
<svg width="159pt" height="1020pt"
 viewBox="0.00 0.00 158.75 1020.00" xmlns="http://www.w3.org/2000/svg" xmlns:xlink="http://www.w3.org/1999/xlink">
<g id="graph0" class="graph" transform="scale(1 1) rotate(0) translate(4 1016)">
<title>AEnemy</title>
<!-- Node1 -->
<g id="Node000001" class="node">
<title>Node1</title>
<g id="a_Node000001"><a xlink:title=" ">
<polygon fill="#999999" stroke="none" points="141,-580 9.75,-580 9.75,0 141,0 141,-580"/>
<text text-anchor="start" x="56.62" y="-566.5" font-family="Helvetica,sans-Serif" font-size="10.00">AEnemy</text>
<text text-anchor="start" x="14.12" y="-550.5" font-family="Helvetica,sans-Serif" font-size="10.00">#</text>
<text text-anchor="start" x="23.75" y="-550.5" font-family="Helvetica,sans-Serif" font-size="10.00">DeathPose</text>
<text text-anchor="start" x="14.12" y="-534.5" font-family="Helvetica,sans-Serif" font-size="10.00">#</text>
<text text-anchor="start" x="23.75" y="-534.5" font-family="Helvetica,sans-Serif" font-size="10.00">EnemyState</text>
<text text-anchor="start" x="15.25" y="-518.5" font-family="Helvetica,sans-Serif" font-size="10.00">&#45;</text>
<text text-anchor="start" x="23.75" y="-518.5" font-family="Helvetica,sans-Serif" font-size="10.00">HealthBarWidget</text>
<text text-anchor="start" x="15.25" y="-502.5" font-family="Helvetica,sans-Serif" font-size="10.00">&#45;</text>
<text text-anchor="start" x="23.75" y="-502.5" font-family="Helvetica,sans-Serif" font-size="10.00">PawnSensing</text>
<text text-anchor="start" x="15.25" y="-486.5" font-family="Helvetica,sans-Serif" font-size="10.00">&#45;</text>
<text text-anchor="start" x="23.75" y="-486.5" font-family="Helvetica,sans-Serif" font-size="10.00">Category</text>
<text text-anchor="start" x="15.25" y="-470.5" font-family="Helvetica,sans-Serif" font-size="10.00">&#45;</text>
<text text-anchor="start" x="23.75" y="-470.5" font-family="Helvetica,sans-Serif" font-size="10.00">EnemyController</text>
<text text-anchor="start" x="15.25" y="-454.5" font-family="Helvetica,sans-Serif" font-size="10.00">&#45;</text>
<text text-anchor="start" x="23.75" y="-454.5" font-family="Helvetica,sans-Serif" font-size="10.00">PatrolRadius</text>
<text text-anchor="start" x="15.25" y="-438.5" font-family="Helvetica,sans-Serif" font-size="10.00">&#45;</text>
<text text-anchor="start" x="23.75" y="-438.5" font-family="Helvetica,sans-Serif" font-size="10.00">PatrolTimer</text>
<text text-anchor="start" x="15.25" y="-422.5" font-family="Helvetica,sans-Serif" font-size="10.00">&#45;</text>
<text text-anchor="start" x="23.75" y="-422.5" font-family="Helvetica,sans-Serif" font-size="10.00">AttackTimer</text>
<text text-anchor="start" x="15.25" y="-406.5" font-family="Helvetica,sans-Serif" font-size="10.00">&#45;</text>
<text text-anchor="start" x="23.75" y="-406.5" font-family="Helvetica,sans-Serif" font-size="10.00">BeginPatrolTimer</text>
<text text-anchor="start" x="13.75" y="-390.5" font-family="Helvetica,sans-Serif" font-size="10.00">+</text>
<text text-anchor="start" x="23.75" y="-390.5" font-family="Helvetica,sans-Serif" font-size="10.00">AEnemy()</text>
<text text-anchor="start" x="13.75" y="-374.5" font-family="Helvetica,sans-Serif" font-size="10.00">+</text>
<text text-anchor="start" x="23.75" y="-374.5" font-family="Helvetica,sans-Serif" font-size="10.00">Tick()</text>
<text text-anchor="start" x="13.75" y="-358.5" font-family="Helvetica,sans-Serif" font-size="10.00">+</text>
<text text-anchor="start" x="23.75" y="-358.5" font-family="Helvetica,sans-Serif" font-size="10.00">TakeDamage()</text>
<text text-anchor="start" x="13.75" y="-342.5" font-family="Helvetica,sans-Serif" font-size="10.00">+</text>
<text text-anchor="start" x="23.75" y="-342.5" font-family="Helvetica,sans-Serif" font-size="10.00">Destroyed()</text>
<text text-anchor="start" x="13.75" y="-326.5" font-family="Helvetica,sans-Serif" font-size="10.00">+</text>
<text text-anchor="start" x="23.75" y="-326.5" font-family="Helvetica,sans-Serif" font-size="10.00">GetHit_Implementation()</text>
<text text-anchor="start" x="14.12" y="-310.5" font-family="Helvetica,sans-Serif" font-size="10.00">#</text>
<text text-anchor="start" x="23.75" y="-310.5" font-family="Helvetica,sans-Serif" font-size="10.00">BeginPlay()</text>
<text text-anchor="start" x="14.12" y="-294.5" font-family="Helvetica,sans-Serif" font-size="10.00">#</text>
<text text-anchor="start" x="23.75" y="-294.5" font-family="Helvetica,sans-Serif" font-size="10.00">Die_Implementation()</text>
<text text-anchor="start" x="14.12" y="-278.5" font-family="Helvetica,sans-Serif" font-size="10.00">#</text>
<text text-anchor="start" x="23.75" y="-278.5" font-family="Helvetica,sans-Serif" font-size="10.00">Attack()</text>
<text text-anchor="start" x="14.12" y="-262.5" font-family="Helvetica,sans-Serif" font-size="10.00">#</text>
<text text-anchor="start" x="23.75" y="-262.5" font-family="Helvetica,sans-Serif" font-size="10.00">CanAttack()</text>
<text text-anchor="start" x="14.12" y="-246.5" font-family="Helvetica,sans-Serif" font-size="10.00">#</text>
<text text-anchor="start" x="23.75" y="-246.5" font-family="Helvetica,sans-Serif" font-size="10.00">HandleDamage()</text>
<text text-anchor="start" x="14.12" y="-230.5" font-family="Helvetica,sans-Serif" font-size="10.00">#</text>
<text text-anchor="start" x="23.75" y="-230.5" font-family="Helvetica,sans-Serif" font-size="10.00">PlayDeathMontage()</text>
<text text-anchor="start" x="14.12" y="-214.5" font-family="Helvetica,sans-Serif" font-size="10.00">#</text>
<text text-anchor="start" x="23.75" y="-214.5" font-family="Helvetica,sans-Serif" font-size="10.00">AttackEnd()</text>
<text text-anchor="start" x="14.12" y="-198.5" font-family="Helvetica,sans-Serif" font-size="10.00">#</text>
<text text-anchor="start" x="23.75" y="-198.5" font-family="Helvetica,sans-Serif" font-size="10.00">InTargetRange()</text>
<text text-anchor="start" x="14.12" y="-182.5" font-family="Helvetica,sans-Serif" font-size="10.00">#</text>
<text text-anchor="start" x="23.75" y="-182.5" font-family="Helvetica,sans-Serif" font-size="10.00">SpawnSoul()</text>
<text text-anchor="start" x="15.25" y="-166.5" font-family="Helvetica,sans-Serif" font-size="10.00">&#45;</text>
<text text-anchor="start" x="23.75" y="-166.5" font-family="Helvetica,sans-Serif" font-size="10.00">InitializeEnemy()</text>
<text text-anchor="start" x="15.25" y="-150.5" font-family="Helvetica,sans-Serif" font-size="10.00">&#45;</text>
<text text-anchor="start" x="23.75" y="-150.5" font-family="Helvetica,sans-Serif" font-size="10.00">CheckPatrolTarget()</text>
<text text-anchor="start" x="15.25" y="-134.5" font-family="Helvetica,sans-Serif" font-size="10.00">&#45;</text>
<text text-anchor="start" x="23.75" y="-134.5" font-family="Helvetica,sans-Serif" font-size="10.00">CheckCombatTarget()</text>
<text text-anchor="start" x="15.25" y="-118.5" font-family="Helvetica,sans-Serif" font-size="10.00">&#45;</text>
<text text-anchor="start" x="23.75" y="-118.5" font-family="Helvetica,sans-Serif" font-size="10.00">PatrolTimerFinished()</text>
<text text-anchor="start" x="15.25" y="-102.5" font-family="Helvetica,sans-Serif" font-size="10.00">&#45;</text>
<text text-anchor="start" x="23.75" y="-102.5" font-family="Helvetica,sans-Serif" font-size="10.00">HideHealthBar()</text>
<text text-anchor="start" x="15.25" y="-86.5" font-family="Helvetica,sans-Serif" font-size="10.00">&#45;</text>
<text text-anchor="start" x="23.75" y="-86.5" font-family="Helvetica,sans-Serif" font-size="10.00">ShowHealthBar()</text>
<text text-anchor="start" x="15.25" y="-70.5" font-family="Helvetica,sans-Serif" font-size="10.00">&#45;</text>
<text text-anchor="start" x="23.75" y="-70.5" font-family="Helvetica,sans-Serif" font-size="10.00">LoseInterest()</text>
<text text-anchor="start" x="15.25" y="-54.5" font-family="Helvetica,sans-Serif" font-size="10.00">&#45;</text>
<text text-anchor="start" x="23.75" y="-54.5" font-family="Helvetica,sans-Serif" font-size="10.00">StartPatrolling()</text>
<text text-anchor="start" x="15.25" y="-38.5" font-family="Helvetica,sans-Serif" font-size="10.00">&#45;</text>
<text text-anchor="start" x="23.75" y="-38.5" font-family="Helvetica,sans-Serif" font-size="10.00">ChaseTarget()</text>
<text text-anchor="start" x="15.25" y="-22.5" font-family="Helvetica,sans-Serif" font-size="10.00">&#45;</text>
<text text-anchor="start" x="23.75" y="-22.5" font-family="Helvetica,sans-Serif" font-size="10.00">IsOutsideCombatRadius()</text>
<text text-anchor="start" x="23.75" y="-6.5" font-family="Helvetica,sans-Serif" font-size="10.00">and 14 more...</text>
<polygon fill="#666666" stroke="#666666" points="9.75,-562 9.75,-562 141,-562 141,-562 9.75,-562"/>
<polygon fill="#666666" stroke="#666666" points="9.75,-402 9.75,-402 21.75,-402 21.75,-402 9.75,-402"/>
<polygon fill="#666666" stroke="#666666" points="21.75,-402 21.75,-402 141,-402 141,-402 21.75,-402"/>
<polygon fill="none" stroke="#666666" points="9.75,0 9.75,-580 141,-580 141,0 9.75,0"/>
</a>
</g>
</g>
<!-- Node2 -->
<g id="Node000002" class="node">
<title>Node2</title>
<g id="a_Node000002"><a xlink:href="class_a_base_character.html" target="_top" xlink:title=" ">
<polygon fill="white" stroke="none" points="150.75,-924 0,-924 0,-616 150.75,-616 150.75,-924"/>
<text text-anchor="start" x="39.38" y="-910.5" font-family="Helvetica,sans-Serif" font-size="10.00">ABaseCharacter</text>
<text text-anchor="start" x="4.38" y="-894.5" font-family="Helvetica,sans-Serif" font-size="10.00">#</text>
<text text-anchor="start" x="14" y="-894.5" font-family="Helvetica,sans-Serif" font-size="10.00">Category</text>
<text text-anchor="start" x="4.38" y="-878.5" font-family="Helvetica,sans-Serif" font-size="10.00">#</text>
<text text-anchor="start" x="14" y="-878.5" font-family="Helvetica,sans-Serif" font-size="10.00">BlueprintReadOnly</text>
<text text-anchor="start" x="4.38" y="-862.5" font-family="Helvetica,sans-Serif" font-size="10.00">#</text>
<text text-anchor="start" x="14" y="-862.5" font-family="Helvetica,sans-Serif" font-size="10.00">meta</text>
<text text-anchor="start" x="4" y="-846.5" font-family="Helvetica,sans-Serif" font-size="10.00">+</text>
<text text-anchor="start" x="14" y="-846.5" font-family="Helvetica,sans-Serif" font-size="10.00">ABaseCharacter()</text>
<text text-anchor="start" x="4" y="-830.5" font-family="Helvetica,sans-Serif" font-size="10.00">+</text>
<text text-anchor="start" x="14" y="-830.5" font-family="Helvetica,sans-Serif" font-size="10.00">Tick()</text>
<text text-anchor="start" x="4.38" y="-814.5" font-family="Helvetica,sans-Serif" font-size="10.00">#</text>
<text text-anchor="start" x="14" y="-814.5" font-family="Helvetica,sans-Serif" font-size="10.00">BeginPlay()</text>
<text text-anchor="start" x="4.38" y="-798.5" font-family="Helvetica,sans-Serif" font-size="10.00">#</text>
<text text-anchor="start" x="14" y="-798.5" font-family="Helvetica,sans-Serif" font-size="10.00">GetHit_Implementation()</text>
<text text-anchor="start" x="4.38" y="-782.5" font-family="Helvetica,sans-Serif" font-size="10.00">#</text>
<text text-anchor="start" x="14" y="-782.5" font-family="Helvetica,sans-Serif" font-size="10.00">Attack()</text>
<text text-anchor="start" x="4.38" y="-766.5" font-family="Helvetica,sans-Serif" font-size="10.00">#</text>
<text text-anchor="start" x="14" y="-766.5" font-family="Helvetica,sans-Serif" font-size="10.00">Die()</text>
<text text-anchor="start" x="4.38" y="-750.5" font-family="Helvetica,sans-Serif" font-size="10.00">#</text>
<text text-anchor="start" x="14" y="-750.5" font-family="Helvetica,sans-Serif" font-size="10.00">DirectionalHitReact()</text>
<text text-anchor="start" x="4.38" y="-734.5" font-family="Helvetica,sans-Serif" font-size="10.00">#</text>
<text text-anchor="start" x="14" y="-734.5" font-family="Helvetica,sans-Serif" font-size="10.00">HandleDamage()</text>
<text text-anchor="start" x="4.38" y="-718.5" font-family="Helvetica,sans-Serif" font-size="10.00">#</text>
<text text-anchor="start" x="14" y="-718.5" font-family="Helvetica,sans-Serif" font-size="10.00">PlayHitSound()</text>
<text text-anchor="start" x="4.38" y="-702.5" font-family="Helvetica,sans-Serif" font-size="10.00">#</text>
<text text-anchor="start" x="14" y="-702.5" font-family="Helvetica,sans-Serif" font-size="10.00">SpawnHitParticles()</text>
<text text-anchor="start" x="4.38" y="-686.5" font-family="Helvetica,sans-Serif" font-size="10.00">#</text>
<text text-anchor="start" x="14" y="-686.5" font-family="Helvetica,sans-Serif" font-size="10.00">DisableCapsule()</text>
<text text-anchor="start" x="4.38" y="-670.5" font-family="Helvetica,sans-Serif" font-size="10.00">#</text>
<text text-anchor="start" x="14" y="-670.5" font-family="Helvetica,sans-Serif" font-size="10.00">CanAttack()</text>
<text text-anchor="start" x="14" y="-654.5" font-family="Helvetica,sans-Serif" font-size="10.00">and 12 more...</text>
<text text-anchor="start" x="5.5" y="-638.5" font-family="Helvetica,sans-Serif" font-size="10.00">&#45;</text>
<text text-anchor="start" x="14" y="-638.5" font-family="Helvetica,sans-Serif" font-size="10.00">PlayMontageSection()</text>
<text text-anchor="start" x="5.5" y="-622.5" font-family="Helvetica,sans-Serif" font-size="10.00">&#45;</text>
<text text-anchor="start" x="14" y="-622.5" font-family="Helvetica,sans-Serif" font-size="10.00">PlayRandomMontageSection()</text>
<polygon fill="#666666" stroke="#666666" points="0,-906 0,-906 150.75,-906 150.75,-906 0,-906"/>
<polygon fill="#666666" stroke="#666666" points="0,-858 0,-858 12,-858 12,-858 0,-858"/>
<polygon fill="#666666" stroke="#666666" points="12,-858 12,-858 150.75,-858 150.75,-858 12,-858"/>
<polygon fill="none" stroke="#666666" points="0,-616 0,-924 150.75,-924 150.75,-616 0,-616"/>
</a>
</g>
</g>
<!-- Node2&#45;&gt;Node1 -->
<g id="edge1_Node000001_Node000002" class="edge">
<title>Node2&#45;&gt;Node1</title>
<g id="a_edge1_Node000001_Node000002"><a xlink:title=" ">
<path fill="none" stroke="#63b8ff" d="M75.38,-604.88C75.38,-596.58 75.38,-588.15 75.38,-579.63"/>
<polygon fill="none" stroke="#63b8ff" points="71.88,-604.6 75.38,-614.6 78.88,-604.6 71.88,-604.6"/>
</a>
</g>
</g>
<!-- Node3 -->
<g id="Node000003" class="node">
<title>Node3</title>
<g id="a_Node000003"><a xlink:title=" ">
<polygon fill="white" stroke="none" points="65.12,-1012 7.62,-1012 7.62,-960 65.12,-960 65.12,-1012"/>
<text text-anchor="start" x="11.62" y="-998.5" font-family="Helvetica,sans-Serif" font-size="10.00">ACharacter</text>
<text text-anchor="start" x="34.88" y="-982.5" font-family="Helvetica,sans-Serif" font-size="10.00"> </text>
<text text-anchor="start" x="34.88" y="-966.5" font-family="Helvetica,sans-Serif" font-size="10.00"> </text>
<polygon fill="#666666" stroke="#666666" points="7.62,-994 7.62,-994 65.12,-994 65.12,-994 7.62,-994"/>
<polygon fill="#666666" stroke="#666666" points="7.62,-978 7.62,-978 65.12,-978 65.12,-978 7.62,-978"/>
<polygon fill="none" stroke="#666666" points="7.62,-960 7.62,-1012 65.12,-1012 65.12,-960 7.62,-960"/>
</a>
</g>
</g>
<!-- Node3&#45;&gt;Node2 -->
<g id="edge2_Node000002_Node000003" class="edge">
<title>Node3&#45;&gt;Node2</title>
<g id="a_edge2_Node000002_Node000003"><a xlink:title=" ">
<path fill="none" stroke="#63b8ff" d="M42.96,-948.88C44.34,-941.3 45.88,-932.86 47.51,-923.89"/>
<polygon fill="none" stroke="#63b8ff" points="39.55,-948.08 41.2,-958.54 46.43,-949.33 39.55,-948.08"/>
</a>
</g>
</g>
<!-- Node4 -->
<g id="Node000004" class="node">
<title>Node4</title>
<g id="a_Node000004"><a xlink:href="class_i_hit_interface.html" target="_top" xlink:title=" ">
<polygon fill="white" stroke="none" points="145.38,-1012 83.38,-1012 83.38,-960 145.38,-960 145.38,-1012"/>
<text text-anchor="start" x="87.38" y="-998.5" font-family="Helvetica,sans-Serif" font-size="10.00">IHitInterface</text>
<text text-anchor="start" x="112.88" y="-982.5" font-family="Helvetica,sans-Serif" font-size="10.00"> </text>
<text text-anchor="start" x="89.75" y="-966.5" font-family="Helvetica,sans-Serif" font-size="10.00">+</text>
<text text-anchor="start" x="102.12" y="-966.5" font-family="Helvetica,sans-Serif" font-size="10.00">GetHit()</text>
<polygon fill="#666666" stroke="#666666" points="83.38,-994 83.38,-994 145.38,-994 145.38,-994 83.38,-994"/>
<polygon fill="#666666" stroke="#666666" points="83.38,-978 83.38,-978 145.38,-978 145.38,-978 83.38,-978"/>
<polygon fill="none" stroke="#666666" points="83.38,-960 83.38,-1012 145.38,-1012 145.38,-960 83.38,-960"/>
</a>
</g>
</g>
<!-- Node4&#45;&gt;Node2 -->
<g id="edge3_Node000002_Node000004" class="edge">
<title>Node4&#45;&gt;Node2</title>
<g id="a_edge3_Node000002_Node000004"><a xlink:title=" ">
<path fill="none" stroke="#63b8ff" d="M107.79,-948.88C106.41,-941.3 104.87,-932.86 103.24,-923.89"/>
<polygon fill="none" stroke="#63b8ff" points="104.32,-949.33 109.55,-958.54 111.2,-948.08 104.32,-949.33"/>
</a>
</g>
</g>
</g>
</svg>
