<?xml version="1.0" encoding="UTF-8" standalone="no"?>
<!DOCTYPE svg PUBLIC "-//W3C//DTD SVG 1.1//EN"
 "http://www.w3.org/Graphics/SVG/1.1/DTD/svg11.dtd">
<!-- Generated by graphviz version 12.2.1 (20241206.2353)
 -->
<!-- Title: ABaseCharacter Pages: 1 -->
<svg width="159pt" height="404pt"
 viewBox="0.00 0.00 158.75 404.00" xmlns="http://www.w3.org/2000/svg" xmlns:xlink="http://www.w3.org/1999/xlink">
<g id="graph0" class="graph" transform="scale(1 1) rotate(0) translate(4 400)">
<title>ABaseCharacter</title>
<!-- Node1 -->
<g id="Node000001" class="node">
<title>Node1</title>
<g id="a_Node000001"><a xlink:title=" ">
<polygon fill="#999999" stroke="none" points="150.75,-308 0,-308 0,0 150.75,0 150.75,-308"/>
<text text-anchor="start" x="39.38" y="-294.5" font-family="Helvetica,sans-Serif" font-size="10.00">ABaseCharacter</text>
<text text-anchor="start" x="4.38" y="-278.5" font-family="Helvetica,sans-Serif" font-size="10.00">#</text>
<text text-anchor="start" x="14" y="-278.5" font-family="Helvetica,sans-Serif" font-size="10.00">Category</text>
<text text-anchor="start" x="4.38" y="-262.5" font-family="Helvetica,sans-Serif" font-size="10.00">#</text>
<text text-anchor="start" x="14" y="-262.5" font-family="Helvetica,sans-Serif" font-size="10.00">BlueprintReadOnly</text>
<text text-anchor="start" x="4.38" y="-246.5" font-family="Helvetica,sans-Serif" font-size="10.00">#</text>
<text text-anchor="start" x="14" y="-246.5" font-family="Helvetica,sans-Serif" font-size="10.00">meta</text>
<text text-anchor="start" x="4" y="-230.5" font-family="Helvetica,sans-Serif" font-size="10.00">+</text>
<text text-anchor="start" x="14" y="-230.5" font-family="Helvetica,sans-Serif" font-size="10.00">ABaseCharacter()</text>
<text text-anchor="start" x="4" y="-214.5" font-family="Helvetica,sans-Serif" font-size="10.00">+</text>
<text text-anchor="start" x="14" y="-214.5" font-family="Helvetica,sans-Serif" font-size="10.00">Tick()</text>
<text text-anchor="start" x="4.38" y="-198.5" font-family="Helvetica,sans-Serif" font-size="10.00">#</text>
<text text-anchor="start" x="14" y="-198.5" font-family="Helvetica,sans-Serif" font-size="10.00">BeginPlay()</text>
<text text-anchor="start" x="4.38" y="-182.5" font-family="Helvetica,sans-Serif" font-size="10.00">#</text>
<text text-anchor="start" x="14" y="-182.5" font-family="Helvetica,sans-Serif" font-size="10.00">GetHit_Implementation()</text>
<text text-anchor="start" x="4.38" y="-166.5" font-family="Helvetica,sans-Serif" font-size="10.00">#</text>
<text text-anchor="start" x="14" y="-166.5" font-family="Helvetica,sans-Serif" font-size="10.00">Attack()</text>
<text text-anchor="start" x="4.38" y="-150.5" font-family="Helvetica,sans-Serif" font-size="10.00">#</text>
<text text-anchor="start" x="14" y="-150.5" font-family="Helvetica,sans-Serif" font-size="10.00">Die()</text>
<text text-anchor="start" x="4.38" y="-134.5" font-family="Helvetica,sans-Serif" font-size="10.00">#</text>
<text text-anchor="start" x="14" y="-134.5" font-family="Helvetica,sans-Serif" font-size="10.00">DirectionalHitReact()</text>
<text text-anchor="start" x="4.38" y="-118.5" font-family="Helvetica,sans-Serif" font-size="10.00">#</text>
<text text-anchor="start" x="14" y="-118.5" font-family="Helvetica,sans-Serif" font-size="10.00">HandleDamage()</text>
<text text-anchor="start" x="4.38" y="-102.5" font-family="Helvetica,sans-Serif" font-size="10.00">#</text>
<text text-anchor="start" x="14" y="-102.5" font-family="Helvetica,sans-Serif" font-size="10.00">PlayHitSound()</text>
<text text-anchor="start" x="4.38" y="-86.5" font-family="Helvetica,sans-Serif" font-size="10.00">#</text>
<text text-anchor="start" x="14" y="-86.5" font-family="Helvetica,sans-Serif" font-size="10.00">SpawnHitParticles()</text>
<text text-anchor="start" x="4.38" y="-70.5" font-family="Helvetica,sans-Serif" font-size="10.00">#</text>
<text text-anchor="start" x="14" y="-70.5" font-family="Helvetica,sans-Serif" font-size="10.00">DisableCapsule()</text>
<text text-anchor="start" x="4.38" y="-54.5" font-family="Helvetica,sans-Serif" font-size="10.00">#</text>
<text text-anchor="start" x="14" y="-54.5" font-family="Helvetica,sans-Serif" font-size="10.00">CanAttack()</text>
<text text-anchor="start" x="14" y="-38.5" font-family="Helvetica,sans-Serif" font-size="10.00">and 12 more...</text>
<text text-anchor="start" x="5.5" y="-22.5" font-family="Helvetica,sans-Serif" font-size="10.00">&#45;</text>
<text text-anchor="start" x="14" y="-22.5" font-family="Helvetica,sans-Serif" font-size="10.00">PlayMontageSection()</text>
<text text-anchor="start" x="5.5" y="-6.5" font-family="Helvetica,sans-Serif" font-size="10.00">&#45;</text>
<text text-anchor="start" x="14" y="-6.5" font-family="Helvetica,sans-Serif" font-size="10.00">PlayRandomMontageSection()</text>
<polygon fill="#666666" stroke="#666666" points="0,-290 0,-290 150.75,-290 150.75,-290 0,-290"/>
<polygon fill="#666666" stroke="#666666" points="0,-242 0,-242 12,-242 12,-242 0,-242"/>
<polygon fill="#666666" stroke="#666666" points="12,-242 12,-242 150.75,-242 150.75,-242 12,-242"/>
<polygon fill="none" stroke="#666666" points="0,0 0,-308 150.75,-308 150.75,0 0,0"/>
</a>
</g>
</g>
<!-- Node2 -->
<g id="Node000002" class="node">
<title>Node2</title>
<g id="a_Node000002"><a xlink:title=" ">
<polygon fill="white" stroke="none" points="65.12,-396 7.62,-396 7.62,-344 65.12,-344 65.12,-396"/>
<text text-anchor="start" x="11.62" y="-382.5" font-family="Helvetica,sans-Serif" font-size="10.00">ACharacter</text>
<text text-anchor="start" x="34.88" y="-366.5" font-family="Helvetica,sans-Serif" font-size="10.00"> </text>
<text text-anchor="start" x="34.88" y="-350.5" font-family="Helvetica,sans-Serif" font-size="10.00"> </text>
<polygon fill="#666666" stroke="#666666" points="7.62,-378 7.62,-378 65.12,-378 65.12,-378 7.62,-378"/>
<polygon fill="#666666" stroke="#666666" points="7.62,-362 7.62,-362 65.12,-362 65.12,-362 7.62,-362"/>
<polygon fill="none" stroke="#666666" points="7.62,-344 7.62,-396 65.12,-396 65.12,-344 7.62,-344"/>
</a>
</g>
</g>
<!-- Node2&#45;&gt;Node1 -->
<g id="edge1_Node000001_Node000002" class="edge">
<title>Node2&#45;&gt;Node1</title>
<g id="a_edge1_Node000001_Node000002"><a xlink:title=" ">
<path fill="none" stroke="#63b8ff" d="M42.96,-332.88C44.34,-325.3 45.88,-316.86 47.51,-307.89"/>
<polygon fill="none" stroke="#63b8ff" points="39.55,-332.08 41.2,-342.54 46.43,-333.33 39.55,-332.08"/>
</a>
</g>
</g>
<!-- Node3 -->
<g id="Node000003" class="node">
<title>Node3</title>
<g id="a_Node000003"><a xlink:href="class_i_hit_interface.html" target="_top" xlink:title=" ">
<polygon fill="white" stroke="none" points="145.38,-396 83.38,-396 83.38,-344 145.38,-344 145.38,-396"/>
<text text-anchor="start" x="87.38" y="-382.5" font-family="Helvetica,sans-Serif" font-size="10.00">IHitInterface</text>
<text text-anchor="start" x="112.88" y="-366.5" font-family="Helvetica,sans-Serif" font-size="10.00"> </text>
<text text-anchor="start" x="89.75" y="-350.5" font-family="Helvetica,sans-Serif" font-size="10.00">+</text>
<text text-anchor="start" x="102.12" y="-350.5" font-family="Helvetica,sans-Serif" font-size="10.00">GetHit()</text>
<polygon fill="#666666" stroke="#666666" points="83.38,-378 83.38,-378 145.38,-378 145.38,-378 83.38,-378"/>
<polygon fill="#666666" stroke="#666666" points="83.38,-362 83.38,-362 145.38,-362 145.38,-362 83.38,-362"/>
<polygon fill="none" stroke="#666666" points="83.38,-344 83.38,-396 145.38,-396 145.38,-344 83.38,-344"/>
</a>
</g>
</g>
<!-- Node3&#45;&gt;Node1 -->
<g id="edge2_Node000001_Node000003" class="edge">
<title>Node3&#45;&gt;Node1</title>
<g id="a_edge2_Node000001_Node000003"><a xlink:title=" ">
<path fill="none" stroke="#63b8ff" d="M107.79,-332.88C106.41,-325.3 104.87,-316.86 103.24,-307.89"/>
<polygon fill="none" stroke="#63b8ff" points="104.32,-333.33 109.55,-342.54 111.2,-332.08 104.32,-333.33"/>
</a>
</g>
</g>
</g>
</svg>
