<?xml version="1.0" encoding="UTF-8" standalone="no"?>
<!DOCTYPE svg PUBLIC "-//W3C//DTD SVG 1.1//EN"
 "http://www.w3.org/Graphics/SVG/1.1/DTD/svg11.dtd">
<!-- Generated by graphviz version 12.2.1 (20241206.2353)
 -->
<!-- Title: ASlashHUD Pages: 1 -->
<svg width="202pt" height="361pt"
 viewBox="0.00 0.00 202.00 361.00" xmlns="http://www.w3.org/2000/svg" xmlns:xlink="http://www.w3.org/1999/xlink">
<g id="graph0" class="graph" transform="scale(1 1) rotate(0) translate(4 357)">
<title>ASlashHUD</title>
<!-- Node1 -->
<g id="Node000001" class="node">
<title>Node1</title>
<g id="a_Node000001"><a xlink:title=" ">
<polygon fill="#999999" stroke="none" points="98.25,-68 0,-68 0,0 98.25,0 98.25,-68"/>
<text text-anchor="start" x="22.12" y="-54.5" font-family="Helvetica,sans-Serif" font-size="10.00">ASlashHUD</text>
<text text-anchor="start" x="5.5" y="-38.5" font-family="Helvetica,sans-Serif" font-size="10.00">&#45;</text>
<text text-anchor="start" x="14" y="-38.5" font-family="Helvetica,sans-Serif" font-size="10.00">Category</text>
<text text-anchor="start" x="4" y="-22.5" font-family="Helvetica,sans-Serif" font-size="10.00">+</text>
<text text-anchor="start" x="14" y="-22.5" font-family="Helvetica,sans-Serif" font-size="10.00">GetSlashOverlay()</text>
<text text-anchor="start" x="4.38" y="-6.5" font-family="Helvetica,sans-Serif" font-size="10.00">#</text>
<text text-anchor="start" x="14" y="-6.5" font-family="Helvetica,sans-Serif" font-size="10.00">BeginPlay()</text>
<polygon fill="#666666" stroke="#666666" points="0,-50 0,-50 98.25,-50 98.25,-50 0,-50"/>
<polygon fill="#666666" stroke="#666666" points="0,-34 0,-34 12,-34 12,-34 0,-34"/>
<polygon fill="#666666" stroke="#666666" points="12,-34 12,-34 98.25,-34 98.25,-34 12,-34"/>
<polygon fill="none" stroke="#666666" points="0,0 0,-68 98.25,-68 98.25,0 0,0"/>
</a>
</g>
</g>
<!-- Node2 -->
<g id="Node000002" class="node">
<title>Node2</title>
<g id="a_Node000002"><a xlink:title=" ">
<polygon fill="white" stroke="none" points="51.75,-216 14.5,-216 14.5,-164 51.75,-164 51.75,-216"/>
<text text-anchor="start" x="18.5" y="-202.5" font-family="Helvetica,sans-Serif" font-size="10.00">AHUD</text>
<text text-anchor="start" x="31.62" y="-186.5" font-family="Helvetica,sans-Serif" font-size="10.00"> </text>
<text text-anchor="start" x="31.62" y="-170.5" font-family="Helvetica,sans-Serif" font-size="10.00"> </text>
<polygon fill="#666666" stroke="#666666" points="14.5,-198 14.5,-198 51.75,-198 51.75,-198 14.5,-198"/>
<polygon fill="#666666" stroke="#666666" points="14.5,-182 14.5,-182 51.75,-182 51.75,-182 14.5,-182"/>
<polygon fill="none" stroke="#666666" points="14.5,-164 14.5,-216 51.75,-216 51.75,-164 14.5,-164"/>
</a>
</g>
</g>
<!-- Node2&#45;&gt;Node1 -->
<g id="edge1_Node000001_Node000002" class="edge">
<title>Node2&#45;&gt;Node1</title>
<g id="a_edge1_Node000001_Node000002"><a xlink:title=" ">
<path fill="none" stroke="#63b8ff" d="M36.86,-153.08C39.54,-127.28 43.12,-92.78 45.72,-67.74"/>
<polygon fill="none" stroke="#63b8ff" points="33.4,-152.44 35.85,-162.75 40.37,-153.17 33.4,-152.44"/>
</a>
</g>
</g>
<!-- Node3 -->
<g id="Node000003" class="node">
<title>Node3</title>
<g id="a_Node000003"><a xlink:href="class_u_slash_overlay.html" target="_top" xlink:title=" ">
<polygon fill="white" stroke="none" points="194,-264 70.25,-264 70.25,-116 194,-116 194,-264"/>
<text text-anchor="start" x="99.12" y="-250.5" font-family="Helvetica,sans-Serif" font-size="10.00">USlashOverlay</text>
<text text-anchor="start" x="75.75" y="-234.5" font-family="Helvetica,sans-Serif" font-size="10.00">&#45;</text>
<text text-anchor="start" x="84.25" y="-234.5" font-family="Helvetica,sans-Serif" font-size="10.00">HealthProgressBar</text>
<text text-anchor="start" x="75.75" y="-218.5" font-family="Helvetica,sans-Serif" font-size="10.00">&#45;</text>
<text text-anchor="start" x="84.25" y="-218.5" font-family="Helvetica,sans-Serif" font-size="10.00">StaminaProgressBar</text>
<text text-anchor="start" x="75.75" y="-202.5" font-family="Helvetica,sans-Serif" font-size="10.00">&#45;</text>
<text text-anchor="start" x="84.25" y="-202.5" font-family="Helvetica,sans-Serif" font-size="10.00">GoldText</text>
<text text-anchor="start" x="75.75" y="-186.5" font-family="Helvetica,sans-Serif" font-size="10.00">&#45;</text>
<text text-anchor="start" x="84.25" y="-186.5" font-family="Helvetica,sans-Serif" font-size="10.00">SoulsText</text>
<text text-anchor="start" x="74.25" y="-170.5" font-family="Helvetica,sans-Serif" font-size="10.00">+</text>
<text text-anchor="start" x="84.25" y="-170.5" font-family="Helvetica,sans-Serif" font-size="10.00">SetHealthBarPercent()</text>
<text text-anchor="start" x="74.25" y="-154.5" font-family="Helvetica,sans-Serif" font-size="10.00">+</text>
<text text-anchor="start" x="84.25" y="-154.5" font-family="Helvetica,sans-Serif" font-size="10.00">SetStaminaBarPercent()</text>
<text text-anchor="start" x="74.25" y="-138.5" font-family="Helvetica,sans-Serif" font-size="10.00">+</text>
<text text-anchor="start" x="84.25" y="-138.5" font-family="Helvetica,sans-Serif" font-size="10.00">SetGold()</text>
<text text-anchor="start" x="74.25" y="-122.5" font-family="Helvetica,sans-Serif" font-size="10.00">+</text>
<text text-anchor="start" x="84.25" y="-122.5" font-family="Helvetica,sans-Serif" font-size="10.00">SetSouls()</text>
<polygon fill="#666666" stroke="#666666" points="70.25,-246 70.25,-246 194,-246 194,-246 70.25,-246"/>
<polygon fill="#666666" stroke="#666666" points="70.25,-182 70.25,-182 82.25,-182 82.25,-182 70.25,-182"/>
<polygon fill="#666666" stroke="#666666" points="82.25,-182 82.25,-182 194,-182 194,-182 82.25,-182"/>
<polygon fill="none" stroke="#666666" points="70.25,-116 70.25,-264 194,-264 194,-116 70.25,-116"/>
</a>
</g>
</g>
<!-- Node3&#45;&gt;Node1 -->
<g id="edge2_Node000001_Node000003" class="edge">
<title>Node3&#45;&gt;Node1</title>
<g id="a_edge2_Node000001_Node000003"><a xlink:title=" ">
<path fill="none" stroke="#63b8ff" d="M92.81,-116.06C85.96,-103.35 79.03,-90.49 72.77,-78.87"/>
<polygon fill="none" stroke="#63b8ff" points="72.88,-79.08 66.51,-75.7 67.19,-68.52 73.56,-71.9 72.88,-79.08"/>
</a>
</g>
<text text-anchor="middle" x="113" y="-88.5" font-family="Helvetica,sans-Serif" font-size="10.00" fill="grey"> &#45;SlashOverlay</text>
</g>
<!-- Node4 -->
<g id="Node000004" class="node">
<title>Node4</title>
<g id="a_Node000004"><a xlink:title=" ">
<polygon fill="white" stroke="none" points="165.75,-353 98.5,-353 98.5,-301 165.75,-301 165.75,-353"/>
<text text-anchor="start" x="102.5" y="-339.5" font-family="Helvetica,sans-Serif" font-size="10.00">UUserWidget</text>
<text text-anchor="start" x="130.62" y="-323.5" font-family="Helvetica,sans-Serif" font-size="10.00"> </text>
<text text-anchor="start" x="130.62" y="-307.5" font-family="Helvetica,sans-Serif" font-size="10.00"> </text>
<polygon fill="#666666" stroke="#666666" points="98.5,-335 98.5,-335 165.75,-335 165.75,-335 98.5,-335"/>
<polygon fill="#666666" stroke="#666666" points="98.5,-319 98.5,-319 165.75,-319 165.75,-319 98.5,-319"/>
<polygon fill="none" stroke="#666666" points="98.5,-301 98.5,-353 165.75,-353 165.75,-301 98.5,-301"/>
</a>
</g>
</g>
<!-- Node4&#45;&gt;Node3 -->
<g id="edge3_Node000003_Node000004" class="edge">
<title>Node4&#45;&gt;Node3</title>
<g id="a_edge3_Node000003_Node000004"><a xlink:title=" ">
<path fill="none" stroke="#63b8ff" d="M132.12,-289.96C132.12,-281.82 132.12,-272.9 132.12,-263.86"/>
<polygon fill="none" stroke="#63b8ff" points="128.63,-289.73 132.13,-299.73 135.63,-289.73 128.63,-289.73"/>
</a>
</g>
</g>
</g>
</svg>
