<?xml version="1.0" encoding="UTF-8" standalone="no"?>
<!DOCTYPE svg PUBLIC "-//W3C//DTD SVG 1.1//EN"
 "http://www.w3.org/Graphics/SVG/1.1/DTD/svg11.dtd">
<!-- Generated by graphviz version 12.2.1 (20241206.2353)
 -->
<!-- Title: AEnemy Pages: 1 -->
<svg width="383pt" height="1117pt"
 viewBox="0.00 0.00 383.08 1117.00" xmlns="http://www.w3.org/2000/svg" xmlns:xlink="http://www.w3.org/1999/xlink">
<g id="graph0" class="graph" transform="scale(1 1) rotate(0) translate(4 1113)">
<title>AEnemy</title>
<!-- Node1 -->
<g id="Node000001" class="node">
<title>Node1</title>
<g id="a_Node000001"><a xlink:title=" ">
<polygon fill="#999999" stroke="none" points="222.38,-564 91.12,-564 91.12,0 222.38,0 222.38,-564"/>
<text text-anchor="start" x="138" y="-550.5" font-family="Helvetica,sans-Serif" font-size="10.00">AEnemy</text>
<text text-anchor="start" x="95.5" y="-534.5" font-family="Helvetica,sans-Serif" font-size="10.00">#</text>
<text text-anchor="start" x="105.12" y="-534.5" font-family="Helvetica,sans-Serif" font-size="10.00">DeathPose</text>
<text text-anchor="start" x="95.5" y="-518.5" font-family="Helvetica,sans-Serif" font-size="10.00">#</text>
<text text-anchor="start" x="105.12" y="-518.5" font-family="Helvetica,sans-Serif" font-size="10.00">EnemyState</text>
<text text-anchor="start" x="96.62" y="-502.5" font-family="Helvetica,sans-Serif" font-size="10.00">&#45;</text>
<text text-anchor="start" x="105.12" y="-502.5" font-family="Helvetica,sans-Serif" font-size="10.00">PawnSensing</text>
<text text-anchor="start" x="96.62" y="-486.5" font-family="Helvetica,sans-Serif" font-size="10.00">&#45;</text>
<text text-anchor="start" x="105.12" y="-486.5" font-family="Helvetica,sans-Serif" font-size="10.00">Category</text>
<text text-anchor="start" x="96.62" y="-470.5" font-family="Helvetica,sans-Serif" font-size="10.00">&#45;</text>
<text text-anchor="start" x="105.12" y="-470.5" font-family="Helvetica,sans-Serif" font-size="10.00">EnemyController</text>
<text text-anchor="start" x="96.62" y="-454.5" font-family="Helvetica,sans-Serif" font-size="10.00">&#45;</text>
<text text-anchor="start" x="105.12" y="-454.5" font-family="Helvetica,sans-Serif" font-size="10.00">PatrolRadius</text>
<text text-anchor="start" x="96.62" y="-438.5" font-family="Helvetica,sans-Serif" font-size="10.00">&#45;</text>
<text text-anchor="start" x="105.12" y="-438.5" font-family="Helvetica,sans-Serif" font-size="10.00">PatrolTimer</text>
<text text-anchor="start" x="96.62" y="-422.5" font-family="Helvetica,sans-Serif" font-size="10.00">&#45;</text>
<text text-anchor="start" x="105.12" y="-422.5" font-family="Helvetica,sans-Serif" font-size="10.00">AttackTimer</text>
<text text-anchor="start" x="96.62" y="-406.5" font-family="Helvetica,sans-Serif" font-size="10.00">&#45;</text>
<text text-anchor="start" x="105.12" y="-406.5" font-family="Helvetica,sans-Serif" font-size="10.00">BeginPatrolTimer</text>
<text text-anchor="start" x="95.12" y="-390.5" font-family="Helvetica,sans-Serif" font-size="10.00">+</text>
<text text-anchor="start" x="105.12" y="-390.5" font-family="Helvetica,sans-Serif" font-size="10.00">AEnemy()</text>
<text text-anchor="start" x="95.12" y="-374.5" font-family="Helvetica,sans-Serif" font-size="10.00">+</text>
<text text-anchor="start" x="105.12" y="-374.5" font-family="Helvetica,sans-Serif" font-size="10.00">Tick()</text>
<text text-anchor="start" x="95.12" y="-358.5" font-family="Helvetica,sans-Serif" font-size="10.00">+</text>
<text text-anchor="start" x="105.12" y="-358.5" font-family="Helvetica,sans-Serif" font-size="10.00">TakeDamage()</text>
<text text-anchor="start" x="95.12" y="-342.5" font-family="Helvetica,sans-Serif" font-size="10.00">+</text>
<text text-anchor="start" x="105.12" y="-342.5" font-family="Helvetica,sans-Serif" font-size="10.00">Destroyed()</text>
<text text-anchor="start" x="95.12" y="-326.5" font-family="Helvetica,sans-Serif" font-size="10.00">+</text>
<text text-anchor="start" x="105.12" y="-326.5" font-family="Helvetica,sans-Serif" font-size="10.00">GetHit_Implementation()</text>
<text text-anchor="start" x="95.5" y="-310.5" font-family="Helvetica,sans-Serif" font-size="10.00">#</text>
<text text-anchor="start" x="105.12" y="-310.5" font-family="Helvetica,sans-Serif" font-size="10.00">BeginPlay()</text>
<text text-anchor="start" x="95.5" y="-294.5" font-family="Helvetica,sans-Serif" font-size="10.00">#</text>
<text text-anchor="start" x="105.12" y="-294.5" font-family="Helvetica,sans-Serif" font-size="10.00">Die_Implementation()</text>
<text text-anchor="start" x="95.5" y="-278.5" font-family="Helvetica,sans-Serif" font-size="10.00">#</text>
<text text-anchor="start" x="105.12" y="-278.5" font-family="Helvetica,sans-Serif" font-size="10.00">Attack()</text>
<text text-anchor="start" x="95.5" y="-262.5" font-family="Helvetica,sans-Serif" font-size="10.00">#</text>
<text text-anchor="start" x="105.12" y="-262.5" font-family="Helvetica,sans-Serif" font-size="10.00">CanAttack()</text>
<text text-anchor="start" x="95.5" y="-246.5" font-family="Helvetica,sans-Serif" font-size="10.00">#</text>
<text text-anchor="start" x="105.12" y="-246.5" font-family="Helvetica,sans-Serif" font-size="10.00">HandleDamage()</text>
<text text-anchor="start" x="95.5" y="-230.5" font-family="Helvetica,sans-Serif" font-size="10.00">#</text>
<text text-anchor="start" x="105.12" y="-230.5" font-family="Helvetica,sans-Serif" font-size="10.00">PlayDeathMontage()</text>
<text text-anchor="start" x="95.5" y="-214.5" font-family="Helvetica,sans-Serif" font-size="10.00">#</text>
<text text-anchor="start" x="105.12" y="-214.5" font-family="Helvetica,sans-Serif" font-size="10.00">AttackEnd()</text>
<text text-anchor="start" x="95.5" y="-198.5" font-family="Helvetica,sans-Serif" font-size="10.00">#</text>
<text text-anchor="start" x="105.12" y="-198.5" font-family="Helvetica,sans-Serif" font-size="10.00">InTargetRange()</text>
<text text-anchor="start" x="95.5" y="-182.5" font-family="Helvetica,sans-Serif" font-size="10.00">#</text>
<text text-anchor="start" x="105.12" y="-182.5" font-family="Helvetica,sans-Serif" font-size="10.00">SpawnSoul()</text>
<text text-anchor="start" x="96.62" y="-166.5" font-family="Helvetica,sans-Serif" font-size="10.00">&#45;</text>
<text text-anchor="start" x="105.12" y="-166.5" font-family="Helvetica,sans-Serif" font-size="10.00">InitializeEnemy()</text>
<text text-anchor="start" x="96.62" y="-150.5" font-family="Helvetica,sans-Serif" font-size="10.00">&#45;</text>
<text text-anchor="start" x="105.12" y="-150.5" font-family="Helvetica,sans-Serif" font-size="10.00">CheckPatrolTarget()</text>
<text text-anchor="start" x="96.62" y="-134.5" font-family="Helvetica,sans-Serif" font-size="10.00">&#45;</text>
<text text-anchor="start" x="105.12" y="-134.5" font-family="Helvetica,sans-Serif" font-size="10.00">CheckCombatTarget()</text>
<text text-anchor="start" x="96.62" y="-118.5" font-family="Helvetica,sans-Serif" font-size="10.00">&#45;</text>
<text text-anchor="start" x="105.12" y="-118.5" font-family="Helvetica,sans-Serif" font-size="10.00">PatrolTimerFinished()</text>
<text text-anchor="start" x="96.62" y="-102.5" font-family="Helvetica,sans-Serif" font-size="10.00">&#45;</text>
<text text-anchor="start" x="105.12" y="-102.5" font-family="Helvetica,sans-Serif" font-size="10.00">HideHealthBar()</text>
<text text-anchor="start" x="96.62" y="-86.5" font-family="Helvetica,sans-Serif" font-size="10.00">&#45;</text>
<text text-anchor="start" x="105.12" y="-86.5" font-family="Helvetica,sans-Serif" font-size="10.00">ShowHealthBar()</text>
<text text-anchor="start" x="96.62" y="-70.5" font-family="Helvetica,sans-Serif" font-size="10.00">&#45;</text>
<text text-anchor="start" x="105.12" y="-70.5" font-family="Helvetica,sans-Serif" font-size="10.00">LoseInterest()</text>
<text text-anchor="start" x="96.62" y="-54.5" font-family="Helvetica,sans-Serif" font-size="10.00">&#45;</text>
<text text-anchor="start" x="105.12" y="-54.5" font-family="Helvetica,sans-Serif" font-size="10.00">StartPatrolling()</text>
<text text-anchor="start" x="96.62" y="-38.5" font-family="Helvetica,sans-Serif" font-size="10.00">&#45;</text>
<text text-anchor="start" x="105.12" y="-38.5" font-family="Helvetica,sans-Serif" font-size="10.00">ChaseTarget()</text>
<text text-anchor="start" x="96.62" y="-22.5" font-family="Helvetica,sans-Serif" font-size="10.00">&#45;</text>
<text text-anchor="start" x="105.12" y="-22.5" font-family="Helvetica,sans-Serif" font-size="10.00">IsOutsideCombatRadius()</text>
<text text-anchor="start" x="105.12" y="-6.5" font-family="Helvetica,sans-Serif" font-size="10.00">and 14 more...</text>
<polygon fill="#666666" stroke="#666666" points="91.12,-546 91.12,-546 222.38,-546 222.38,-546 91.12,-546"/>
<polygon fill="#666666" stroke="#666666" points="91.12,-402 91.12,-402 103.12,-402 103.12,-402 91.12,-402"/>
<polygon fill="#666666" stroke="#666666" points="103.12,-402 103.12,-402 222.38,-402 222.38,-402 103.12,-402"/>
<polygon fill="none" stroke="#666666" points="91.12,0 91.12,-564 222.38,-564 222.38,0 91.12,0"/>
</a>
</g>
</g>
<!-- Node2 -->
<g id="Node000002" class="node">
<title>Node2</title>
<g id="a_Node000002"><a xlink:href="class_a_base_character.html" target="_top" xlink:title=" ">
<polygon fill="white" stroke="none" points="159.12,-920 8.38,-920 8.38,-612 159.12,-612 159.12,-920"/>
<text text-anchor="start" x="47.75" y="-906.5" font-family="Helvetica,sans-Serif" font-size="10.00">ABaseCharacter</text>
<text text-anchor="start" x="12.75" y="-890.5" font-family="Helvetica,sans-Serif" font-size="10.00">#</text>
<text text-anchor="start" x="22.38" y="-890.5" font-family="Helvetica,sans-Serif" font-size="10.00">Category</text>
<text text-anchor="start" x="12.75" y="-874.5" font-family="Helvetica,sans-Serif" font-size="10.00">#</text>
<text text-anchor="start" x="22.38" y="-874.5" font-family="Helvetica,sans-Serif" font-size="10.00">BlueprintReadOnly</text>
<text text-anchor="start" x="12.75" y="-858.5" font-family="Helvetica,sans-Serif" font-size="10.00">#</text>
<text text-anchor="start" x="22.38" y="-858.5" font-family="Helvetica,sans-Serif" font-size="10.00">meta</text>
<text text-anchor="start" x="12.38" y="-842.5" font-family="Helvetica,sans-Serif" font-size="10.00">+</text>
<text text-anchor="start" x="22.38" y="-842.5" font-family="Helvetica,sans-Serif" font-size="10.00">ABaseCharacter()</text>
<text text-anchor="start" x="12.38" y="-826.5" font-family="Helvetica,sans-Serif" font-size="10.00">+</text>
<text text-anchor="start" x="22.38" y="-826.5" font-family="Helvetica,sans-Serif" font-size="10.00">Tick()</text>
<text text-anchor="start" x="12.75" y="-810.5" font-family="Helvetica,sans-Serif" font-size="10.00">#</text>
<text text-anchor="start" x="22.38" y="-810.5" font-family="Helvetica,sans-Serif" font-size="10.00">BeginPlay()</text>
<text text-anchor="start" x="12.75" y="-794.5" font-family="Helvetica,sans-Serif" font-size="10.00">#</text>
<text text-anchor="start" x="22.38" y="-794.5" font-family="Helvetica,sans-Serif" font-size="10.00">GetHit_Implementation()</text>
<text text-anchor="start" x="12.75" y="-778.5" font-family="Helvetica,sans-Serif" font-size="10.00">#</text>
<text text-anchor="start" x="22.38" y="-778.5" font-family="Helvetica,sans-Serif" font-size="10.00">Attack()</text>
<text text-anchor="start" x="12.75" y="-762.5" font-family="Helvetica,sans-Serif" font-size="10.00">#</text>
<text text-anchor="start" x="22.38" y="-762.5" font-family="Helvetica,sans-Serif" font-size="10.00">Die()</text>
<text text-anchor="start" x="12.75" y="-746.5" font-family="Helvetica,sans-Serif" font-size="10.00">#</text>
<text text-anchor="start" x="22.38" y="-746.5" font-family="Helvetica,sans-Serif" font-size="10.00">DirectionalHitReact()</text>
<text text-anchor="start" x="12.75" y="-730.5" font-family="Helvetica,sans-Serif" font-size="10.00">#</text>
<text text-anchor="start" x="22.38" y="-730.5" font-family="Helvetica,sans-Serif" font-size="10.00">HandleDamage()</text>
<text text-anchor="start" x="12.75" y="-714.5" font-family="Helvetica,sans-Serif" font-size="10.00">#</text>
<text text-anchor="start" x="22.38" y="-714.5" font-family="Helvetica,sans-Serif" font-size="10.00">PlayHitSound()</text>
<text text-anchor="start" x="12.75" y="-698.5" font-family="Helvetica,sans-Serif" font-size="10.00">#</text>
<text text-anchor="start" x="22.38" y="-698.5" font-family="Helvetica,sans-Serif" font-size="10.00">SpawnHitParticles()</text>
<text text-anchor="start" x="12.75" y="-682.5" font-family="Helvetica,sans-Serif" font-size="10.00">#</text>
<text text-anchor="start" x="22.38" y="-682.5" font-family="Helvetica,sans-Serif" font-size="10.00">DisableCapsule()</text>
<text text-anchor="start" x="12.75" y="-666.5" font-family="Helvetica,sans-Serif" font-size="10.00">#</text>
<text text-anchor="start" x="22.38" y="-666.5" font-family="Helvetica,sans-Serif" font-size="10.00">CanAttack()</text>
<text text-anchor="start" x="22.38" y="-650.5" font-family="Helvetica,sans-Serif" font-size="10.00">and 12 more...</text>
<text text-anchor="start" x="13.88" y="-634.5" font-family="Helvetica,sans-Serif" font-size="10.00">&#45;</text>
<text text-anchor="start" x="22.38" y="-634.5" font-family="Helvetica,sans-Serif" font-size="10.00">PlayMontageSection()</text>
<text text-anchor="start" x="13.88" y="-618.5" font-family="Helvetica,sans-Serif" font-size="10.00">&#45;</text>
<text text-anchor="start" x="22.38" y="-618.5" font-family="Helvetica,sans-Serif" font-size="10.00">PlayRandomMontageSection()</text>
<polygon fill="#666666" stroke="#666666" points="8.38,-902 8.38,-902 159.12,-902 159.12,-902 8.38,-902"/>
<polygon fill="#666666" stroke="#666666" points="8.38,-854 8.38,-854 20.38,-854 20.38,-854 8.38,-854"/>
<polygon fill="#666666" stroke="#666666" points="20.38,-854 20.38,-854 159.12,-854 159.12,-854 20.38,-854"/>
<polygon fill="none" stroke="#666666" points="8.38,-612 8.38,-920 159.12,-920 159.12,-612 8.38,-612"/>
</a>
</g>
</g>
<!-- Node2&#45;&gt;Node1 -->
<g id="edge1_Node000001_Node000002" class="edge">
<title>Node2&#45;&gt;Node1</title>
<g id="a_edge1_Node000001_Node000002"><a xlink:title=" ">
<path fill="none" stroke="#63b8ff" d="M108.59,-601.02C110.44,-588.79 112.33,-576.27 114.25,-563.59"/>
<polygon fill="none" stroke="#63b8ff" points="105.16,-600.25 107.12,-610.66 112.08,-601.3 105.16,-600.25"/>
</a>
</g>
</g>
<!-- Node3 -->
<g id="Node000003" class="node">
<title>Node3</title>
<g id="a_Node000003"><a xlink:title=" ">
<polygon fill="white" stroke="none" points="57.5,-1020 0,-1020 0,-968 57.5,-968 57.5,-1020"/>
<text text-anchor="start" x="4" y="-1006.5" font-family="Helvetica,sans-Serif" font-size="10.00">ACharacter</text>
<text text-anchor="start" x="27.25" y="-990.5" font-family="Helvetica,sans-Serif" font-size="10.00"> </text>
<text text-anchor="start" x="27.25" y="-974.5" font-family="Helvetica,sans-Serif" font-size="10.00"> </text>
<polygon fill="#666666" stroke="#666666" points="0,-1002 0,-1002 57.5,-1002 57.5,-1002 0,-1002"/>
<polygon fill="#666666" stroke="#666666" points="0,-986 0,-986 57.5,-986 57.5,-986 0,-986"/>
<polygon fill="none" stroke="#666666" points="0,-968 0,-1020 57.5,-1020 57.5,-968 0,-968"/>
</a>
</g>
</g>
<!-- Node3&#45;&gt;Node2 -->
<g id="edge2_Node000002_Node000003" class="edge">
<title>Node3&#45;&gt;Node2</title>
<g id="a_edge2_Node000002_Node000003"><a xlink:title=" ">
<path fill="none" stroke="#63b8ff" d="M37.45,-957.26C40.12,-946.29 43.24,-933.46 46.58,-919.73"/>
<polygon fill="none" stroke="#63b8ff" points="34.06,-956.37 35.1,-966.91 40.86,-958.02 34.06,-956.37"/>
</a>
</g>
</g>
<!-- Node4 -->
<g id="Node000004" class="node">
<title>Node4</title>
<g id="a_Node000004"><a xlink:href="class_i_hit_interface.html" target="_top" xlink:title=" ">
<polygon fill="white" stroke="none" points="137.75,-1020 75.75,-1020 75.75,-968 137.75,-968 137.75,-1020"/>
<text text-anchor="start" x="79.75" y="-1006.5" font-family="Helvetica,sans-Serif" font-size="10.00">IHitInterface</text>
<text text-anchor="start" x="105.25" y="-990.5" font-family="Helvetica,sans-Serif" font-size="10.00"> </text>
<text text-anchor="start" x="82.12" y="-974.5" font-family="Helvetica,sans-Serif" font-size="10.00">+</text>
<text text-anchor="start" x="94.5" y="-974.5" font-family="Helvetica,sans-Serif" font-size="10.00">GetHit()</text>
<polygon fill="#666666" stroke="#666666" points="75.75,-1002 75.75,-1002 137.75,-1002 137.75,-1002 75.75,-1002"/>
<polygon fill="#666666" stroke="#666666" points="75.75,-986 75.75,-986 137.75,-986 137.75,-986 75.75,-986"/>
<polygon fill="none" stroke="#666666" points="75.75,-968 75.75,-1020 137.75,-1020 137.75,-968 75.75,-968"/>
</a>
</g>
</g>
<!-- Node4&#45;&gt;Node2 -->
<g id="edge3_Node000002_Node000004" class="edge">
<title>Node4&#45;&gt;Node2</title>
<g id="a_edge3_Node000002_Node000004"><a xlink:title=" ">
<path fill="none" stroke="#63b8ff" d="M103.11,-957.26C102,-946.29 100.69,-933.46 99.29,-919.73"/>
<polygon fill="none" stroke="#63b8ff" points="99.6,-957.28 104.09,-966.88 106.56,-956.58 99.6,-957.28"/>
</a>
</g>
</g>
<!-- Node5 -->
<g id="Node000005" class="node">
<title>Node5</title>
<g id="a_Node000005"><a xlink:href="class_u_health_bar_component.html" target="_top" xlink:title=" ">
<polygon fill="white" stroke="none" points="286.38,-792 177.12,-792 177.12,-740 286.38,-740 286.38,-792"/>
<text text-anchor="start" x="181.12" y="-778.5" font-family="Helvetica,sans-Serif" font-size="10.00">UHealthBarComponent</text>
<text text-anchor="start" x="230.25" y="-762.5" font-family="Helvetica,sans-Serif" font-size="10.00"> </text>
<text text-anchor="start" x="183.12" y="-746.5" font-family="Helvetica,sans-Serif" font-size="10.00">+</text>
<text text-anchor="start" x="195.12" y="-746.5" font-family="Helvetica,sans-Serif" font-size="10.00">SetHealthPercent()</text>
<polygon fill="#666666" stroke="#666666" points="177.12,-774 177.12,-774 286.38,-774 286.38,-774 177.12,-774"/>
<polygon fill="#666666" stroke="#666666" points="177.12,-758 177.12,-758 286.38,-758 286.38,-758 177.12,-758"/>
<polygon fill="none" stroke="#666666" points="177.12,-740 177.12,-792 286.38,-792 286.38,-740 177.12,-740"/>
</a>
</g>
</g>
<!-- Node5&#45;&gt;Node1 -->
<g id="edge4_Node000001_Node000005" class="edge">
<title>Node5&#45;&gt;Node1</title>
<g id="a_edge4_Node000001_Node000005"><a xlink:title=" ">
<path fill="none" stroke="#63b8ff" d="M227.88,-740.1C222.73,-707.03 213.05,-644.79 202.44,-576.65"/>
<polygon fill="none" stroke="#63b8ff" points="202.44,-576.61 197.56,-571.3 200.59,-564.75 205.47,-570.07 202.44,-576.61"/>
</a>
</g>
<text text-anchor="middle" x="244.39" y="-584.5" font-family="Helvetica,sans-Serif" font-size="10.00" fill="grey"> &#45;HealthBarWidget</text>
</g>
<!-- Node6 -->
<g id="Node000006" class="node">
<title>Node6</title>
<g id="a_Node000006"><a xlink:title=" ">
<polygon fill="white" stroke="none" points="261,-1020 164.5,-1020 164.5,-968 261,-968 261,-1020"/>
<text text-anchor="start" x="168.5" y="-1006.5" font-family="Helvetica,sans-Serif" font-size="10.00">UWidgetComponent</text>
<text text-anchor="start" x="211.25" y="-990.5" font-family="Helvetica,sans-Serif" font-size="10.00"> </text>
<text text-anchor="start" x="211.25" y="-974.5" font-family="Helvetica,sans-Serif" font-size="10.00"> </text>
<polygon fill="#666666" stroke="#666666" points="164.5,-1002 164.5,-1002 261,-1002 261,-1002 164.5,-1002"/>
<polygon fill="#666666" stroke="#666666" points="164.5,-986 164.5,-986 261,-986 261,-986 164.5,-986"/>
<polygon fill="none" stroke="#666666" points="164.5,-968 164.5,-1020 261,-1020 261,-968 164.5,-968"/>
</a>
</g>
</g>
<!-- Node6&#45;&gt;Node5 -->
<g id="edge5_Node000005_Node000006" class="edge">
<title>Node6&#45;&gt;Node5</title>
<g id="a_edge5_Node000005_Node000006"><a xlink:title=" ">
<path fill="none" stroke="#63b8ff" d="M215.77,-957.13C219.65,-910.98 226.28,-832.02 229.65,-791.93"/>
<polygon fill="none" stroke="#63b8ff" points="212.3,-956.62 214.95,-966.88 219.27,-957.2 212.3,-956.62"/>
</a>
</g>
</g>
<!-- Node7 -->
<g id="Node000007" class="node">
<title>Node7</title>
<g id="a_Node000007"><a xlink:href="class_u_health_bar.html" target="_top" xlink:title=" ">
<polygon fill="white" stroke="none" points="340.5,-1020 279,-1020 279,-968 340.5,-968 340.5,-1020"/>
<text text-anchor="start" x="284.25" y="-1006.5" font-family="Helvetica,sans-Serif" font-size="10.00">UHealthBar</text>
<text text-anchor="start" x="283" y="-990.5" font-family="Helvetica,sans-Serif" font-size="10.00">+</text>
<text text-anchor="start" x="293" y="-990.5" font-family="Helvetica,sans-Serif" font-size="10.00">HealthBar</text>
<text text-anchor="start" x="308.25" y="-974.5" font-family="Helvetica,sans-Serif" font-size="10.00"> </text>
<polygon fill="#666666" stroke="#666666" points="279,-1002 279,-1002 340.5,-1002 340.5,-1002 279,-1002"/>
<polygon fill="#666666" stroke="#666666" points="279,-986 279,-986 291,-986 291,-986 279,-986"/>
<polygon fill="#666666" stroke="#666666" points="291,-986 291,-986 340.5,-986 340.5,-986 291,-986"/>
<polygon fill="none" stroke="#666666" points="279,-968 279,-1020 340.5,-1020 340.5,-968 279,-968"/>
</a>
</g>
</g>
<!-- Node7&#45;&gt;Node5 -->
<g id="edge6_Node000005_Node000007" class="edge">
<title>Node7&#45;&gt;Node5</title>
<g id="a_edge6_Node000005_Node000007"><a xlink:title=" ">
<path fill="none" stroke="#63b8ff" d="M301.25,-968.38C287.58,-928.75 260.59,-850.55 244.56,-804.12"/>
<polygon fill="none" stroke="#63b8ff" points="244.56,-804.13 238.82,-799.76 240.65,-792.78 246.39,-797.15 244.56,-804.13"/>
</a>
</g>
<text text-anchor="middle" x="334.95" y="-940.5" font-family="Helvetica,sans-Serif" font-size="10.00" fill="grey"> &#45;HealthBarWidget</text>
</g>
<!-- Node8 -->
<g id="Node000008" class="node">
<title>Node8</title>
<g id="a_Node000008"><a xlink:title=" ">
<polygon fill="white" stroke="none" points="343.38,-1109 276.12,-1109 276.12,-1057 343.38,-1057 343.38,-1109"/>
<text text-anchor="start" x="280.12" y="-1095.5" font-family="Helvetica,sans-Serif" font-size="10.00">UUserWidget</text>
<text text-anchor="start" x="308.25" y="-1079.5" font-family="Helvetica,sans-Serif" font-size="10.00"> </text>
<text text-anchor="start" x="308.25" y="-1063.5" font-family="Helvetica,sans-Serif" font-size="10.00"> </text>
<polygon fill="#666666" stroke="#666666" points="276.12,-1091 276.12,-1091 343.38,-1091 343.38,-1091 276.12,-1091"/>
<polygon fill="#666666" stroke="#666666" points="276.12,-1075 276.12,-1075 343.38,-1075 343.38,-1075 276.12,-1075"/>
<polygon fill="none" stroke="#666666" points="276.12,-1057 276.12,-1109 343.38,-1109 343.38,-1057 276.12,-1057"/>
</a>
</g>
</g>
<!-- Node8&#45;&gt;Node7 -->
<g id="edge7_Node000007_Node000008" class="edge">
<title>Node8&#45;&gt;Node7</title>
<g id="a_edge7_Node000007_Node000008"><a xlink:title=" ">
<path fill="none" stroke="#63b8ff" d="M309.75,-1046.05C309.75,-1037.21 309.75,-1027.94 309.75,-1019.76"/>
<polygon fill="none" stroke="#63b8ff" points="306.25,-1045.79 309.75,-1055.79 313.25,-1045.79 306.25,-1045.79"/>
</a>
</g>
</g>
</g>
</svg>
