<?xml version="1.0" encoding="UTF-8" standalone="no"?>
<!DOCTYPE svg PUBLIC "-//W3C//DTD SVG 1.1//EN"
 "http://www.w3.org/Graphics/SVG/1.1/DTD/svg11.dtd">
<!-- Generated by graphviz version 12.2.1 (20241206.2353)
 -->
<!-- Title: AWeapon Pages: 1 -->
<svg width="133pt" height="764pt"
 viewBox="0.00 0.00 133.25 764.00" xmlns="http://www.w3.org/2000/svg" xmlns:xlink="http://www.w3.org/1999/xlink">
<g id="graph0" class="graph" transform="scale(1 1) rotate(0) translate(4 760)">
<title>AWeapon</title>
<!-- Node1 -->
<g id="Node000001" class="node">
<title>Node1</title>
<g id="a_Node000001"><a xlink:title=" ">
<polygon fill="#999999" stroke="none" points="125.25,-292 0,-292 0,0 125.25,0 125.25,-292"/>
<text text-anchor="start" x="42" y="-278.5" font-family="Helvetica,sans-Serif" font-size="10.00">AWeapon</text>
<text text-anchor="start" x="4" y="-262.5" font-family="Helvetica,sans-Serif" font-size="10.00">+</text>
<text text-anchor="start" x="14" y="-262.5" font-family="Helvetica,sans-Serif" font-size="10.00">IgnoreActors</text>
<text text-anchor="start" x="5.5" y="-246.5" font-family="Helvetica,sans-Serif" font-size="10.00">&#45;</text>
<text text-anchor="start" x="14" y="-246.5" font-family="Helvetica,sans-Serif" font-size="10.00">Category</text>
<text text-anchor="start" x="5.5" y="-230.5" font-family="Helvetica,sans-Serif" font-size="10.00">&#45;</text>
<text text-anchor="start" x="14" y="-230.5" font-family="Helvetica,sans-Serif" font-size="10.00">BlueprintReadOnly</text>
<text text-anchor="start" x="5.5" y="-214.5" font-family="Helvetica,sans-Serif" font-size="10.00">&#45;</text>
<text text-anchor="start" x="14" y="-214.5" font-family="Helvetica,sans-Serif" font-size="10.00">meta</text>
<text text-anchor="start" x="4" y="-198.5" font-family="Helvetica,sans-Serif" font-size="10.00">+</text>
<text text-anchor="start" x="14" y="-198.5" font-family="Helvetica,sans-Serif" font-size="10.00">AWeapon()</text>
<text text-anchor="start" x="4" y="-182.5" font-family="Helvetica,sans-Serif" font-size="10.00">+</text>
<text text-anchor="start" x="14" y="-182.5" font-family="Helvetica,sans-Serif" font-size="10.00">AttachMeshToSocket()</text>
<text text-anchor="start" x="4" y="-166.5" font-family="Helvetica,sans-Serif" font-size="10.00">+</text>
<text text-anchor="start" x="14" y="-166.5" font-family="Helvetica,sans-Serif" font-size="10.00">PlayEquipSound()</text>
<text text-anchor="start" x="4" y="-150.5" font-family="Helvetica,sans-Serif" font-size="10.00">+</text>
<text text-anchor="start" x="14" y="-150.5" font-family="Helvetica,sans-Serif" font-size="10.00">DisableSphereCollision()</text>
<text text-anchor="start" x="4" y="-134.5" font-family="Helvetica,sans-Serif" font-size="10.00">+</text>
<text text-anchor="start" x="14" y="-134.5" font-family="Helvetica,sans-Serif" font-size="10.00">DeactivateEmbers()</text>
<text text-anchor="start" x="4" y="-118.5" font-family="Helvetica,sans-Serif" font-size="10.00">+</text>
<text text-anchor="start" x="14" y="-118.5" font-family="Helvetica,sans-Serif" font-size="10.00">Equip()</text>
<text text-anchor="start" x="4" y="-102.5" font-family="Helvetica,sans-Serif" font-size="10.00">+</text>
<text text-anchor="start" x="14" y="-102.5" font-family="Helvetica,sans-Serif" font-size="10.00">ExecuteGetHit()</text>
<text text-anchor="start" x="4" y="-86.5" font-family="Helvetica,sans-Serif" font-size="10.00">+</text>
<text text-anchor="start" x="14" y="-86.5" font-family="Helvetica,sans-Serif" font-size="10.00">ActorIsSameType()</text>
<text text-anchor="start" x="4" y="-70.5" font-family="Helvetica,sans-Serif" font-size="10.00">+</text>
<text text-anchor="start" x="14" y="-70.5" font-family="Helvetica,sans-Serif" font-size="10.00">GetWeaponBox()</text>
<text text-anchor="start" x="4.38" y="-54.5" font-family="Helvetica,sans-Serif" font-size="10.00">#</text>
<text text-anchor="start" x="14" y="-54.5" font-family="Helvetica,sans-Serif" font-size="10.00">BeginPlay()</text>
<text text-anchor="start" x="4.38" y="-38.5" font-family="Helvetica,sans-Serif" font-size="10.00">#</text>
<text text-anchor="start" x="14" y="-38.5" font-family="Helvetica,sans-Serif" font-size="10.00">OnBoxOverlap()</text>
<text text-anchor="start" x="4.38" y="-22.5" font-family="Helvetica,sans-Serif" font-size="10.00">#</text>
<text text-anchor="start" x="14" y="-22.5" font-family="Helvetica,sans-Serif" font-size="10.00">CreateFields()</text>
<text text-anchor="start" x="5.5" y="-6.5" font-family="Helvetica,sans-Serif" font-size="10.00">&#45;</text>
<text text-anchor="start" x="14" y="-6.5" font-family="Helvetica,sans-Serif" font-size="10.00">BoxTrace()</text>
<polygon fill="#666666" stroke="#666666" points="0,-274 0,-274 125.25,-274 125.25,-274 0,-274"/>
<polygon fill="#666666" stroke="#666666" points="0,-210 0,-210 12,-210 12,-210 0,-210"/>
<polygon fill="#666666" stroke="#666666" points="12,-210 12,-210 125.25,-210 125.25,-210 12,-210"/>
<polygon fill="none" stroke="#666666" points="0,0 0,-292 125.25,-292 125.25,0 0,0"/>
</a>
</g>
</g>
<!-- Node2 -->
<g id="Node000002" class="node">
<title>Node2</title>
<g id="a_Node000002"><a xlink:href="class_a_item.html" target="_top" xlink:title=" ">
<polygon fill="white" stroke="none" points="121.88,-668 3.38,-668 3.38,-328 121.88,-328 121.88,-668"/>
<text text-anchor="start" x="49.5" y="-654.5" font-family="Helvetica,sans-Serif" font-size="10.00">AItem</text>
<text text-anchor="start" x="7.75" y="-638.5" font-family="Helvetica,sans-Serif" font-size="10.00">#</text>
<text text-anchor="start" x="17.38" y="-638.5" font-family="Helvetica,sans-Serif" font-size="10.00">BlueprintReadWrite</text>
<text text-anchor="start" x="7.75" y="-622.5" font-family="Helvetica,sans-Serif" font-size="10.00">#</text>
<text text-anchor="start" x="17.38" y="-622.5" font-family="Helvetica,sans-Serif" font-size="10.00">Category</text>
<text text-anchor="start" x="7.75" y="-606.5" font-family="Helvetica,sans-Serif" font-size="10.00">#</text>
<text text-anchor="start" x="17.38" y="-606.5" font-family="Helvetica,sans-Serif" font-size="10.00">ItemMesh</text>
<text text-anchor="start" x="7.75" y="-590.5" font-family="Helvetica,sans-Serif" font-size="10.00">#</text>
<text text-anchor="start" x="17.38" y="-590.5" font-family="Helvetica,sans-Serif" font-size="10.00">ItemState</text>
<text text-anchor="start" x="7.75" y="-574.5" font-family="Helvetica,sans-Serif" font-size="10.00">#</text>
<text text-anchor="start" x="17.38" y="-574.5" font-family="Helvetica,sans-Serif" font-size="10.00">Sphere</text>
<text text-anchor="start" x="7.75" y="-558.5" font-family="Helvetica,sans-Serif" font-size="10.00">#</text>
<text text-anchor="start" x="17.38" y="-558.5" font-family="Helvetica,sans-Serif" font-size="10.00">ItemEffect</text>
<text text-anchor="start" x="7.75" y="-542.5" font-family="Helvetica,sans-Serif" font-size="10.00">#</text>
<text text-anchor="start" x="17.38" y="-542.5" font-family="Helvetica,sans-Serif" font-size="10.00">PickupSound</text>
<text text-anchor="start" x="8.88" y="-526.5" font-family="Helvetica,sans-Serif" font-size="10.00">&#45;</text>
<text text-anchor="start" x="17.38" y="-526.5" font-family="Helvetica,sans-Serif" font-size="10.00">BlueprintReadOnly</text>
<text text-anchor="start" x="8.88" y="-510.5" font-family="Helvetica,sans-Serif" font-size="10.00">&#45;</text>
<text text-anchor="start" x="17.38" y="-510.5" font-family="Helvetica,sans-Serif" font-size="10.00">meta</text>
<text text-anchor="start" x="8.88" y="-494.5" font-family="Helvetica,sans-Serif" font-size="10.00">&#45;</text>
<text text-anchor="start" x="17.38" y="-494.5" font-family="Helvetica,sans-Serif" font-size="10.00">PickupEffect</text>
<text text-anchor="start" x="7.38" y="-478.5" font-family="Helvetica,sans-Serif" font-size="10.00">+</text>
<text text-anchor="start" x="17.38" y="-478.5" font-family="Helvetica,sans-Serif" font-size="10.00">AItem()</text>
<text text-anchor="start" x="7.38" y="-462.5" font-family="Helvetica,sans-Serif" font-size="10.00">+</text>
<text text-anchor="start" x="17.38" y="-462.5" font-family="Helvetica,sans-Serif" font-size="10.00">Tick()</text>
<text text-anchor="start" x="7.75" y="-446.5" font-family="Helvetica,sans-Serif" font-size="10.00">#</text>
<text text-anchor="start" x="17.38" y="-446.5" font-family="Helvetica,sans-Serif" font-size="10.00">BeginPlay()</text>
<text text-anchor="start" x="7.75" y="-430.5" font-family="Helvetica,sans-Serif" font-size="10.00">#</text>
<text text-anchor="start" x="17.38" y="-430.5" font-family="Helvetica,sans-Serif" font-size="10.00">TransformedSin()</text>
<text text-anchor="start" x="7.75" y="-414.5" font-family="Helvetica,sans-Serif" font-size="10.00">#</text>
<text text-anchor="start" x="17.38" y="-414.5" font-family="Helvetica,sans-Serif" font-size="10.00">TransformedCos()</text>
<text text-anchor="start" x="7.75" y="-398.5" font-family="Helvetica,sans-Serif" font-size="10.00">#</text>
<text text-anchor="start" x="17.38" y="-398.5" font-family="Helvetica,sans-Serif" font-size="10.00">Avg()</text>
<text text-anchor="start" x="7.75" y="-382.5" font-family="Helvetica,sans-Serif" font-size="10.00">#</text>
<text text-anchor="start" x="17.38" y="-382.5" font-family="Helvetica,sans-Serif" font-size="10.00">OnSphereOverlap()</text>
<text text-anchor="start" x="7.75" y="-366.5" font-family="Helvetica,sans-Serif" font-size="10.00">#</text>
<text text-anchor="start" x="17.38" y="-366.5" font-family="Helvetica,sans-Serif" font-size="10.00">OnSphereEndOverlap()</text>
<text text-anchor="start" x="7.75" y="-350.5" font-family="Helvetica,sans-Serif" font-size="10.00">#</text>
<text text-anchor="start" x="17.38" y="-350.5" font-family="Helvetica,sans-Serif" font-size="10.00">SpawnPickupSystem()</text>
<text text-anchor="start" x="7.75" y="-334.5" font-family="Helvetica,sans-Serif" font-size="10.00">#</text>
<text text-anchor="start" x="17.38" y="-334.5" font-family="Helvetica,sans-Serif" font-size="10.00">SpawnPickupSound()</text>
<polygon fill="#666666" stroke="#666666" points="3.38,-650 3.38,-650 121.88,-650 121.88,-650 3.38,-650"/>
<polygon fill="#666666" stroke="#666666" points="3.38,-490 3.38,-490 15.38,-490 15.38,-490 3.38,-490"/>
<polygon fill="#666666" stroke="#666666" points="15.38,-490 15.38,-490 121.88,-490 121.88,-490 15.38,-490"/>
<polygon fill="none" stroke="#666666" points="3.38,-328 3.38,-668 121.88,-668 121.88,-328 3.38,-328"/>
</a>
</g>
</g>
<!-- Node2&#45;&gt;Node1 -->
<g id="edge1_Node000001_Node000002" class="edge">
<title>Node2&#45;&gt;Node1</title>
<g id="a_edge1_Node000001_Node000002"><a xlink:title=" ">
<path fill="none" stroke="#63b8ff" d="M62.62,-316.76C62.62,-308.4 62.62,-300.07 62.62,-291.82"/>
<polygon fill="none" stroke="#63b8ff" points="59.13,-316.64 62.63,-326.64 66.13,-316.64 59.13,-316.64"/>
</a>
</g>
</g>
<!-- Node3 -->
<g id="Node000003" class="node">
<title>Node3</title>
<g id="a_Node000003"><a xlink:title=" ">
<polygon fill="white" stroke="none" points="81.62,-756 43.62,-756 43.62,-704 81.62,-704 81.62,-756"/>
<text text-anchor="start" x="47.62" y="-742.5" font-family="Helvetica,sans-Serif" font-size="10.00">AActor</text>
<text text-anchor="start" x="61.12" y="-726.5" font-family="Helvetica,sans-Serif" font-size="10.00"> </text>
<text text-anchor="start" x="61.12" y="-710.5" font-family="Helvetica,sans-Serif" font-size="10.00"> </text>
<polygon fill="#666666" stroke="#666666" points="43.62,-738 43.62,-738 81.62,-738 81.62,-738 43.62,-738"/>
<polygon fill="#666666" stroke="#666666" points="43.62,-722 43.62,-722 81.62,-722 81.62,-722 43.62,-722"/>
<polygon fill="none" stroke="#666666" points="43.62,-704 43.62,-756 81.62,-756 81.62,-704 43.62,-704"/>
</a>
</g>
</g>
<!-- Node3&#45;&gt;Node2 -->
<g id="edge2_Node000002_Node000003" class="edge">
<title>Node3&#45;&gt;Node2</title>
<g id="a_edge2_Node000002_Node000003"><a xlink:title=" ">
<path fill="none" stroke="#63b8ff" d="M62.62,-692.87C62.62,-685.29 62.62,-676.81 62.62,-667.77"/>
<polygon fill="none" stroke="#63b8ff" points="59.13,-692.87 62.63,-702.87 66.13,-692.87 59.13,-692.87"/>
</a>
</g>
</g>
</g>
</svg>
