<?xml version="1.0" encoding="UTF-8" standalone="no"?>
<!DOCTYPE svg PUBLIC "-//W3C//DTD SVG 1.1//EN"
 "http://www.w3.org/Graphics/SVG/1.1/DTD/svg11.dtd">
<!-- Generated by graphviz version 12.2.1 (20241206.2353)
 -->
<!-- Title: ABaseCharacter Pages: 1 -->
<svg width="306pt" height="1020pt"
 viewBox="0.00 0.00 306.25 1020.00" xmlns="http://www.w3.org/2000/svg" xmlns:xlink="http://www.w3.org/1999/xlink">
<g id="graph0" class="graph" transform="scale(1 1) rotate(0) translate(4 1016)">
<title>ABaseCharacter</title>
<!-- Node1 -->
<g id="Node000001" class="node">
<title>Node1</title>
<g id="a_Node000001"><a xlink:title=" ">
<polygon fill="#999999" stroke="none" points="220,-924 69.25,-924 69.25,-616 220,-616 220,-924"/>
<text text-anchor="start" x="108.62" y="-910.5" font-family="Helvetica,sans-Serif" font-size="10.00">ABaseCharacter</text>
<text text-anchor="start" x="73.62" y="-894.5" font-family="Helvetica,sans-Serif" font-size="10.00">#</text>
<text text-anchor="start" x="83.25" y="-894.5" font-family="Helvetica,sans-Serif" font-size="10.00">Category</text>
<text text-anchor="start" x="73.62" y="-878.5" font-family="Helvetica,sans-Serif" font-size="10.00">#</text>
<text text-anchor="start" x="83.25" y="-878.5" font-family="Helvetica,sans-Serif" font-size="10.00">BlueprintReadOnly</text>
<text text-anchor="start" x="73.62" y="-862.5" font-family="Helvetica,sans-Serif" font-size="10.00">#</text>
<text text-anchor="start" x="83.25" y="-862.5" font-family="Helvetica,sans-Serif" font-size="10.00">meta</text>
<text text-anchor="start" x="73.25" y="-846.5" font-family="Helvetica,sans-Serif" font-size="10.00">+</text>
<text text-anchor="start" x="83.25" y="-846.5" font-family="Helvetica,sans-Serif" font-size="10.00">ABaseCharacter()</text>
<text text-anchor="start" x="73.25" y="-830.5" font-family="Helvetica,sans-Serif" font-size="10.00">+</text>
<text text-anchor="start" x="83.25" y="-830.5" font-family="Helvetica,sans-Serif" font-size="10.00">Tick()</text>
<text text-anchor="start" x="73.62" y="-814.5" font-family="Helvetica,sans-Serif" font-size="10.00">#</text>
<text text-anchor="start" x="83.25" y="-814.5" font-family="Helvetica,sans-Serif" font-size="10.00">BeginPlay()</text>
<text text-anchor="start" x="73.62" y="-798.5" font-family="Helvetica,sans-Serif" font-size="10.00">#</text>
<text text-anchor="start" x="83.25" y="-798.5" font-family="Helvetica,sans-Serif" font-size="10.00">GetHit_Implementation()</text>
<text text-anchor="start" x="73.62" y="-782.5" font-family="Helvetica,sans-Serif" font-size="10.00">#</text>
<text text-anchor="start" x="83.25" y="-782.5" font-family="Helvetica,sans-Serif" font-size="10.00">Attack()</text>
<text text-anchor="start" x="73.62" y="-766.5" font-family="Helvetica,sans-Serif" font-size="10.00">#</text>
<text text-anchor="start" x="83.25" y="-766.5" font-family="Helvetica,sans-Serif" font-size="10.00">Die()</text>
<text text-anchor="start" x="73.62" y="-750.5" font-family="Helvetica,sans-Serif" font-size="10.00">#</text>
<text text-anchor="start" x="83.25" y="-750.5" font-family="Helvetica,sans-Serif" font-size="10.00">DirectionalHitReact()</text>
<text text-anchor="start" x="73.62" y="-734.5" font-family="Helvetica,sans-Serif" font-size="10.00">#</text>
<text text-anchor="start" x="83.25" y="-734.5" font-family="Helvetica,sans-Serif" font-size="10.00">HandleDamage()</text>
<text text-anchor="start" x="73.62" y="-718.5" font-family="Helvetica,sans-Serif" font-size="10.00">#</text>
<text text-anchor="start" x="83.25" y="-718.5" font-family="Helvetica,sans-Serif" font-size="10.00">PlayHitSound()</text>
<text text-anchor="start" x="73.62" y="-702.5" font-family="Helvetica,sans-Serif" font-size="10.00">#</text>
<text text-anchor="start" x="83.25" y="-702.5" font-family="Helvetica,sans-Serif" font-size="10.00">SpawnHitParticles()</text>
<text text-anchor="start" x="73.62" y="-686.5" font-family="Helvetica,sans-Serif" font-size="10.00">#</text>
<text text-anchor="start" x="83.25" y="-686.5" font-family="Helvetica,sans-Serif" font-size="10.00">DisableCapsule()</text>
<text text-anchor="start" x="73.62" y="-670.5" font-family="Helvetica,sans-Serif" font-size="10.00">#</text>
<text text-anchor="start" x="83.25" y="-670.5" font-family="Helvetica,sans-Serif" font-size="10.00">CanAttack()</text>
<text text-anchor="start" x="83.25" y="-654.5" font-family="Helvetica,sans-Serif" font-size="10.00">and 12 more...</text>
<text text-anchor="start" x="74.75" y="-638.5" font-family="Helvetica,sans-Serif" font-size="10.00">&#45;</text>
<text text-anchor="start" x="83.25" y="-638.5" font-family="Helvetica,sans-Serif" font-size="10.00">PlayMontageSection()</text>
<text text-anchor="start" x="74.75" y="-622.5" font-family="Helvetica,sans-Serif" font-size="10.00">&#45;</text>
<text text-anchor="start" x="83.25" y="-622.5" font-family="Helvetica,sans-Serif" font-size="10.00">PlayRandomMontageSection()</text>
<polygon fill="#666666" stroke="#666666" points="69.25,-906 69.25,-906 220,-906 220,-906 69.25,-906"/>
<polygon fill="#666666" stroke="#666666" points="69.25,-858 69.25,-858 81.25,-858 81.25,-858 69.25,-858"/>
<polygon fill="#666666" stroke="#666666" points="81.25,-858 81.25,-858 220,-858 220,-858 81.25,-858"/>
<polygon fill="none" stroke="#666666" points="69.25,-616 69.25,-924 220,-924 220,-616 69.25,-616"/>
</a>
</g>
</g>
<!-- Node4 -->
<g id="Node000004" class="node">
<title>Node4</title>
<g id="a_Node000004"><a xlink:href="class_a_enemy.html" target="_top" xlink:title=" ">
<polygon fill="white" stroke="none" points="131.25,-580 0,-580 0,0 131.25,0 131.25,-580"/>
<text text-anchor="start" x="46.88" y="-566.5" font-family="Helvetica,sans-Serif" font-size="10.00">AEnemy</text>
<text text-anchor="start" x="4.38" y="-550.5" font-family="Helvetica,sans-Serif" font-size="10.00">#</text>
<text text-anchor="start" x="14" y="-550.5" font-family="Helvetica,sans-Serif" font-size="10.00">DeathPose</text>
<text text-anchor="start" x="4.38" y="-534.5" font-family="Helvetica,sans-Serif" font-size="10.00">#</text>
<text text-anchor="start" x="14" y="-534.5" font-family="Helvetica,sans-Serif" font-size="10.00">EnemyState</text>
<text text-anchor="start" x="5.5" y="-518.5" font-family="Helvetica,sans-Serif" font-size="10.00">&#45;</text>
<text text-anchor="start" x="14" y="-518.5" font-family="Helvetica,sans-Serif" font-size="10.00">HealthBarWidget</text>
<text text-anchor="start" x="5.5" y="-502.5" font-family="Helvetica,sans-Serif" font-size="10.00">&#45;</text>
<text text-anchor="start" x="14" y="-502.5" font-family="Helvetica,sans-Serif" font-size="10.00">PawnSensing</text>
<text text-anchor="start" x="5.5" y="-486.5" font-family="Helvetica,sans-Serif" font-size="10.00">&#45;</text>
<text text-anchor="start" x="14" y="-486.5" font-family="Helvetica,sans-Serif" font-size="10.00">Category</text>
<text text-anchor="start" x="5.5" y="-470.5" font-family="Helvetica,sans-Serif" font-size="10.00">&#45;</text>
<text text-anchor="start" x="14" y="-470.5" font-family="Helvetica,sans-Serif" font-size="10.00">EnemyController</text>
<text text-anchor="start" x="5.5" y="-454.5" font-family="Helvetica,sans-Serif" font-size="10.00">&#45;</text>
<text text-anchor="start" x="14" y="-454.5" font-family="Helvetica,sans-Serif" font-size="10.00">PatrolRadius</text>
<text text-anchor="start" x="5.5" y="-438.5" font-family="Helvetica,sans-Serif" font-size="10.00">&#45;</text>
<text text-anchor="start" x="14" y="-438.5" font-family="Helvetica,sans-Serif" font-size="10.00">PatrolTimer</text>
<text text-anchor="start" x="5.5" y="-422.5" font-family="Helvetica,sans-Serif" font-size="10.00">&#45;</text>
<text text-anchor="start" x="14" y="-422.5" font-family="Helvetica,sans-Serif" font-size="10.00">AttackTimer</text>
<text text-anchor="start" x="5.5" y="-406.5" font-family="Helvetica,sans-Serif" font-size="10.00">&#45;</text>
<text text-anchor="start" x="14" y="-406.5" font-family="Helvetica,sans-Serif" font-size="10.00">BeginPatrolTimer</text>
<text text-anchor="start" x="4" y="-390.5" font-family="Helvetica,sans-Serif" font-size="10.00">+</text>
<text text-anchor="start" x="14" y="-390.5" font-family="Helvetica,sans-Serif" font-size="10.00">AEnemy()</text>
<text text-anchor="start" x="4" y="-374.5" font-family="Helvetica,sans-Serif" font-size="10.00">+</text>
<text text-anchor="start" x="14" y="-374.5" font-family="Helvetica,sans-Serif" font-size="10.00">Tick()</text>
<text text-anchor="start" x="4" y="-358.5" font-family="Helvetica,sans-Serif" font-size="10.00">+</text>
<text text-anchor="start" x="14" y="-358.5" font-family="Helvetica,sans-Serif" font-size="10.00">TakeDamage()</text>
<text text-anchor="start" x="4" y="-342.5" font-family="Helvetica,sans-Serif" font-size="10.00">+</text>
<text text-anchor="start" x="14" y="-342.5" font-family="Helvetica,sans-Serif" font-size="10.00">Destroyed()</text>
<text text-anchor="start" x="4" y="-326.5" font-family="Helvetica,sans-Serif" font-size="10.00">+</text>
<text text-anchor="start" x="14" y="-326.5" font-family="Helvetica,sans-Serif" font-size="10.00">GetHit_Implementation()</text>
<text text-anchor="start" x="4.38" y="-310.5" font-family="Helvetica,sans-Serif" font-size="10.00">#</text>
<text text-anchor="start" x="14" y="-310.5" font-family="Helvetica,sans-Serif" font-size="10.00">BeginPlay()</text>
<text text-anchor="start" x="4.38" y="-294.5" font-family="Helvetica,sans-Serif" font-size="10.00">#</text>
<text text-anchor="start" x="14" y="-294.5" font-family="Helvetica,sans-Serif" font-size="10.00">Die_Implementation()</text>
<text text-anchor="start" x="4.38" y="-278.5" font-family="Helvetica,sans-Serif" font-size="10.00">#</text>
<text text-anchor="start" x="14" y="-278.5" font-family="Helvetica,sans-Serif" font-size="10.00">Attack()</text>
<text text-anchor="start" x="4.38" y="-262.5" font-family="Helvetica,sans-Serif" font-size="10.00">#</text>
<text text-anchor="start" x="14" y="-262.5" font-family="Helvetica,sans-Serif" font-size="10.00">CanAttack()</text>
<text text-anchor="start" x="4.38" y="-246.5" font-family="Helvetica,sans-Serif" font-size="10.00">#</text>
<text text-anchor="start" x="14" y="-246.5" font-family="Helvetica,sans-Serif" font-size="10.00">HandleDamage()</text>
<text text-anchor="start" x="4.38" y="-230.5" font-family="Helvetica,sans-Serif" font-size="10.00">#</text>
<text text-anchor="start" x="14" y="-230.5" font-family="Helvetica,sans-Serif" font-size="10.00">PlayDeathMontage()</text>
<text text-anchor="start" x="4.38" y="-214.5" font-family="Helvetica,sans-Serif" font-size="10.00">#</text>
<text text-anchor="start" x="14" y="-214.5" font-family="Helvetica,sans-Serif" font-size="10.00">AttackEnd()</text>
<text text-anchor="start" x="4.38" y="-198.5" font-family="Helvetica,sans-Serif" font-size="10.00">#</text>
<text text-anchor="start" x="14" y="-198.5" font-family="Helvetica,sans-Serif" font-size="10.00">InTargetRange()</text>
<text text-anchor="start" x="4.38" y="-182.5" font-family="Helvetica,sans-Serif" font-size="10.00">#</text>
<text text-anchor="start" x="14" y="-182.5" font-family="Helvetica,sans-Serif" font-size="10.00">SpawnSoul()</text>
<text text-anchor="start" x="5.5" y="-166.5" font-family="Helvetica,sans-Serif" font-size="10.00">&#45;</text>
<text text-anchor="start" x="14" y="-166.5" font-family="Helvetica,sans-Serif" font-size="10.00">InitializeEnemy()</text>
<text text-anchor="start" x="5.5" y="-150.5" font-family="Helvetica,sans-Serif" font-size="10.00">&#45;</text>
<text text-anchor="start" x="14" y="-150.5" font-family="Helvetica,sans-Serif" font-size="10.00">CheckPatrolTarget()</text>
<text text-anchor="start" x="5.5" y="-134.5" font-family="Helvetica,sans-Serif" font-size="10.00">&#45;</text>
<text text-anchor="start" x="14" y="-134.5" font-family="Helvetica,sans-Serif" font-size="10.00">CheckCombatTarget()</text>
<text text-anchor="start" x="5.5" y="-118.5" font-family="Helvetica,sans-Serif" font-size="10.00">&#45;</text>
<text text-anchor="start" x="14" y="-118.5" font-family="Helvetica,sans-Serif" font-size="10.00">PatrolTimerFinished()</text>
<text text-anchor="start" x="5.5" y="-102.5" font-family="Helvetica,sans-Serif" font-size="10.00">&#45;</text>
<text text-anchor="start" x="14" y="-102.5" font-family="Helvetica,sans-Serif" font-size="10.00">HideHealthBar()</text>
<text text-anchor="start" x="5.5" y="-86.5" font-family="Helvetica,sans-Serif" font-size="10.00">&#45;</text>
<text text-anchor="start" x="14" y="-86.5" font-family="Helvetica,sans-Serif" font-size="10.00">ShowHealthBar()</text>
<text text-anchor="start" x="5.5" y="-70.5" font-family="Helvetica,sans-Serif" font-size="10.00">&#45;</text>
<text text-anchor="start" x="14" y="-70.5" font-family="Helvetica,sans-Serif" font-size="10.00">LoseInterest()</text>
<text text-anchor="start" x="5.5" y="-54.5" font-family="Helvetica,sans-Serif" font-size="10.00">&#45;</text>
<text text-anchor="start" x="14" y="-54.5" font-family="Helvetica,sans-Serif" font-size="10.00">StartPatrolling()</text>
<text text-anchor="start" x="5.5" y="-38.5" font-family="Helvetica,sans-Serif" font-size="10.00">&#45;</text>
<text text-anchor="start" x="14" y="-38.5" font-family="Helvetica,sans-Serif" font-size="10.00">ChaseTarget()</text>
<text text-anchor="start" x="5.5" y="-22.5" font-family="Helvetica,sans-Serif" font-size="10.00">&#45;</text>
<text text-anchor="start" x="14" y="-22.5" font-family="Helvetica,sans-Serif" font-size="10.00">IsOutsideCombatRadius()</text>
<text text-anchor="start" x="14" y="-6.5" font-family="Helvetica,sans-Serif" font-size="10.00">and 14 more...</text>
<polygon fill="#666666" stroke="#666666" points="0,-562 0,-562 131.25,-562 131.25,-562 0,-562"/>
<polygon fill="#666666" stroke="#666666" points="0,-402 0,-402 12,-402 12,-402 0,-402"/>
<polygon fill="#666666" stroke="#666666" points="12,-402 12,-402 131.25,-402 131.25,-402 12,-402"/>
<polygon fill="none" stroke="#666666" points="0,0 0,-580 131.25,-580 131.25,0 0,0"/>
</a>
</g>
</g>
<!-- Node1&#45;&gt;Node4 -->
<g id="edge3_Node000001_Node000004" class="edge">
<title>Node1&#45;&gt;Node4</title>
<g id="a_edge3_Node000001_Node000004"><a xlink:title=" ">
<path fill="none" stroke="#63b8ff" d="M117.5,-604.88C116.13,-596.58 114.74,-588.15 113.33,-579.63"/>
<polygon fill="none" stroke="#63b8ff" points="114.03,-605.33 119.11,-614.62 120.93,-604.18 114.03,-605.33"/>
</a>
</g>
</g>
<!-- Node5 -->
<g id="Node000005" class="node">
<title>Node5</title>
<g id="a_Node000005"><a xlink:href="class_a_slash_character.html" target="_top" xlink:title=" ">
<polygon fill="white" stroke="none" points="298.25,-556 149,-556 149,-24 298.25,-24 298.25,-556"/>
<text text-anchor="start" x="186.5" y="-542.5" font-family="Helvetica,sans-Serif" font-size="10.00">ASlashCharacter</text>
<text text-anchor="start" x="153.38" y="-526.5" font-family="Helvetica,sans-Serif" font-size="10.00">#</text>
<text text-anchor="start" x="163" y="-526.5" font-family="Helvetica,sans-Serif" font-size="10.00">Category</text>
<text text-anchor="start" x="154.5" y="-510.5" font-family="Helvetica,sans-Serif" font-size="10.00">&#45;</text>
<text text-anchor="start" x="163" y="-510.5" font-family="Helvetica,sans-Serif" font-size="10.00">CameraBoom</text>
<text text-anchor="start" x="154.5" y="-494.5" font-family="Helvetica,sans-Serif" font-size="10.00">&#45;</text>
<text text-anchor="start" x="163" y="-494.5" font-family="Helvetica,sans-Serif" font-size="10.00">ViewCamera</text>
<text text-anchor="start" x="154.5" y="-478.5" font-family="Helvetica,sans-Serif" font-size="10.00">&#45;</text>
<text text-anchor="start" x="163" y="-478.5" font-family="Helvetica,sans-Serif" font-size="10.00">OverlappingItem</text>
<text text-anchor="start" x="154.5" y="-462.5" font-family="Helvetica,sans-Serif" font-size="10.00">&#45;</text>
<text text-anchor="start" x="163" y="-462.5" font-family="Helvetica,sans-Serif" font-size="10.00">CharacterState</text>
<text text-anchor="start" x="154.5" y="-446.5" font-family="Helvetica,sans-Serif" font-size="10.00">&#45;</text>
<text text-anchor="start" x="163" y="-446.5" font-family="Helvetica,sans-Serif" font-size="10.00">meta</text>
<text text-anchor="start" x="154.5" y="-430.5" font-family="Helvetica,sans-Serif" font-size="10.00">&#45;</text>
<text text-anchor="start" x="163" y="-430.5" font-family="Helvetica,sans-Serif" font-size="10.00">SlashOverlay</text>
<text text-anchor="start" x="153" y="-414.5" font-family="Helvetica,sans-Serif" font-size="10.00">+</text>
<text text-anchor="start" x="163" y="-414.5" font-family="Helvetica,sans-Serif" font-size="10.00">ASlashCharacter()</text>
<text text-anchor="start" x="153" y="-398.5" font-family="Helvetica,sans-Serif" font-size="10.00">+</text>
<text text-anchor="start" x="163" y="-398.5" font-family="Helvetica,sans-Serif" font-size="10.00">Tick()</text>
<text text-anchor="start" x="153" y="-382.5" font-family="Helvetica,sans-Serif" font-size="10.00">+</text>
<text text-anchor="start" x="163" y="-382.5" font-family="Helvetica,sans-Serif" font-size="10.00">SetupPlayerInputComponent()</text>
<text text-anchor="start" x="153" y="-366.5" font-family="Helvetica,sans-Serif" font-size="10.00">+</text>
<text text-anchor="start" x="163" y="-366.5" font-family="Helvetica,sans-Serif" font-size="10.00">Jump()</text>
<text text-anchor="start" x="153" y="-350.5" font-family="Helvetica,sans-Serif" font-size="10.00">+</text>
<text text-anchor="start" x="163" y="-350.5" font-family="Helvetica,sans-Serif" font-size="10.00">TakeDamage()</text>
<text text-anchor="start" x="153" y="-334.5" font-family="Helvetica,sans-Serif" font-size="10.00">+</text>
<text text-anchor="start" x="163" y="-334.5" font-family="Helvetica,sans-Serif" font-size="10.00">GetHit_Implementation()</text>
<text text-anchor="start" x="153" y="-318.5" font-family="Helvetica,sans-Serif" font-size="10.00">+</text>
<text text-anchor="start" x="163" y="-318.5" font-family="Helvetica,sans-Serif" font-size="10.00">SetOverlappingItem()</text>
<text text-anchor="start" x="153" y="-302.5" font-family="Helvetica,sans-Serif" font-size="10.00">+</text>
<text text-anchor="start" x="163" y="-302.5" font-family="Helvetica,sans-Serif" font-size="10.00">AddSouls()</text>
<text text-anchor="start" x="153" y="-286.5" font-family="Helvetica,sans-Serif" font-size="10.00">+</text>
<text text-anchor="start" x="163" y="-286.5" font-family="Helvetica,sans-Serif" font-size="10.00">AddGold()</text>
<text text-anchor="start" x="153" y="-270.5" font-family="Helvetica,sans-Serif" font-size="10.00">+</text>
<text text-anchor="start" x="163" y="-270.5" font-family="Helvetica,sans-Serif" font-size="10.00">GetCharacterState()</text>
<text text-anchor="start" x="153" y="-254.5" font-family="Helvetica,sans-Serif" font-size="10.00">+</text>
<text text-anchor="start" x="163" y="-254.5" font-family="Helvetica,sans-Serif" font-size="10.00">GetActionState()</text>
<text text-anchor="start" x="153.38" y="-238.5" font-family="Helvetica,sans-Serif" font-size="10.00">#</text>
<text text-anchor="start" x="163" y="-238.5" font-family="Helvetica,sans-Serif" font-size="10.00">BeginPlay()</text>
<text text-anchor="start" x="153.38" y="-222.5" font-family="Helvetica,sans-Serif" font-size="10.00">#</text>
<text text-anchor="start" x="163" y="-222.5" font-family="Helvetica,sans-Serif" font-size="10.00">Move()</text>
<text text-anchor="start" x="153.38" y="-206.5" font-family="Helvetica,sans-Serif" font-size="10.00">#</text>
<text text-anchor="start" x="163" y="-206.5" font-family="Helvetica,sans-Serif" font-size="10.00">Look()</text>
<text text-anchor="start" x="153.38" y="-190.5" font-family="Helvetica,sans-Serif" font-size="10.00">#</text>
<text text-anchor="start" x="163" y="-190.5" font-family="Helvetica,sans-Serif" font-size="10.00">EKeyPressed()</text>
<text text-anchor="start" x="153.38" y="-174.5" font-family="Helvetica,sans-Serif" font-size="10.00">#</text>
<text text-anchor="start" x="163" y="-174.5" font-family="Helvetica,sans-Serif" font-size="10.00">Attack()</text>
<text text-anchor="start" x="153.38" y="-158.5" font-family="Helvetica,sans-Serif" font-size="10.00">#</text>
<text text-anchor="start" x="163" y="-158.5" font-family="Helvetica,sans-Serif" font-size="10.00">Dodge()</text>
<text text-anchor="start" x="153.38" y="-142.5" font-family="Helvetica,sans-Serif" font-size="10.00">#</text>
<text text-anchor="start" x="163" y="-142.5" font-family="Helvetica,sans-Serif" font-size="10.00">EquipWeapon()</text>
<text text-anchor="start" x="153.38" y="-126.5" font-family="Helvetica,sans-Serif" font-size="10.00">#</text>
<text text-anchor="start" x="163" y="-126.5" font-family="Helvetica,sans-Serif" font-size="10.00">AttackEnd()</text>
<text text-anchor="start" x="153.38" y="-110.5" font-family="Helvetica,sans-Serif" font-size="10.00">#</text>
<text text-anchor="start" x="163" y="-110.5" font-family="Helvetica,sans-Serif" font-size="10.00">DodgeEnd()</text>
<text text-anchor="start" x="153.38" y="-94.5" font-family="Helvetica,sans-Serif" font-size="10.00">#</text>
<text text-anchor="start" x="163" y="-94.5" font-family="Helvetica,sans-Serif" font-size="10.00">CanAttack()</text>
<text text-anchor="start" x="163" y="-78.5" font-family="Helvetica,sans-Serif" font-size="10.00">and 11 more...</text>
<text text-anchor="start" x="154.5" y="-62.5" font-family="Helvetica,sans-Serif" font-size="10.00">&#45;</text>
<text text-anchor="start" x="163" y="-62.5" font-family="Helvetica,sans-Serif" font-size="10.00">IsUnoccupied()</text>
<text text-anchor="start" x="154.5" y="-46.5" font-family="Helvetica,sans-Serif" font-size="10.00">&#45;</text>
<text text-anchor="start" x="163" y="-46.5" font-family="Helvetica,sans-Serif" font-size="10.00">InitializeSlashOverlay()</text>
<text text-anchor="start" x="154.5" y="-30.5" font-family="Helvetica,sans-Serif" font-size="10.00">&#45;</text>
<text text-anchor="start" x="163" y="-30.5" font-family="Helvetica,sans-Serif" font-size="10.00">SetHUDHealth()</text>
<polygon fill="#666666" stroke="#666666" points="149,-538 149,-538 298.25,-538 298.25,-538 149,-538"/>
<polygon fill="#666666" stroke="#666666" points="149,-426 149,-426 161,-426 161,-426 149,-426"/>
<polygon fill="#666666" stroke="#666666" points="161,-426 161,-426 298.25,-426 298.25,-426 161,-426"/>
<polygon fill="none" stroke="#666666" points="149,-24 149,-556 298.25,-556 298.25,-24 149,-24"/>
</a>
</g>
</g>
<!-- Node1&#45;&gt;Node5 -->
<g id="edge4_Node000001_Node000005" class="edge">
<title>Node1&#45;&gt;Node5</title>
<g id="a_edge4_Node000001_Node000005"><a xlink:title=" ">
<path fill="none" stroke="#63b8ff" d="M171.71,-605.12C174.36,-589.11 177.08,-572.61 179.84,-555.93"/>
<polygon fill="none" stroke="#63b8ff" points="168.32,-604.18 170.14,-614.62 175.22,-605.33 168.32,-604.18"/>
</a>
</g>
</g>
<!-- Node2 -->
<g id="Node000002" class="node">
<title>Node2</title>
<g id="a_Node000002"><a xlink:title=" ">
<polygon fill="white" stroke="none" points="134.38,-1012 76.88,-1012 76.88,-960 134.38,-960 134.38,-1012"/>
<text text-anchor="start" x="80.88" y="-998.5" font-family="Helvetica,sans-Serif" font-size="10.00">ACharacter</text>
<text text-anchor="start" x="104.12" y="-982.5" font-family="Helvetica,sans-Serif" font-size="10.00"> </text>
<text text-anchor="start" x="104.12" y="-966.5" font-family="Helvetica,sans-Serif" font-size="10.00"> </text>
<polygon fill="#666666" stroke="#666666" points="76.88,-994 76.88,-994 134.38,-994 134.38,-994 76.88,-994"/>
<polygon fill="#666666" stroke="#666666" points="76.88,-978 76.88,-978 134.38,-978 134.38,-978 76.88,-978"/>
<polygon fill="none" stroke="#666666" points="76.88,-960 76.88,-1012 134.38,-1012 134.38,-960 76.88,-960"/>
</a>
</g>
</g>
<!-- Node2&#45;&gt;Node1 -->
<g id="edge1_Node000001_Node000002" class="edge">
<title>Node2&#45;&gt;Node1</title>
<g id="a_edge1_Node000001_Node000002"><a xlink:title=" ">
<path fill="none" stroke="#63b8ff" d="M112.21,-948.88C113.59,-941.3 115.13,-932.86 116.76,-923.89"/>
<polygon fill="none" stroke="#63b8ff" points="108.8,-948.08 110.45,-958.54 115.68,-949.33 108.8,-948.08"/>
</a>
</g>
</g>
<!-- Node3 -->
<g id="Node000003" class="node">
<title>Node3</title>
<g id="a_Node000003"><a xlink:href="class_i_hit_interface.html" target="_top" xlink:title=" ">
<polygon fill="white" stroke="none" points="214.62,-1012 152.62,-1012 152.62,-960 214.62,-960 214.62,-1012"/>
<text text-anchor="start" x="156.62" y="-998.5" font-family="Helvetica,sans-Serif" font-size="10.00">IHitInterface</text>
<text text-anchor="start" x="182.12" y="-982.5" font-family="Helvetica,sans-Serif" font-size="10.00"> </text>
<text text-anchor="start" x="159" y="-966.5" font-family="Helvetica,sans-Serif" font-size="10.00">+</text>
<text text-anchor="start" x="171.38" y="-966.5" font-family="Helvetica,sans-Serif" font-size="10.00">GetHit()</text>
<polygon fill="#666666" stroke="#666666" points="152.62,-994 152.62,-994 214.62,-994 214.62,-994 152.62,-994"/>
<polygon fill="#666666" stroke="#666666" points="152.62,-978 152.62,-978 214.62,-978 214.62,-978 152.62,-978"/>
<polygon fill="none" stroke="#666666" points="152.62,-960 152.62,-1012 214.62,-1012 214.62,-960 152.62,-960"/>
</a>
</g>
</g>
<!-- Node3&#45;&gt;Node1 -->
<g id="edge2_Node000001_Node000003" class="edge">
<title>Node3&#45;&gt;Node1</title>
<g id="a_edge2_Node000001_Node000003"><a xlink:title=" ">
<path fill="none" stroke="#63b8ff" d="M177.04,-948.88C175.66,-941.3 174.12,-932.86 172.49,-923.89"/>
<polygon fill="none" stroke="#63b8ff" points="173.57,-949.33 178.8,-958.54 180.45,-948.08 173.57,-949.33"/>
</a>
</g>
</g>
</g>
</svg>
