<?xml version="1.0" encoding="UTF-8" standalone="no"?>
<!DOCTYPE svg PUBLIC "-//W3C//DTD SVG 1.1//EN"
 "http://www.w3.org/Graphics/SVG/1.1/DTD/svg11.dtd">
<!-- Generated by graphviz version 12.2.1 (20241206.2353)
 -->
<!-- Title: ASlashCharacter Pages: 1 -->
<svg width="565pt" height="985pt"
 viewBox="0.00 0.00 565.25 985.00" xmlns="http://www.w3.org/2000/svg" xmlns:xlink="http://www.w3.org/1999/xlink">
<g id="graph0" class="graph" transform="scale(1 1) rotate(0) translate(4 981)">
<title>ASlashCharacter</title>
<!-- Node1 -->
<g id="Node000001" class="node">
<title>Node1</title>
<g id="a_Node000001"><a xlink:title=" ">
<polygon fill="#999999" stroke="none" points="340,-500 190.75,-500 190.75,0 340,0 340,-500"/>
<text text-anchor="start" x="228.25" y="-486.5" font-family="Helvetica,sans-Serif" font-size="10.00">ASlashCharacter</text>
<text text-anchor="start" x="195.12" y="-470.5" font-family="Helvetica,sans-Serif" font-size="10.00">#</text>
<text text-anchor="start" x="204.75" y="-470.5" font-family="Helvetica,sans-Serif" font-size="10.00">Category</text>
<text text-anchor="start" x="196.25" y="-454.5" font-family="Helvetica,sans-Serif" font-size="10.00">&#45;</text>
<text text-anchor="start" x="204.75" y="-454.5" font-family="Helvetica,sans-Serif" font-size="10.00">CameraBoom</text>
<text text-anchor="start" x="196.25" y="-438.5" font-family="Helvetica,sans-Serif" font-size="10.00">&#45;</text>
<text text-anchor="start" x="204.75" y="-438.5" font-family="Helvetica,sans-Serif" font-size="10.00">ViewCamera</text>
<text text-anchor="start" x="196.25" y="-422.5" font-family="Helvetica,sans-Serif" font-size="10.00">&#45;</text>
<text text-anchor="start" x="204.75" y="-422.5" font-family="Helvetica,sans-Serif" font-size="10.00">CharacterState</text>
<text text-anchor="start" x="196.25" y="-406.5" font-family="Helvetica,sans-Serif" font-size="10.00">&#45;</text>
<text text-anchor="start" x="204.75" y="-406.5" font-family="Helvetica,sans-Serif" font-size="10.00">meta</text>
<text text-anchor="start" x="194.75" y="-390.5" font-family="Helvetica,sans-Serif" font-size="10.00">+</text>
<text text-anchor="start" x="204.75" y="-390.5" font-family="Helvetica,sans-Serif" font-size="10.00">ASlashCharacter()</text>
<text text-anchor="start" x="194.75" y="-374.5" font-family="Helvetica,sans-Serif" font-size="10.00">+</text>
<text text-anchor="start" x="204.75" y="-374.5" font-family="Helvetica,sans-Serif" font-size="10.00">Tick()</text>
<text text-anchor="start" x="194.75" y="-358.5" font-family="Helvetica,sans-Serif" font-size="10.00">+</text>
<text text-anchor="start" x="204.75" y="-358.5" font-family="Helvetica,sans-Serif" font-size="10.00">SetupPlayerInputComponent()</text>
<text text-anchor="start" x="194.75" y="-342.5" font-family="Helvetica,sans-Serif" font-size="10.00">+</text>
<text text-anchor="start" x="204.75" y="-342.5" font-family="Helvetica,sans-Serif" font-size="10.00">Jump()</text>
<text text-anchor="start" x="194.75" y="-326.5" font-family="Helvetica,sans-Serif" font-size="10.00">+</text>
<text text-anchor="start" x="204.75" y="-326.5" font-family="Helvetica,sans-Serif" font-size="10.00">TakeDamage()</text>
<text text-anchor="start" x="194.75" y="-310.5" font-family="Helvetica,sans-Serif" font-size="10.00">+</text>
<text text-anchor="start" x="204.75" y="-310.5" font-family="Helvetica,sans-Serif" font-size="10.00">GetHit_Implementation()</text>
<text text-anchor="start" x="194.75" y="-294.5" font-family="Helvetica,sans-Serif" font-size="10.00">+</text>
<text text-anchor="start" x="204.75" y="-294.5" font-family="Helvetica,sans-Serif" font-size="10.00">SetOverlappingItem()</text>
<text text-anchor="start" x="194.75" y="-278.5" font-family="Helvetica,sans-Serif" font-size="10.00">+</text>
<text text-anchor="start" x="204.75" y="-278.5" font-family="Helvetica,sans-Serif" font-size="10.00">AddSouls()</text>
<text text-anchor="start" x="194.75" y="-262.5" font-family="Helvetica,sans-Serif" font-size="10.00">+</text>
<text text-anchor="start" x="204.75" y="-262.5" font-family="Helvetica,sans-Serif" font-size="10.00">AddGold()</text>
<text text-anchor="start" x="194.75" y="-246.5" font-family="Helvetica,sans-Serif" font-size="10.00">+</text>
<text text-anchor="start" x="204.75" y="-246.5" font-family="Helvetica,sans-Serif" font-size="10.00">GetCharacterState()</text>
<text text-anchor="start" x="194.75" y="-230.5" font-family="Helvetica,sans-Serif" font-size="10.00">+</text>
<text text-anchor="start" x="204.75" y="-230.5" font-family="Helvetica,sans-Serif" font-size="10.00">GetActionState()</text>
<text text-anchor="start" x="195.12" y="-214.5" font-family="Helvetica,sans-Serif" font-size="10.00">#</text>
<text text-anchor="start" x="204.75" y="-214.5" font-family="Helvetica,sans-Serif" font-size="10.00">BeginPlay()</text>
<text text-anchor="start" x="195.12" y="-198.5" font-family="Helvetica,sans-Serif" font-size="10.00">#</text>
<text text-anchor="start" x="204.75" y="-198.5" font-family="Helvetica,sans-Serif" font-size="10.00">Move()</text>
<text text-anchor="start" x="195.12" y="-182.5" font-family="Helvetica,sans-Serif" font-size="10.00">#</text>
<text text-anchor="start" x="204.75" y="-182.5" font-family="Helvetica,sans-Serif" font-size="10.00">Look()</text>
<text text-anchor="start" x="195.12" y="-166.5" font-family="Helvetica,sans-Serif" font-size="10.00">#</text>
<text text-anchor="start" x="204.75" y="-166.5" font-family="Helvetica,sans-Serif" font-size="10.00">EKeyPressed()</text>
<text text-anchor="start" x="195.12" y="-150.5" font-family="Helvetica,sans-Serif" font-size="10.00">#</text>
<text text-anchor="start" x="204.75" y="-150.5" font-family="Helvetica,sans-Serif" font-size="10.00">Attack()</text>
<text text-anchor="start" x="195.12" y="-134.5" font-family="Helvetica,sans-Serif" font-size="10.00">#</text>
<text text-anchor="start" x="204.75" y="-134.5" font-family="Helvetica,sans-Serif" font-size="10.00">Dodge()</text>
<text text-anchor="start" x="195.12" y="-118.5" font-family="Helvetica,sans-Serif" font-size="10.00">#</text>
<text text-anchor="start" x="204.75" y="-118.5" font-family="Helvetica,sans-Serif" font-size="10.00">EquipWeapon()</text>
<text text-anchor="start" x="195.12" y="-102.5" font-family="Helvetica,sans-Serif" font-size="10.00">#</text>
<text text-anchor="start" x="204.75" y="-102.5" font-family="Helvetica,sans-Serif" font-size="10.00">AttackEnd()</text>
<text text-anchor="start" x="195.12" y="-86.5" font-family="Helvetica,sans-Serif" font-size="10.00">#</text>
<text text-anchor="start" x="204.75" y="-86.5" font-family="Helvetica,sans-Serif" font-size="10.00">DodgeEnd()</text>
<text text-anchor="start" x="195.12" y="-70.5" font-family="Helvetica,sans-Serif" font-size="10.00">#</text>
<text text-anchor="start" x="204.75" y="-70.5" font-family="Helvetica,sans-Serif" font-size="10.00">CanAttack()</text>
<text text-anchor="start" x="204.75" y="-54.5" font-family="Helvetica,sans-Serif" font-size="10.00">and 11 more...</text>
<text text-anchor="start" x="196.25" y="-38.5" font-family="Helvetica,sans-Serif" font-size="10.00">&#45;</text>
<text text-anchor="start" x="204.75" y="-38.5" font-family="Helvetica,sans-Serif" font-size="10.00">IsUnoccupied()</text>
<text text-anchor="start" x="196.25" y="-22.5" font-family="Helvetica,sans-Serif" font-size="10.00">&#45;</text>
<text text-anchor="start" x="204.75" y="-22.5" font-family="Helvetica,sans-Serif" font-size="10.00">InitializeSlashOverlay()</text>
<text text-anchor="start" x="196.25" y="-6.5" font-family="Helvetica,sans-Serif" font-size="10.00">&#45;</text>
<text text-anchor="start" x="204.75" y="-6.5" font-family="Helvetica,sans-Serif" font-size="10.00">SetHUDHealth()</text>
<polygon fill="#666666" stroke="#666666" points="190.75,-482 190.75,-482 340,-482 340,-482 190.75,-482"/>
<polygon fill="#666666" stroke="#666666" points="190.75,-402 190.75,-402 202.75,-402 202.75,-402 190.75,-402"/>
<polygon fill="#666666" stroke="#666666" points="202.75,-402 202.75,-402 340,-402 340,-402 202.75,-402"/>
<polygon fill="none" stroke="#666666" points="190.75,0 190.75,-500 340,-500 340,0 190.75,0"/>
</a>
</g>
</g>
<!-- Node2 -->
<g id="Node000002" class="node">
<title>Node2</title>
<g id="a_Node000002"><a xlink:href="class_a_base_character.html" target="_top" xlink:title=" ">
<polygon fill="white" stroke="none" points="150.75,-872 0,-872 0,-564 150.75,-564 150.75,-872"/>
<text text-anchor="start" x="39.38" y="-858.5" font-family="Helvetica,sans-Serif" font-size="10.00">ABaseCharacter</text>
<text text-anchor="start" x="4.38" y="-842.5" font-family="Helvetica,sans-Serif" font-size="10.00">#</text>
<text text-anchor="start" x="14" y="-842.5" font-family="Helvetica,sans-Serif" font-size="10.00">Category</text>
<text text-anchor="start" x="4.38" y="-826.5" font-family="Helvetica,sans-Serif" font-size="10.00">#</text>
<text text-anchor="start" x="14" y="-826.5" font-family="Helvetica,sans-Serif" font-size="10.00">BlueprintReadOnly</text>
<text text-anchor="start" x="4.38" y="-810.5" font-family="Helvetica,sans-Serif" font-size="10.00">#</text>
<text text-anchor="start" x="14" y="-810.5" font-family="Helvetica,sans-Serif" font-size="10.00">meta</text>
<text text-anchor="start" x="4" y="-794.5" font-family="Helvetica,sans-Serif" font-size="10.00">+</text>
<text text-anchor="start" x="14" y="-794.5" font-family="Helvetica,sans-Serif" font-size="10.00">ABaseCharacter()</text>
<text text-anchor="start" x="4" y="-778.5" font-family="Helvetica,sans-Serif" font-size="10.00">+</text>
<text text-anchor="start" x="14" y="-778.5" font-family="Helvetica,sans-Serif" font-size="10.00">Tick()</text>
<text text-anchor="start" x="4.38" y="-762.5" font-family="Helvetica,sans-Serif" font-size="10.00">#</text>
<text text-anchor="start" x="14" y="-762.5" font-family="Helvetica,sans-Serif" font-size="10.00">BeginPlay()</text>
<text text-anchor="start" x="4.38" y="-746.5" font-family="Helvetica,sans-Serif" font-size="10.00">#</text>
<text text-anchor="start" x="14" y="-746.5" font-family="Helvetica,sans-Serif" font-size="10.00">GetHit_Implementation()</text>
<text text-anchor="start" x="4.38" y="-730.5" font-family="Helvetica,sans-Serif" font-size="10.00">#</text>
<text text-anchor="start" x="14" y="-730.5" font-family="Helvetica,sans-Serif" font-size="10.00">Attack()</text>
<text text-anchor="start" x="4.38" y="-714.5" font-family="Helvetica,sans-Serif" font-size="10.00">#</text>
<text text-anchor="start" x="14" y="-714.5" font-family="Helvetica,sans-Serif" font-size="10.00">Die()</text>
<text text-anchor="start" x="4.38" y="-698.5" font-family="Helvetica,sans-Serif" font-size="10.00">#</text>
<text text-anchor="start" x="14" y="-698.5" font-family="Helvetica,sans-Serif" font-size="10.00">DirectionalHitReact()</text>
<text text-anchor="start" x="4.38" y="-682.5" font-family="Helvetica,sans-Serif" font-size="10.00">#</text>
<text text-anchor="start" x="14" y="-682.5" font-family="Helvetica,sans-Serif" font-size="10.00">HandleDamage()</text>
<text text-anchor="start" x="4.38" y="-666.5" font-family="Helvetica,sans-Serif" font-size="10.00">#</text>
<text text-anchor="start" x="14" y="-666.5" font-family="Helvetica,sans-Serif" font-size="10.00">PlayHitSound()</text>
<text text-anchor="start" x="4.38" y="-650.5" font-family="Helvetica,sans-Serif" font-size="10.00">#</text>
<text text-anchor="start" x="14" y="-650.5" font-family="Helvetica,sans-Serif" font-size="10.00">SpawnHitParticles()</text>
<text text-anchor="start" x="4.38" y="-634.5" font-family="Helvetica,sans-Serif" font-size="10.00">#</text>
<text text-anchor="start" x="14" y="-634.5" font-family="Helvetica,sans-Serif" font-size="10.00">DisableCapsule()</text>
<text text-anchor="start" x="4.38" y="-618.5" font-family="Helvetica,sans-Serif" font-size="10.00">#</text>
<text text-anchor="start" x="14" y="-618.5" font-family="Helvetica,sans-Serif" font-size="10.00">CanAttack()</text>
<text text-anchor="start" x="14" y="-602.5" font-family="Helvetica,sans-Serif" font-size="10.00">and 12 more...</text>
<text text-anchor="start" x="5.5" y="-586.5" font-family="Helvetica,sans-Serif" font-size="10.00">&#45;</text>
<text text-anchor="start" x="14" y="-586.5" font-family="Helvetica,sans-Serif" font-size="10.00">PlayMontageSection()</text>
<text text-anchor="start" x="5.5" y="-570.5" font-family="Helvetica,sans-Serif" font-size="10.00">&#45;</text>
<text text-anchor="start" x="14" y="-570.5" font-family="Helvetica,sans-Serif" font-size="10.00">PlayRandomMontageSection()</text>
<polygon fill="#666666" stroke="#666666" points="0,-854 0,-854 150.75,-854 150.75,-854 0,-854"/>
<polygon fill="#666666" stroke="#666666" points="0,-806 0,-806 12,-806 12,-806 0,-806"/>
<polygon fill="#666666" stroke="#666666" points="12,-806 12,-806 150.75,-806 150.75,-806 12,-806"/>
<polygon fill="none" stroke="#666666" points="0,-564 0,-872 150.75,-872 150.75,-564 0,-564"/>
</a>
</g>
</g>
<!-- Node2&#45;&gt;Node1 -->
<g id="edge1_Node000001_Node000002" class="edge">
<title>Node2&#45;&gt;Node1</title>
<g id="a_edge1_Node000001_Node000002"><a xlink:title=" ">
<path fill="none" stroke="#63b8ff" d="M141.93,-553.76C157.75,-514.97 174.72,-473.34 190.87,-433.74"/>
<polygon fill="none" stroke="#63b8ff" points="138.83,-552.11 138.29,-562.69 145.31,-554.75 138.83,-552.11"/>
</a>
</g>
</g>
<!-- Node3 -->
<g id="Node000003" class="node">
<title>Node3</title>
<g id="a_Node000003"><a xlink:title=" ">
<polygon fill="white" stroke="none" points="65.12,-977 7.62,-977 7.62,-925 65.12,-925 65.12,-977"/>
<text text-anchor="start" x="11.62" y="-963.5" font-family="Helvetica,sans-Serif" font-size="10.00">ACharacter</text>
<text text-anchor="start" x="34.88" y="-947.5" font-family="Helvetica,sans-Serif" font-size="10.00"> </text>
<text text-anchor="start" x="34.88" y="-931.5" font-family="Helvetica,sans-Serif" font-size="10.00"> </text>
<polygon fill="#666666" stroke="#666666" points="7.62,-959 7.62,-959 65.12,-959 65.12,-959 7.62,-959"/>
<polygon fill="#666666" stroke="#666666" points="7.62,-943 7.62,-943 65.12,-943 65.12,-943 7.62,-943"/>
<polygon fill="none" stroke="#666666" points="7.62,-925 7.62,-977 65.12,-977 65.12,-925 7.62,-925"/>
</a>
</g>
</g>
<!-- Node3&#45;&gt;Node2 -->
<g id="edge2_Node000002_Node000003" class="edge">
<title>Node3&#45;&gt;Node2</title>
<g id="a_edge2_Node000002_Node000003"><a xlink:title=" ">
<path fill="none" stroke="#63b8ff" d="M42.41,-914.28C44.48,-902.02 46.94,-887.41 49.58,-871.78"/>
<polygon fill="none" stroke="#63b8ff" points="39.01,-913.34 40.8,-923.79 45.92,-914.51 39.01,-913.34"/>
</a>
</g>
</g>
<!-- Node4 -->
<g id="Node000004" class="node">
<title>Node4</title>
<g id="a_Node000004"><a xlink:href="class_i_hit_interface.html" target="_top" xlink:title=" ">
<polygon fill="white" stroke="none" points="145.38,-977 83.38,-977 83.38,-925 145.38,-925 145.38,-977"/>
<text text-anchor="start" x="87.38" y="-963.5" font-family="Helvetica,sans-Serif" font-size="10.00">IHitInterface</text>
<text text-anchor="start" x="112.88" y="-947.5" font-family="Helvetica,sans-Serif" font-size="10.00"> </text>
<text text-anchor="start" x="89.75" y="-931.5" font-family="Helvetica,sans-Serif" font-size="10.00">+</text>
<text text-anchor="start" x="102.12" y="-931.5" font-family="Helvetica,sans-Serif" font-size="10.00">GetHit()</text>
<polygon fill="#666666" stroke="#666666" points="83.38,-959 83.38,-959 145.38,-959 145.38,-959 83.38,-959"/>
<polygon fill="#666666" stroke="#666666" points="83.38,-943 83.38,-943 145.38,-943 145.38,-943 83.38,-943"/>
<polygon fill="none" stroke="#666666" points="83.38,-925 83.38,-977 145.38,-977 145.38,-925 83.38,-925"/>
</a>
</g>
</g>
<!-- Node4&#45;&gt;Node2 -->
<g id="edge3_Node000002_Node000004" class="edge">
<title>Node4&#45;&gt;Node2</title>
<g id="a_edge3_Node000002_Node000004"><a xlink:title=" ">
<path fill="none" stroke="#63b8ff" d="M108.34,-914.28C106.27,-902.02 103.81,-887.41 101.17,-871.78"/>
<polygon fill="none" stroke="#63b8ff" points="104.83,-914.51 109.95,-923.79 111.74,-913.34 104.83,-914.51"/>
</a>
</g>
</g>
<!-- Node5 -->
<g id="Node000005" class="node">
<title>Node5</title>
<g id="a_Node000005"><a xlink:href="class_i_pickup_interface.html" target="_top" xlink:title=" ">
<polygon fill="white" stroke="none" points="279.5,-760 169.25,-760 169.25,-676 279.5,-676 279.5,-760"/>
<text text-anchor="start" x="188.75" y="-746.5" font-family="Helvetica,sans-Serif" font-size="10.00">IPickupInterface</text>
<text text-anchor="start" x="222.88" y="-730.5" font-family="Helvetica,sans-Serif" font-size="10.00"> </text>
<text text-anchor="start" x="173.25" y="-714.5" font-family="Helvetica,sans-Serif" font-size="10.00">+</text>
<text text-anchor="start" x="183.25" y="-714.5" font-family="Helvetica,sans-Serif" font-size="10.00">SetOverlappingItem()</text>
<text text-anchor="start" x="173.25" y="-698.5" font-family="Helvetica,sans-Serif" font-size="10.00">+</text>
<text text-anchor="start" x="183.25" y="-698.5" font-family="Helvetica,sans-Serif" font-size="10.00">AddSouls()</text>
<text text-anchor="start" x="173.25" y="-682.5" font-family="Helvetica,sans-Serif" font-size="10.00">+</text>
<text text-anchor="start" x="183.25" y="-682.5" font-family="Helvetica,sans-Serif" font-size="10.00">AddGold()</text>
<polygon fill="#666666" stroke="#666666" points="169.25,-742 169.25,-742 279.5,-742 279.5,-742 169.25,-742"/>
<polygon fill="#666666" stroke="#666666" points="169.25,-726 169.25,-726 279.5,-726 279.5,-726 169.25,-726"/>
<polygon fill="none" stroke="#666666" points="169.25,-676 169.25,-760 279.5,-760 279.5,-676 169.25,-676"/>
</a>
</g>
</g>
<!-- Node5&#45;&gt;Node1 -->
<g id="edge4_Node000001_Node000005" class="edge">
<title>Node5&#45;&gt;Node1</title>
<g id="a_edge4_Node000001_Node000005"><a xlink:title=" ">
<path fill="none" stroke="#63b8ff" d="M228.98,-664.67C232.61,-623.35 237.98,-562.42 243.47,-499.95"/>
<polygon fill="none" stroke="#63b8ff" points="225.5,-664.28 228.11,-674.55 232.47,-664.89 225.5,-664.28"/>
</a>
</g>
</g>
<!-- Node6 -->
<g id="Node000006" class="node">
<title>Node6</title>
<g id="a_Node000006"><a xlink:href="class_a_item.html" target="_top" xlink:title=" ">
<polygon fill="white" stroke="none" points="415.62,-888 297.12,-888 297.12,-548 415.62,-548 415.62,-888"/>
<text text-anchor="start" x="343.25" y="-874.5" font-family="Helvetica,sans-Serif" font-size="10.00">AItem</text>
<text text-anchor="start" x="301.5" y="-858.5" font-family="Helvetica,sans-Serif" font-size="10.00">#</text>
<text text-anchor="start" x="311.12" y="-858.5" font-family="Helvetica,sans-Serif" font-size="10.00">BlueprintReadWrite</text>
<text text-anchor="start" x="301.5" y="-842.5" font-family="Helvetica,sans-Serif" font-size="10.00">#</text>
<text text-anchor="start" x="311.12" y="-842.5" font-family="Helvetica,sans-Serif" font-size="10.00">Category</text>
<text text-anchor="start" x="301.5" y="-826.5" font-family="Helvetica,sans-Serif" font-size="10.00">#</text>
<text text-anchor="start" x="311.12" y="-826.5" font-family="Helvetica,sans-Serif" font-size="10.00">ItemMesh</text>
<text text-anchor="start" x="301.5" y="-810.5" font-family="Helvetica,sans-Serif" font-size="10.00">#</text>
<text text-anchor="start" x="311.12" y="-810.5" font-family="Helvetica,sans-Serif" font-size="10.00">ItemState</text>
<text text-anchor="start" x="301.5" y="-794.5" font-family="Helvetica,sans-Serif" font-size="10.00">#</text>
<text text-anchor="start" x="311.12" y="-794.5" font-family="Helvetica,sans-Serif" font-size="10.00">Sphere</text>
<text text-anchor="start" x="301.5" y="-778.5" font-family="Helvetica,sans-Serif" font-size="10.00">#</text>
<text text-anchor="start" x="311.12" y="-778.5" font-family="Helvetica,sans-Serif" font-size="10.00">ItemEffect</text>
<text text-anchor="start" x="301.5" y="-762.5" font-family="Helvetica,sans-Serif" font-size="10.00">#</text>
<text text-anchor="start" x="311.12" y="-762.5" font-family="Helvetica,sans-Serif" font-size="10.00">PickupSound</text>
<text text-anchor="start" x="302.62" y="-746.5" font-family="Helvetica,sans-Serif" font-size="10.00">&#45;</text>
<text text-anchor="start" x="311.12" y="-746.5" font-family="Helvetica,sans-Serif" font-size="10.00">BlueprintReadOnly</text>
<text text-anchor="start" x="302.62" y="-730.5" font-family="Helvetica,sans-Serif" font-size="10.00">&#45;</text>
<text text-anchor="start" x="311.12" y="-730.5" font-family="Helvetica,sans-Serif" font-size="10.00">meta</text>
<text text-anchor="start" x="302.62" y="-714.5" font-family="Helvetica,sans-Serif" font-size="10.00">&#45;</text>
<text text-anchor="start" x="311.12" y="-714.5" font-family="Helvetica,sans-Serif" font-size="10.00">PickupEffect</text>
<text text-anchor="start" x="301.12" y="-698.5" font-family="Helvetica,sans-Serif" font-size="10.00">+</text>
<text text-anchor="start" x="311.12" y="-698.5" font-family="Helvetica,sans-Serif" font-size="10.00">AItem()</text>
<text text-anchor="start" x="301.12" y="-682.5" font-family="Helvetica,sans-Serif" font-size="10.00">+</text>
<text text-anchor="start" x="311.12" y="-682.5" font-family="Helvetica,sans-Serif" font-size="10.00">Tick()</text>
<text text-anchor="start" x="301.5" y="-666.5" font-family="Helvetica,sans-Serif" font-size="10.00">#</text>
<text text-anchor="start" x="311.12" y="-666.5" font-family="Helvetica,sans-Serif" font-size="10.00">BeginPlay()</text>
<text text-anchor="start" x="301.5" y="-650.5" font-family="Helvetica,sans-Serif" font-size="10.00">#</text>
<text text-anchor="start" x="311.12" y="-650.5" font-family="Helvetica,sans-Serif" font-size="10.00">TransformedSin()</text>
<text text-anchor="start" x="301.5" y="-634.5" font-family="Helvetica,sans-Serif" font-size="10.00">#</text>
<text text-anchor="start" x="311.12" y="-634.5" font-family="Helvetica,sans-Serif" font-size="10.00">TransformedCos()</text>
<text text-anchor="start" x="301.5" y="-618.5" font-family="Helvetica,sans-Serif" font-size="10.00">#</text>
<text text-anchor="start" x="311.12" y="-618.5" font-family="Helvetica,sans-Serif" font-size="10.00">Avg()</text>
<text text-anchor="start" x="301.5" y="-602.5" font-family="Helvetica,sans-Serif" font-size="10.00">#</text>
<text text-anchor="start" x="311.12" y="-602.5" font-family="Helvetica,sans-Serif" font-size="10.00">OnSphereOverlap()</text>
<text text-anchor="start" x="301.5" y="-586.5" font-family="Helvetica,sans-Serif" font-size="10.00">#</text>
<text text-anchor="start" x="311.12" y="-586.5" font-family="Helvetica,sans-Serif" font-size="10.00">OnSphereEndOverlap()</text>
<text text-anchor="start" x="301.5" y="-570.5" font-family="Helvetica,sans-Serif" font-size="10.00">#</text>
<text text-anchor="start" x="311.12" y="-570.5" font-family="Helvetica,sans-Serif" font-size="10.00">SpawnPickupSystem()</text>
<text text-anchor="start" x="301.5" y="-554.5" font-family="Helvetica,sans-Serif" font-size="10.00">#</text>
<text text-anchor="start" x="311.12" y="-554.5" font-family="Helvetica,sans-Serif" font-size="10.00">SpawnPickupSound()</text>
<polygon fill="#666666" stroke="#666666" points="297.12,-870 297.12,-870 415.62,-870 415.62,-870 297.12,-870"/>
<polygon fill="#666666" stroke="#666666" points="297.12,-710 297.12,-710 309.12,-710 309.12,-710 297.12,-710"/>
<polygon fill="#666666" stroke="#666666" points="309.12,-710 309.12,-710 415.62,-710 415.62,-710 309.12,-710"/>
<polygon fill="none" stroke="#666666" points="297.12,-548 297.12,-888 415.62,-888 415.62,-548 297.12,-548"/>
</a>
</g>
</g>
<!-- Node6&#45;&gt;Node1 -->
<g id="edge5_Node000001_Node000006" class="edge">
<title>Node6&#45;&gt;Node1</title>
<g id="a_edge5_Node000001_Node000006"><a xlink:title=" ">
<path fill="none" stroke="#63b8ff" d="M323.39,-548.1C321.11,-536.41 318.78,-524.48 316.43,-512.45"/>
<polygon fill="none" stroke="#63b8ff" points="316.45,-512.54 311.37,-507.42 314.15,-500.76 319.22,-505.88 316.45,-512.54"/>
</a>
</g>
<text text-anchor="middle" x="357.65" y="-520.5" font-family="Helvetica,sans-Serif" font-size="10.00" fill="grey"> &#45;OverlappingItem</text>
</g>
<!-- Node7 -->
<g id="Node000007" class="node">
<title>Node7</title>
<g id="a_Node000007"><a xlink:title=" ">
<polygon fill="white" stroke="none" points="375.38,-977 337.38,-977 337.38,-925 375.38,-925 375.38,-977"/>
<text text-anchor="start" x="341.38" y="-963.5" font-family="Helvetica,sans-Serif" font-size="10.00">AActor</text>
<text text-anchor="start" x="354.88" y="-947.5" font-family="Helvetica,sans-Serif" font-size="10.00"> </text>
<text text-anchor="start" x="354.88" y="-931.5" font-family="Helvetica,sans-Serif" font-size="10.00"> </text>
<polygon fill="#666666" stroke="#666666" points="337.38,-959 337.38,-959 375.38,-959 375.38,-959 337.38,-959"/>
<polygon fill="#666666" stroke="#666666" points="337.38,-943 337.38,-943 375.38,-943 375.38,-943 337.38,-943"/>
<polygon fill="none" stroke="#666666" points="337.38,-925 337.38,-977 375.38,-977 375.38,-925 337.38,-925"/>
</a>
</g>
</g>
<!-- Node7&#45;&gt;Node6 -->
<g id="edge6_Node000006_Node000007" class="edge">
<title>Node7&#45;&gt;Node6</title>
<g id="a_edge6_Node000006_Node000007"><a xlink:title=" ">
<path fill="none" stroke="#63b8ff" d="M356.38,-913.99C356.38,-906.03 356.38,-897.09 356.38,-887.54"/>
<polygon fill="none" stroke="#63b8ff" points="352.88,-913.77 356.38,-923.77 359.88,-913.77 352.88,-913.77"/>
</a>
</g>
</g>
<!-- Node8 -->
<g id="Node000008" class="node">
<title>Node8</title>
<g id="a_Node000008"><a xlink:href="class_u_slash_overlay.html" target="_top" xlink:title=" ">
<polygon fill="white" stroke="none" points="557.25,-792 433.5,-792 433.5,-644 557.25,-644 557.25,-792"/>
<text text-anchor="start" x="462.38" y="-778.5" font-family="Helvetica,sans-Serif" font-size="10.00">USlashOverlay</text>
<text text-anchor="start" x="439" y="-762.5" font-family="Helvetica,sans-Serif" font-size="10.00">&#45;</text>
<text text-anchor="start" x="447.5" y="-762.5" font-family="Helvetica,sans-Serif" font-size="10.00">HealthProgressBar</text>
<text text-anchor="start" x="439" y="-746.5" font-family="Helvetica,sans-Serif" font-size="10.00">&#45;</text>
<text text-anchor="start" x="447.5" y="-746.5" font-family="Helvetica,sans-Serif" font-size="10.00">StaminaProgressBar</text>
<text text-anchor="start" x="439" y="-730.5" font-family="Helvetica,sans-Serif" font-size="10.00">&#45;</text>
<text text-anchor="start" x="447.5" y="-730.5" font-family="Helvetica,sans-Serif" font-size="10.00">GoldText</text>
<text text-anchor="start" x="439" y="-714.5" font-family="Helvetica,sans-Serif" font-size="10.00">&#45;</text>
<text text-anchor="start" x="447.5" y="-714.5" font-family="Helvetica,sans-Serif" font-size="10.00">SoulsText</text>
<text text-anchor="start" x="437.5" y="-698.5" font-family="Helvetica,sans-Serif" font-size="10.00">+</text>
<text text-anchor="start" x="447.5" y="-698.5" font-family="Helvetica,sans-Serif" font-size="10.00">SetHealthBarPercent()</text>
<text text-anchor="start" x="437.5" y="-682.5" font-family="Helvetica,sans-Serif" font-size="10.00">+</text>
<text text-anchor="start" x="447.5" y="-682.5" font-family="Helvetica,sans-Serif" font-size="10.00">SetStaminaBarPercent()</text>
<text text-anchor="start" x="437.5" y="-666.5" font-family="Helvetica,sans-Serif" font-size="10.00">+</text>
<text text-anchor="start" x="447.5" y="-666.5" font-family="Helvetica,sans-Serif" font-size="10.00">SetGold()</text>
<text text-anchor="start" x="437.5" y="-650.5" font-family="Helvetica,sans-Serif" font-size="10.00">+</text>
<text text-anchor="start" x="447.5" y="-650.5" font-family="Helvetica,sans-Serif" font-size="10.00">SetSouls()</text>
<polygon fill="#666666" stroke="#666666" points="433.5,-774 433.5,-774 557.25,-774 557.25,-774 433.5,-774"/>
<polygon fill="#666666" stroke="#666666" points="433.5,-710 433.5,-710 445.5,-710 445.5,-710 433.5,-710"/>
<polygon fill="#666666" stroke="#666666" points="445.5,-710 445.5,-710 557.25,-710 557.25,-710 445.5,-710"/>
<polygon fill="none" stroke="#666666" points="433.5,-644 433.5,-792 557.25,-792 557.25,-644 433.5,-644"/>
</a>
</g>
</g>
<!-- Node8&#45;&gt;Node1 -->
<g id="edge7_Node000001_Node000008" class="edge">
<title>Node8&#45;&gt;Node1</title>
<g id="a_edge7_Node000001_Node000008"><a xlink:title=" ">
<path fill="none" stroke="#63b8ff" d="M466.62,-644.38C454.24,-614.28 439.23,-579.17 424.38,-548 400.33,-497.53 372.07,-443.34 346.1,-395.25"/>
<polygon fill="none" stroke="#63b8ff" points="346.05,-395.15 339.67,-391.78 340.33,-384.6 346.71,-387.97 346.05,-395.15"/>
</a>
</g>
<text text-anchor="middle" x="444.73" y="-520.5" font-family="Helvetica,sans-Serif" font-size="10.00" fill="grey"> &#45;SlashOverlay</text>
</g>
<!-- Node9 -->
<g id="Node000009" class="node">
<title>Node9</title>
<g id="a_Node000009"><a xlink:title=" ">
<polygon fill="white" stroke="none" points="529,-977 461.75,-977 461.75,-925 529,-925 529,-977"/>
<text text-anchor="start" x="465.75" y="-963.5" font-family="Helvetica,sans-Serif" font-size="10.00">UUserWidget</text>
<text text-anchor="start" x="493.88" y="-947.5" font-family="Helvetica,sans-Serif" font-size="10.00"> </text>
<text text-anchor="start" x="493.88" y="-931.5" font-family="Helvetica,sans-Serif" font-size="10.00"> </text>
<polygon fill="#666666" stroke="#666666" points="461.75,-959 461.75,-959 529,-959 529,-959 461.75,-959"/>
<polygon fill="#666666" stroke="#666666" points="461.75,-943 461.75,-943 529,-943 529,-943 461.75,-943"/>
<polygon fill="none" stroke="#666666" points="461.75,-925 461.75,-977 529,-977 529,-925 461.75,-925"/>
</a>
</g>
</g>
<!-- Node9&#45;&gt;Node8 -->
<g id="edge8_Node000008_Node000009" class="edge">
<title>Node9&#45;&gt;Node8</title>
<g id="a_edge8_Node000008_Node000009"><a xlink:title=" ">
<path fill="none" stroke="#63b8ff" d="M495.38,-914.08C495.38,-881.53 495.38,-832.59 495.38,-791.87"/>
<polygon fill="none" stroke="#63b8ff" points="491.88,-913.77 495.38,-923.77 498.88,-913.77 491.88,-913.77"/>
</a>
</g>
</g>
</g>
</svg>
