<?xml version="1.0" encoding="UTF-8" standalone="no"?>
<!DOCTYPE svg PUBLIC "-//W3C//DTD SVG 1.1//EN"
 "http://www.w3.org/Graphics/SVG/1.1/DTD/svg11.dtd">
<!-- Generated by graphviz version 12.2.1 (20241206.2353)
 -->
<!-- Title: ASoul Pages: 1 -->
<svg width="127pt" height="620pt"
 viewBox="0.00 0.00 126.50 620.00" xmlns="http://www.w3.org/2000/svg" xmlns:xlink="http://www.w3.org/1999/xlink">
<g id="graph0" class="graph" transform="scale(1 1) rotate(0) translate(4 616)">
<title>ASoul</title>
<!-- Node1 -->
<g id="Node000001" class="node">
<title>Node1</title>
<g id="a_Node000001"><a xlink:title=" ">
<polygon fill="#999999" stroke="none" points="109.88,-148 8.62,-148 8.62,0 109.88,0 109.88,-148"/>
<text text-anchor="start" x="46.12" y="-134.5" font-family="Helvetica,sans-Serif" font-size="10.00">ASoul</text>
<text text-anchor="start" x="14.12" y="-118.5" font-family="Helvetica,sans-Serif" font-size="10.00">&#45;</text>
<text text-anchor="start" x="22.62" y="-118.5" font-family="Helvetica,sans-Serif" font-size="10.00">Category</text>
<text text-anchor="start" x="14.12" y="-102.5" font-family="Helvetica,sans-Serif" font-size="10.00">&#45;</text>
<text text-anchor="start" x="22.62" y="-102.5" font-family="Helvetica,sans-Serif" font-size="10.00">DesiredZ</text>
<text text-anchor="start" x="14.12" y="-86.5" font-family="Helvetica,sans-Serif" font-size="10.00">&#45;</text>
<text text-anchor="start" x="22.62" y="-86.5" font-family="Helvetica,sans-Serif" font-size="10.00">DriftRate</text>
<text text-anchor="start" x="12.62" y="-70.5" font-family="Helvetica,sans-Serif" font-size="10.00">+</text>
<text text-anchor="start" x="22.62" y="-70.5" font-family="Helvetica,sans-Serif" font-size="10.00">Tick()</text>
<text text-anchor="start" x="12.62" y="-54.5" font-family="Helvetica,sans-Serif" font-size="10.00">+</text>
<text text-anchor="start" x="22.62" y="-54.5" font-family="Helvetica,sans-Serif" font-size="10.00">GetSouls()</text>
<text text-anchor="start" x="12.62" y="-38.5" font-family="Helvetica,sans-Serif" font-size="10.00">+</text>
<text text-anchor="start" x="22.62" y="-38.5" font-family="Helvetica,sans-Serif" font-size="10.00">SetSouls()</text>
<text text-anchor="start" x="13" y="-22.5" font-family="Helvetica,sans-Serif" font-size="10.00">#</text>
<text text-anchor="start" x="22.62" y="-22.5" font-family="Helvetica,sans-Serif" font-size="10.00">BeginPlay()</text>
<text text-anchor="start" x="13" y="-6.5" font-family="Helvetica,sans-Serif" font-size="10.00">#</text>
<text text-anchor="start" x="22.62" y="-6.5" font-family="Helvetica,sans-Serif" font-size="10.00">OnSphereOverlap()</text>
<polygon fill="#666666" stroke="#666666" points="8.62,-130 8.62,-130 109.88,-130 109.88,-130 8.62,-130"/>
<polygon fill="#666666" stroke="#666666" points="8.62,-82 8.62,-82 20.62,-82 20.62,-82 8.62,-82"/>
<polygon fill="#666666" stroke="#666666" points="20.62,-82 20.62,-82 109.88,-82 109.88,-82 20.62,-82"/>
<polygon fill="none" stroke="#666666" points="8.62,0 8.62,-148 109.88,-148 109.88,0 8.62,0"/>
</a>
</g>
</g>
<!-- Node2 -->
<g id="Node000002" class="node">
<title>Node2</title>
<g id="a_Node000002"><a xlink:href="class_a_item.html" target="_top" xlink:title=" ">
<polygon fill="white" stroke="none" points="118.5,-524 0,-524 0,-184 118.5,-184 118.5,-524"/>
<text text-anchor="start" x="46.12" y="-510.5" font-family="Helvetica,sans-Serif" font-size="10.00">AItem</text>
<text text-anchor="start" x="4.38" y="-494.5" font-family="Helvetica,sans-Serif" font-size="10.00">#</text>
<text text-anchor="start" x="14" y="-494.5" font-family="Helvetica,sans-Serif" font-size="10.00">BlueprintReadWrite</text>
<text text-anchor="start" x="4.38" y="-478.5" font-family="Helvetica,sans-Serif" font-size="10.00">#</text>
<text text-anchor="start" x="14" y="-478.5" font-family="Helvetica,sans-Serif" font-size="10.00">Category</text>
<text text-anchor="start" x="4.38" y="-462.5" font-family="Helvetica,sans-Serif" font-size="10.00">#</text>
<text text-anchor="start" x="14" y="-462.5" font-family="Helvetica,sans-Serif" font-size="10.00">ItemMesh</text>
<text text-anchor="start" x="4.38" y="-446.5" font-family="Helvetica,sans-Serif" font-size="10.00">#</text>
<text text-anchor="start" x="14" y="-446.5" font-family="Helvetica,sans-Serif" font-size="10.00">ItemState</text>
<text text-anchor="start" x="4.38" y="-430.5" font-family="Helvetica,sans-Serif" font-size="10.00">#</text>
<text text-anchor="start" x="14" y="-430.5" font-family="Helvetica,sans-Serif" font-size="10.00">Sphere</text>
<text text-anchor="start" x="4.38" y="-414.5" font-family="Helvetica,sans-Serif" font-size="10.00">#</text>
<text text-anchor="start" x="14" y="-414.5" font-family="Helvetica,sans-Serif" font-size="10.00">ItemEffect</text>
<text text-anchor="start" x="4.38" y="-398.5" font-family="Helvetica,sans-Serif" font-size="10.00">#</text>
<text text-anchor="start" x="14" y="-398.5" font-family="Helvetica,sans-Serif" font-size="10.00">PickupSound</text>
<text text-anchor="start" x="5.5" y="-382.5" font-family="Helvetica,sans-Serif" font-size="10.00">&#45;</text>
<text text-anchor="start" x="14" y="-382.5" font-family="Helvetica,sans-Serif" font-size="10.00">BlueprintReadOnly</text>
<text text-anchor="start" x="5.5" y="-366.5" font-family="Helvetica,sans-Serif" font-size="10.00">&#45;</text>
<text text-anchor="start" x="14" y="-366.5" font-family="Helvetica,sans-Serif" font-size="10.00">meta</text>
<text text-anchor="start" x="5.5" y="-350.5" font-family="Helvetica,sans-Serif" font-size="10.00">&#45;</text>
<text text-anchor="start" x="14" y="-350.5" font-family="Helvetica,sans-Serif" font-size="10.00">PickupEffect</text>
<text text-anchor="start" x="4" y="-334.5" font-family="Helvetica,sans-Serif" font-size="10.00">+</text>
<text text-anchor="start" x="14" y="-334.5" font-family="Helvetica,sans-Serif" font-size="10.00">AItem()</text>
<text text-anchor="start" x="4" y="-318.5" font-family="Helvetica,sans-Serif" font-size="10.00">+</text>
<text text-anchor="start" x="14" y="-318.5" font-family="Helvetica,sans-Serif" font-size="10.00">Tick()</text>
<text text-anchor="start" x="4.38" y="-302.5" font-family="Helvetica,sans-Serif" font-size="10.00">#</text>
<text text-anchor="start" x="14" y="-302.5" font-family="Helvetica,sans-Serif" font-size="10.00">BeginPlay()</text>
<text text-anchor="start" x="4.38" y="-286.5" font-family="Helvetica,sans-Serif" font-size="10.00">#</text>
<text text-anchor="start" x="14" y="-286.5" font-family="Helvetica,sans-Serif" font-size="10.00">TransformedSin()</text>
<text text-anchor="start" x="4.38" y="-270.5" font-family="Helvetica,sans-Serif" font-size="10.00">#</text>
<text text-anchor="start" x="14" y="-270.5" font-family="Helvetica,sans-Serif" font-size="10.00">TransformedCos()</text>
<text text-anchor="start" x="4.38" y="-254.5" font-family="Helvetica,sans-Serif" font-size="10.00">#</text>
<text text-anchor="start" x="14" y="-254.5" font-family="Helvetica,sans-Serif" font-size="10.00">Avg()</text>
<text text-anchor="start" x="4.38" y="-238.5" font-family="Helvetica,sans-Serif" font-size="10.00">#</text>
<text text-anchor="start" x="14" y="-238.5" font-family="Helvetica,sans-Serif" font-size="10.00">OnSphereOverlap()</text>
<text text-anchor="start" x="4.38" y="-222.5" font-family="Helvetica,sans-Serif" font-size="10.00">#</text>
<text text-anchor="start" x="14" y="-222.5" font-family="Helvetica,sans-Serif" font-size="10.00">OnSphereEndOverlap()</text>
<text text-anchor="start" x="4.38" y="-206.5" font-family="Helvetica,sans-Serif" font-size="10.00">#</text>
<text text-anchor="start" x="14" y="-206.5" font-family="Helvetica,sans-Serif" font-size="10.00">SpawnPickupSystem()</text>
<text text-anchor="start" x="4.38" y="-190.5" font-family="Helvetica,sans-Serif" font-size="10.00">#</text>
<text text-anchor="start" x="14" y="-190.5" font-family="Helvetica,sans-Serif" font-size="10.00">SpawnPickupSound()</text>
<polygon fill="#666666" stroke="#666666" points="0,-506 0,-506 118.5,-506 118.5,-506 0,-506"/>
<polygon fill="#666666" stroke="#666666" points="0,-346 0,-346 12,-346 12,-346 0,-346"/>
<polygon fill="#666666" stroke="#666666" points="12,-346 12,-346 118.5,-346 118.5,-346 12,-346"/>
<polygon fill="none" stroke="#666666" points="0,-184 0,-524 118.5,-524 118.5,-184 0,-184"/>
</a>
</g>
</g>
<!-- Node2&#45;&gt;Node1 -->
<g id="edge1_Node000001_Node000002" class="edge">
<title>Node2&#45;&gt;Node1</title>
<g id="a_edge1_Node000001_Node000002"><a xlink:title=" ">
<path fill="none" stroke="#63b8ff" d="M59.25,-172.65C59.25,-164.05 59.25,-155.68 59.25,-147.69"/>
<polygon fill="none" stroke="#63b8ff" points="55.75,-172.56 59.25,-182.56 62.75,-172.56 55.75,-172.56"/>
</a>
</g>
</g>
<!-- Node3 -->
<g id="Node000003" class="node">
<title>Node3</title>
<g id="a_Node000003"><a xlink:title=" ">
<polygon fill="white" stroke="none" points="78.25,-612 40.25,-612 40.25,-560 78.25,-560 78.25,-612"/>
<text text-anchor="start" x="44.25" y="-598.5" font-family="Helvetica,sans-Serif" font-size="10.00">AActor</text>
<text text-anchor="start" x="57.75" y="-582.5" font-family="Helvetica,sans-Serif" font-size="10.00"> </text>
<text text-anchor="start" x="57.75" y="-566.5" font-family="Helvetica,sans-Serif" font-size="10.00"> </text>
<polygon fill="#666666" stroke="#666666" points="40.25,-594 40.25,-594 78.25,-594 78.25,-594 40.25,-594"/>
<polygon fill="#666666" stroke="#666666" points="40.25,-578 40.25,-578 78.25,-578 78.25,-578 40.25,-578"/>
<polygon fill="none" stroke="#666666" points="40.25,-560 40.25,-612 78.25,-612 78.25,-560 40.25,-560"/>
</a>
</g>
</g>
<!-- Node3&#45;&gt;Node2 -->
<g id="edge2_Node000002_Node000003" class="edge">
<title>Node3&#45;&gt;Node2</title>
<g id="a_edge2_Node000002_Node000003"><a xlink:title=" ">
<path fill="none" stroke="#63b8ff" d="M59.25,-548.87C59.25,-541.29 59.25,-532.81 59.25,-523.77"/>
<polygon fill="none" stroke="#63b8ff" points="55.75,-548.87 59.25,-558.87 62.75,-548.87 55.75,-548.87"/>
</a>
</g>
</g>
</g>
</svg>
