<?xml version="1.0" encoding="UTF-8" standalone="no"?>
<!DOCTYPE svg PUBLIC "-//W3C//DTD SVG 1.1//EN"
 "http://www.w3.org/Graphics/SVG/1.1/DTD/svg11.dtd">
<!-- Generated by graphviz version 12.2.1 (20241206.2353)
 -->
<!-- Title: USlashAnimInstance Pages: 1 -->
<svg width="140pt" height="180pt"
 viewBox="0.00 0.00 140.00 180.00" xmlns="http://www.w3.org/2000/svg" xmlns:xlink="http://www.w3.org/1999/xlink">
<g id="graph0" class="graph" transform="scale(1 1) rotate(0) translate(4 176)">
<title>USlashAnimInstance</title>
<!-- Node1 -->
<g id="Node000001" class="node">
<title>Node1</title>
<g id="a_Node000001"><a xlink:title=" ">
<polygon fill="#999999" stroke="none" points="132,-84 0,-84 0,0 132,0 132,-84"/>
<text text-anchor="start" x="19.88" y="-70.5" font-family="Helvetica,sans-Serif" font-size="10.00">USlashAnimInstance</text>
<text text-anchor="start" x="4" y="-54.5" font-family="Helvetica,sans-Serif" font-size="10.00">+</text>
<text text-anchor="start" x="14" y="-54.5" font-family="Helvetica,sans-Serif" font-size="10.00">SlashCharacter</text>
<text text-anchor="start" x="4" y="-38.5" font-family="Helvetica,sans-Serif" font-size="10.00">+</text>
<text text-anchor="start" x="14" y="-38.5" font-family="Helvetica,sans-Serif" font-size="10.00">Category</text>
<text text-anchor="start" x="4" y="-22.5" font-family="Helvetica,sans-Serif" font-size="10.00">+</text>
<text text-anchor="start" x="14" y="-22.5" font-family="Helvetica,sans-Serif" font-size="10.00">NativeInitializeAnimation()</text>
<text text-anchor="start" x="4" y="-6.5" font-family="Helvetica,sans-Serif" font-size="10.00">+</text>
<text text-anchor="start" x="14" y="-6.5" font-family="Helvetica,sans-Serif" font-size="10.00">NativeUpdateAnimation()</text>
<polygon fill="#666666" stroke="#666666" points="0,-66 0,-66 132,-66 132,-66 0,-66"/>
<polygon fill="#666666" stroke="#666666" points="0,-34 0,-34 12,-34 12,-34 0,-34"/>
<polygon fill="#666666" stroke="#666666" points="12,-34 12,-34 132,-34 132,-34 12,-34"/>
<polygon fill="none" stroke="#666666" points="0,0 0,-84 132,-84 132,0 0,0"/>
</a>
</g>
</g>
<!-- Node2 -->
<g id="Node000002" class="node">
<title>Node2</title>
<g id="a_Node000002"><a xlink:title=" ">
<polygon fill="white" stroke="none" points="103.75,-172 28.25,-172 28.25,-120 103.75,-120 103.75,-172"/>
<text text-anchor="start" x="32.25" y="-158.5" font-family="Helvetica,sans-Serif" font-size="10.00">UAnimInstance</text>
<text text-anchor="start" x="64.5" y="-142.5" font-family="Helvetica,sans-Serif" font-size="10.00"> </text>
<text text-anchor="start" x="64.5" y="-126.5" font-family="Helvetica,sans-Serif" font-size="10.00"> </text>
<polygon fill="#666666" stroke="#666666" points="28.25,-154 28.25,-154 103.75,-154 103.75,-154 28.25,-154"/>
<polygon fill="#666666" stroke="#666666" points="28.25,-138 28.25,-138 103.75,-138 103.75,-138 28.25,-138"/>
<polygon fill="none" stroke="#666666" points="28.25,-120 28.25,-172 103.75,-172 103.75,-120 28.25,-120"/>
</a>
</g>
</g>
<!-- Node2&#45;&gt;Node1 -->
<g id="edge1_Node000001_Node000002" class="edge">
<title>Node2&#45;&gt;Node1</title>
<g id="a_edge1_Node000001_Node000002"><a xlink:title=" ">
<path fill="none" stroke="#63b8ff" d="M66,-108.77C66,-100.75 66,-92.19 66,-83.99"/>
<polygon fill="none" stroke="#63b8ff" points="62.5,-108.53 66,-118.53 69.5,-108.53 62.5,-108.53"/>
</a>
</g>
</g>
</g>
</svg>
