<?xml version="1.0" encoding="UTF-8" standalone="no"?>
<!DOCTYPE svg PUBLIC "-//W3C//DTD SVG 1.1//EN"
 "http://www.w3.org/Graphics/SVG/1.1/DTD/svg11.dtd">
<!-- Generated by graphviz version 12.2.1 (20241206.2353)
 -->
<!-- Title: UHealthBarComponent Pages: 1 -->
<svg width="117pt" height="148pt"
 viewBox="0.00 0.00 117.25 148.00" xmlns="http://www.w3.org/2000/svg" xmlns:xlink="http://www.w3.org/1999/xlink">
<g id="graph0" class="graph" transform="scale(1 1) rotate(0) translate(4 144)">
<title>UHealthBarComponent</title>
<!-- Node1 -->
<g id="Node000001" class="node">
<title>Node1</title>
<g id="a_Node000001"><a xlink:title=" ">
<polygon fill="#999999" stroke="none" points="109.25,-52 0,-52 0,0 109.25,0 109.25,-52"/>
<text text-anchor="start" x="4" y="-38.5" font-family="Helvetica,sans-Serif" font-size="10.00">UHealthBarComponent</text>
<text text-anchor="start" x="7.5" y="-22.5" font-family="Helvetica,sans-Serif" font-size="10.00">&#45;</text>
<text text-anchor="start" x="18" y="-22.5" font-family="Helvetica,sans-Serif" font-size="10.00">HealthBarWidget</text>
<text text-anchor="start" x="6" y="-6.5" font-family="Helvetica,sans-Serif" font-size="10.00">+</text>
<text text-anchor="start" x="18" y="-6.5" font-family="Helvetica,sans-Serif" font-size="10.00">SetHealthPercent()</text>
<polygon fill="#666666" stroke="#666666" points="0,-34 0,-34 109.25,-34 109.25,-34 0,-34"/>
<polygon fill="#666666" stroke="#666666" points="0,-18 0,-18 16,-18 16,-18 0,-18"/>
<polygon fill="#666666" stroke="#666666" points="16,-18 16,-18 109.25,-18 109.25,-18 16,-18"/>
<polygon fill="none" stroke="#666666" points="0,0 0,-52 109.25,-52 109.25,0 0,0"/>
</a>
</g>
</g>
<!-- Node2 -->
<g id="Node000002" class="node">
<title>Node2</title>
<g id="a_Node000002"><a xlink:title=" ">
<polygon fill="white" stroke="none" points="102.88,-140 6.38,-140 6.38,-88 102.88,-88 102.88,-140"/>
<text text-anchor="start" x="10.38" y="-126.5" font-family="Helvetica,sans-Serif" font-size="10.00">UWidgetComponent</text>
<text text-anchor="start" x="53.12" y="-110.5" font-family="Helvetica,sans-Serif" font-size="10.00"> </text>
<text text-anchor="start" x="53.12" y="-94.5" font-family="Helvetica,sans-Serif" font-size="10.00"> </text>
<polygon fill="#666666" stroke="#666666" points="6.38,-122 6.38,-122 102.88,-122 102.88,-122 6.38,-122"/>
<polygon fill="#666666" stroke="#666666" points="6.38,-106 6.38,-106 102.88,-106 102.88,-106 6.38,-106"/>
<polygon fill="none" stroke="#666666" points="6.38,-88 6.38,-140 102.88,-140 102.88,-88 6.38,-88"/>
</a>
</g>
</g>
<!-- Node2&#45;&gt;Node1 -->
<g id="edge1_Node000001_Node000002" class="edge">
<title>Node2&#45;&gt;Node1</title>
<g id="a_edge1_Node000001_Node000002"><a xlink:title=" ">
<path fill="none" stroke="#63b8ff" d="M54.62,-76.66C54.62,-68.29 54.62,-59.57 54.62,-51.82"/>
<polygon fill="none" stroke="#63b8ff" points="51.13,-76.61 54.63,-86.61 58.13,-76.61 51.13,-76.61"/>
</a>
</g>
</g>
</g>
</svg>
