<?xml version="1.0" encoding="UTF-8" standalone="no"?>
<!DOCTYPE svg PUBLIC "-//W3C//DTD SVG 1.1//EN"
 "http://www.w3.org/Graphics/SVG/1.1/DTD/svg11.dtd">
<!-- Generated by graphviz version 12.2.1 (20241206.2353)
 -->
<!-- Title: AItem Pages: 1 -->
<svg width="371pt" height="764pt"
 viewBox="0.00 0.00 371.25 764.00" xmlns="http://www.w3.org/2000/svg" xmlns:xlink="http://www.w3.org/1999/xlink">
<g id="graph0" class="graph" transform="scale(1 1) rotate(0) translate(4 760)">
<title>AItem</title>
<!-- Node1 -->
<g id="Node000001" class="node">
<title>Node1</title>
<g id="a_Node000001"><a xlink:title=" ">
<polygon fill="#999999" stroke="none" points="228.88,-668 110.38,-668 110.38,-328 228.88,-328 228.88,-668"/>
<text text-anchor="start" x="156.5" y="-654.5" font-family="Helvetica,sans-Serif" font-size="10.00">AItem</text>
<text text-anchor="start" x="114.75" y="-638.5" font-family="Helvetica,sans-Serif" font-size="10.00">#</text>
<text text-anchor="start" x="124.38" y="-638.5" font-family="Helvetica,sans-Serif" font-size="10.00">BlueprintReadWrite</text>
<text text-anchor="start" x="114.75" y="-622.5" font-family="Helvetica,sans-Serif" font-size="10.00">#</text>
<text text-anchor="start" x="124.38" y="-622.5" font-family="Helvetica,sans-Serif" font-size="10.00">Category</text>
<text text-anchor="start" x="114.75" y="-606.5" font-family="Helvetica,sans-Serif" font-size="10.00">#</text>
<text text-anchor="start" x="124.38" y="-606.5" font-family="Helvetica,sans-Serif" font-size="10.00">ItemMesh</text>
<text text-anchor="start" x="114.75" y="-590.5" font-family="Helvetica,sans-Serif" font-size="10.00">#</text>
<text text-anchor="start" x="124.38" y="-590.5" font-family="Helvetica,sans-Serif" font-size="10.00">ItemState</text>
<text text-anchor="start" x="114.75" y="-574.5" font-family="Helvetica,sans-Serif" font-size="10.00">#</text>
<text text-anchor="start" x="124.38" y="-574.5" font-family="Helvetica,sans-Serif" font-size="10.00">Sphere</text>
<text text-anchor="start" x="114.75" y="-558.5" font-family="Helvetica,sans-Serif" font-size="10.00">#</text>
<text text-anchor="start" x="124.38" y="-558.5" font-family="Helvetica,sans-Serif" font-size="10.00">ItemEffect</text>
<text text-anchor="start" x="114.75" y="-542.5" font-family="Helvetica,sans-Serif" font-size="10.00">#</text>
<text text-anchor="start" x="124.38" y="-542.5" font-family="Helvetica,sans-Serif" font-size="10.00">PickupSound</text>
<text text-anchor="start" x="115.88" y="-526.5" font-family="Helvetica,sans-Serif" font-size="10.00">&#45;</text>
<text text-anchor="start" x="124.38" y="-526.5" font-family="Helvetica,sans-Serif" font-size="10.00">BlueprintReadOnly</text>
<text text-anchor="start" x="115.88" y="-510.5" font-family="Helvetica,sans-Serif" font-size="10.00">&#45;</text>
<text text-anchor="start" x="124.38" y="-510.5" font-family="Helvetica,sans-Serif" font-size="10.00">meta</text>
<text text-anchor="start" x="115.88" y="-494.5" font-family="Helvetica,sans-Serif" font-size="10.00">&#45;</text>
<text text-anchor="start" x="124.38" y="-494.5" font-family="Helvetica,sans-Serif" font-size="10.00">PickupEffect</text>
<text text-anchor="start" x="114.38" y="-478.5" font-family="Helvetica,sans-Serif" font-size="10.00">+</text>
<text text-anchor="start" x="124.38" y="-478.5" font-family="Helvetica,sans-Serif" font-size="10.00">AItem()</text>
<text text-anchor="start" x="114.38" y="-462.5" font-family="Helvetica,sans-Serif" font-size="10.00">+</text>
<text text-anchor="start" x="124.38" y="-462.5" font-family="Helvetica,sans-Serif" font-size="10.00">Tick()</text>
<text text-anchor="start" x="114.75" y="-446.5" font-family="Helvetica,sans-Serif" font-size="10.00">#</text>
<text text-anchor="start" x="124.38" y="-446.5" font-family="Helvetica,sans-Serif" font-size="10.00">BeginPlay()</text>
<text text-anchor="start" x="114.75" y="-430.5" font-family="Helvetica,sans-Serif" font-size="10.00">#</text>
<text text-anchor="start" x="124.38" y="-430.5" font-family="Helvetica,sans-Serif" font-size="10.00">TransformedSin()</text>
<text text-anchor="start" x="114.75" y="-414.5" font-family="Helvetica,sans-Serif" font-size="10.00">#</text>
<text text-anchor="start" x="124.38" y="-414.5" font-family="Helvetica,sans-Serif" font-size="10.00">TransformedCos()</text>
<text text-anchor="start" x="114.75" y="-398.5" font-family="Helvetica,sans-Serif" font-size="10.00">#</text>
<text text-anchor="start" x="124.38" y="-398.5" font-family="Helvetica,sans-Serif" font-size="10.00">Avg()</text>
<text text-anchor="start" x="114.75" y="-382.5" font-family="Helvetica,sans-Serif" font-size="10.00">#</text>
<text text-anchor="start" x="124.38" y="-382.5" font-family="Helvetica,sans-Serif" font-size="10.00">OnSphereOverlap()</text>
<text text-anchor="start" x="114.75" y="-366.5" font-family="Helvetica,sans-Serif" font-size="10.00">#</text>
<text text-anchor="start" x="124.38" y="-366.5" font-family="Helvetica,sans-Serif" font-size="10.00">OnSphereEndOverlap()</text>
<text text-anchor="start" x="114.75" y="-350.5" font-family="Helvetica,sans-Serif" font-size="10.00">#</text>
<text text-anchor="start" x="124.38" y="-350.5" font-family="Helvetica,sans-Serif" font-size="10.00">SpawnPickupSystem()</text>
<text text-anchor="start" x="114.75" y="-334.5" font-family="Helvetica,sans-Serif" font-size="10.00">#</text>
<text text-anchor="start" x="124.38" y="-334.5" font-family="Helvetica,sans-Serif" font-size="10.00">SpawnPickupSound()</text>
<polygon fill="#666666" stroke="#666666" points="110.38,-650 110.38,-650 228.88,-650 228.88,-650 110.38,-650"/>
<polygon fill="#666666" stroke="#666666" points="110.38,-490 110.38,-490 122.38,-490 122.38,-490 110.38,-490"/>
<polygon fill="#666666" stroke="#666666" points="122.38,-490 122.38,-490 228.88,-490 228.88,-490 122.38,-490"/>
<polygon fill="none" stroke="#666666" points="110.38,-328 110.38,-668 228.88,-668 228.88,-328 110.38,-328"/>
</a>
</g>
</g>
<!-- Node3 -->
<g id="Node000003" class="node">
<title>Node3</title>
<g id="a_Node000003"><a xlink:href="class_a_soul.html" target="_top" xlink:title=" ">
<polygon fill="white" stroke="none" points="101.25,-220 0,-220 0,-72 101.25,-72 101.25,-220"/>
<text text-anchor="start" x="37.5" y="-206.5" font-family="Helvetica,sans-Serif" font-size="10.00">ASoul</text>
<text text-anchor="start" x="5.5" y="-190.5" font-family="Helvetica,sans-Serif" font-size="10.00">&#45;</text>
<text text-anchor="start" x="14" y="-190.5" font-family="Helvetica,sans-Serif" font-size="10.00">Category</text>
<text text-anchor="start" x="5.5" y="-174.5" font-family="Helvetica,sans-Serif" font-size="10.00">&#45;</text>
<text text-anchor="start" x="14" y="-174.5" font-family="Helvetica,sans-Serif" font-size="10.00">DesiredZ</text>
<text text-anchor="start" x="5.5" y="-158.5" font-family="Helvetica,sans-Serif" font-size="10.00">&#45;</text>
<text text-anchor="start" x="14" y="-158.5" font-family="Helvetica,sans-Serif" font-size="10.00">DriftRate</text>
<text text-anchor="start" x="4" y="-142.5" font-family="Helvetica,sans-Serif" font-size="10.00">+</text>
<text text-anchor="start" x="14" y="-142.5" font-family="Helvetica,sans-Serif" font-size="10.00">Tick()</text>
<text text-anchor="start" x="4" y="-126.5" font-family="Helvetica,sans-Serif" font-size="10.00">+</text>
<text text-anchor="start" x="14" y="-126.5" font-family="Helvetica,sans-Serif" font-size="10.00">GetSouls()</text>
<text text-anchor="start" x="4" y="-110.5" font-family="Helvetica,sans-Serif" font-size="10.00">+</text>
<text text-anchor="start" x="14" y="-110.5" font-family="Helvetica,sans-Serif" font-size="10.00">SetSouls()</text>
<text text-anchor="start" x="4.38" y="-94.5" font-family="Helvetica,sans-Serif" font-size="10.00">#</text>
<text text-anchor="start" x="14" y="-94.5" font-family="Helvetica,sans-Serif" font-size="10.00">BeginPlay()</text>
<text text-anchor="start" x="4.38" y="-78.5" font-family="Helvetica,sans-Serif" font-size="10.00">#</text>
<text text-anchor="start" x="14" y="-78.5" font-family="Helvetica,sans-Serif" font-size="10.00">OnSphereOverlap()</text>
<polygon fill="#666666" stroke="#666666" points="0,-202 0,-202 101.25,-202 101.25,-202 0,-202"/>
<polygon fill="#666666" stroke="#666666" points="0,-154 0,-154 12,-154 12,-154 0,-154"/>
<polygon fill="#666666" stroke="#666666" points="12,-154 12,-154 101.25,-154 101.25,-154 12,-154"/>
<polygon fill="none" stroke="#666666" points="0,-72 0,-220 101.25,-220 101.25,-72 0,-72"/>
</a>
</g>
</g>
<!-- Node1&#45;&gt;Node3 -->
<g id="edge2_Node000001_Node000003" class="edge">
<title>Node1&#45;&gt;Node3</title>
<g id="a_edge2_Node000001_Node000003"><a xlink:title=" ">
<path fill="none" stroke="#63b8ff" d="M108.57,-317.43C96.83,-282.89 85.16,-248.58 75.41,-219.9"/>
<polygon fill="none" stroke="#63b8ff" points="105.2,-318.38 111.73,-326.72 111.82,-316.12 105.2,-318.38"/>
</a>
</g>
</g>
<!-- Node4 -->
<g id="Node000004" class="node">
<title>Node4</title>
<g id="a_Node000004"><a xlink:href="class_a_treasure.html" target="_top" xlink:title=" ">
<polygon fill="white" stroke="none" points="220.25,-180 119,-180 119,-112 220.25,-112 220.25,-180"/>
<text text-anchor="start" x="147.5" y="-166.5" font-family="Helvetica,sans-Serif" font-size="10.00">ATreasure</text>
<text text-anchor="start" x="124.5" y="-150.5" font-family="Helvetica,sans-Serif" font-size="10.00">&#45;</text>
<text text-anchor="start" x="133" y="-150.5" font-family="Helvetica,sans-Serif" font-size="10.00">Category</text>
<text text-anchor="start" x="123" y="-134.5" font-family="Helvetica,sans-Serif" font-size="10.00">+</text>
<text text-anchor="start" x="133" y="-134.5" font-family="Helvetica,sans-Serif" font-size="10.00">GetGold()</text>
<text text-anchor="start" x="123.38" y="-118.5" font-family="Helvetica,sans-Serif" font-size="10.00">#</text>
<text text-anchor="start" x="133" y="-118.5" font-family="Helvetica,sans-Serif" font-size="10.00">OnSphereOverlap()</text>
<polygon fill="#666666" stroke="#666666" points="119,-162 119,-162 220.25,-162 220.25,-162 119,-162"/>
<polygon fill="#666666" stroke="#666666" points="119,-146 119,-146 131,-146 131,-146 119,-146"/>
<polygon fill="#666666" stroke="#666666" points="131,-146 131,-146 220.25,-146 220.25,-146 131,-146"/>
<polygon fill="none" stroke="#666666" points="119,-112 119,-180 220.25,-180 220.25,-112 119,-112"/>
</a>
</g>
</g>
<!-- Node1&#45;&gt;Node4 -->
<g id="edge3_Node000001_Node000004" class="edge">
<title>Node1&#45;&gt;Node4</title>
<g id="a_edge3_Node000001_Node000004"><a xlink:title=" ">
<path fill="none" stroke="#63b8ff" d="M169.62,-316.9C169.62,-264.18 169.62,-212.07 169.62,-179.75"/>
<polygon fill="none" stroke="#63b8ff" points="166.13,-316.64 169.63,-326.64 173.13,-316.64 166.13,-316.64"/>
</a>
</g>
</g>
<!-- Node5 -->
<g id="Node000005" class="node">
<title>Node5</title>
<g id="a_Node000005"><a xlink:href="class_a_weapon.html" target="_top" xlink:title=" ">
<polygon fill="white" stroke="none" points="363.25,-292 238,-292 238,0 363.25,0 363.25,-292"/>
<text text-anchor="start" x="280" y="-278.5" font-family="Helvetica,sans-Serif" font-size="10.00">AWeapon</text>
<text text-anchor="start" x="242" y="-262.5" font-family="Helvetica,sans-Serif" font-size="10.00">+</text>
<text text-anchor="start" x="252" y="-262.5" font-family="Helvetica,sans-Serif" font-size="10.00">IgnoreActors</text>
<text text-anchor="start" x="243.5" y="-246.5" font-family="Helvetica,sans-Serif" font-size="10.00">&#45;</text>
<text text-anchor="start" x="252" y="-246.5" font-family="Helvetica,sans-Serif" font-size="10.00">Category</text>
<text text-anchor="start" x="243.5" y="-230.5" font-family="Helvetica,sans-Serif" font-size="10.00">&#45;</text>
<text text-anchor="start" x="252" y="-230.5" font-family="Helvetica,sans-Serif" font-size="10.00">BlueprintReadOnly</text>
<text text-anchor="start" x="243.5" y="-214.5" font-family="Helvetica,sans-Serif" font-size="10.00">&#45;</text>
<text text-anchor="start" x="252" y="-214.5" font-family="Helvetica,sans-Serif" font-size="10.00">meta</text>
<text text-anchor="start" x="242" y="-198.5" font-family="Helvetica,sans-Serif" font-size="10.00">+</text>
<text text-anchor="start" x="252" y="-198.5" font-family="Helvetica,sans-Serif" font-size="10.00">AWeapon()</text>
<text text-anchor="start" x="242" y="-182.5" font-family="Helvetica,sans-Serif" font-size="10.00">+</text>
<text text-anchor="start" x="252" y="-182.5" font-family="Helvetica,sans-Serif" font-size="10.00">AttachMeshToSocket()</text>
<text text-anchor="start" x="242" y="-166.5" font-family="Helvetica,sans-Serif" font-size="10.00">+</text>
<text text-anchor="start" x="252" y="-166.5" font-family="Helvetica,sans-Serif" font-size="10.00">PlayEquipSound()</text>
<text text-anchor="start" x="242" y="-150.5" font-family="Helvetica,sans-Serif" font-size="10.00">+</text>
<text text-anchor="start" x="252" y="-150.5" font-family="Helvetica,sans-Serif" font-size="10.00">DisableSphereCollision()</text>
<text text-anchor="start" x="242" y="-134.5" font-family="Helvetica,sans-Serif" font-size="10.00">+</text>
<text text-anchor="start" x="252" y="-134.5" font-family="Helvetica,sans-Serif" font-size="10.00">DeactivateEmbers()</text>
<text text-anchor="start" x="242" y="-118.5" font-family="Helvetica,sans-Serif" font-size="10.00">+</text>
<text text-anchor="start" x="252" y="-118.5" font-family="Helvetica,sans-Serif" font-size="10.00">Equip()</text>
<text text-anchor="start" x="242" y="-102.5" font-family="Helvetica,sans-Serif" font-size="10.00">+</text>
<text text-anchor="start" x="252" y="-102.5" font-family="Helvetica,sans-Serif" font-size="10.00">ExecuteGetHit()</text>
<text text-anchor="start" x="242" y="-86.5" font-family="Helvetica,sans-Serif" font-size="10.00">+</text>
<text text-anchor="start" x="252" y="-86.5" font-family="Helvetica,sans-Serif" font-size="10.00">ActorIsSameType()</text>
<text text-anchor="start" x="242" y="-70.5" font-family="Helvetica,sans-Serif" font-size="10.00">+</text>
<text text-anchor="start" x="252" y="-70.5" font-family="Helvetica,sans-Serif" font-size="10.00">GetWeaponBox()</text>
<text text-anchor="start" x="242.38" y="-54.5" font-family="Helvetica,sans-Serif" font-size="10.00">#</text>
<text text-anchor="start" x="252" y="-54.5" font-family="Helvetica,sans-Serif" font-size="10.00">BeginPlay()</text>
<text text-anchor="start" x="242.38" y="-38.5" font-family="Helvetica,sans-Serif" font-size="10.00">#</text>
<text text-anchor="start" x="252" y="-38.5" font-family="Helvetica,sans-Serif" font-size="10.00">OnBoxOverlap()</text>
<text text-anchor="start" x="242.38" y="-22.5" font-family="Helvetica,sans-Serif" font-size="10.00">#</text>
<text text-anchor="start" x="252" y="-22.5" font-family="Helvetica,sans-Serif" font-size="10.00">CreateFields()</text>
<text text-anchor="start" x="243.5" y="-6.5" font-family="Helvetica,sans-Serif" font-size="10.00">&#45;</text>
<text text-anchor="start" x="252" y="-6.5" font-family="Helvetica,sans-Serif" font-size="10.00">BoxTrace()</text>
<polygon fill="#666666" stroke="#666666" points="238,-274 238,-274 363.25,-274 363.25,-274 238,-274"/>
<polygon fill="#666666" stroke="#666666" points="238,-210 238,-210 250,-210 250,-210 238,-210"/>
<polygon fill="#666666" stroke="#666666" points="250,-210 250,-210 363.25,-210 363.25,-210 250,-210"/>
<polygon fill="none" stroke="#666666" points="238,0 238,-292 363.25,-292 363.25,0 238,0"/>
</a>
</g>
</g>
<!-- Node1&#45;&gt;Node5 -->
<g id="edge4_Node000001_Node000005" class="edge">
<title>Node1&#45;&gt;Node5</title>
<g id="a_edge4_Node000001_Node000005"><a xlink:title=" ">
<path fill="none" stroke="#63b8ff" d="M232.8,-328.22C237.35,-316.06 241.92,-303.86 246.41,-291.85"/>
<polygon fill="none" stroke="#63b8ff" points="229.56,-326.89 229.33,-337.48 236.12,-329.34 229.56,-326.89"/>
</a>
</g>
</g>
<!-- Node2 -->
<g id="Node000002" class="node">
<title>Node2</title>
<g id="a_Node000002"><a xlink:title=" ">
<polygon fill="white" stroke="none" points="188.62,-756 150.62,-756 150.62,-704 188.62,-704 188.62,-756"/>
<text text-anchor="start" x="154.62" y="-742.5" font-family="Helvetica,sans-Serif" font-size="10.00">AActor</text>
<text text-anchor="start" x="168.12" y="-726.5" font-family="Helvetica,sans-Serif" font-size="10.00"> </text>
<text text-anchor="start" x="168.12" y="-710.5" font-family="Helvetica,sans-Serif" font-size="10.00"> </text>
<polygon fill="#666666" stroke="#666666" points="150.62,-738 150.62,-738 188.62,-738 188.62,-738 150.62,-738"/>
<polygon fill="#666666" stroke="#666666" points="150.62,-722 150.62,-722 188.62,-722 188.62,-722 150.62,-722"/>
<polygon fill="none" stroke="#666666" points="150.62,-704 150.62,-756 188.62,-756 188.62,-704 150.62,-704"/>
</a>
</g>
</g>
<!-- Node2&#45;&gt;Node1 -->
<g id="edge1_Node000001_Node000002" class="edge">
<title>Node2&#45;&gt;Node1</title>
<g id="a_edge1_Node000001_Node000002"><a xlink:title=" ">
<path fill="none" stroke="#63b8ff" d="M169.62,-692.87C169.62,-685.29 169.62,-676.81 169.62,-667.77"/>
<polygon fill="none" stroke="#63b8ff" points="166.13,-692.87 169.63,-702.87 173.13,-692.87 166.13,-692.87"/>
</a>
</g>
</g>
</g>
</svg>
