<?xml version="1.0" encoding="UTF-8" standalone="no"?>
<!DOCTYPE svg PUBLIC "-//W3C//DTD SVG 1.1//EN"
 "http://www.w3.org/Graphics/SVG/1.1/DTD/svg11.dtd">
<!-- Generated by graphviz version 12.2.1 (20241206.2353)
 -->
<!-- Title: USlashAnimInstance Pages: 1 -->
<svg width="565pt" height="1101pt"
 viewBox="0.00 0.00 565.25 1101.00" xmlns="http://www.w3.org/2000/svg" xmlns:xlink="http://www.w3.org/1999/xlink">
<g id="graph0" class="graph" transform="scale(1 1) rotate(0) translate(4 1097)">
<title>USlashAnimInstance</title>
<!-- Node1 -->
<g id="Node000001" class="node">
<title>Node1</title>
<g id="a_Node000001"><a xlink:title=" ">
<polygon fill="#999999" stroke="none" points="217.38,-68 85.38,-68 85.38,0 217.38,0 217.38,-68"/>
<text text-anchor="start" x="105.25" y="-54.5" font-family="Helvetica,sans-Serif" font-size="10.00">USlashAnimInstance</text>
<text text-anchor="start" x="89.38" y="-38.5" font-family="Helvetica,sans-Serif" font-size="10.00">+</text>
<text text-anchor="start" x="99.38" y="-38.5" font-family="Helvetica,sans-Serif" font-size="10.00">Category</text>
<text text-anchor="start" x="89.38" y="-22.5" font-family="Helvetica,sans-Serif" font-size="10.00">+</text>
<text text-anchor="start" x="99.38" y="-22.5" font-family="Helvetica,sans-Serif" font-size="10.00">NativeInitializeAnimation()</text>
<text text-anchor="start" x="89.38" y="-6.5" font-family="Helvetica,sans-Serif" font-size="10.00">+</text>
<text text-anchor="start" x="99.38" y="-6.5" font-family="Helvetica,sans-Serif" font-size="10.00">NativeUpdateAnimation()</text>
<polygon fill="#666666" stroke="#666666" points="85.38,-50 85.38,-50 217.38,-50 217.38,-50 85.38,-50"/>
<polygon fill="#666666" stroke="#666666" points="85.38,-34 85.38,-34 97.38,-34 97.38,-34 85.38,-34"/>
<polygon fill="#666666" stroke="#666666" points="97.38,-34 97.38,-34 217.38,-34 217.38,-34 97.38,-34"/>
<polygon fill="none" stroke="#666666" points="85.38,0 85.38,-68 217.38,-68 217.38,0 85.38,0"/>
</a>
</g>
</g>
<!-- Node2 -->
<g id="Node000002" class="node">
<title>Node2</title>
<g id="a_Node000002"><a xlink:title=" ">
<polygon fill="white" stroke="none" points="173.12,-392 97.62,-392 97.62,-340 173.12,-340 173.12,-392"/>
<text text-anchor="start" x="101.62" y="-378.5" font-family="Helvetica,sans-Serif" font-size="10.00">UAnimInstance</text>
<text text-anchor="start" x="133.88" y="-362.5" font-family="Helvetica,sans-Serif" font-size="10.00"> </text>
<text text-anchor="start" x="133.88" y="-346.5" font-family="Helvetica,sans-Serif" font-size="10.00"> </text>
<polygon fill="#666666" stroke="#666666" points="97.62,-374 97.62,-374 173.12,-374 173.12,-374 97.62,-374"/>
<polygon fill="#666666" stroke="#666666" points="97.62,-358 97.62,-358 173.12,-358 173.12,-358 97.62,-358"/>
<polygon fill="none" stroke="#666666" points="97.62,-340 97.62,-392 173.12,-392 173.12,-340 97.62,-340"/>
</a>
</g>
</g>
<!-- Node2&#45;&gt;Node1 -->
<g id="edge1_Node000001_Node000002" class="edge">
<title>Node2&#45;&gt;Node1</title>
<g id="a_edge1_Node000001_Node000002"><a xlink:title=" ">
<path fill="none" stroke="#63b8ff" d="M137.12,-328.99C140.25,-264.41 146.77,-129.89 149.79,-67.75"/>
<polygon fill="none" stroke="#63b8ff" points="133.64,-328.53 136.65,-338.68 140.63,-328.87 133.64,-328.53"/>
</a>
</g>
</g>
<!-- Node3 -->
<g id="Node000003" class="node">
<title>Node3</title>
<g id="a_Node000003"><a xlink:href="class_a_slash_character.html" target="_top" xlink:title=" ">
<polygon fill="white" stroke="none" points="340,-616 190.75,-616 190.75,-116 340,-116 340,-616"/>
<text text-anchor="start" x="228.25" y="-602.5" font-family="Helvetica,sans-Serif" font-size="10.00">ASlashCharacter</text>
<text text-anchor="start" x="195.12" y="-586.5" font-family="Helvetica,sans-Serif" font-size="10.00">#</text>
<text text-anchor="start" x="204.75" y="-586.5" font-family="Helvetica,sans-Serif" font-size="10.00">Category</text>
<text text-anchor="start" x="196.25" y="-570.5" font-family="Helvetica,sans-Serif" font-size="10.00">&#45;</text>
<text text-anchor="start" x="204.75" y="-570.5" font-family="Helvetica,sans-Serif" font-size="10.00">CameraBoom</text>
<text text-anchor="start" x="196.25" y="-554.5" font-family="Helvetica,sans-Serif" font-size="10.00">&#45;</text>
<text text-anchor="start" x="204.75" y="-554.5" font-family="Helvetica,sans-Serif" font-size="10.00">ViewCamera</text>
<text text-anchor="start" x="196.25" y="-538.5" font-family="Helvetica,sans-Serif" font-size="10.00">&#45;</text>
<text text-anchor="start" x="204.75" y="-538.5" font-family="Helvetica,sans-Serif" font-size="10.00">CharacterState</text>
<text text-anchor="start" x="196.25" y="-522.5" font-family="Helvetica,sans-Serif" font-size="10.00">&#45;</text>
<text text-anchor="start" x="204.75" y="-522.5" font-family="Helvetica,sans-Serif" font-size="10.00">meta</text>
<text text-anchor="start" x="194.75" y="-506.5" font-family="Helvetica,sans-Serif" font-size="10.00">+</text>
<text text-anchor="start" x="204.75" y="-506.5" font-family="Helvetica,sans-Serif" font-size="10.00">ASlashCharacter()</text>
<text text-anchor="start" x="194.75" y="-490.5" font-family="Helvetica,sans-Serif" font-size="10.00">+</text>
<text text-anchor="start" x="204.75" y="-490.5" font-family="Helvetica,sans-Serif" font-size="10.00">Tick()</text>
<text text-anchor="start" x="194.75" y="-474.5" font-family="Helvetica,sans-Serif" font-size="10.00">+</text>
<text text-anchor="start" x="204.75" y="-474.5" font-family="Helvetica,sans-Serif" font-size="10.00">SetupPlayerInputComponent()</text>
<text text-anchor="start" x="194.75" y="-458.5" font-family="Helvetica,sans-Serif" font-size="10.00">+</text>
<text text-anchor="start" x="204.75" y="-458.5" font-family="Helvetica,sans-Serif" font-size="10.00">Jump()</text>
<text text-anchor="start" x="194.75" y="-442.5" font-family="Helvetica,sans-Serif" font-size="10.00">+</text>
<text text-anchor="start" x="204.75" y="-442.5" font-family="Helvetica,sans-Serif" font-size="10.00">TakeDamage()</text>
<text text-anchor="start" x="194.75" y="-426.5" font-family="Helvetica,sans-Serif" font-size="10.00">+</text>
<text text-anchor="start" x="204.75" y="-426.5" font-family="Helvetica,sans-Serif" font-size="10.00">GetHit_Implementation()</text>
<text text-anchor="start" x="194.75" y="-410.5" font-family="Helvetica,sans-Serif" font-size="10.00">+</text>
<text text-anchor="start" x="204.75" y="-410.5" font-family="Helvetica,sans-Serif" font-size="10.00">SetOverlappingItem()</text>
<text text-anchor="start" x="194.75" y="-394.5" font-family="Helvetica,sans-Serif" font-size="10.00">+</text>
<text text-anchor="start" x="204.75" y="-394.5" font-family="Helvetica,sans-Serif" font-size="10.00">AddSouls()</text>
<text text-anchor="start" x="194.75" y="-378.5" font-family="Helvetica,sans-Serif" font-size="10.00">+</text>
<text text-anchor="start" x="204.75" y="-378.5" font-family="Helvetica,sans-Serif" font-size="10.00">AddGold()</text>
<text text-anchor="start" x="194.75" y="-362.5" font-family="Helvetica,sans-Serif" font-size="10.00">+</text>
<text text-anchor="start" x="204.75" y="-362.5" font-family="Helvetica,sans-Serif" font-size="10.00">GetCharacterState()</text>
<text text-anchor="start" x="194.75" y="-346.5" font-family="Helvetica,sans-Serif" font-size="10.00">+</text>
<text text-anchor="start" x="204.75" y="-346.5" font-family="Helvetica,sans-Serif" font-size="10.00">GetActionState()</text>
<text text-anchor="start" x="195.12" y="-330.5" font-family="Helvetica,sans-Serif" font-size="10.00">#</text>
<text text-anchor="start" x="204.75" y="-330.5" font-family="Helvetica,sans-Serif" font-size="10.00">BeginPlay()</text>
<text text-anchor="start" x="195.12" y="-314.5" font-family="Helvetica,sans-Serif" font-size="10.00">#</text>
<text text-anchor="start" x="204.75" y="-314.5" font-family="Helvetica,sans-Serif" font-size="10.00">Move()</text>
<text text-anchor="start" x="195.12" y="-298.5" font-family="Helvetica,sans-Serif" font-size="10.00">#</text>
<text text-anchor="start" x="204.75" y="-298.5" font-family="Helvetica,sans-Serif" font-size="10.00">Look()</text>
<text text-anchor="start" x="195.12" y="-282.5" font-family="Helvetica,sans-Serif" font-size="10.00">#</text>
<text text-anchor="start" x="204.75" y="-282.5" font-family="Helvetica,sans-Serif" font-size="10.00">EKeyPressed()</text>
<text text-anchor="start" x="195.12" y="-266.5" font-family="Helvetica,sans-Serif" font-size="10.00">#</text>
<text text-anchor="start" x="204.75" y="-266.5" font-family="Helvetica,sans-Serif" font-size="10.00">Attack()</text>
<text text-anchor="start" x="195.12" y="-250.5" font-family="Helvetica,sans-Serif" font-size="10.00">#</text>
<text text-anchor="start" x="204.75" y="-250.5" font-family="Helvetica,sans-Serif" font-size="10.00">Dodge()</text>
<text text-anchor="start" x="195.12" y="-234.5" font-family="Helvetica,sans-Serif" font-size="10.00">#</text>
<text text-anchor="start" x="204.75" y="-234.5" font-family="Helvetica,sans-Serif" font-size="10.00">EquipWeapon()</text>
<text text-anchor="start" x="195.12" y="-218.5" font-family="Helvetica,sans-Serif" font-size="10.00">#</text>
<text text-anchor="start" x="204.75" y="-218.5" font-family="Helvetica,sans-Serif" font-size="10.00">AttackEnd()</text>
<text text-anchor="start" x="195.12" y="-202.5" font-family="Helvetica,sans-Serif" font-size="10.00">#</text>
<text text-anchor="start" x="204.75" y="-202.5" font-family="Helvetica,sans-Serif" font-size="10.00">DodgeEnd()</text>
<text text-anchor="start" x="195.12" y="-186.5" font-family="Helvetica,sans-Serif" font-size="10.00">#</text>
<text text-anchor="start" x="204.75" y="-186.5" font-family="Helvetica,sans-Serif" font-size="10.00">CanAttack()</text>
<text text-anchor="start" x="204.75" y="-170.5" font-family="Helvetica,sans-Serif" font-size="10.00">and 11 more...</text>
<text text-anchor="start" x="196.25" y="-154.5" font-family="Helvetica,sans-Serif" font-size="10.00">&#45;</text>
<text text-anchor="start" x="204.75" y="-154.5" font-family="Helvetica,sans-Serif" font-size="10.00">IsUnoccupied()</text>
<text text-anchor="start" x="196.25" y="-138.5" font-family="Helvetica,sans-Serif" font-size="10.00">&#45;</text>
<text text-anchor="start" x="204.75" y="-138.5" font-family="Helvetica,sans-Serif" font-size="10.00">InitializeSlashOverlay()</text>
<text text-anchor="start" x="196.25" y="-122.5" font-family="Helvetica,sans-Serif" font-size="10.00">&#45;</text>
<text text-anchor="start" x="204.75" y="-122.5" font-family="Helvetica,sans-Serif" font-size="10.00">SetHUDHealth()</text>
<polygon fill="#666666" stroke="#666666" points="190.75,-598 190.75,-598 340,-598 340,-598 190.75,-598"/>
<polygon fill="#666666" stroke="#666666" points="190.75,-518 190.75,-518 202.75,-518 202.75,-518 190.75,-518"/>
<polygon fill="#666666" stroke="#666666" points="202.75,-518 202.75,-518 340,-518 340,-518 202.75,-518"/>
<polygon fill="none" stroke="#666666" points="190.75,-116 190.75,-616 340,-616 340,-116 190.75,-116"/>
</a>
</g>
</g>
<!-- Node3&#45;&gt;Node1 -->
<g id="edge2_Node000001_Node000003" class="edge">
<title>Node3&#45;&gt;Node1</title>
<g id="a_edge2_Node000001_Node000003"><a xlink:title=" ">
<path fill="none" stroke="#63b8ff" d="M190.83,-139.88C188,-131.81 185.18,-123.83 182.38,-116 178.16,-104.22 173.41,-91.54 168.92,-79.8"/>
<polygon fill="none" stroke="#63b8ff" points="169.01,-80.02 163.12,-75.86 164.7,-68.82 170.59,-72.99 169.01,-80.02"/>
</a>
</g>
<text text-anchor="middle" x="213.26" y="-88.5" font-family="Helvetica,sans-Serif" font-size="10.00" fill="grey"> +SlashCharacter</text>
</g>
<!-- Node4 -->
<g id="Node000004" class="node">
<title>Node4</title>
<g id="a_Node000004"><a xlink:href="class_a_base_character.html" target="_top" xlink:title=" ">
<polygon fill="white" stroke="none" points="150.75,-988 0,-988 0,-680 150.75,-680 150.75,-988"/>
<text text-anchor="start" x="39.38" y="-974.5" font-family="Helvetica,sans-Serif" font-size="10.00">ABaseCharacter</text>
<text text-anchor="start" x="4.38" y="-958.5" font-family="Helvetica,sans-Serif" font-size="10.00">#</text>
<text text-anchor="start" x="14" y="-958.5" font-family="Helvetica,sans-Serif" font-size="10.00">Category</text>
<text text-anchor="start" x="4.38" y="-942.5" font-family="Helvetica,sans-Serif" font-size="10.00">#</text>
<text text-anchor="start" x="14" y="-942.5" font-family="Helvetica,sans-Serif" font-size="10.00">BlueprintReadOnly</text>
<text text-anchor="start" x="4.38" y="-926.5" font-family="Helvetica,sans-Serif" font-size="10.00">#</text>
<text text-anchor="start" x="14" y="-926.5" font-family="Helvetica,sans-Serif" font-size="10.00">meta</text>
<text text-anchor="start" x="4" y="-910.5" font-family="Helvetica,sans-Serif" font-size="10.00">+</text>
<text text-anchor="start" x="14" y="-910.5" font-family="Helvetica,sans-Serif" font-size="10.00">ABaseCharacter()</text>
<text text-anchor="start" x="4" y="-894.5" font-family="Helvetica,sans-Serif" font-size="10.00">+</text>
<text text-anchor="start" x="14" y="-894.5" font-family="Helvetica,sans-Serif" font-size="10.00">Tick()</text>
<text text-anchor="start" x="4.38" y="-878.5" font-family="Helvetica,sans-Serif" font-size="10.00">#</text>
<text text-anchor="start" x="14" y="-878.5" font-family="Helvetica,sans-Serif" font-size="10.00">BeginPlay()</text>
<text text-anchor="start" x="4.38" y="-862.5" font-family="Helvetica,sans-Serif" font-size="10.00">#</text>
<text text-anchor="start" x="14" y="-862.5" font-family="Helvetica,sans-Serif" font-size="10.00">GetHit_Implementation()</text>
<text text-anchor="start" x="4.38" y="-846.5" font-family="Helvetica,sans-Serif" font-size="10.00">#</text>
<text text-anchor="start" x="14" y="-846.5" font-family="Helvetica,sans-Serif" font-size="10.00">Attack()</text>
<text text-anchor="start" x="4.38" y="-830.5" font-family="Helvetica,sans-Serif" font-size="10.00">#</text>
<text text-anchor="start" x="14" y="-830.5" font-family="Helvetica,sans-Serif" font-size="10.00">Die()</text>
<text text-anchor="start" x="4.38" y="-814.5" font-family="Helvetica,sans-Serif" font-size="10.00">#</text>
<text text-anchor="start" x="14" y="-814.5" font-family="Helvetica,sans-Serif" font-size="10.00">DirectionalHitReact()</text>
<text text-anchor="start" x="4.38" y="-798.5" font-family="Helvetica,sans-Serif" font-size="10.00">#</text>
<text text-anchor="start" x="14" y="-798.5" font-family="Helvetica,sans-Serif" font-size="10.00">HandleDamage()</text>
<text text-anchor="start" x="4.38" y="-782.5" font-family="Helvetica,sans-Serif" font-size="10.00">#</text>
<text text-anchor="start" x="14" y="-782.5" font-family="Helvetica,sans-Serif" font-size="10.00">PlayHitSound()</text>
<text text-anchor="start" x="4.38" y="-766.5" font-family="Helvetica,sans-Serif" font-size="10.00">#</text>
<text text-anchor="start" x="14" y="-766.5" font-family="Helvetica,sans-Serif" font-size="10.00">SpawnHitParticles()</text>
<text text-anchor="start" x="4.38" y="-750.5" font-family="Helvetica,sans-Serif" font-size="10.00">#</text>
<text text-anchor="start" x="14" y="-750.5" font-family="Helvetica,sans-Serif" font-size="10.00">DisableCapsule()</text>
<text text-anchor="start" x="4.38" y="-734.5" font-family="Helvetica,sans-Serif" font-size="10.00">#</text>
<text text-anchor="start" x="14" y="-734.5" font-family="Helvetica,sans-Serif" font-size="10.00">CanAttack()</text>
<text text-anchor="start" x="14" y="-718.5" font-family="Helvetica,sans-Serif" font-size="10.00">and 12 more...</text>
<text text-anchor="start" x="5.5" y="-702.5" font-family="Helvetica,sans-Serif" font-size="10.00">&#45;</text>
<text text-anchor="start" x="14" y="-702.5" font-family="Helvetica,sans-Serif" font-size="10.00">PlayMontageSection()</text>
<text text-anchor="start" x="5.5" y="-686.5" font-family="Helvetica,sans-Serif" font-size="10.00">&#45;</text>
<text text-anchor="start" x="14" y="-686.5" font-family="Helvetica,sans-Serif" font-size="10.00">PlayRandomMontageSection()</text>
<polygon fill="#666666" stroke="#666666" points="0,-970 0,-970 150.75,-970 150.75,-970 0,-970"/>
<polygon fill="#666666" stroke="#666666" points="0,-922 0,-922 12,-922 12,-922 0,-922"/>
<polygon fill="#666666" stroke="#666666" points="12,-922 12,-922 150.75,-922 150.75,-922 12,-922"/>
<polygon fill="none" stroke="#666666" points="0,-680 0,-988 150.75,-988 150.75,-680 0,-680"/>
</a>
</g>
</g>
<!-- Node4&#45;&gt;Node3 -->
<g id="edge3_Node000003_Node000004" class="edge">
<title>Node4&#45;&gt;Node3</title>
<g id="a_edge3_Node000003_Node000004"><a xlink:title=" ">
<path fill="none" stroke="#63b8ff" d="M155.58,-673.88C167.21,-649.95 177.04,-628.98 182.38,-616 185.23,-609.05 188.07,-601.95 190.87,-594.77"/>
<polygon fill="none" stroke="#63b8ff" points="152.59,-672.03 151.35,-682.56 158.88,-675.1 152.59,-672.03"/>
</a>
</g>
</g>
<!-- Node5 -->
<g id="Node000005" class="node">
<title>Node5</title>
<g id="a_Node000005"><a xlink:title=" ">
<polygon fill="white" stroke="none" points="65.12,-1093 7.62,-1093 7.62,-1041 65.12,-1041 65.12,-1093"/>
<text text-anchor="start" x="11.62" y="-1079.5" font-family="Helvetica,sans-Serif" font-size="10.00">ACharacter</text>
<text text-anchor="start" x="34.88" y="-1063.5" font-family="Helvetica,sans-Serif" font-size="10.00"> </text>
<text text-anchor="start" x="34.88" y="-1047.5" font-family="Helvetica,sans-Serif" font-size="10.00"> </text>
<polygon fill="#666666" stroke="#666666" points="7.62,-1075 7.62,-1075 65.12,-1075 65.12,-1075 7.62,-1075"/>
<polygon fill="#666666" stroke="#666666" points="7.62,-1059 7.62,-1059 65.12,-1059 65.12,-1059 7.62,-1059"/>
<polygon fill="none" stroke="#666666" points="7.62,-1041 7.62,-1093 65.12,-1093 65.12,-1041 7.62,-1041"/>
</a>
</g>
</g>
<!-- Node5&#45;&gt;Node4 -->
<g id="edge4_Node000004_Node000005" class="edge">
<title>Node5&#45;&gt;Node4</title>
<g id="a_edge4_Node000004_Node000005"><a xlink:title=" ">
<path fill="none" stroke="#63b8ff" d="M42.41,-1030.28C44.48,-1018.02 46.94,-1003.41 49.58,-987.78"/>
<polygon fill="none" stroke="#63b8ff" points="39.01,-1029.34 40.8,-1039.79 45.92,-1030.51 39.01,-1029.34"/>
</a>
</g>
</g>
<!-- Node6 -->
<g id="Node000006" class="node">
<title>Node6</title>
<g id="a_Node000006"><a xlink:href="class_i_hit_interface.html" target="_top" xlink:title=" ">
<polygon fill="white" stroke="none" points="145.38,-1093 83.38,-1093 83.38,-1041 145.38,-1041 145.38,-1093"/>
<text text-anchor="start" x="87.38" y="-1079.5" font-family="Helvetica,sans-Serif" font-size="10.00">IHitInterface</text>
<text text-anchor="start" x="112.88" y="-1063.5" font-family="Helvetica,sans-Serif" font-size="10.00"> </text>
<text text-anchor="start" x="89.75" y="-1047.5" font-family="Helvetica,sans-Serif" font-size="10.00">+</text>
<text text-anchor="start" x="102.12" y="-1047.5" font-family="Helvetica,sans-Serif" font-size="10.00">GetHit()</text>
<polygon fill="#666666" stroke="#666666" points="83.38,-1075 83.38,-1075 145.38,-1075 145.38,-1075 83.38,-1075"/>
<polygon fill="#666666" stroke="#666666" points="83.38,-1059 83.38,-1059 145.38,-1059 145.38,-1059 83.38,-1059"/>
<polygon fill="none" stroke="#666666" points="83.38,-1041 83.38,-1093 145.38,-1093 145.38,-1041 83.38,-1041"/>
</a>
</g>
</g>
<!-- Node6&#45;&gt;Node4 -->
<g id="edge5_Node000004_Node000006" class="edge">
<title>Node6&#45;&gt;Node4</title>
<g id="a_edge5_Node000004_Node000006"><a xlink:title=" ">
<path fill="none" stroke="#63b8ff" d="M108.34,-1030.28C106.27,-1018.02 103.81,-1003.41 101.17,-987.78"/>
<polygon fill="none" stroke="#63b8ff" points="104.83,-1030.51 109.95,-1039.79 111.74,-1029.34 104.83,-1030.51"/>
</a>
</g>
</g>
<!-- Node7 -->
<g id="Node000007" class="node">
<title>Node7</title>
<g id="a_Node000007"><a xlink:href="class_i_pickup_interface.html" target="_top" xlink:title=" ">
<polygon fill="white" stroke="none" points="279.5,-876 169.25,-876 169.25,-792 279.5,-792 279.5,-876"/>
<text text-anchor="start" x="188.75" y="-862.5" font-family="Helvetica,sans-Serif" font-size="10.00">IPickupInterface</text>
<text text-anchor="start" x="222.88" y="-846.5" font-family="Helvetica,sans-Serif" font-size="10.00"> </text>
<text text-anchor="start" x="173.25" y="-830.5" font-family="Helvetica,sans-Serif" font-size="10.00">+</text>
<text text-anchor="start" x="183.25" y="-830.5" font-family="Helvetica,sans-Serif" font-size="10.00">SetOverlappingItem()</text>
<text text-anchor="start" x="173.25" y="-814.5" font-family="Helvetica,sans-Serif" font-size="10.00">+</text>
<text text-anchor="start" x="183.25" y="-814.5" font-family="Helvetica,sans-Serif" font-size="10.00">AddSouls()</text>
<text text-anchor="start" x="173.25" y="-798.5" font-family="Helvetica,sans-Serif" font-size="10.00">+</text>
<text text-anchor="start" x="183.25" y="-798.5" font-family="Helvetica,sans-Serif" font-size="10.00">AddGold()</text>
<polygon fill="#666666" stroke="#666666" points="169.25,-858 169.25,-858 279.5,-858 279.5,-858 169.25,-858"/>
<polygon fill="#666666" stroke="#666666" points="169.25,-842 169.25,-842 279.5,-842 279.5,-842 169.25,-842"/>
<polygon fill="none" stroke="#666666" points="169.25,-792 169.25,-876 279.5,-876 279.5,-792 169.25,-792"/>
</a>
</g>
</g>
<!-- Node7&#45;&gt;Node3 -->
<g id="edge6_Node000003_Node000007" class="edge">
<title>Node7&#45;&gt;Node3</title>
<g id="a_edge6_Node000003_Node000007"><a xlink:title=" ">
<path fill="none" stroke="#63b8ff" d="M228.98,-780.67C232.61,-739.35 237.98,-678.42 243.47,-615.95"/>
<polygon fill="none" stroke="#63b8ff" points="225.5,-780.28 228.11,-790.55 232.47,-780.89 225.5,-780.28"/>
</a>
</g>
</g>
<!-- Node8 -->
<g id="Node000008" class="node">
<title>Node8</title>
<g id="a_Node000008"><a xlink:href="class_a_item.html" target="_top" xlink:title=" ">
<polygon fill="white" stroke="none" points="415.62,-1004 297.12,-1004 297.12,-664 415.62,-664 415.62,-1004"/>
<text text-anchor="start" x="343.25" y="-990.5" font-family="Helvetica,sans-Serif" font-size="10.00">AItem</text>
<text text-anchor="start" x="301.5" y="-974.5" font-family="Helvetica,sans-Serif" font-size="10.00">#</text>
<text text-anchor="start" x="311.12" y="-974.5" font-family="Helvetica,sans-Serif" font-size="10.00">BlueprintReadWrite</text>
<text text-anchor="start" x="301.5" y="-958.5" font-family="Helvetica,sans-Serif" font-size="10.00">#</text>
<text text-anchor="start" x="311.12" y="-958.5" font-family="Helvetica,sans-Serif" font-size="10.00">Category</text>
<text text-anchor="start" x="301.5" y="-942.5" font-family="Helvetica,sans-Serif" font-size="10.00">#</text>
<text text-anchor="start" x="311.12" y="-942.5" font-family="Helvetica,sans-Serif" font-size="10.00">ItemMesh</text>
<text text-anchor="start" x="301.5" y="-926.5" font-family="Helvetica,sans-Serif" font-size="10.00">#</text>
<text text-anchor="start" x="311.12" y="-926.5" font-family="Helvetica,sans-Serif" font-size="10.00">ItemState</text>
<text text-anchor="start" x="301.5" y="-910.5" font-family="Helvetica,sans-Serif" font-size="10.00">#</text>
<text text-anchor="start" x="311.12" y="-910.5" font-family="Helvetica,sans-Serif" font-size="10.00">Sphere</text>
<text text-anchor="start" x="301.5" y="-894.5" font-family="Helvetica,sans-Serif" font-size="10.00">#</text>
<text text-anchor="start" x="311.12" y="-894.5" font-family="Helvetica,sans-Serif" font-size="10.00">ItemEffect</text>
<text text-anchor="start" x="301.5" y="-878.5" font-family="Helvetica,sans-Serif" font-size="10.00">#</text>
<text text-anchor="start" x="311.12" y="-878.5" font-family="Helvetica,sans-Serif" font-size="10.00">PickupSound</text>
<text text-anchor="start" x="302.62" y="-862.5" font-family="Helvetica,sans-Serif" font-size="10.00">&#45;</text>
<text text-anchor="start" x="311.12" y="-862.5" font-family="Helvetica,sans-Serif" font-size="10.00">BlueprintReadOnly</text>
<text text-anchor="start" x="302.62" y="-846.5" font-family="Helvetica,sans-Serif" font-size="10.00">&#45;</text>
<text text-anchor="start" x="311.12" y="-846.5" font-family="Helvetica,sans-Serif" font-size="10.00">meta</text>
<text text-anchor="start" x="302.62" y="-830.5" font-family="Helvetica,sans-Serif" font-size="10.00">&#45;</text>
<text text-anchor="start" x="311.12" y="-830.5" font-family="Helvetica,sans-Serif" font-size="10.00">PickupEffect</text>
<text text-anchor="start" x="301.12" y="-814.5" font-family="Helvetica,sans-Serif" font-size="10.00">+</text>
<text text-anchor="start" x="311.12" y="-814.5" font-family="Helvetica,sans-Serif" font-size="10.00">AItem()</text>
<text text-anchor="start" x="301.12" y="-798.5" font-family="Helvetica,sans-Serif" font-size="10.00">+</text>
<text text-anchor="start" x="311.12" y="-798.5" font-family="Helvetica,sans-Serif" font-size="10.00">Tick()</text>
<text text-anchor="start" x="301.5" y="-782.5" font-family="Helvetica,sans-Serif" font-size="10.00">#</text>
<text text-anchor="start" x="311.12" y="-782.5" font-family="Helvetica,sans-Serif" font-size="10.00">BeginPlay()</text>
<text text-anchor="start" x="301.5" y="-766.5" font-family="Helvetica,sans-Serif" font-size="10.00">#</text>
<text text-anchor="start" x="311.12" y="-766.5" font-family="Helvetica,sans-Serif" font-size="10.00">TransformedSin()</text>
<text text-anchor="start" x="301.5" y="-750.5" font-family="Helvetica,sans-Serif" font-size="10.00">#</text>
<text text-anchor="start" x="311.12" y="-750.5" font-family="Helvetica,sans-Serif" font-size="10.00">TransformedCos()</text>
<text text-anchor="start" x="301.5" y="-734.5" font-family="Helvetica,sans-Serif" font-size="10.00">#</text>
<text text-anchor="start" x="311.12" y="-734.5" font-family="Helvetica,sans-Serif" font-size="10.00">Avg()</text>
<text text-anchor="start" x="301.5" y="-718.5" font-family="Helvetica,sans-Serif" font-size="10.00">#</text>
<text text-anchor="start" x="311.12" y="-718.5" font-family="Helvetica,sans-Serif" font-size="10.00">OnSphereOverlap()</text>
<text text-anchor="start" x="301.5" y="-702.5" font-family="Helvetica,sans-Serif" font-size="10.00">#</text>
<text text-anchor="start" x="311.12" y="-702.5" font-family="Helvetica,sans-Serif" font-size="10.00">OnSphereEndOverlap()</text>
<text text-anchor="start" x="301.5" y="-686.5" font-family="Helvetica,sans-Serif" font-size="10.00">#</text>
<text text-anchor="start" x="311.12" y="-686.5" font-family="Helvetica,sans-Serif" font-size="10.00">SpawnPickupSystem()</text>
<text text-anchor="start" x="301.5" y="-670.5" font-family="Helvetica,sans-Serif" font-size="10.00">#</text>
<text text-anchor="start" x="311.12" y="-670.5" font-family="Helvetica,sans-Serif" font-size="10.00">SpawnPickupSound()</text>
<polygon fill="#666666" stroke="#666666" points="297.12,-986 297.12,-986 415.62,-986 415.62,-986 297.12,-986"/>
<polygon fill="#666666" stroke="#666666" points="297.12,-826 297.12,-826 309.12,-826 309.12,-826 297.12,-826"/>
<polygon fill="#666666" stroke="#666666" points="309.12,-826 309.12,-826 415.62,-826 415.62,-826 309.12,-826"/>
<polygon fill="none" stroke="#666666" points="297.12,-664 297.12,-1004 415.62,-1004 415.62,-664 297.12,-664"/>
</a>
</g>
</g>
<!-- Node8&#45;&gt;Node3 -->
<g id="edge7_Node000003_Node000008" class="edge">
<title>Node8&#45;&gt;Node3</title>
<g id="a_edge7_Node000003_Node000008"><a xlink:title=" ">
<path fill="none" stroke="#63b8ff" d="M323.39,-664.1C321.11,-652.41 318.78,-640.48 316.43,-628.45"/>
<polygon fill="none" stroke="#63b8ff" points="316.45,-628.54 311.37,-623.42 314.15,-616.76 319.22,-621.88 316.45,-628.54"/>
</a>
</g>
<text text-anchor="middle" x="357.65" y="-636.5" font-family="Helvetica,sans-Serif" font-size="10.00" fill="grey"> &#45;OverlappingItem</text>
</g>
<!-- Node9 -->
<g id="Node000009" class="node">
<title>Node9</title>
<g id="a_Node000009"><a xlink:title=" ">
<polygon fill="white" stroke="none" points="375.38,-1093 337.38,-1093 337.38,-1041 375.38,-1041 375.38,-1093"/>
<text text-anchor="start" x="341.38" y="-1079.5" font-family="Helvetica,sans-Serif" font-size="10.00">AActor</text>
<text text-anchor="start" x="354.88" y="-1063.5" font-family="Helvetica,sans-Serif" font-size="10.00"> </text>
<text text-anchor="start" x="354.88" y="-1047.5" font-family="Helvetica,sans-Serif" font-size="10.00"> </text>
<polygon fill="#666666" stroke="#666666" points="337.38,-1075 337.38,-1075 375.38,-1075 375.38,-1075 337.38,-1075"/>
<polygon fill="#666666" stroke="#666666" points="337.38,-1059 337.38,-1059 375.38,-1059 375.38,-1059 337.38,-1059"/>
<polygon fill="none" stroke="#666666" points="337.38,-1041 337.38,-1093 375.38,-1093 375.38,-1041 337.38,-1041"/>
</a>
</g>
</g>
<!-- Node9&#45;&gt;Node8 -->
<g id="edge8_Node000008_Node000009" class="edge">
<title>Node9&#45;&gt;Node8</title>
<g id="a_edge8_Node000008_Node000009"><a xlink:title=" ">
<path fill="none" stroke="#63b8ff" d="M356.38,-1029.99C356.38,-1022.03 356.38,-1013.09 356.38,-1003.54"/>
<polygon fill="none" stroke="#63b8ff" points="352.88,-1029.77 356.38,-1039.77 359.88,-1029.77 352.88,-1029.77"/>
</a>
</g>
</g>
<!-- Node10 -->
<g id="Node000010" class="node">
<title>Node10</title>
<g id="a_Node000010"><a xlink:href="class_u_slash_overlay.html" target="_top" xlink:title=" ">
<polygon fill="white" stroke="none" points="557.25,-908 433.5,-908 433.5,-760 557.25,-760 557.25,-908"/>
<text text-anchor="start" x="462.38" y="-894.5" font-family="Helvetica,sans-Serif" font-size="10.00">USlashOverlay</text>
<text text-anchor="start" x="439" y="-878.5" font-family="Helvetica,sans-Serif" font-size="10.00">&#45;</text>
<text text-anchor="start" x="447.5" y="-878.5" font-family="Helvetica,sans-Serif" font-size="10.00">HealthProgressBar</text>
<text text-anchor="start" x="439" y="-862.5" font-family="Helvetica,sans-Serif" font-size="10.00">&#45;</text>
<text text-anchor="start" x="447.5" y="-862.5" font-family="Helvetica,sans-Serif" font-size="10.00">StaminaProgressBar</text>
<text text-anchor="start" x="439" y="-846.5" font-family="Helvetica,sans-Serif" font-size="10.00">&#45;</text>
<text text-anchor="start" x="447.5" y="-846.5" font-family="Helvetica,sans-Serif" font-size="10.00">GoldText</text>
<text text-anchor="start" x="439" y="-830.5" font-family="Helvetica,sans-Serif" font-size="10.00">&#45;</text>
<text text-anchor="start" x="447.5" y="-830.5" font-family="Helvetica,sans-Serif" font-size="10.00">SoulsText</text>
<text text-anchor="start" x="437.5" y="-814.5" font-family="Helvetica,sans-Serif" font-size="10.00">+</text>
<text text-anchor="start" x="447.5" y="-814.5" font-family="Helvetica,sans-Serif" font-size="10.00">SetHealthBarPercent()</text>
<text text-anchor="start" x="437.5" y="-798.5" font-family="Helvetica,sans-Serif" font-size="10.00">+</text>
<text text-anchor="start" x="447.5" y="-798.5" font-family="Helvetica,sans-Serif" font-size="10.00">SetStaminaBarPercent()</text>
<text text-anchor="start" x="437.5" y="-782.5" font-family="Helvetica,sans-Serif" font-size="10.00">+</text>
<text text-anchor="start" x="447.5" y="-782.5" font-family="Helvetica,sans-Serif" font-size="10.00">SetGold()</text>
<text text-anchor="start" x="437.5" y="-766.5" font-family="Helvetica,sans-Serif" font-size="10.00">+</text>
<text text-anchor="start" x="447.5" y="-766.5" font-family="Helvetica,sans-Serif" font-size="10.00">SetSouls()</text>
<polygon fill="#666666" stroke="#666666" points="433.5,-890 433.5,-890 557.25,-890 557.25,-890 433.5,-890"/>
<polygon fill="#666666" stroke="#666666" points="433.5,-826 433.5,-826 445.5,-826 445.5,-826 433.5,-826"/>
<polygon fill="#666666" stroke="#666666" points="445.5,-826 445.5,-826 557.25,-826 557.25,-826 445.5,-826"/>
<polygon fill="none" stroke="#666666" points="433.5,-760 433.5,-908 557.25,-908 557.25,-760 433.5,-760"/>
</a>
</g>
</g>
<!-- Node10&#45;&gt;Node3 -->
<g id="edge9_Node000003_Node000010" class="edge">
<title>Node10&#45;&gt;Node3</title>
<g id="a_edge9_Node000003_Node000010"><a xlink:title=" ">
<path fill="none" stroke="#63b8ff" d="M466.62,-760.38C454.24,-730.28 439.23,-695.17 424.38,-664 400.33,-613.53 372.07,-559.34 346.1,-511.25"/>
<polygon fill="none" stroke="#63b8ff" points="346.05,-511.15 339.67,-507.78 340.33,-500.6 346.71,-503.97 346.05,-511.15"/>
</a>
</g>
<text text-anchor="middle" x="444.73" y="-636.5" font-family="Helvetica,sans-Serif" font-size="10.00" fill="grey"> &#45;SlashOverlay</text>
</g>
<!-- Node11 -->
<g id="Node000011" class="node">
<title>Node11</title>
<g id="a_Node000011"><a xlink:title=" ">
<polygon fill="white" stroke="none" points="529,-1093 461.75,-1093 461.75,-1041 529,-1041 529,-1093"/>
<text text-anchor="start" x="465.75" y="-1079.5" font-family="Helvetica,sans-Serif" font-size="10.00">UUserWidget</text>
<text text-anchor="start" x="493.88" y="-1063.5" font-family="Helvetica,sans-Serif" font-size="10.00"> </text>
<text text-anchor="start" x="493.88" y="-1047.5" font-family="Helvetica,sans-Serif" font-size="10.00"> </text>
<polygon fill="#666666" stroke="#666666" points="461.75,-1075 461.75,-1075 529,-1075 529,-1075 461.75,-1075"/>
<polygon fill="#666666" stroke="#666666" points="461.75,-1059 461.75,-1059 529,-1059 529,-1059 461.75,-1059"/>
<polygon fill="none" stroke="#666666" points="461.75,-1041 461.75,-1093 529,-1093 529,-1041 461.75,-1041"/>
</a>
</g>
</g>
<!-- Node11&#45;&gt;Node10 -->
<g id="edge10_Node000010_Node000011" class="edge">
<title>Node11&#45;&gt;Node10</title>
<g id="a_edge10_Node000010_Node000011"><a xlink:title=" ">
<path fill="none" stroke="#63b8ff" d="M495.38,-1030.08C495.38,-997.53 495.38,-948.59 495.38,-907.87"/>
<polygon fill="none" stroke="#63b8ff" points="491.88,-1029.77 495.38,-1039.77 498.88,-1029.77 491.88,-1029.77"/>
</a>
</g>
</g>
</g>
</svg>
