<?xml version="1.0" encoding="UTF-8" standalone="no"?>
<!DOCTYPE svg PUBLIC "-//W3C//DTD SVG 1.1//EN"
 "http://www.w3.org/Graphics/SVG/1.1/DTD/svg11.dtd">
<!-- Generated by graphviz version 12.2.1 (20241206.2353)
 -->
<!-- Title: USlashOverlay Pages: 1 -->
<svg width="132pt" height="244pt"
 viewBox="0.00 0.00 131.75 244.00" xmlns="http://www.w3.org/2000/svg" xmlns:xlink="http://www.w3.org/1999/xlink">
<g id="graph0" class="graph" transform="scale(1 1) rotate(0) translate(4 240)">
<title>USlashOverlay</title>
<!-- Node1 -->
<g id="Node000001" class="node">
<title>Node1</title>
<g id="a_Node000001"><a xlink:title=" ">
<polygon fill="#999999" stroke="none" points="123.75,-148 0,-148 0,0 123.75,0 123.75,-148"/>
<text text-anchor="start" x="28.88" y="-134.5" font-family="Helvetica,sans-Serif" font-size="10.00">USlashOverlay</text>
<text text-anchor="start" x="5.5" y="-118.5" font-family="Helvetica,sans-Serif" font-size="10.00">&#45;</text>
<text text-anchor="start" x="14" y="-118.5" font-family="Helvetica,sans-Serif" font-size="10.00">HealthProgressBar</text>
<text text-anchor="start" x="5.5" y="-102.5" font-family="Helvetica,sans-Serif" font-size="10.00">&#45;</text>
<text text-anchor="start" x="14" y="-102.5" font-family="Helvetica,sans-Serif" font-size="10.00">StaminaProgressBar</text>
<text text-anchor="start" x="5.5" y="-86.5" font-family="Helvetica,sans-Serif" font-size="10.00">&#45;</text>
<text text-anchor="start" x="14" y="-86.5" font-family="Helvetica,sans-Serif" font-size="10.00">GoldText</text>
<text text-anchor="start" x="5.5" y="-70.5" font-family="Helvetica,sans-Serif" font-size="10.00">&#45;</text>
<text text-anchor="start" x="14" y="-70.5" font-family="Helvetica,sans-Serif" font-size="10.00">SoulsText</text>
<text text-anchor="start" x="4" y="-54.5" font-family="Helvetica,sans-Serif" font-size="10.00">+</text>
<text text-anchor="start" x="14" y="-54.5" font-family="Helvetica,sans-Serif" font-size="10.00">SetHealthBarPercent()</text>
<text text-anchor="start" x="4" y="-38.5" font-family="Helvetica,sans-Serif" font-size="10.00">+</text>
<text text-anchor="start" x="14" y="-38.5" font-family="Helvetica,sans-Serif" font-size="10.00">SetStaminaBarPercent()</text>
<text text-anchor="start" x="4" y="-22.5" font-family="Helvetica,sans-Serif" font-size="10.00">+</text>
<text text-anchor="start" x="14" y="-22.5" font-family="Helvetica,sans-Serif" font-size="10.00">SetGold()</text>
<text text-anchor="start" x="4" y="-6.5" font-family="Helvetica,sans-Serif" font-size="10.00">+</text>
<text text-anchor="start" x="14" y="-6.5" font-family="Helvetica,sans-Serif" font-size="10.00">SetSouls()</text>
<polygon fill="#666666" stroke="#666666" points="0,-130 0,-130 123.75,-130 123.75,-130 0,-130"/>
<polygon fill="#666666" stroke="#666666" points="0,-66 0,-66 12,-66 12,-66 0,-66"/>
<polygon fill="#666666" stroke="#666666" points="12,-66 12,-66 123.75,-66 123.75,-66 12,-66"/>
<polygon fill="none" stroke="#666666" points="0,0 0,-148 123.75,-148 123.75,0 0,0"/>
</a>
</g>
</g>
<!-- Node2 -->
<g id="Node000002" class="node">
<title>Node2</title>
<g id="a_Node000002"><a xlink:title=" ">
<polygon fill="white" stroke="none" points="95.5,-236 28.25,-236 28.25,-184 95.5,-184 95.5,-236"/>
<text text-anchor="start" x="32.25" y="-222.5" font-family="Helvetica,sans-Serif" font-size="10.00">UUserWidget</text>
<text text-anchor="start" x="60.38" y="-206.5" font-family="Helvetica,sans-Serif" font-size="10.00"> </text>
<text text-anchor="start" x="60.38" y="-190.5" font-family="Helvetica,sans-Serif" font-size="10.00"> </text>
<polygon fill="#666666" stroke="#666666" points="28.25,-218 28.25,-218 95.5,-218 95.5,-218 28.25,-218"/>
<polygon fill="#666666" stroke="#666666" points="28.25,-202 28.25,-202 95.5,-202 95.5,-202 28.25,-202"/>
<polygon fill="none" stroke="#666666" points="28.25,-184 28.25,-236 95.5,-236 95.5,-184 28.25,-184"/>
</a>
</g>
</g>
<!-- Node2&#45;&gt;Node1 -->
<g id="edge1_Node000001_Node000002" class="edge">
<title>Node2&#45;&gt;Node1</title>
<g id="a_edge1_Node000001_Node000002"><a xlink:title=" ">
<path fill="none" stroke="#63b8ff" d="M61.88,-172.61C61.88,-164.87 61.88,-156.44 61.88,-147.88"/>
<polygon fill="none" stroke="#63b8ff" points="58.38,-172.6 61.88,-182.6 65.38,-172.6 58.38,-172.6"/>
</a>
</g>
</g>
</g>
</svg>
