<?xml version="1.0" encoding="UTF-8" standalone="no"?>
<!DOCTYPE svg PUBLIC "-//W3C//DTD SVG 1.1//EN"
 "http://www.w3.org/Graphics/SVG/1.1/DTD/svg11.dtd">
<!-- Generated by graphviz version 12.2.1 (20241206.2353)
 -->
<!-- Title: UPickupInterface Pages: 1 -->
<svg width="92pt" height="148pt"
 viewBox="0.00 0.00 91.75 148.00" xmlns="http://www.w3.org/2000/svg" xmlns:xlink="http://www.w3.org/1999/xlink">
<g id="graph0" class="graph" transform="scale(1 1) rotate(0) translate(4 144)">
<title>UPickupInterface</title>
<!-- Node1 -->
<g id="Node000001" class="node">
<title>Node1</title>
<g id="a_Node000001"><a xlink:title=" ">
<polygon fill="#999999" stroke="none" points="83.75,-52 0,-52 0,0 83.75,0 83.75,-52"/>
<text text-anchor="start" x="4" y="-38.5" font-family="Helvetica,sans-Serif" font-size="10.00">UPickupInterface</text>
<text text-anchor="start" x="40.38" y="-22.5" font-family="Helvetica,sans-Serif" font-size="10.00"> </text>
<text text-anchor="start" x="40.38" y="-6.5" font-family="Helvetica,sans-Serif" font-size="10.00"> </text>
<polygon fill="#666666" stroke="#666666" points="0,-34 0,-34 83.75,-34 83.75,-34 0,-34"/>
<polygon fill="#666666" stroke="#666666" points="0,-18 0,-18 83.75,-18 83.75,-18 0,-18"/>
<polygon fill="none" stroke="#666666" points="0,0 0,-52 83.75,-52 83.75,0 0,0"/>
</a>
</g>
</g>
<!-- Node2 -->
<g id="Node000002" class="node">
<title>Node2</title>
<g id="a_Node000002"><a xlink:title=" ">
<polygon fill="white" stroke="none" points="68.75,-140 15,-140 15,-88 68.75,-88 68.75,-140"/>
<text text-anchor="start" x="19" y="-126.5" font-family="Helvetica,sans-Serif" font-size="10.00">UInterface</text>
<text text-anchor="start" x="40.38" y="-110.5" font-family="Helvetica,sans-Serif" font-size="10.00"> </text>
<text text-anchor="start" x="40.38" y="-94.5" font-family="Helvetica,sans-Serif" font-size="10.00"> </text>
<polygon fill="#666666" stroke="#666666" points="15,-122 15,-122 68.75,-122 68.75,-122 15,-122"/>
<polygon fill="#666666" stroke="#666666" points="15,-106 15,-106 68.75,-106 68.75,-106 15,-106"/>
<polygon fill="none" stroke="#666666" points="15,-88 15,-140 68.75,-140 68.75,-88 15,-88"/>
</a>
</g>
</g>
<!-- Node2&#45;&gt;Node1 -->
<g id="edge1_Node000001_Node000002" class="edge">
<title>Node2&#45;&gt;Node1</title>
<g id="a_edge1_Node000001_Node000002"><a xlink:title=" ">
<path fill="none" stroke="#63b8ff" d="M41.88,-76.66C41.88,-68.29 41.88,-59.57 41.88,-51.82"/>
<polygon fill="none" stroke="#63b8ff" points="38.38,-76.61 41.88,-86.61 45.38,-76.61 38.38,-76.61"/>
</a>
</g>
</g>
</g>
</svg>
