<?xml version="1.0" encoding="UTF-8" standalone="no"?>
<!DOCTYPE svg PUBLIC "-//W3C//DTD SVG 1.1//EN"
 "http://www.w3.org/Graphics/SVG/1.1/DTD/svg11.dtd">
<!-- Generated by graphviz version 12.2.1 (20241206.2353)
 -->
<!-- Title: Source/Slash/Private Pages: 1 -->
<svg width="673pt" height="144pt"
 viewBox="0.00 0.00 673.00 144.00" xmlns="http://www.w3.org/2000/svg" xmlns:xlink="http://www.w3.org/1999/xlink">
<g id="graph0" class="graph" transform="scale(1 1) rotate(0) translate(4 140)">
<title>Source/Slash/Private</title>
<g id="clust1" class="cluster">
<title>clusterdir_3424ad0daa8ff1f8a86d87d783094a31</title>
<g id="a_clust1"><a xlink:href="dir_3424ad0daa8ff1f8a86d87d783094a31.html" target="_top" xlink:title="Slash">
<polygon fill="#edf0f7" stroke="#7f7f7f" stroke-dasharray="5,2" points="8,-8 8,-128 657,-128 657,-8 8,-8"/>
<text text-anchor="middle" x="332.5" y="-114.5" font-family="Helvetica,sans-Serif" font-size="10.00">Slash</text>
</a>
</g>
</g>
<g id="clust2" class="cluster">
<title>clusterdir_48c006e136465dd5a2350aad404d4908</title>
<g id="a_clust2"><a xlink:href="dir_48c006e136465dd5a2350aad404d4908.html" target="_top">
<polygon fill="#edf0f7" stroke="#404040" stroke-width="2" points="16,-64 16,-100 649,-100 649,-64 16,-64"/>
</a>
</g>
</g>
<!-- dir_4e3936c02bb92b476a352d917b5827c0 -->
<g id="node1" class="node">
<title>dir_4e3936c02bb92b476a352d917b5827c0</title>
<g id="a_node1"><a xlink:href="dir_4e3936c02bb92b476a352d917b5827c0.html" target="_top" xlink:title="Public">
<polygon fill="#a2b4d6" stroke="red" points="412.5,-36 369.5,-36 369.5,-16 412.5,-16 412.5,-36"/>
<text text-anchor="middle" x="391" y="-22.5" font-family="Helvetica,sans-Serif" font-size="10.00">Public</text>
</a>
</g>
</g>
<!-- dir_48c006e136465dd5a2350aad404d4908 -->
<g id="node2" class="node">
<title>dir_48c006e136465dd5a2350aad404d4908</title>
<text text-anchor="middle" x="47" y="-78.5" font-family="Helvetica,sans-Serif" font-size="10.00">Private</text>
</g>
<!-- dir_67537ca3aaa8edf0f1dac580516d6440 -->
<g id="node3" class="node">
<title>dir_67537ca3aaa8edf0f1dac580516d6440</title>
<g id="a_node3"><a xlink:href="dir_67537ca3aaa8edf0f1dac580516d6440.html" target="_top" xlink:title="Breakable">
<polygon fill="#a2b4d6" stroke="#404040" points="147.75,-92 88.25,-92 88.25,-72 147.75,-72 147.75,-92"/>
<text text-anchor="middle" x="118" y="-78.5" font-family="Helvetica,sans-Serif" font-size="10.00">Breakable</text>
</a>
</g>
</g>
<!-- dir_67537ca3aaa8edf0f1dac580516d6440&#45;&gt;dir_4e3936c02bb92b476a352d917b5827c0 -->
<g id="edge1" class="edge">
<title>dir_67537ca3aaa8edf0f1dac580516d6440&#45;&gt;dir_4e3936c02bb92b476a352d917b5827c0</title>
<g id="a_edge1"><a xlink:href="dir_000000_000017.html" target="_top">
<path fill="none" stroke="#63b8ff" d="M137.08,-71.53C143.31,-68.75 150.34,-65.95 157,-64 226.95,-43.59 312.16,-33.71 358,-29.56"/>
<polygon fill="#63b8ff" stroke="#63b8ff" points="358.14,-33.06 367.8,-28.71 357.53,-26.08 358.14,-33.06"/>
</a>
</g>
<g id="a_edge1&#45;headlabel"><a xlink:href="dir_000000_000017.html" target="_top" xlink:title="2">
<text text-anchor="middle" x="356.31" y="-32.57" font-family="Helvetica,sans-Serif" font-size="10.00" fill="#63b8ff">2</text>
</a>
</g>
</g>
<!-- dir_9c822e71e87030a082bcbe554efe43ed -->
<g id="node4" class="node">
<title>dir_9c822e71e87030a082bcbe554efe43ed</title>
<g id="a_node4"><a xlink:href="dir_9c822e71e87030a082bcbe554efe43ed.html" target="_top" xlink:title="Characters">
<polygon fill="#a2b4d6" stroke="#404040" points="230,-92 166,-92 166,-72 230,-72 230,-92"/>
<text text-anchor="middle" x="198" y="-78.5" font-family="Helvetica,sans-Serif" font-size="10.00">Characters</text>
</a>
</g>
</g>
<!-- dir_9c822e71e87030a082bcbe554efe43ed&#45;&gt;dir_4e3936c02bb92b476a352d917b5827c0 -->
<g id="edge2" class="edge">
<title>dir_9c822e71e87030a082bcbe554efe43ed&#45;&gt;dir_4e3936c02bb92b476a352d917b5827c0</title>
<g id="a_edge2"><a xlink:href="dir_000002_000017.html" target="_top">
<path fill="none" stroke="#63b8ff" d="M219.05,-71.54C225.38,-68.9 232.41,-66.15 239,-64 279.29,-50.83 326.94,-39.97 358.01,-33.49"/>
<polygon fill="#63b8ff" stroke="#63b8ff" points="358.48,-36.97 367.57,-31.53 357.08,-30.11 358.48,-36.97"/>
</a>
</g>
<g id="a_edge2&#45;headlabel"><a xlink:href="dir_000002_000017.html" target="_top" xlink:title="12">
<text text-anchor="middle" x="357.01" y="-36.67" font-family="Helvetica,sans-Serif" font-size="10.00" fill="#63b8ff">12</text>
</a>
</g>
</g>
<!-- dir_1f4943e855e5ea67f0440ba79935c105 -->
<g id="node5" class="node">
<title>dir_1f4943e855e5ea67f0440ba79935c105</title>
<g id="a_node5"><a xlink:href="dir_1f4943e855e5ea67f0440ba79935c105.html" target="_top" xlink:title="Components">
<polygon fill="#a2b4d6" stroke="#404040" points="319.75,-92 248.25,-92 248.25,-72 319.75,-72 319.75,-92"/>
<text text-anchor="middle" x="284" y="-78.5" font-family="Helvetica,sans-Serif" font-size="10.00">Components</text>
</a>
</g>
</g>
<!-- dir_1f4943e855e5ea67f0440ba79935c105&#45;&gt;dir_4e3936c02bb92b476a352d917b5827c0 -->
<g id="edge3" class="edge">
<title>dir_1f4943e855e5ea67f0440ba79935c105&#45;&gt;dir_4e3936c02bb92b476a352d917b5827c0</title>
<g id="a_edge3"><a xlink:href="dir_000004_000017.html" target="_top">
<path fill="none" stroke="#63b8ff" d="M302.64,-71.59C319.03,-63.32 343.16,-51.14 362.06,-41.6"/>
<polygon fill="#63b8ff" stroke="#63b8ff" points="363.51,-44.79 370.87,-37.16 360.36,-38.54 363.51,-44.79"/>
</a>
</g>
<g id="a_edge3&#45;headlabel"><a xlink:href="dir_000004_000017.html" target="_top" xlink:title="1">
<text text-anchor="middle" x="362.94" y="-44.76" font-family="Helvetica,sans-Serif" font-size="10.00" fill="#63b8ff">1</text>
</a>
</g>
</g>
<!-- dir_406406e0f036fd256b0cd4573e2a0d94 -->
<g id="node6" class="node">
<title>dir_406406e0f036fd256b0cd4573e2a0d94</title>
<g id="a_node6"><a xlink:href="dir_406406e0f036fd256b0cd4573e2a0d94.html" target="_top" xlink:title="Enemy">
<polygon fill="#a2b4d6" stroke="#404040" points="384.38,-92 337.62,-92 337.62,-72 384.38,-72 384.38,-92"/>
<text text-anchor="middle" x="361" y="-78.5" font-family="Helvetica,sans-Serif" font-size="10.00">Enemy</text>
</a>
</g>
</g>
<!-- dir_406406e0f036fd256b0cd4573e2a0d94&#45;&gt;dir_4e3936c02bb92b476a352d917b5827c0 -->
<g id="edge4" class="edge">
<title>dir_406406e0f036fd256b0cd4573e2a0d94&#45;&gt;dir_4e3936c02bb92b476a352d917b5827c0</title>
<g id="a_edge4"><a xlink:href="dir_000006_000017.html" target="_top">
<path fill="none" stroke="#63b8ff" d="M366.23,-71.59C370.1,-64.63 375.51,-54.89 380.28,-46.29"/>
<polygon fill="#63b8ff" stroke="#63b8ff" points="383.3,-48.06 385.1,-37.62 377.18,-44.66 383.3,-48.06"/>
</a>
</g>
<g id="a_edge4&#45;headlabel"><a xlink:href="dir_000006_000017.html" target="_top" xlink:title="5">
<text text-anchor="middle" x="384.77" y="-47.76" font-family="Helvetica,sans-Serif" font-size="10.00" fill="#63b8ff">5</text>
</a>
</g>
</g>
<!-- dir_7f8f97e9888fdd157cfad9df0816e802 -->
<g id="node7" class="node">
<title>dir_7f8f97e9888fdd157cfad9df0816e802</title>
<g id="a_node7"><a xlink:href="dir_7f8f97e9888fdd157cfad9df0816e802.html" target="_top" xlink:title="HUD">
<polygon fill="#a2b4d6" stroke="#404040" points="441.25,-92 402.75,-92 402.75,-72 441.25,-72 441.25,-92"/>
<text text-anchor="middle" x="422" y="-78.5" font-family="Helvetica,sans-Serif" font-size="10.00">HUD</text>
</a>
</g>
</g>
<!-- dir_7f8f97e9888fdd157cfad9df0816e802&#45;&gt;dir_4e3936c02bb92b476a352d917b5827c0 -->
<g id="edge5" class="edge">
<title>dir_7f8f97e9888fdd157cfad9df0816e802&#45;&gt;dir_4e3936c02bb92b476a352d917b5827c0</title>
<g id="a_edge5"><a xlink:href="dir_000008_000017.html" target="_top">
<path fill="none" stroke="#63b8ff" d="M416.6,-71.59C412.56,-64.55 406.88,-54.67 401.91,-46"/>
<polygon fill="#63b8ff" stroke="#63b8ff" points="405.11,-44.54 397.09,-37.61 399.03,-48.03 405.11,-44.54"/>
</a>
</g>
<g id="a_edge5&#45;headlabel"><a xlink:href="dir_000008_000017.html" target="_top" xlink:title="6">
<text text-anchor="middle" x="408.6" y="-41.43" font-family="Helvetica,sans-Serif" font-size="10.00" fill="#63b8ff">6</text>
</a>
</g>
</g>
<!-- dir_019f9118ec77d5067a69a16b365a4876 -->
<g id="node8" class="node">
<title>dir_019f9118ec77d5067a69a16b365a4876</title>
<g id="a_node8"><a xlink:href="dir_019f9118ec77d5067a69a16b365a4876.html" target="_top" xlink:title="Interfaces">
<polygon fill="#a2b4d6" stroke="#404040" points="518.75,-92 459.25,-92 459.25,-72 518.75,-72 518.75,-92"/>
<text text-anchor="middle" x="489" y="-78.5" font-family="Helvetica,sans-Serif" font-size="10.00">Interfaces</text>
</a>
</g>
</g>
<!-- dir_019f9118ec77d5067a69a16b365a4876&#45;&gt;dir_4e3936c02bb92b476a352d917b5827c0 -->
<g id="edge6" class="edge">
<title>dir_019f9118ec77d5067a69a16b365a4876&#45;&gt;dir_4e3936c02bb92b476a352d917b5827c0</title>
<g id="a_edge6"><a xlink:href="dir_000010_000017.html" target="_top">
<path fill="none" stroke="#63b8ff" d="M471.93,-71.59C457.12,-63.44 435.43,-51.48 418.23,-42"/>
<polygon fill="#63b8ff" stroke="#63b8ff" points="419.98,-38.97 409.53,-37.21 416.6,-45.1 419.98,-38.97"/>
</a>
</g>
<g id="a_edge6&#45;headlabel"><a xlink:href="dir_000010_000017.html" target="_top" xlink:title="2">
<text text-anchor="middle" x="423.17" y="-33.99" font-family="Helvetica,sans-Serif" font-size="10.00" fill="#63b8ff">2</text>
</a>
</g>
</g>
<!-- dir_7e3981dc305d471cdc3a77db2f990acc -->
<g id="node9" class="node">
<title>dir_7e3981dc305d471cdc3a77db2f990acc</title>
<g id="a_node9"><a xlink:href="dir_7e3981dc305d471cdc3a77db2f990acc.html" target="_top" xlink:title="Items">
<polygon fill="#a2b4d6" stroke="#404040" points="577.38,-92 536.62,-92 536.62,-72 577.38,-72 577.38,-92"/>
<text text-anchor="middle" x="557" y="-78.5" font-family="Helvetica,sans-Serif" font-size="10.00">Items</text>
</a>
</g>
</g>
<!-- dir_7e3981dc305d471cdc3a77db2f990acc&#45;&gt;dir_4e3936c02bb92b476a352d917b5827c0 -->
<g id="edge7" class="edge">
<title>dir_7e3981dc305d471cdc3a77db2f990acc&#45;&gt;dir_4e3936c02bb92b476a352d917b5827c0</title>
<g id="a_edge7"><a xlink:href="dir_000012_000017.html" target="_top">
<path fill="none" stroke="#63b8ff" d="M542.64,-71.56C538.09,-68.86 532.95,-66.08 528,-64 493.81,-49.66 452.47,-39.4 424.2,-33.37"/>
<polygon fill="#63b8ff" stroke="#63b8ff" points="424.93,-29.94 414.43,-31.35 423.52,-36.8 424.93,-29.94"/>
</a>
</g>
<g id="a_edge7&#45;headlabel"><a xlink:href="dir_000012_000017.html" target="_top" xlink:title="10">
<text text-anchor="middle" x="427.54" y="-24.08" font-family="Helvetica,sans-Serif" font-size="10.00" fill="#63b8ff">10</text>
</a>
</g>
</g>
<!-- dir_115eddf3d6e69e3a26368ca1101cb725 -->
<g id="node10" class="node">
<title>dir_115eddf3d6e69e3a26368ca1101cb725</title>
<g id="a_node10"><a xlink:href="dir_115eddf3d6e69e3a26368ca1101cb725.html" target="_top" xlink:title="Pawns">
<polygon fill="#a2b4d6" stroke="#404040" points="641,-92 595,-92 595,-72 641,-72 641,-92"/>
<text text-anchor="middle" x="618" y="-78.5" font-family="Helvetica,sans-Serif" font-size="10.00">Pawns</text>
</a>
</g>
</g>
<!-- dir_115eddf3d6e69e3a26368ca1101cb725&#45;&gt;dir_4e3936c02bb92b476a352d917b5827c0 -->
<g id="edge8" class="edge">
<title>dir_115eddf3d6e69e3a26368ca1101cb725&#45;&gt;dir_4e3936c02bb92b476a352d917b5827c0</title>
<g id="a_edge8"><a xlink:href="dir_000014_000017.html" target="_top">
<path fill="none" stroke="#63b8ff" d="M602.48,-71.55C597.38,-68.77 591.58,-65.96 586,-64 531.05,-44.69 463.66,-34.75 424.21,-30.22"/>
<polygon fill="#63b8ff" stroke="#63b8ff" points="424.73,-26.76 414.41,-29.15 423.97,-33.72 424.73,-26.76"/>
</a>
</g>
<g id="a_edge8&#45;headlabel"><a xlink:href="dir_000014_000017.html" target="_top" xlink:title="1">
<text text-anchor="middle" x="427.11" y="-20.66" font-family="Helvetica,sans-Serif" font-size="10.00" fill="#63b8ff">1</text>
</a>
</g>
</g>
</g>
</svg>
