<?xml version="1.0" encoding="UTF-8" standalone="no"?>
<!DOCTYPE svg PUBLIC "-//W3C//DTD SVG 1.1//EN"
 "http://www.w3.org/Graphics/SVG/1.1/DTD/svg11.dtd">
<!-- Generated by graphviz version 12.2.1 (20241206.2353)
 -->
<!-- Title: Graphical Class Hierarchy Pages: 1 -->
<svg width="330pt" height="180pt"
 viewBox="0.00 0.00 329.75 180.00" xmlns="http://www.w3.org/2000/svg" xmlns:xlink="http://www.w3.org/1999/xlink">
<g id="graph0" class="graph" transform="scale(1 1) rotate(0) translate(4 176)">
<title>Graphical Class Hierarchy</title>
<!-- Node0 -->
<g id="Node000000" class="node">
<title>Node0</title>
<g id="a_Node000000"><a xlink:title=" ">
<polygon fill="#e0e0e0" stroke="#999999" points="58,-134 12,-134 12,-114 58,-114 58,-134"/>
<text text-anchor="middle" x="35" y="-120.5" font-family="Helvetica,sans-Serif" font-size="10.00">AActor</text>
</a>
</g>
</g>
<!-- Node1 -->
<g id="Node000001" class="node">
<title>Node1</title>
<g id="a_Node000001"><a xlink:href="class_a_breakable_actor.html" target="_top" xlink:title=" ">
<polygon fill="white" stroke="#666666" points="195.5,-96 106,-96 106,-76 195.5,-76 195.5,-96"/>
<text text-anchor="middle" x="150.75" y="-82.5" font-family="Helvetica,sans-Serif" font-size="10.00">ABreakableActor</text>
</a>
</g>
</g>
<!-- Node0&#45;&gt;Node1 -->
<g id="edge1_Node000000_Node000001" class="edge">
<title>Node0&#45;&gt;Node1</title>
<g id="a_edge1_Node000000_Node000001"><a xlink:title=" ">
<path fill="none" stroke="#63b8ff" d="M69.25,-112.89C84.87,-107.67 103.38,-101.49 118.71,-96.37"/>
<polygon fill="#63b8ff" stroke="#63b8ff" points="68.28,-109.52 59.91,-116.01 70.5,-116.16 68.28,-109.52"/>
</a>
</g>
</g>
<!-- Node8 -->
<g id="Node000008" class="node">
<title>Node8</title>
<g id="a_Node000008"><a xlink:href="class_a_item.html" target="_top" xlink:title=" ">
<polygon fill="white" stroke="#666666" points="171.88,-134 129.62,-134 129.62,-114 171.88,-114 171.88,-134"/>
<text text-anchor="middle" x="150.75" y="-120.5" font-family="Helvetica,sans-Serif" font-size="10.00">AItem</text>
</a>
</g>
</g>
<!-- Node0&#45;&gt;Node8 -->
<g id="edge2_Node000000_Node000008" class="edge">
<title>Node0&#45;&gt;Node8</title>
<g id="a_edge2_Node000000_Node000008"><a xlink:title=" ">
<path fill="none" stroke="#63b8ff" d="M69.84,-124C89.15,-124 112.72,-124 129.24,-124"/>
<polygon fill="#63b8ff" stroke="#63b8ff" points="69.99,-120.5 59.99,-124 69.99,-127.5 69.99,-120.5"/>
</a>
</g>
</g>
<!-- Node9 -->
<g id="Node000009" class="node">
<title>Node9</title>
<g id="a_Node000009"><a xlink:href="class_a_soul.html" target="_top" xlink:title=" ">
<polygon fill="white" stroke="#666666" points="297.75,-172 255.5,-172 255.5,-152 297.75,-152 297.75,-172"/>
<text text-anchor="middle" x="276.62" y="-158.5" font-family="Helvetica,sans-Serif" font-size="10.00">ASoul</text>
</a>
</g>
</g>
<!-- Node8&#45;&gt;Node9 -->
<g id="edge3_Node000008_Node000009" class="edge">
<title>Node8&#45;&gt;Node9</title>
<g id="a_edge3_Node000008_Node000009"><a xlink:title=" ">
<path fill="none" stroke="#63b8ff" d="M182.95,-133.57C205.56,-140.51 235.49,-149.69 255.14,-155.72"/>
<polygon fill="#63b8ff" stroke="#63b8ff" points="184.24,-130.31 173.65,-130.72 182.19,-137 184.24,-130.31"/>
</a>
</g>
</g>
<!-- Node10 -->
<g id="Node000010" class="node">
<title>Node10</title>
<g id="a_Node000010"><a xlink:href="class_a_treasure.html" target="_top" xlink:title=" ">
<polygon fill="white" stroke="#666666" points="306.75,-134 246.5,-134 246.5,-114 306.75,-114 306.75,-134"/>
<text text-anchor="middle" x="276.62" y="-120.5" font-family="Helvetica,sans-Serif" font-size="10.00">ATreasure</text>
</a>
</g>
</g>
<!-- Node8&#45;&gt;Node10 -->
<g id="edge4_Node000008_Node000010" class="edge">
<title>Node8&#45;&gt;Node10</title>
<g id="a_edge4_Node000008_Node000010"><a xlink:title=" ">
<path fill="none" stroke="#63b8ff" d="M183.49,-124C202.86,-124 227.43,-124 246.33,-124"/>
<polygon fill="#63b8ff" stroke="#63b8ff" points="183.72,-120.5 173.72,-124 183.72,-127.5 183.72,-120.5"/>
</a>
</g>
</g>
<!-- Node11 -->
<g id="Node000011" class="node">
<title>Node11</title>
<g id="a_Node000011"><a xlink:href="class_a_weapon.html" target="_top" xlink:title=" ">
<polygon fill="white" stroke="#666666" points="305.25,-96 248,-96 248,-76 305.25,-76 305.25,-96"/>
<text text-anchor="middle" x="276.62" y="-82.5" font-family="Helvetica,sans-Serif" font-size="10.00">AWeapon</text>
</a>
</g>
</g>
<!-- Node8&#45;&gt;Node11 -->
<g id="edge5_Node000008_Node000011" class="edge">
<title>Node8&#45;&gt;Node11</title>
<g id="a_edge5_Node000008_Node000011"><a xlink:title=" ">
<path fill="none" stroke="#63b8ff" d="M183.18,-114.36C203.07,-108.26 228.55,-100.44 247.72,-94.56"/>
<polygon fill="#63b8ff" stroke="#63b8ff" points="182.19,-111 173.65,-117.28 184.24,-117.69 182.19,-111"/>
</a>
</g>
</g>
<!-- Node7 -->
<g id="Node000007" class="node">
<title>Node7</title>
<g id="a_Node000007"><a xlink:title=" ">
<polygon fill="#e0e0e0" stroke="#999999" points="67.75,-58 2.25,-58 2.25,-38 67.75,-38 67.75,-58"/>
<text text-anchor="middle" x="35" y="-44.5" font-family="Helvetica,sans-Serif" font-size="10.00">ACharacter</text>
</a>
</g>
</g>
<!-- Node3 -->
<g id="Node000003" class="node">
<title>Node3</title>
<g id="a_Node000003"><a xlink:href="class_a_base_character.html" target="_top" xlink:title=" ">
<polygon fill="white" stroke="#666666" points="194.75,-58 106.75,-58 106.75,-38 194.75,-38 194.75,-58"/>
<text text-anchor="middle" x="150.75" y="-44.5" font-family="Helvetica,sans-Serif" font-size="10.00">ABaseCharacter</text>
</a>
</g>
</g>
<!-- Node7&#45;&gt;Node3 -->
<g id="edge6_Node000007_Node000003" class="edge">
<title>Node7&#45;&gt;Node3</title>
<g id="a_edge6_Node000007_Node000003"><a xlink:title=" ">
<path fill="none" stroke="#63b8ff" d="M79.35,-48C88.26,-48 97.64,-48 106.54,-48"/>
<polygon fill="#63b8ff" stroke="#63b8ff" points="79.5,-44.5 69.5,-48 79.5,-51.5 79.5,-44.5"/>
</a>
</g>
</g>
<!-- Node4 -->
<g id="Node000004" class="node">
<title>Node4</title>
<g id="a_Node000004"><a xlink:href="class_a_enemy.html" target="_top" xlink:title=" ">
<polygon fill="white" stroke="#666666" points="303.38,-58 249.88,-58 249.88,-38 303.38,-38 303.38,-58"/>
<text text-anchor="middle" x="276.62" y="-44.5" font-family="Helvetica,sans-Serif" font-size="10.00">AEnemy</text>
</a>
</g>
</g>
<!-- Node3&#45;&gt;Node4 -->
<g id="edge7_Node000003_Node000004" class="edge">
<title>Node3&#45;&gt;Node4</title>
<g id="a_edge7_Node000003_Node000004"><a xlink:title=" ">
<path fill="none" stroke="#63b8ff" d="M206.36,-48C221.34,-48 236.91,-48 249.48,-48"/>
<polygon fill="#63b8ff" stroke="#63b8ff" points="206.59,-44.5 196.59,-48 206.59,-51.5 206.59,-44.5"/>
</a>
</g>
</g>
<!-- Node5 -->
<g id="Node000005" class="node">
<title>Node5</title>
<g id="a_Node000005"><a xlink:href="class_a_slash_character.html" target="_top" xlink:title=" ">
<polygon fill="white" stroke="#666666" points="321.75,-20 231.5,-20 231.5,0 321.75,0 321.75,-20"/>
<text text-anchor="middle" x="276.62" y="-6.5" font-family="Helvetica,sans-Serif" font-size="10.00">ASlashCharacter</text>
</a>
</g>
</g>
<!-- Node3&#45;&gt;Node5 -->
<g id="edge8_Node000003_Node000005" class="edge">
<title>Node3&#45;&gt;Node5</title>
<g id="a_edge8_Node000003_Node000005"><a xlink:title=" ">
<path fill="none" stroke="#63b8ff" d="M196.88,-34.16C211.63,-29.63 227.76,-24.68 241.56,-20.45"/>
<polygon fill="#63b8ff" stroke="#63b8ff" points="195.91,-30.79 187.37,-37.07 197.96,-37.49 195.91,-30.79"/>
</a>
</g>
</g>
<!-- Node2 -->
<g id="Node000002" class="node">
<title>Node2</title>
<g id="a_Node000002"><a xlink:href="class_i_hit_interface.html" target="_top" xlink:title=" ">
<polygon fill="white" stroke="#666666" points="70,-96 0,-96 0,-76 70,-76 70,-96"/>
<text text-anchor="middle" x="35" y="-82.5" font-family="Helvetica,sans-Serif" font-size="10.00">IHitInterface</text>
</a>
</g>
</g>
<!-- Node2&#45;&gt;Node1 -->
<g id="edge10_Node000002_Node000001" class="edge">
<title>Node2&#45;&gt;Node1</title>
<g id="a_edge10_Node000002_Node000001"><a xlink:title=" ">
<path fill="none" stroke="#63b8ff" d="M81.74,-86C89.66,-86 97.87,-86 105.74,-86"/>
<polygon fill="#63b8ff" stroke="#63b8ff" points="81.95,-82.5 71.95,-86 81.95,-89.5 81.95,-82.5"/>
</a>
</g>
</g>
<!-- Node2&#45;&gt;Node3 -->
<g id="edge9_Node000002_Node000003" class="edge">
<title>Node2&#45;&gt;Node3</title>
<g id="a_edge9_Node000002_Node000003"><a xlink:title=" ">
<path fill="none" stroke="#63b8ff" d="M78.24,-71.89C91.57,-67.44 106.05,-62.6 118.47,-58.45"/>
<polygon fill="#63b8ff" stroke="#63b8ff" points="77.2,-68.55 68.82,-75.04 79.41,-75.19 77.2,-68.55"/>
</a>
</g>
</g>
<!-- Node6 -->
<g id="Node000006" class="node">
<title>Node6</title>
<g id="a_Node000006"><a xlink:href="class_i_pickup_interface.html" target="_top" xlink:title=" ">
<polygon fill="white" stroke="#666666" points="194.38,-20 107.12,-20 107.12,0 194.38,0 194.38,-20"/>
<text text-anchor="middle" x="150.75" y="-6.5" font-family="Helvetica,sans-Serif" font-size="10.00">IPickupInterface</text>
</a>
</g>
</g>
<!-- Node6&#45;&gt;Node5 -->
<g id="edge11_Node000006_Node000005" class="edge">
<title>Node6&#45;&gt;Node5</title>
<g id="a_edge11_Node000006_Node000005"><a xlink:title=" ">
<path fill="none" stroke="#63b8ff" d="M205.97,-10C214.34,-10 222.91,-10 231.04,-10"/>
<polygon fill="#63b8ff" stroke="#63b8ff" points="206.24,-6.5 196.24,-10 206.24,-13.5 206.24,-6.5"/>
</a>
</g>
</g>
</g>
</svg>
