<?xml version="1.0" encoding="UTF-8" standalone="no"?>
<!DOCTYPE svg PUBLIC "-//W3C//DTD SVG 1.1//EN"
 "http://www.w3.org/Graphics/SVG/1.1/DTD/svg11.dtd">
<!-- Generated by graphviz version 12.2.1 (20241206.2353)
 -->
<!-- Title: Graphical Class Hierarchy Pages: 1 -->
<svg width="201pt" height="66pt"
 viewBox="0.00 0.00 201.25 66.00" xmlns="http://www.w3.org/2000/svg" xmlns:xlink="http://www.w3.org/1999/xlink">
<g id="graph0" class="graph" transform="scale(1 1) rotate(0) translate(4 62)">
<title>Graphical Class Hierarchy</title>
<!-- Node0 -->
<g id="Node000000" class="node">
<title>Node0</title>
<g id="a_Node000000"><a xlink:title=" ">
<polygon fill="#e0e0e0" stroke="#999999" points="75.25,-39 0,-39 0,-19 75.25,-19 75.25,-39"/>
<text text-anchor="middle" x="37.62" y="-25.5" font-family="Helvetica,sans-Serif" font-size="10.00">UUserWidget</text>
</a>
</g>
</g>
<!-- Node1 -->
<g id="Node000001" class="node">
<title>Node1</title>
<g id="a_Node000001"><a xlink:href="class_u_health_bar.html" target="_top" xlink:title=" ">
<polygon fill="white" stroke="#666666" points="185.75,-58 118.75,-58 118.75,-38 185.75,-38 185.75,-58"/>
<text text-anchor="middle" x="152.25" y="-44.5" font-family="Helvetica,sans-Serif" font-size="10.00">UHealthBar</text>
</a>
</g>
</g>
<!-- Node0&#45;&gt;Node1 -->
<g id="edge17_Node000000_Node000001" class="edge">
<title>Node0&#45;&gt;Node1</title>
<g id="a_edge17_Node000000_Node000001"><a xlink:title=" ">
<path fill="none" stroke="#63b8ff" d="M86.85,-37.14C97.52,-38.94 108.58,-40.8 118.47,-42.47"/>
<polygon fill="#63b8ff" stroke="#63b8ff" points="87.44,-33.69 77,-35.47 86.27,-40.59 87.44,-33.69"/>
</a>
</g>
</g>
<!-- Node2 -->
<g id="Node000002" class="node">
<title>Node2</title>
<g id="a_Node000002"><a xlink:href="class_u_slash_overlay.html" target="_top" xlink:title=" ">
<polygon fill="white" stroke="#666666" points="193.25,-20 111.25,-20 111.25,0 193.25,0 193.25,-20"/>
<text text-anchor="middle" x="152.25" y="-6.5" font-family="Helvetica,sans-Serif" font-size="10.00">USlashOverlay</text>
</a>
</g>
</g>
<!-- Node0&#45;&gt;Node2 -->
<g id="edge18_Node000000_Node000002" class="edge">
<title>Node0&#45;&gt;Node2</title>
<g id="a_edge18_Node000000_Node000002"><a xlink:title=" ">
<path fill="none" stroke="#63b8ff" d="M86.65,-20.9C94.69,-19.54 102.96,-18.15 110.79,-16.83"/>
<polygon fill="#63b8ff" stroke="#63b8ff" points="86.27,-17.41 77,-22.53 87.44,-24.31 86.27,-17.41"/>
</a>
</g>
</g>
</g>
</svg>
