<?xml version="1.0" encoding="UTF-8" standalone="no"?>
<!DOCTYPE svg PUBLIC "-//W3C//DTD SVG 1.1//EN"
 "http://www.w3.org/Graphics/SVG/1.1/DTD/svg11.dtd">
<!-- Generated by graphviz version 12.2.1 (20241206.2353)
 -->
<!-- Title: Graphical Class Hierarchy Pages: 1 -->
<svg width="198pt" height="66pt"
 viewBox="0.00 0.00 197.50 66.00" xmlns="http://www.w3.org/2000/svg" xmlns:xlink="http://www.w3.org/1999/xlink">
<g id="graph0" class="graph" transform="scale(1 1) rotate(0) translate(4 62)">
<title>Graphical Class Hierarchy</title>
<!-- Node0 -->
<g id="Node000000" class="node">
<title>Node0</title>
<g id="a_Node000000"><a xlink:title=" ">
<polygon fill="#e0e0e0" stroke="#999999" points="61.75,-39 0,-39 0,-19 61.75,-19 61.75,-39"/>
<text text-anchor="middle" x="30.88" y="-25.5" font-family="Helvetica,sans-Serif" font-size="10.00">UInterface</text>
</a>
</g>
</g>
<!-- Node1 -->
<g id="Node000001" class="node">
<title>Node1</title>
<g id="a_Node000001"><a xlink:href="class_u_hit_interface.html" target="_top" xlink:title=" ">
<polygon fill="white" stroke="#666666" points="180.88,-58 106.38,-58 106.38,-38 180.88,-38 180.88,-58"/>
<text text-anchor="middle" x="143.62" y="-44.5" font-family="Helvetica,sans-Serif" font-size="10.00">UHitInterface</text>
</a>
</g>
</g>
<!-- Node0&#45;&gt;Node1 -->
<g id="edge15_Node000000_Node000001" class="edge">
<title>Node0&#45;&gt;Node1</title>
<g id="a_edge15_Node000000_Node000001"><a xlink:title=" ">
<path fill="none" stroke="#63b8ff" d="M73.42,-36.13C84.15,-37.97 95.63,-39.94 106.09,-41.73"/>
<polygon fill="#63b8ff" stroke="#63b8ff" points="74.08,-32.69 63.63,-34.45 72.89,-39.59 74.08,-32.69"/>
</a>
</g>
</g>
<!-- Node2 -->
<g id="Node000002" class="node">
<title>Node2</title>
<g id="a_Node000002"><a xlink:href="class_u_pickup_interface.html" target="_top" xlink:title=" ">
<polygon fill="white" stroke="#666666" points="189.5,-20 97.75,-20 97.75,0 189.5,0 189.5,-20"/>
<text text-anchor="middle" x="143.62" y="-6.5" font-family="Helvetica,sans-Serif" font-size="10.00">UPickupInterface</text>
</a>
</g>
</g>
<!-- Node0&#45;&gt;Node2 -->
<g id="edge16_Node000000_Node000002" class="edge">
<title>Node0&#45;&gt;Node2</title>
<g id="a_edge16_Node000000_Node000002"><a xlink:title=" ">
<path fill="none" stroke="#63b8ff" d="M73.31,-21.89C81.18,-20.54 89.46,-19.12 97.44,-17.75"/>
<polygon fill="#63b8ff" stroke="#63b8ff" points="72.89,-18.41 63.63,-23.55 74.08,-25.31 72.89,-18.41"/>
</a>
</g>
</g>
</g>
</svg>
